<?xml version="1.0" encoding="utf-8"?>
<!-- Generator: Adobe Illustrator 23.0.2, SVG Export Plug-In . SVG Version: 6.00 Build 0)  -->
<svg version="1.1" id="Layer_1" xmlns="http://www.w3.org/2000/svg" xmlns:xlink="http://www.w3.org/1999/xlink" x="0px" y="0px"
	 viewBox="0 0 288 321.6" style="enable-background:new 0 0 288 321.6;" xml:space="preserve">
<style type="text/css">
	.st0{fill:#0F0E0D;}
	.st1{fill:#E1301D;}
	.st2{fill:#FDFDE8;}
	.st3{fill:#FDD032;}
	.st4{fill:#FDD035;}
	.st5{fill:#DD321B;}
</style>
<title>corn2</title>
<path class="st0" d="M276.1,202.1c0-0.6,0-1.2,0.6-1.5s1.1,0,1.6,0.4c2.7,2.3,6.4,2.9,9.7,1.7v-1.9l-0.3-0.2
	c-0.4,0.1-0.8,0.1-1.2,0.2c-4.6,0.1-9.5-4.5-9.6-9.1c-0.1-4.6,0.6-8.8,0.9-13.2c0.1-0.4,0.1-0.7,0.1-1.1c-0.1-1.3,0.4-2.6,1.4-3.4
	c2.3-2.3,3.1-2.5,6.1-1.3c0.8,0.3,1.5,0.7,2.3,1c0.1-0.9,0.1-1.9,0-2.8c-2.7-1.3-3.6-2.7-3.4-5.7c0.3-6.2,0.4-12.4,1-18.6
	c0.2-2.2,0.6-4.4,0.9-6.6c0-0.9,0.6-1.8,1.4-2.2v-2.7c-1,0.2-2.1,0-3-0.6c-3.3-2.4-6.5-5-9.4-7.8c-0.9-0.9-1.4-2.2-1.4-3.5
	c-0.1-5.3-0.3-10.5-0.4-15.8c-0.1-2.6,0.2-5.2,0.8-7.7c1-4.7,4.6-8.3,9.2-9.4c1.3-0.4,2.6-0.7,4-0.8v-2.7c-2.6,0.7-5.1,1.5-7.6,2.4
	c-5.5,1.9-8.1-0.5-8.3-6c-0.1-3.8,0.2-7.5,0.8-11.2c0.4-3,0.6-6,1.3-9c0.4-1.7,1.4-3.2,2.9-4.2c3.3-2.1,7.1-2.6,11-3.1v-3.6
	c-4,1.3-8,2.2-12.1,2.8c-3.2,0.4-4.5-0.5-5.7-3.4c-0.5-1.2-0.7-2.5-0.5-3.8c0.7-4,1-8.1,1-12.2c0.1-3.2,0.8-4.2,3.9-5.2
	c2.5-0.8,5.1-1.5,7.7-2.3c1.9-0.5,3.8-0.5,5.6,0.2c0.1-1.2,0.1-2.4,0-3.6c-3.2,0.5-6.2,1.8-9.3,2.6c-1.4,0.4-2.8,0.7-4.2,0.9
	c-1.8,0.3-2.3-0.3-1.7-2.1c1.2-3.8,2.3-7.6,3.3-11.5c0.3-1.2,0.5-2.4,0.8-3.6c0.7-3.1,3.2-5.4,6.3-5.9c1.6-0.3,3.3-0.4,4.9-0.3V3.7
	c0-2.2,0-2.3-2.2-2c-1.3,0.2-2.7,0.4-4,0.8c-2.7,0.6-5,2.4-6.3,4.9c-0.5,0.9-1.2,1.8-2,2.5c-0.5,0.5-0.8,0.5-1.1-0.1
	c-0.5-0.8-1-1.5-1.4-2.2c-0.9-2.1-2.8-3.6-5.1-4c-0.3-0.1-0.6-0.2-0.8-0.4l-0.6-0.2c-0.3,0-0.7-0.1-1-0.1h-0.6
	c-1.1,0-2.2,0.1-3.2,0.1H259c-1.5,0.3-3,0.5-4.6,0.7c-1.6,0.5-3.2,0.8-4.9,0.8h-0.1c-0.4,0.7-1,1.2-1.7,1.6c-1.1,0.9-2,1.9-2.8,3.1
	c-0.8-2-2-3.9-3.5-5.5c-1.5-1.5-3.4-2.4-5.5-2.5c-4.2-0.2-8.3-0.5-12.5-0.6c-3.5-0.3-6.9,1.5-8.8,4.5c-0.4,0.8-0.9,1.6-1.4,2.4
	c0-1,0.1-2,0-2.9c-0.2-2.2-1.2-3.3-3.4-3.5c-0.2,0-0.4-0.1-0.5-0.1c-2.2,0-4.3-0.2-6.5-0.6c-0.5,0-0.9,0-1.4,0
	c-0.8-0.1-1.6-0.2-2.3-0.2c-1.1,0.1-2.2,0.1-3.3,0c-0.2,0.1-0.5,0.2-0.8,0.1c-0.6,0-1.3,0-1.9,0.1c-4.6,0.3-6.5,1.6-8.4,5.8
	c-0.3-0.9-0.5-1.7-0.9-2.4c-0.7-1.7-2.2-2.9-4-3.1c-4.4-0.8-8.9-0.9-13.3-0.2c-2.4,0.3-4.5,1.8-5.6,4c-0.2,0.4-0.5,0.8-0.8,1.2
	c-0.5,0.7-0.9,1.6-1.7,1.8c-0.9,0.3-1.1-1-1.6-1.5c-1.3-1.3-2.9-2.2-4.6-2.7l-0.8-0.1c-2-0.2-3.9-0.3-5.9-0.2
	c-0.3,0-1.3,0.2-1.7,0.2c-3,0.9-6.1,1.5-9.2,1.8c-0.1,0.1-0.2,0.2-0.3,0.3c-1.7,0.9-2.7,2.4-3.8,4.4c-0.7-3.9-3.2-5.1-6.5-5.3
	c-3.3-0.1-6.5-0.5-9.8-1.2c-4.3-1-7.4,0.7-9.9,4c-0.4,0.6-0.6,0.8-1.3,0.1c-1.2-1-2.7-1.5-4.2-1.5c-2-0.1-4-0.1-6-0.1h-0.2
	c-2.1,1-4.3,1.8-6.6,2.3C82,9.1,77.7,8.6,73.9,6.8c-0.7-0.2-1.5-0.5-2.2-0.8c0,0,0,0-0.1,0c-0.7,0-1.4-0.1-2.1-0.3c0,0-0.1,0-0.1,0
	c-1.7-0.1-3.4-0.2-5.1-0.3c-4.2-0.3-7.8,0.8-10.1,5.1c-0.3-1.2-1.2-2.2-2.5-2.5c-1-0.3-1.9-0.6-2.9-0.8h-0.2C47.8,7,47,6.9,46.2,6.8
	c-0.5,0.1-1,0-1.6-0.2c-1-0.2-2-0.4-3-0.6c-0.6-0.1-1.2-0.1-1.7-0.1c-1.6-0.1-3,0-4.6,0.1c-1.2,0.4-2.4,0.8-3.7,1.1l-0.1,0
	c-0.6,0.3-1.1,0.6-1.7,1C29,9,27.9,9.7,27,10.6c-0.4,0.4-0.7-0.2-1-0.4c-2.5-1.9-5.3-3.3-8.3-4.2c-3.5-1-7.2-0.7-10.4,1
	C7.3,7,7.2,7.1,7.2,7.1c-1.5,1.3-3.2,2.3-5.1,3c-0.7,0.6-1.4,1.2-2.1,1.7V34c0.7-2.2,2.6-3.2,4.6-4c0.2-0.1,0.4-0.1,0.5-0.2
	c4.4-2.8,8.9-2,13.3-0.2c1.8,0.6,3.4,1.6,4.9,2.8c0.8,0.6,1.3,1.6,1.3,2.7c0.1,4.9,0.2,9.8,0.3,14.6c0,2.6-0.8,3.5-3.4,3.4
	c-1.4,0-2.8-0.1-4.2-0.4c-4-0.8-8.2-0.2-11.9,1.6c-1.2,0.6-2.6,0.5-3.6-0.3c-0.6-0.4-1.2-0.8-1.8-1.3v3.4c0.6,0.5,1,1.3,1,2.1
	c0.2,2.8,0.2,5.7,0,8.5C1,73.8,0.4,80.9,1.1,88C1.4,89.5,1,91,0,92.1v3.6c1.9-0.4,3.8-0.9,5.6-1.7c1-0.3,1.9-0.5,2.9-0.7
	c4.6-0.9,7.8,1.2,10.4,4.7c0.8,1.1,1.3,2.3,1.4,3.6c0.8,7.8,0.7,15.7-0.5,23.4c-0.2,1.6-1.1,3-2.5,3.9c-4,2.8-8.7,4.5-13.5,5
	c-1.2,0.1-2.5,0.3-3.7,0.4v2.4c3.1-0.3,6.1,0.1,9,1.3c0.9,0.4,1.8,0.8,2.7,1.2c1,0.5,1.6,1.4,1.8,2.5c0.4,2.9,0.4,5.9,0.1,8.8
	c-0.2,3-0.2,6,0,9c0,0.8,0.1,1.6,0.1,2.4c-0.1,4-1.9,6.5-5.7,7.7c-2.6,0.7-5.2,1.2-7.9,1.4v2.4c2.3-0.2,4.6-0.1,6.8,0.3
	c1.3,0.1,2.4,1.3,2.3,2.6c0.5,4.3,0.2,8.5,0.4,12.8c0.1,2-1.1,3.7-3,4.4c-2.1,0.8-4.3,1.5-6.5,2v2.2c2.5-0.8,5.1-1.7,7.6-2.4
	c1.5-0.5,1.9-0.2,2.6,1.1c0.5,0.9,0.7,2,0.9,3c0.5,2.8,0.5,5.6,0.2,8.4c-0.5,3.4-2.8,5.5-5.8,6.8c-1.8,0.6-3.6,1-5.5,1.2v3.4
	c4.6-0.3,8.5-2.2,12.3-4.6c0.6-0.5,1.5-0.5,2.1,0c1.9,1.5,4.1,2.5,6.5,2.9c2.2,0.4,3.5,2,4.1,4.1c0.9,3.4,1.2,6.9,0.9,10.5
	c-0.5,8.9-2.1,17.7-3.5,26.5c-0.1,0.5-0.1,0.8-0.9,0.7c-7.3-1.6-14.5-3.3-21.5-6.3v5.8c9.6,4.2,20,6,30.2,8.1
	c8.6,1.7,17.3,2.9,26.1,3.7c7.5,0.7,14.9,1.9,22.3,3.2c5.7,0.8,11.4,1.3,17.2,1.4c11,0.7,22.1,0.6,33.1,0.3
	c8.2-0.2,16.3-1.1,24.4-1.8c6.2-0.5,12.3-1,18.5-1.6c13.4-1.2,26.7-2.9,39.9-5.5c3.8-0.7,7.5-1.3,11.3-1.8c8.7-1.3,17.3-3,25.9-5
	c2-0.5,4-0.7,5.9-1.3c4.5-1.3,9.1-1.9,13.6-3.1c6.2-1.6,12.3-3.2,18.4-5.2c0.4-0.1,0.7-0.4,1.1-0.1V244c-5.8,1.6-11.6,3.1-17.5,4.7
	c-1,0.3-1.3,0-1.6-0.9c-1.3-5.8-2.3-11.7-2.8-17.6c-0.3-2.2-0.3-4.4,0-6.6c0.2-1.5,1-2.9,2.2-3.9c0.7-0.5,1.3-1.1,2-1.7
	c2-1.6,3.1-1.6,5.2-0.1c0.6,0.4,1.2,0.9,1.8,1.4c3.1,2.7,6.8,3.4,10.7,3.1v-3.1c-1.7,0.1-3.4,0-5.1-0.2c-1.6-0.3-3.1-1-4.4-2
	c-0.6-0.5-1.2-1-1.8-1.4c-1.3-0.7-2-2.3-1.5-3.7C275.8,208.8,275.8,205.4,276.1,202.1z M276.3,132.1c2,1.3,3.8,2.9,5.3,4.6
	c1.2,1.3,1.8,3,1.8,4.8c-0.3,7.5-0.8,15.1-1.7,22.6c0,0.2-0.1,0.5-0.1,0.7c-1,4.2-2.9,5.7-7.3,5.6l0,0c-1.4,0-2.7-0.1-4.1,0
	c-1.2,0-2.5-0.3-3.5-1c-0.8-0.5-1.6-1.1-2.4-1.5c-3.2-1.6-4.2-4.3-4.4-7.7c-0.3-2.6-0.3-5.3-0.2-7.9c-0.1-4.4,0.2-8.7,0.9-13
	c0.5-3.1,2-5.3,5.1-6.3c1.7-0.5,3.4-1.2,5.1-1.8C272.6,130.4,274.7,130.8,276.3,132.1z M271.5,99c-0.2,4.4,0,8.7,0.1,12.1
	c0,5.4-0.2,9.8-0.4,14.2c0.1,2.1-1.2,3.9-3.1,4.7c-3.2,1.3-6.3,2.8-9.8,2.9c-0.5,0.1-1,0-1.4-0.2c-2.9-1.9-6-3.5-9.3-4.8
	c-2.8-1.3-3.9-3.3-3.8-6.4c0.2-7.8,0.3-15.6,0.5-23.4c0.1-3.4,1.5-5.1,4.8-6.1c1.6-0.5,3.2-1,4.8-1.5c2.1-0.7,4.3-0.7,6.4,0
	c3,0.8,5.8,2,8.5,3.6C270.6,95,271.6,97,271.5,99z M189.4,170.3L189.4,170.3c-5.4,1.4-11.1,1.2-16.4-0.5c-2.5-0.8-4.3-3.6-4.5-6.9
	c0-1.2,0-2.4,0.2-3.6c0.5-4.7,0.2-9.4,0.5-14c0.2-3,0.4-6,2.1-8.6c1.7-2.7,4.2-3.8,6.7-5.1c0.6-0.2,1.3-0.2,1.9,0
	c2.7,0.6,5.4,1.1,8.2,1.3c1.4,0.1,2.7,0.5,3.9,1.1c2.7,1.2,4.4,3.9,4.4,6.9v2.9c-0.6,6.8-0.8,13.6-1.4,20.5
	C194.5,168.1,193.3,169.3,189.4,170.3z M191.3,191c-0.7,2.4-2.7,4.1-5.1,4.6c-2,0.4-4,0.9-5.9,1.4c-3,0.8-5.7-0.1-8.3-1.3
	c-0.7-0.3-1.4-0.8-2.2-1c-1.8-0.7-3-2.3-3.1-4.2c-0.1-0.6-0.1-1.2-0.1-2.1c0.4-3.1,0.7-6.5,1.1-10c0.2-1.3,1-2.5,2.2-3.2
	c1.9-1.3,4.3-1.9,6.6-1.6c3.8,0.7,7.7,1,11.6,0.8c1.9-0.2,3.6,1.1,4,2.9c0.3,0.9,0.5,1.8,0.6,2.7C192.9,183.7,192.5,187.5,191.3,191
	z M266.1,41.7c-0.1,1.8-0.2,4.5-0.5,7.2c-0.3,3.5-2.1,5.5-5.5,6.1c-4.1,0.7-8.2,1.2-12.3,1.8c-0.7,0.1-1.5-0.2-1.9-0.8
	c-1.2-1.4-2.1-2.9-2.8-4.6c-0.2-0.6-0.3-1.3-0.1-2c0.8-4.6,1.8-9.1,2.2-13.7c0.2-2,1.5-3.8,3.4-4.6c2.8-1.5,5.9-2.5,9.1-2.9
	c3.5-0.6,8.9,4.2,8.5,7.5C266,37.7,266,39.7,266.1,41.7z M245.1,65.9L245.1,65.9c-0.9,5.5-0.7,11.2-0.7,16.8c0,1.3-0.1,2.7-0.3,4
	c-0.4,3.1-3,4.5-5.6,2.9c-4.2-2.6-9-3.9-13.6-5.4c-2.7-0.8-3.1-1.6-3.1-4.5c0.2-4.5,0.7-8.9,1.6-13.3c0.2-1.1,0.3-2.1,0.3-3.2
	c-0.1-3.8,2.6-6,6.1-6.5c2.4-0.4,4.8-0.5,7.3-0.8c1.5-0.1,3.1,0.5,4.2,1.5c0.3,0.3,0.6,0.5,0.9,0.8
	C244.6,59.9,245.8,62.9,245.1,65.9z M233.6,89.4c3.5,1.4,5.4,4.3,6.2,8c0.9,4.6,1.3,9.2,1.2,13.9v3.1c0,3,0.4,6,0.2,9
	c0,2-1.2,3.8-2.9,4.8c-3.4,2-7,3.6-10.6,5.2c-2.2,1-4.3,0.5-6.3-0.6c-2-1.1-3.6-2.3-5.4-3.5c-0.4-0.3-0.6-0.6-0.7-1.1
	c-0.8-3.1-1.2-6.2-1.2-9.4c-0.2-4.8-0.1-9.7-0.2-14.5c0.1-2.2,0.3-4.5,0.7-6.7c0.5-4.2,3.2-6.7,6.9-8.2
	C225.2,87.8,229.7,87.8,233.6,89.4z M216.8,133.7c1.9,1.1,3.8,2.4,5.6,3.7c1.8,1.3,2.8,3.3,2.9,5.4c0.2,3,0.3,6.1,0.4,9.1
	c-0.1,3.5,0.3,7-0.3,10.5c-0.2,1.4-0.9,2.6-2,3.5c-2.8,2.5-6.4,3.8-10.1,3.6c-1.7,0-3.5,0.2-5.2,0.6c-2.1,0.6-4.4,0-6-1.6
	c-2.1-1.9-3.3-4.7-3-7.5c0-1.3-0.1-2.7-0.2-4c-0.1-0.8-0.2-1.7-0.1-2.5c0.6-3.8,0.5-7.6,0.7-11.4c0-4.3,2.8-8,6.9-9.2
	c1.1-0.4,2.2-0.7,3.3-1.1C212,132,214.7,132.3,216.8,133.7z M210.7,123.2L210.7,123.2c-0.1,4.3-6,8.6-10,8.5
	c-4.5-0.1-9.1,0.1-13.6-1.1c-1.9-0.5-3.7-1.4-5.3-2.7c-1.3-1-2.1-2.5-2.1-4.1v-5.4c0.6-7.5,0.7-15,2.2-22.3c0.2-1.4,1-2.7,2.2-3.6
	c1.5-1.3,3.2-2.4,4.9-3.4c1.4-0.7,2.9-0.9,4.4-0.5c4.8,1.3,9.5,3,14.1,5.1c1.7,0.7,2.3,2.3,2.5,4.1c0.2,1.9,0.4,3.7,0.4,5.6
	c0.3,5.7,0.6,11.4,0.5,17.1C210.9,121.4,210.7,122.3,210.7,123.2z M194.6,188.8c0-4.2,0.8-8.3,1.1-12.5l0,0c0.1-1,0.9-1.5,1.8-1.9
	c3-1.4,6.2-2.1,9.5-2h2.5c1.6-0.1,3.2-0.2,4.8-0.1c3.5,0,6.4,2.8,6.5,6.3c0.2,3.7-0.8,7.2-1.3,10.8c-0.6,4.4-3,6.7-7.4,7.3
	c-3.2,0.5-6.5,1.1-9.7,0.2c-3.5-1-5.7-3.3-7.5-6.4C194.7,190,194.6,189.4,194.6,188.8z M220.3,208.8c0.2-3.5,0.6-6.9,1-10.4
	c0.1-1.1,0.5-1.2,1.5-0.8c2.6,1.1,5.1,2.5,7.9,2.6c4.6,0.2,9-0.6,12.8-3.4c0.3-0.2,0.5-0.5,1-0.5c0.1,0.4,0.2,0.8,0.2,1.1
	c0.2,4.4,0,8.8-0.7,13.1c-0.5,2.7-2.3,4-4.5,4.9c-2.2,0.9-4.4,1.6-6.7,2.2c-1.2,0.2-2.5,0.1-3.7-0.3c-2.2-0.4-4.2-1.3-6-2.5
	C221.1,213.6,220,211.2,220.3,208.8L220.3,208.8z M242.8,194.7c-3.3,1.8-6.9,3-10.7,3.4c-1.2,0.1-2.5-0.2-3.6-0.8
	c-1.6-0.7-3.2-1.6-4.9-2.3c-1.3-0.5-2.1-1.8-1.9-3.2c0-2,0.4-4,0.5-6.1c0.2-3.5,0.5-7.1,0.7-10.6c0.1-1.7,0.3-3.4,1.8-4.4
	c2-1.2,4.3-2.6,6.8-1.7c3.8,1.4,7.8,2.5,11.5,4.2c1.7,0.7,2.7,2.4,2.6,4.2c0,1.9,0,3.9,0,5.8v0c0.1,2.6,0,5.1-0.3,7.7
	C245.2,192.6,244.2,194,242.8,194.7z M237.8,168.4L237.8,168.4c-1.8-1.3-4-1.9-5.8-3.2c-1.9-1.3-3.1-3.4-3.1-5.8
	c-0.2-4.3-0.4-8.7-0.6-13c-0.1-1.8-0.4-3.6-0.3-5.5c0-2,1.1-3.8,2.8-4.9c3.4-2.3,6.8-4.5,10.8-5.5c1.8-0.5,3.8-0.3,5.5,0.5
	c1.9,0.8,3.7,1.8,5.5,3c2.8,1.6,4.5,4.6,4.4,7.8v6.7c0.3,4.9,0.2,9.7-0.3,14.6c-0.1,1.6-0.9,3-2.2,3.9c-2.5,2.1-5.6,2.7-8.7,3
	C243,170.1,240.3,170.2,237.8,168.4z M269.2,64.3c0.9,1.3,1.2,2.9,1,4.5c-0.6,4.3-0.9,8.7-1,13c0,1-0.2,2-0.2,3
	c0,1.4-1.1,2.5-2.4,2.7c-3.2,0.8-6.5,1.5-9.7,0c-0.3-0.1-0.7-0.1-1,0l-5.5,1c-1.8,0.3-2.7-0.3-3.2-2.1c-0.3-1.4-0.4-2.9-0.4-4.3
	c0-1.4,0-2.8,0-4.2c0-5,0.4-10,1.2-15c0.2-2.5,2.1-4.5,4.6-4.9c2.7-0.7,5.4-1,8.2-0.8c1,0.1,2,0.4,2.9,1.1
	C265.8,59.9,267.7,62,269.2,64.3z M245,25.5c0.6-3.8,1.1-7.7,1.7-11.5c0.3-2,1.4-3.7,3-4.9c2.7-2.2,6-3.4,9.5-3.5
	c0.8,0,1.6,0,2.4-0.1c3.7-0.4,7.1,2.2,7.5,5.9c0,0.2,0,0.4,0,0.6c0.1,1.6,0.1,3.2,0,4.8c-0.2,3.7-0.5,7.2-0.7,10.8
	c0.1,0.8-0.5,1.4-1.3,1.5c-0.4,0-0.8-0.1-1.1-0.4c-1-0.8-2-1.7-3.1-2.5c-1.7-1.4-3.9-1.8-6-1.2c-3.3,0.9-6.6,1.7-9.9,2.4
	C245.3,27.8,244.7,27.2,245,25.5z M215.1,16.3c-0.1-5.6,3.9-10.5,9.4-11.6c2.8-0.5,5.7-0.8,8.6-1c2.4-0.2,4.8,0.7,6.5,2.5
	c2.5,2.2,3.9,5.4,3.6,8.8c-0.3,3.7-0.8,7.4-1.1,11.1c-0.1,1.1-0.6,1.2-1.4,0.9c-0.5-0.2-0.9-0.4-1.3-0.6c-0.9-0.5-1.9-1.1-2.8-1.6
	c-1.3-0.7-2.8-0.9-4.2-0.4c-0.9,0.3-1.9,0.6-2.9,0.9c-1.7,0.6-3.6,0.6-5.3,0c-3.2-1.2-6.3-1.7-9.7,0.2
	C215.1,22.4,215.3,19.4,215.1,16.3z M212.6,44.9c0.2-3.7,0.7-7.3,1.5-10.9c0.7-3.7,2.9-5.5,6.6-6c2.6-0.4,5.2-0.6,7.9-0.7
	c0.6,0.1,1.1,0.1,1.7,0c4-0.7,6.9,1.2,9.8,3.5c1.4,1.2,2.1,3,2,4.8c0.1,4.5-0.6,9.1-2.1,13.4c-0.4,1.3-1.3,2.3-2.5,2.9
	c-4.4,2.2-9.2,3.8-14.1,4.5c-1.6,0.3-3.3-0.2-4.5-1.3c-1.2-1.2-2.5-2.4-3.8-3.6C213.3,49.8,212.4,47.4,212.6,44.9z M214.2,55.9
	L214.2,55.9c4.1,3.1,7,7,6.3,12.6c-0.2,1.3-0.2,2.6-0.4,3.9c-0.5,3.2-0.4,6.5-0.7,9.7c-0.1,0.7-0.1,1.3-0.3,2
	c-0.2,1.3-1.1,2.5-2.3,3c-1.8,0.8-3.6,1.5-5.4,2.2c-1.8,0.6-3.8,0.6-5.5-0.1c-4.3-1.3-8.6-2.9-12.7-4.6c-1.9-0.6-3.1-2.4-3-4.3v-1.9
	c0.7-6.8,0.6-13.7,1.6-20.5c0.6-3.7,2.2-5.4,6-5.7C203.6,51.7,209.4,52.2,214.2,55.9z M186.3,22.2c0.2-3.1,0.4-6.3,0.6-9.4
	c0.1-1.1,0.3-2.2,0.8-3.2c1.5-3.7,4.4-5.2,8.1-5.3c2.9-0.1,5.8,0,8.7,0.1c3.7,0.1,5.3,1.4,5.7,5.1c0.7,6.5,1.5,13.1,0.7,19.7
	l-0.1,0.4c-1.2-2.2-2.4-4.4-4.5-5.8c-1.6-0.9-3.4-1.5-5.2-1.6c-4.6-0.5-8.5,1.2-12.3,3.4c-1,0.6-1.4,0.3-1.8-0.6
	C186.4,24.2,186.2,23.2,186.3,22.2L186.3,22.2z M186.6,40.7L186.6,40.7c0.8-3.3,1.6-6.7,2.3-10c0.8-3.3,1-3.5,4.2-4.2
	c2-0.4,4.1-0.6,6.2-0.8c1.7-0.2,3.5,0.3,4.9,1.3c3.4,2.3,5.8,5.7,6.8,9.7c0.3,1.6,0.3,3.3-0.2,4.9c-0.4,2.2-0.9,4.3-1.3,6.5
	c-0.3,1.6-0.7,2-2.3,2h-5.5V50c-0.8,0-1.7,0-2.5,0c-3-0.3-6,0.5-8.5,2.3c-0.6,0.5-1,0.4-1.5-0.2C186.1,48.8,185.6,44.9,186.6,40.7z
	 M183.8,43.4L183.8,43.4c-0.3,2.5-1,3.3-3.6,3.6c-2.9,0.4-5.8,1.1-8.8,1.2c-3,0.1-6,1.3-8.8,2.5c-1.5,0.6-2.2,0.3-2.2-1.4
	c-0.1-2.8,0-5.7,0-8.5V33c-0.1-2.3,1.2-4.5,3.4-5.3c5.7-2.4,11.4-3.1,17,0.2c1.9,1,3.1,2.8,3.3,4.9
	C184.4,36.4,184.4,39.9,183.8,43.4z M159.9,23.5c0.7-4.8,1.4-9.6,2.2-14.3c0.3-1.7,1.5-3.2,3.1-3.8c2.2-1.2,4.7-1.9,7.3-1.9
	c4.5-0.2,9.4,4,10,8.3c0.4,3,1,6,1.4,9c0.2,1.3,0,2.6-0.5,3.8c-0.2,0.7-0.8,1.1-1.5,0.9c-0.1,0-0.1,0-0.2-0.1
	c-1.2-0.4-2.4-0.9-3.5-1.5c-2.2-1.2-4.7-1.5-7.1-0.9c-3.2,0.6-6.3,1.6-9.5,2.2C160.2,25.3,159.7,24.9,159.9,23.5z M158.2,80.1
	c0.3-3.7,0.7-7.3,1-11s0.3-7.5,0.8-11.2c0.2-1.5,1-2.8,2.2-3.7c2.1-1.7,4.8-2.2,7.2-3.2c6.2-2.5,11.1-0.2,15.5,4
	c0.7,0.8,1.2,1.8,1.3,2.9c0.9,5,2.1,9.9,1.6,14.2c0,3.2-0.2,6.5-0.5,9.7c-0.3,2.3-1.5,4.4-3.3,5.8c-1.2,0.8-2.4,1.7-3.5,2.6
	c-1,1-2.1,0.6-3.2,0.3c-2.8-0.7-5.4-1.7-8.2-2.4c-2.2-0.5-4.4-1-6.6-1.6C159.1,85.5,157.9,83.7,158.2,80.1z M157.8,90.5
	c5.2-1.3,10.6-0.9,15.5,1.2c2.8,0.9,4.6,3.5,4.6,6.4c0.1,3,0.3,6,0.1,9c-0.2,4.2-0.3,8.4-0.8,12.6c-0.2,1.9-0.5,3.9-1,5.8
	c-1,3.5-3.7,5.2-7,5.6c-4,0.6-8,0.2-11.8-1.3c-4.7-2-7.4-5.7-7.5-10.8c-0.2-6.2-0.8-12.4-0.1-18.6c0.1-0.8,0.2-1.6,0.3-2.4
	C150.8,93.6,153.9,91.5,157.8,90.5z M143.1,198.3c0.3-0.8,0.7-1.1,1.6-0.7c4.9,2.5,10,2.4,15.2,1.3c0.7-0.2,1.3-0.5,1.8-0.9l2.7-2.1
	c0.6,3.8,0.7,7.6,0.3,11.4c-0.2,1.6-1.1,3.1-2.5,4c-2.5,1.9-5.6,2.9-8.7,2.8c-2.5-0.2-5-0.9-7.2-2c-0.9-0.4-1.5-1.2-1.8-2.2
	c-1-3.4-1.6-6.9-1.6-10.5C142.9,199.1,143,198.7,143.1,198.3z M140.9,185c0.2-2.2,0.3-4.5,0.6-6.7c0.5-3.8,4-6.5,7.8-6.2
	c3.1,0.3,6.2,0.4,9.3,0.4c0.9,0,1.8,0.3,2.5,0.9c2.2,1.9,3.9,4,3.7,7.2v1.1c-0.1,3.5-0.6,7-1.6,10.4c-0.5,1.7-1.7,3-3.3,3.5
	c-2,0.8-4.2,1.4-6.3,1.7c-3.3,0.4-6-1-8.5-2.9C142.1,192.3,140.5,188.7,140.9,185z M164.9,162.7L164.9,162.7c-0.4,3.9-3.4,7-7.3,7.5
	c-5.1,0.7-10.4,0.1-15.1-2c-2.9-1.2-3.9-3.9-4.2-6.8c-0.3-3.9-0.3-7.8,0-11.6v-9.7c0-2.5,1.4-4.7,3.6-5.8c2.4-1.3,5.1-2.2,7.8-2.8
	c0.5-0.1,1-0.1,1.5-0.1c3.7,0.5,7.2,1.7,10.3,3.6c2.8,1.8,3.9,4.4,4.2,7.5c0.5,4.4-0.2,8.7-0.2,13
	C165.4,158.1,165.2,160.4,164.9,162.7z M115.1,189c0.1,1,0,2.1-0.2,3.1c-0.3,1.3-1.1,2.5-2.3,3.2c-4.7,3.6-11.1,3.9-16.3,1
	c-1.6-0.8-3.1-1.9-4.3-3.2c-0.9-0.9-1.5-2.1-1.5-3.4c-0.1-1.6,0-3.3,0-4.9c-0.1-1.8-0.1-3.5,0.1-5.3c0.2-1.9,1.3-3.7,3.1-4.5
	c1.5-0.7,3-1.3,4.5-1.8c1.7-0.6,3.4-1.1,5.1-1.7c1.3-0.4,2.6-0.4,3.9,0c1,0.3,1.9,0.5,2.9,0.6c0.5,0.1,1.1,0.3,1.6,0.4
	c3.1,1,4.1,2.4,3.7,5.6C115,181.9,114.8,185.4,115.1,189z M56.7,193.5L56.7,193.5c-3.4,0.6-6.8,1.2-10.2,2.1
	c-0.5,0.1-0.9,0.2-1.4,0.2c-2.7-0.1-6.5-1.6-7.4-5.2c-0.7-2.7-1-5.5-0.9-8.3c0.1-2.2,0.3-4.5,0.4-6.7c0-1.8,1-3.5,2.6-4.5
	c0.6-0.4,1.2-0.7,1.9-1.1c2.7-1.5,5.3-1.5,7.6,0.9c2.3,2.3,5.5,3.5,8.7,3.2c2.9,0,4.2,1.3,4.2,4.2c0,0.7-0.1,1.4-0.3,2.1
	c-0.5,2.8-0.9,5.7-1.2,8.6C60.5,191.7,59.3,193,56.7,193.5z M59.2,207.5L59.2,207.5c0,2.4-1.4,4.6-3.5,5.7
	c-4.1,2.4-8.3,2.3-12.7,0.9c-3.6-1.1-4.9-3.6-5.1-7.1c-0.2-2.5-0.3-4.9-0.1-7.4c0-0.3,0.1-0.6,0.2-1c0.5-1.8,0.8-2,2.4-1.2
	c2.2,1.2,4.8,1.6,7.3,1.1c2.9-0.6,5.9-1.2,8.8-1.8c0.9-0.2,1.7-0.5,2.7-0.8C59.2,199.7,59.3,203.6,59.2,207.5z M58.6,172
	c-2.7-0.7-5.4-1.1-7.9-2.5c-2.5-1.2-4.2-3.6-4.4-6.4c-0.2-2.9-0.5-5.8-0.5-9.6c0.2-3.5,0.5-7.9,1-12.2c0.3-2.4,1.7-3.9,3.9-5.1
	c3.9-2,8.5-2.3,12.6-0.7c2.4,0.8,4.9,1.5,7.3,2.3c2.1,0.6,3.5,2.5,3.6,4.6c0.1,2,0,4.1-0.2,6.1c-0.4,4.9-0.4,9.8-0.1,14.7
	c0.2,1.9-0.9,3.8-2.6,4.6c-2.5,1.4-5,2.6-7.6,3.7C62,172.3,60.3,172.4,58.6,172z M78.2,69.2c-0.4,4.5-0.8,8.9-1.3,13.4
	c-0.6,4.7-1.8,5.9-6.5,6.4c-3.8,0.4-7.6,0.5-11.4,0.8c-0.7,0-1.4,0-2.1-0.2C54.9,89,54.1,88.1,54,86V72.9c0-4.4,0.1-8.6,0.2-13
	c0.1-4.3,2-6,6.1-7c2.2-0.5,4.4-0.8,6.6-1.1c4.3-0.6,7.7,1.3,10.8,3.8c1.1,0.8,1.2,2.2,1.2,3.5C78.9,62.5,78.6,65.9,78.2,69.2z
	 M82.7,97.3c1.4,2,1.6,4.3,1.7,6.6c0.1,2.9-0.1,5.8,0.2,8.6c0.1,2.3,0.1,4.6,0.3,6.8c0.6,5.2-2,8.6-6.3,11c-2.6,1.4-5.4,2.4-8.3,3
	c-2.9,0.6-5.9,0.5-8.8-0.5c-1.4-0.6-2.6-1.7-3.2-3.1c-1.3-2.9-2.1-6-2.3-9.1c-0.4-5.9-1.2-11.8-1.2-17.7c0-1.4,0-2.7,0.2-4.1
	c0.1-1,0.6-1.8,1.4-2.4c3.7-3.1,8.3-4.9,13.1-5C74.9,91.1,79.5,92.7,82.7,97.3z M64.7,180.9L64.7,180.9c0.2-1.4,0.4-2.7,0.8-4
	c0.3-0.9,0.8-1.6,1.5-2.3c2-1.8,4.3-3.2,6.8-4.3c1.5-0.8,3.4-0.7,4.8,0.1c2,1.2,4,2.4,6,3.7c2.2,1.5,2.8,3.8,3,6.3
	c0.1,0.9,0,1.8,0,3c0,1.2-0.2,2.6-0.4,4c-0.2,3-2.2,5.5-5,6.5c-0.6,0.2-1.2,0.5-1.8,0.7c-1.9,0.8-4,0.9-6,0.2
	c-2.4-0.9-4.8-1.8-7.2-2.9c-1.9-0.8-3.1-2.8-3-4.9C64.1,185,64.3,182.9,64.7,180.9z M83.8,170.7L83.8,170.7c-3.2-0.9-4.8-3.7-5.2-7
	c-0.5-4.8-0.6-9.7-0.1-14.5c0.2-2.5,0-5.1,0.3-7.7c0.1-2.6,1.6-5,4-6.1c2.3-1.1,4.8-1.9,7.3-2.4c0.9-0.2,1.9-0.1,2.8,0.2
	c1.8,0.6,3.6,1.3,5.4,1.9c3.6,1.1,5.2,3.7,5.5,7.2c0.3,3.3-0.2,6.6-0.1,9.7c-0.1,4.3,0.1,8.5-0.3,12.7c-0.1,2.6-1.9,4.9-4.5,5.5
	C94,172.1,88.7,172.2,83.8,170.7z M114.6,169c-4.1-1-6.2-2.9-6.5-7.2c-0.4-6.9-1.2-13.7-0.7-20.6c0.1-1,0.2-1.9,0.5-2.8
	c0.6-2.9,2.8-5.2,5.7-5.9c2.5-0.6,5.1-1.1,7.7-1.4c0.5-0.1,1-0.1,1.5,0.1c3.3,0.9,6.4,2.6,8.9,5c1.9,2.1,3,4.9,3.2,7.7
	c0.4,3.6,0.5,7.3,0.1,10.9c0,2.7,0.1,5.3,0,8c-0.1,3.9-2.4,6.4-6.4,7c-1.6,0.2-3.2,0.2-4.8,0.1C120.7,169.9,117.7,169.6,114.6,169z
	 M117.2,188.2L117.2,188.2c0.1-1.5,0.2-3,0.2-4.4h-0.1c0.1-2.1,0.1-4.2,0.3-6.3c0.4-3.9,2.8-6,6.8-5.9c2.7,0.1,5.3,0,8-0.2
	c3.5-0.5,6.7,2,7.1,5.5c0,0.2,0,0.4,0,0.6c0.1,1.8,0,3.6-0.5,5.4c-0.4,1.9-0.7,3.9-0.6,5.9c0.2,3.2-1.7,4.9-4.2,6
	c-1.8,0.7-3.6,1.3-5.5,1.7c-1.4,0.3-2.9,0.2-4.2-0.4c-1.2-0.6-2.6-1.1-3.8-1.7C118,193.2,117,191.1,117.2,188.2z M138.4,87.6
	c-0.9-0.5-1.7-1-2.6-1.4c-1.3-0.7-2.2-2-2.3-3.4c-0.2-1.7-0.2-3.4-0.1-5c0.8-5.8,0.3-12.3,0.8-18.8c0.1-0.8,0.2-1.7,0.3-2.5
	c0.2-2.4,1.9-4.3,4.2-4.8c2-0.6,4-1,6.1-1.2c1.5-0.1,3,0.4,4.2,1.2c1.9,1.2,3.8,2.6,5.4,4.1c1.7,1.5,2.6,3.7,2.4,6
	c-0.5,7-0.9,14.1-1.4,21.2c-0.1,2.8-2,5.3-4.7,6C146.6,90.5,142,90.1,138.4,87.6z M132.3,12.8c0.3-2.3,1.9-3.6,3.7-4.6
	c5.1-2.7,10.4-3.2,15.8-0.8c3.1,1.4,4.4,4.1,5.2,7.2c0.6,2.2,0.7,4.5,0.3,6.8c-0.2,1-0.2,2.1-0.3,3.1c0,1-0.7,1.8-1.7,1.8
	c-0.4,0-0.8-0.1-1.1-0.3c-1.3-0.6-2.6-1.3-3.8-2c-2.5-1.4-5.2-0.9-7.6-0.1c-3,1-5.8,0.5-8.7,0.2c-1.2-0.1-1.7-1.1-1.8-2.2
	c-0.1-1.4-0.2-2.9-0.3-4.3C132,16,132.1,14.4,132.3,12.8z M130.7,46.5c0.3-4.3,0.3-8.7,0.6-13c0-2.9,2.1-5.4,5-5.9
	c2.4-0.6,4.8-1,7.3-1.2c4.5-0.2,8.8,1.6,11.8,4.9c1.4,1.4,2.1,3.3,2,5.2v5.9c0.2,2.1,0.3,4.3,0.2,6.5c-0.1,1.5-0.5,1.9-1.9,2.1
	c-2,0.3-4,0-5.7-1c-1.2-0.7-2.4-1.3-3.5-2c-1.7-1-3.7-1.2-5.5-0.4c-2.4,1-4.6,2.3-6.7,3.7c-0.7,0.5-1,0.4-1.6-0.1
	C131.3,50,130.5,48.2,130.7,46.5z M139.1,92c3.6,0.7,5.6,2.6,6.3,6.3c0.3,1.4,0.4,2.8,0.5,4.3c0.2,5.2,1.3,10.2,1,15.4
	c-0.1,1.6-0.3,3.3-0.4,4.9c-0.2,2.3-1.3,4.5-3.1,6c-0.9,0.9-2.1,1.4-3.4,1.5c-3,0.3-6,1.2-9,0.5c-6-1.4-10.3-4-10.8-11.8
	c-0.5-6.2-0.5-12.5,0.1-18.7c0.2-1.2,0.5-2.3,1-3.3c0.4-1,1.2-1.8,2.2-2.3c1.1-0.5,2.1-1.2,3-2c0.5-0.5,1.2-0.7,1.8-0.8
	C131.9,92,135.5,91.3,139.1,92z M106,10.4c0.4-1.3,1.4-2.4,2.7-2.9c0.4-0.2,0.8-0.4,1.2-0.6c1.1-0.7,2.5-0.8,3.6-0.2
	c2.2,0.9,4.6,1.3,7,1.3c1.8,0,3.6,0.2,5.3,0.8c1.3,0.5,2.3,1.6,2.5,3c0.5,3.8,0.8,7.6,0.9,11.5c0.3,1.7,0.3,3.3,0.1,5
	c-0.1,0.5-0.1,1-0.5,1.2c-6.4-6.9-13.7-7.6-21.8-3.1c-0.2-3.3-0.6-6.6-1.1-9.9C105.4,14.4,105.5,12.4,106,10.4z M105.2,44.3v-2.4
	c0-2.9,0.3-5.7,0.7-8.6c0.4-2.2,1.9-4.1,4.1-4.8c2.4-0.9,4.9-1.4,7.5-1.7c4-0.3,9.9,3.8,10.9,7.6c0.5,1.7,0.2,3.3,0.3,5
	c0.3,2.5,0.2,5-0.3,7.4c-0.2,1.2-1.2,2.1-2.4,2.3c-2.3,0.4-4.7,0.6-7,0.5c-3.3,0.1-6.6,0.4-9.9,0.6c-2.7,0.2-3.8-0.9-3.7-3.6
	C105.1,46,105.1,45.1,105.2,44.3L105.2,44.3z M104.9,75.4L104.9,75.4c0-5,0-9.4,0.4-13.8c0.3-3.5,1.7-5.8,5.1-6.9
	c1.8-0.6,3.5-1.3,5.3-1.9c5.5-1.9,11.5,0.9,13.5,6.4c0.3,0.8,0.5,1.6,0.5,2.4c0.7,5,0,10-0.2,15c-0.1,1-0.2,1.9-0.2,2.9
	c0.1,3.4-1.2,6.6-3.6,9c-0.6,0.7-1.5,1.3-2.4,1.6c-2.8,0.9-5.6,1.8-8.3,2.7c-0.4,0.1-0.9,0.1-1.2-0.1c-2.1-1-4.2-2.1-6.2-3.3
	c-1.4-0.8-2.3-2.3-2.4-3.9C104.7,81.8,105.1,78.3,104.9,75.4z M107.2,93.4L107.2,93.4c1.8,0.7,3.5,1.6,5,2.6c3.1,2,4.5,4.9,4.8,8.4
	c0.3,3,0.4,6,0.3,9c0,2.9,0.4,5.8,0.1,8.8c0,2.7-1.7,5.1-4.3,6.1c-3.9,1.8-8.1,3-12.4,3.4c-4.9,0.3-8.1-2.5-10.5-6.3
	c-1.7-2.8-2.2-6-2.5-9.2c-0.5-5.3-0.5-10.6,0-15.8c0.1-1,0.6-1.9,1.3-2.5c1-1.1,2.3-2,3.7-2.5c2.8-1.2,5.7-2.2,8.7-2.8
	C103.4,92.2,105.4,92.5,107.2,93.4z M83.3,14.9c0.6-3.1,2.1-5.1,5.4-5.7c2.7-0.5,5.4-1.1,8.2-0.7c3.9,0.6,5.5,2,6.3,5.8
	c0.7,4.1,0.7,8.2-0.1,12.3c-0.2,0.9-0.5,0.4-0.9,0.3c-3.3-1.5-6.9-2.4-10.5-2.5c-2.6,0-5.1,0.7-7.2,2.1l-1,0.6
	C82.6,23.1,82.6,19,83.3,14.9z M81.2,35.7L81.2,35.7c0.3-1.3,0.8-2.5,1.7-3.4c1.8-2.4,4.4-4.1,7.3-4.8c4.4-1,7.9,0.9,10.9,4.1
	c0.4,0.5,0.7,1.2,0.7,1.9c0.4,2.4,0.5,4.8,0.3,7.2c0.2,3-0.4,6.3-0.6,9.7c-0.1,1.2-0.7,1.6-1.8,1.6c-2.4-0.1-4.9-0.5-7.2-1.3
	c-1.4-0.4-2.8-0.5-4.2-0.1c-1.8,0.4-3.6,0.6-5.3,0.5c-0.6,0-1-0.2-1.1-0.8C81,45.4,80.4,40.6,81.2,35.7z M81.6,60.5L81.6,60.5
	c0.2-2.6,1.7-5,4-6.2c3.7-2.1,7.2-2.6,11-0.1c1.7,1,3.2,2.4,4.4,4c0.9,1.3,1.4,2.9,1.3,4.5c-0.2,3.6-0.3,7.3-0.2,11.7v10.6
	c0.1,1.6-0.8,3.1-2.3,3.7c-3.2,1.8-6.8,2.8-10.4,2.9c-3.1-0.1-6-1.2-8.4-3.2c-0.7-0.6-1-1.6-0.8-2.6c0.1-3.2,0.3-6.3,0.4-9.5
	C80.8,71.2,81.1,65.9,81.6,60.5z M56.7,14.1c0.4-1.8,1.5-3.3,3.1-4.1c2.3-1.3,5-1.8,7.6-1.2c3.3,0.5,6.6,1,9.4,3.2
	c1.2,0.9,2,2.1,2.3,3.5c0.7,3.1,1.2,6.3,1.3,9.5c0,0.8-0.1,1.5-0.3,2.2c-0.6,1.9-1.9,2.4-3.5,1.2c-4.7-3.8-9.9-4.4-15.5-2.8
	c-1.6,0.6-3,1.5-4.2,2.6c1.1-3.1-0.5-5.9-0.5-8.9C56.4,17.6,56.4,15.9,56.7,14.1z M56.6,33L56.6,33c2.5-1.9,5.1-3.6,7.8-5
	c0.7-0.4,1.6-0.5,2.4-0.2c2.2,0.6,4.3,1.4,6.4,2.3c3.1,1.3,5.2,4.2,5.3,7.5c0.4,3.2,0.6,6.3,0.5,9.5c-0.1,1.9-0.7,2.5-2.5,2.6
	c-1.9,0.2-3.8,0.3-5.7,0.1c-4-0.1-7.9-0.6-11.8-1.6c-3.1-0.7-4-1.9-4.2-5.1c-0.1-2.1-0.1-4.2-0.2-6.2C54.7,35.3,55.4,33.9,56.6,33z
	 M29.3,18.3c0-1.8,0.1-3.5,0.4-5.2c0.2-1.2,1-2.2,2-2.8c2-1.2,4.2-1.7,6.5-1.5c3.7,0.2,7.3,0.8,10.8,1.8c2.6,0.6,4.5,2.7,5,5.3
	c0.8,4.1,0.8,8.3-0.1,12.4c-0.1,0.7-0.5,1.3-1.1,1.7c-1.2,0.9-1.6,0.9-2.6-0.2c-2.5-2.8-5.8-4.6-9.4-5.3c-1.6-0.3-3.2-0.1-4.7,0.4
	c-1.2,0.3-2.3,0.7-3.5,0.9c-1.8,0.4-2.5-0.1-3-2C29.3,21.9,29.2,20.1,29.3,18.3z M27.3,41.9V37c0-1.2,0.2-2.4,0.4-3.6
	c0.6-2.7,2.5-4.1,4.9-4.9c1.8-0.5,3.7-1,5.6-1.5c1.2-0.3,2.5-0.2,3.6,0.4c2.1,1.1,4.2,2.3,6.1,3.8c2.4,1.9,3.8,4.8,3.7,7.8
	c0,3.1,0.1,6.1,0.1,9.2c0,1.7-0.5,2.3-2.2,2.7c-2.9,0.7-5.8,0.3-8.7,0.5c-1,0-2,0.1-3,0.3c-2.9,0.7-5.7,0.1-8.6-0.2
	c-1.3-0.1-1.9-1-2-2.3C27.1,46.9,27.5,44.5,27.3,41.9z M51.2,83.6c0,0.7-0.1,1.3-0.2,2c-0.5,3.5-3.1,5.5-6.5,4.6
	c-4.1-1.1-8.3-1.5-12.5-2.3c-2.4-0.5-3.9-1.9-4-4.4c-0.4-4-0.5-8-0.2-12V60.7c0-2.6,1-4.1,3.5-4.9c2.2-0.7,4.5-1.4,6.8-2.1
	c1.4-0.4,3-0.3,4.3,0.4c1.8,0.8,3.5,1.7,5.3,2.6c1.8,0.8,3,2.6,3.1,4.6C51.3,68.7,51.4,76.2,51.2,83.6z M28.8,93.1
	c4.6-1.8,9.7-2,14.5-0.7c1.5,0.4,3.1,0.9,4.5,1.5c2.7,1.1,4.4,3.7,4.4,6.6c0.2,3.5,0.2,6.9,0.3,10.4v2.6c0.2,4.2,0.5,8.3,0.4,12.5
	c0.1,2.2-1.3,4.1-3.3,4.8c-3.4,1.3-6.9,2.9-10.5,3.3c-6.8,0.8-13.2-1.6-14.5-9.1c-0.7-4.3-1-8.6-0.9-13c-0.1-4.5,0.1-8.9,0.5-13.4
	C24.4,95.8,26.3,94.1,28.8,93.1z M23.3,28.4c-0.1,0-0.2-0.1-0.3-0.1c-2.3-0.8-4.6-1.6-6.9-2.5c-2.3-0.9-4.9-1-7.3-0.1
	c-1.2,0.4-2.5,0.7-3.7,1.1c-0.6,0.3-1.4,0-1.7-0.6c-0.1-0.1-0.1-0.3-0.1-0.4c-0.9-3.8-1.1-7.7-0.8-11.5c0.1-1.1,0.8-2.1,1.9-2.6
	c5-2.2,10.2-3.3,15.6-1.5c2.5,0.7,4.4,2.7,5.1,5.2c0.7,2.4,1,5,1.1,7.5c0.2,1.3,0.1,2.7-0.4,4C25.6,28.1,24.5,28.8,23.3,28.4z
	 M19.5,89.7c-1.2,0.2-2.5,0.4-3.6,0.7c-3.9,1-7.4-0.3-10.8-2.1c-0.9-0.5-1.5-1.5-1.5-2.5C3.1,79.5,3,73.3,3.3,67.1
	c0-0.8,0.1-1.6,0.1-2.4c0-2.3,1-4.5,2.9-6c1.7-1.4,3.6-2.5,5.7-3.3c0.5-0.2,1.1-0.3,1.6-0.2c2.9,0.3,5.7,1,8.3,2.3
	c2.3,1.2,3.1,3.4,3.2,5.8c0.1,3.4,0,6.9,0,10.3v9.8C24.9,87,23.1,89.1,19.5,89.7z M17.5,148.9c0.1-3.8,0.3-7.5,0.5-11.3
	c0-1.7,1-3.3,2.6-3.9c0.9-0.5,1.9-0.9,2.9-1.4c0.5-0.4,1.3-0.2,1.7,0.3c0,0,0,0,0,0c0.7,0.8,1.4,1.5,2.3,2.1c1.8,1.4,4,2.1,6.2,2
	c1.6-0.1,3.2-0.1,4.8-0.1c2.9,0.2,4.2,1.6,4,4.5c0,1.4-0.1,2.7-0.2,4.1c-0.4,6.4-1.3,12.7-1.6,19.1c0,1.7-1.2,3.2-2.8,3.5
	c-2.8,0.9-5.7,1.9-8.6,2.6c-2,0.5-3.9-0.3-5.8-1.1c-2.4-1.1-3.6-3.2-4.4-5.6C17.4,158.9,17.4,153.9,17.5,148.9z M12.2,188.7
	c-0.6-2.4-0.9-4.8-0.8-7.2c0.1-1.9,0.2-3.8,0.3-5.7c0.1-1.4,0.9-2.7,2.1-3.3c3.2-1.7,6.4-2.7,10-1.2c2,0.7,4.1,1.3,6.2,1.8
	c3.1,0.9,4.4,3.5,4.3,6.9c-0.1,3.3-0.4,6.5-0.5,9.8c-0.1,2.9-1.1,4.2-3.8,5.1c-3.7,1.1-7.4,1.4-11-0.2c-0.6-0.3-1.3-0.5-1.9-0.7
	C14.3,193.3,12.9,191.4,12.2,188.7z M22.6,214.4c-3.8-0.1-6.4-2.1-8.4-5.1c-0.5-1-0.7-2.1-0.5-3.1c0.1-2.1,0.3-4.1,0.4-6.2
	c0-1.8,1.4-3.3,3.2-3.3c0.4,0,0.8,0.1,1.2,0.2c0.7,0.2,1.4,0.4,2,0.7c3.4,1.2,7.1,1,10.3-0.6l0.8-0.3c2.3-1,3.8,0,3.7,2.6
	c-0.1,1-0.2,1.9-0.4,2.9c-0.2,0.8-0.3,1.6-0.4,2.3c0.3,6-2.6,7.2-8.4,9.4C25,214.2,23.8,214.4,22.6,214.4z M62.8,254.6
	c-0.5,3.5-0.8,7-1.1,10.5c-0.1,0.7-0.1,1-1,0.9c-8.8-1.1-17.5-2.7-26.2-4.3c-1.8-0.3-3.5-0.8-5.3-1c-0.9-0.1-1.2-0.4-1.1-1.4
	c0.6-8,1.5-15.9,2.5-23.8c0.5-4.1,0.8-8.3,1.2-12.5c0.2-2.5,1.2-4.9,2.7-6.8c0.6-0.9,1.8-1.3,2.8-1c3.6,0.9,7.2,1.7,10.8,2.6
	c2.2,0.6,4.5,0.4,6.5-0.5c0.9-0.4,1.7-0.7,2.5-1c1.8-0.8,3.9-0.2,5,1.5c1.5,2.2,2.4,4.7,2.6,7.4c0.1,1.3,0.1,2.7,0.2,4.6
	C64.1,237.6,64,246.2,62.8,254.6z M64.3,196c0-0.2,0-0.5,0.1-0.7c0.3-1,0.7-1.2,1.6-0.6c3.8,2.7,8.5,3.7,13.1,2.8
	c3-0.5,5.9-1.3,8.1-3.7c0.7-0.8,1.1-0.5,1.5,0.3c0.3,0.6,0.4,1.3,0.4,2v5h0.1c0,1.2-0.1,2.5,0,3.7c0.2,3.1-1.2,6.2-3.8,8
	c-1.7,1.5-3.7,2.6-5.9,3.2c-4.5,1-8.9,0.4-12.5-2.9c-0.7-0.6-1.2-1.5-1.5-2.4C64.4,205.9,64,200.9,64.3,196z M99.1,267.9
	c0,0.5,0,0.9-0.7,0.9l0,0c-6.1-0.3-12.1,0.2-18.2-0.3c-4.4-0.4-8.8-1.1-13.2-1.6c-0.6-0.1-0.8-0.3-0.7-0.9c0.4-4.3,0.7-8.6,1-12.9
	c0.4-5.2,0.9-10.4,1.2-15.6c0.2-3.7,0.7-7.3,1.5-10.9c0.5-1.8,1.3-3.5,2.5-5c0.7-1.3,2.1-2,3.6-1.8c3.3,0.5,6.2-0.8,9-2.2
	c2-1.2,4.3-1.7,6.6-1.4c1.8,0.1,3.4,1.2,4.3,2.8c1.5,3.1,2.3,6.4,2.5,9.8c0.6,6.8,0.5,13.7,0.7,17.9V267.9z M96.9,214.3
	c-2.4-1-3.9-3.3-3.9-5.8c0-3.2-0.2-6.3-0.2-9.5c0-1.1,0.4-1.4,1.4-0.8c2.4,1.5,5.2,2.5,8,2.9c2.4,0.3,4.8-0.1,7-1.2
	c2.2-1.1,4.5-2,6.4-3.7c0.7,1,1,2.2,0.9,3.4c-0.5,4.1-0.4,8.1-0.7,12.2c-0.2,2.5-2.1,3.7-4.4,4.3c-2.8,0.8-5.7,0.6-8.6,0.5
	c-0.7,0-1.4-0.1-2-0.5C99.5,215.6,98.2,214.9,96.9,214.3z M136.7,255c-0.1,3.6-0.2,7.2-0.6,10.8c0,0.5-0.1,0.9-0.8,0.9
	c-9.9,0.2-19.7,1.2-29.5,2.1c-2.8,0.2-2.8,0.2-2.8-2.7v-9.9h0.3c0.1-5.1,0-10.1-0.4-15.2c-0.2-1.9-0.2-3.7-0.2-5.6
	c0.3-4.3,1.4-8.6,3.1-12.6c0.6-1.5,2-2.5,3.6-2.7c2.9-0.5,5.7-1.7,8.5-2.4c3.9-1,7.7-0.4,11.5,0.7c1,0.4,1.9,1.1,2.5,2
	c2.7,3.4,3.7,7.5,4.1,11.7C136.8,239.7,137,247.4,136.7,255z M123.2,213.7L123.2,213.7c-1.2-0.7-2-1.9-2.2-3.3
	c-0.8-3.2-1.2-6.5-1.2-9.7V198c0-0.8,0.3-1,0.9-0.5c0.4,0.2,0.8,0.5,1.2,0.7c3.2,1.9,6.5,1.6,9.8,0.3c1.9-0.7,3.8-1.5,5.7-2.3
	c1-0.4,1.5-0.1,1.9,0.9c0.6,1.7,0.4,3.5,0.6,5.2c0.2,1.4,0.3,2.9,0.5,4.3c0.3,1.9-0.3,3.8-1.6,5.2
	C134.2,216.9,128.8,216.8,123.2,213.7z M173.5,263c0,2-0.1,2.3-2,2.2l0,0c-2,0-4,0.1-6,0.3c-7.2,0.5-14.3,0.2-21.5,0.6
	c-1.3,0.1-2.6,0.1-4,0.2c-0.7,0.1-0.9-0.2-0.9-0.9c-0.1-6.2-0.3-12.4-0.2-18.6c0.1-2.4,0.1-4.7,0.3-7.1c0.3-4.5,0.9-9.1,1.7-13.5
	c0.4-2.3,0.7-4.6,1.1-6.9c0.2-1.4,0.7-2.6,1.5-3.8c0.6-0.8,1.4-1.3,2.4-0.7c2.2,1.4,4.8,1.5,7.3,1.6c2.4,0,4.7-0.1,7.1-0.4
	c2.2-0.2,4.4-0.3,6.4,1c1.3,0.8,2.2,2,2.8,3.3c1.9,4.1,2.3,8.6,2.9,13c0.8,5.8,0.6,11.6,1.1,17.3V263z M169.5,209.4L169.5,209.4
	c-0.9-3-1.5-6.2-1.8-9.3c0-0.2,0-0.3,0-0.5c0.1-1.7,0.3-1.9,1.9-1.3c2.9,1.2,6,1.9,9.2,2.1c3.5,0.2,6.9-1,9.5-3.3
	c0.9-0.8,1.9-1.5,3-2.1c0.4,3.1,0.4,6.3,0.2,9.4c-0.1,1.2-0.2,2.3-0.4,3.5c-0.6,4.1-2.7,6.2-6.7,6.9c-3.3,0.7-6.8,0.5-10-0.5
	C172,213.6,170.2,211.8,169.5,209.4z M214.8,258.5L214.8,258.5c-0.1,0.6-0.2,0.8-0.8,0.9c-4.4,0.8-8.9,1.6-13.3,2.4
	c-1.5,0.3-3.1,0.2-4.6,0.5c-2.4,0.4-4.8,0.5-7.2,0.9c-2,0.4-4,0.5-6,0.8c-0.8,0-1.6,0.2-2.4,0.4c-1.1,0.5-1,0-1.1-0.7
	c-0.5-9.3-1.4-18.6-1.2-27.9c-0.1-4,0-8.1,0.2-12.1c0.1-0.9,0.3-1.8,0.7-2.7c0.5-1.7,2.1-2.9,3.8-2.9c3.6,0,6.9-1.7,9-4.5
	c0.8-1,1.2-1,2.2,0c3,2.7,6.2,4.9,10.3,5.5c1.1,0.1,2.2,0.1,3.3,0c1.3-0.2,2.6,0.5,3.3,1.7c2.4,4,3.7,8.5,4,13.2
	C215.6,242.1,215.6,250.3,214.8,258.5z M213.8,215.6L213.8,215.6c-1.9,0.4-3.9,0.7-5.8,0.8c-2.2,0-4.4-0.2-6.5-0.8
	c-2.6-0.6-4.5-2.7-5-5.2c-0.7-3.8-1.2-7.6-1.4-11.4c-0.1-0.8-0.2-1.6-0.2-2.4c0-0.3-0.2-0.7,0.2-0.8c0.4-0.2,0.4,0.2,0.6,0.4
	c0.6,0.5,0.9,1.2,1.4,1.8c1.2,1.2,2.8,2,4.5,2.3c3.7,0.9,7.6,0.6,11.2-0.7c1.8-0.6,3.6-1.1,5.4-1.7c0.5-0.2,0.8-0.2,0.8,0.5
	c-0.3,4.2-0.5,8.4-0.9,12.5C217.9,213.8,216.8,214.9,213.8,215.6z M262.9,250.2L262.9,250.2c-0.6,0.3-1.2,0.5-1.8,0.6
	c-2.1,0.4-4.3,0.8-6.4,1.3c-1.7,0.4-3.4,0.7-5.1,0.8c-2.5,0.3-5,0.8-7.5,1.3c-2.5,0.5-4.8,0.5-7.1,1.2s-4.9,0.9-7.4,1.5
	c-2.3,0.6-4.7,1.1-7.2,1.4c-0.7,0.1-0.7-0.3-0.8-0.8c-0.8-4.6-1.3-9.2-1.5-13.8c-0.1-2.3,0-4.6,0-6.9c-0.1-4.3,0.2-8.7,0.8-13
	c0.2-1.2,0.5-2.4,1-3.6c0.7-1.7,1.6-2.3,3.5-2c1.7,0.2,3.4,0.6,5.1,0.9c3.6,0.7,7.3,0.5,10.8-0.6c1.4-0.5,2.6-1.2,3.6-2.2
	c0.7-0.8,1.8-0.9,2.6-0.2c3.1,2,6.5,3.7,9.9,5c2,0.8,2.8,2.8,3.5,4.6c1.4,3.8,1.8,7.9,2.5,11.8c0.7,3.7,1.2,7.5,1.4,11.3
	C263,249.2,263.9,249.8,262.9,250.2z M273.6,207.4L273.6,207.4c-0.2,1.5-0.5,2.9-0.8,4.3c-0.4,1.9-1.7,3.4-3.4,4.3
	c-2.9,1.6-6.2,2.5-9.5,2.5c-2.6,0.1-5.1-0.3-7.6-1c-3-0.8-5-3.5-4.9-6.6c0-3.9,0.7-7.6,1.1-11.5c0.2-1.7,0.7-1.9,1.9-0.6
	c3.9,4.2,8.6,4.2,13.6,3c2.7-0.6,5.4-1,8.2-1.1c0.5-0.1,1,0.2,1.1,0.8C274.2,203.3,273.8,205.4,273.6,207.4z M274.6,190L274.6,190
	c-0.1,1.6-0.3,3.1-0.6,4.7c-0.2,1.8-1.5,3.4-3.3,3.9c-2.1,0.6-4.3,1.1-6.4,1.3c-0.3,0-0.6,0-0.9-0.1c-1.4-0.5-3-0.7-4.5-0.8
	c-4.4-0.3-7.4-2.9-9.8-6.3c-0.5-0.9-0.8-1.9-0.7-2.9v-6.1h0.2v-6.6c0-1.2,0.6-2.3,1.5-3c2.3-1.8,4.6-3.4,7.1-4.9
	c0.7-0.4,1.4-0.5,2.2-0.4c1.4,0.3,2.8,0.9,4.1,1.6c2,1.2,4.1,2.1,6.3,2.7c3,0.8,4.3,2.9,4.8,5.6C275.3,182.5,274.9,186.2,274.6,190z
	"/>
<path class="st1" d="M0,258.4c9.6,4.2,20,6,30.1,8.1c8.6,1.7,17.3,2.9,26.1,3.7c7.5,0.7,14.9,1.9,22.3,3.2
	c5.7,0.8,11.4,1.3,17.2,1.4c11,0.7,22.1,0.6,33.1,0.4c8.2-0.2,16.3-1.1,24.4-1.8c6.2-0.5,12.4-1,18.5-1.6
	c13.4-1.2,26.7-2.9,39.9-5.5c3.8-0.7,7.5-1.3,11.3-1.9c8.7-1.3,17.3-3,25.9-5c2-0.5,4-0.7,5.9-1.3c4.5-1.3,9.1-1.9,13.6-3.1
	c6.2-1.6,12.3-3.2,18.4-5.1c0.4-0.1,0.7-0.4,1.1-0.1v38.2c-12.1,4.1-24.5,6.9-36.9,9.6c-9.4,2-18.9,3.3-28.3,5
	c-11.5,2.1-23,4.1-34.6,5.8c-12.2,1.8-24.4,2.3-36.7,3.1c-5.4,0.3-10.9,0.3-16.3,0.3c-8.1,0.1-16.2,0.7-24.3,0.5
	c-10.1-0.2-20.1-0.7-30.2-1.8c-11.1-1.3-22.1-3-33-5.1c-12.7-2.4-25-6.7-36.5-12.6c-3.8-2-7.5-4.3-11.2-6.5L0,258.4z"/>
<path class="st0" d="M0,286.3c3.7,2.2,7.3,4.6,11.2,6.5c11.5,5.9,23.8,10.1,36.5,12.6c11,2.1,22,3.8,33,5.1
	c10,1.1,20.1,1.6,30.2,1.8c8.1,0.2,16.2-0.4,24.3-0.5c5.4-0.1,10.9,0,16.3-0.3c12.2-0.8,24.5-1.4,36.7-3.1
	c11.6-1.7,23.1-3.7,34.6-5.8c9.4-1.7,19-3,28.3-5c12.4-2.7,24.8-5.5,36.9-9.6v33.3l-2.6,0.1l-21.6,0c-0.7,0-1.4,0-2,0h-90.3l-29.1,0
	c-4.2,0-8.5,0-12.7,0H89.7c-0.2,0-0.5,0-0.7,0H32.7c-0.3,0-0.7-0.1-1,0.1c-10.3,0-20.6,0-30.8,0c-0.7,0-0.9-0.1-0.9-0.9
	C0,309.2,0,297.7,0,286.3z"/>
<path class="st2" d="M0,219.1c4.6-0.3,8.5-2.2,12.3-4.6c0.6-0.5,1.5-0.5,2.1,0c1.9,1.5,4.1,2.5,6.5,2.9c2.2,0.4,3.5,2,4.1,4.1
	c0.9,3.4,1.2,6.9,0.9,10.4c-0.5,8.9-2.1,17.7-3.5,26.5c-0.1,0.5-0.1,0.8-0.9,0.7c-7.3-1.6-14.5-3.3-21.5-6.3V219.1z"/>
<path class="st3" d="M0,95.7c1.9-0.4,3.8-0.9,5.6-1.7c1-0.3,1.9-0.5,2.9-0.7c4.6-0.9,7.8,1.2,10.4,4.7c0.8,1.1,1.3,2.3,1.4,3.6
	c0.8,7.8,0.7,15.7-0.5,23.4c-0.2,1.6-1.1,3-2.5,3.9c-4,2.8-8.7,4.5-13.5,5c-1.2,0.1-2.5,0.3-3.7,0.4L0,95.7z"/>
<path class="st4" d="M0,34c0.7-2.2,2.6-3.2,4.6-4c0.2-0.1,0.4-0.1,0.6-0.2c4.4-2.8,8.9-2,13.3-0.2c1.8,0.6,3.4,1.6,4.9,2.8
	c0.8,0.6,1.3,1.6,1.3,2.7c0.1,4.9,0.2,9.8,0.3,14.6c0,2.6-0.8,3.5-3.4,3.4c-1.4,0-2.8-0.1-4.2-0.3c-4-0.8-8.2-0.2-11.9,1.6
	c-1.2,0.6-2.6,0.5-3.7-0.3c-0.6-0.4-1.2-0.8-1.8-1.3V34z"/>
<path class="st2" d="M288,244c-5.8,1.6-11.6,3.1-17.5,4.7c-1,0.3-1.3,0-1.6-0.9c-1.3-5.8-2.3-11.7-2.8-17.6c-0.3-2.2-0.3-4.4,0-6.6
	c0.2-1.5,1-2.9,2.2-3.9c0.7-0.5,1.3-1.1,2-1.7c2-1.6,3.1-1.6,5.1-0.1c0.6,0.4,1.2,0.9,1.8,1.4c3.1,2.7,6.8,3.4,10.7,3.1L288,244z"/>
<path class="st3" d="M0,136.7c3.1-0.3,6.1,0.1,9,1.3c0.9,0.4,1.9,0.8,2.7,1.2c1,0.5,1.6,1.4,1.8,2.5c0.4,2.9,0.4,5.9,0.1,8.9
	c-0.2,3-0.2,6,0,9c0,0.8,0.1,1.6,0.1,2.4c-0.1,4-1.9,6.6-5.7,7.7c-2.6,0.7-5.2,1.1-7.9,1.3V136.7z"/>
<path class="st4" d="M288,219.3c-1.7,0.1-3.4,0-5.1-0.2c-1.6-0.3-3.1-1-4.4-2c-0.6-0.5-1.2-1-1.8-1.4c-1.3-0.7-2-2.3-1.5-3.7
	c0.7-3.3,0.7-6.6,1-9.9c0-0.6,0-1.2,0.6-1.6s1.1,0,1.6,0.4c2.7,2.3,6.4,2.9,9.7,1.7V219.3z"/>
<path class="st4" d="M0,197.7c2.5-0.8,5.1-1.7,7.6-2.4c1.5-0.4,1.9-0.2,2.6,1.1c0.5,0.9,0.7,2,0.9,3c0.5,2.8,0.5,5.6,0.2,8.4
	c-0.5,3.4-2.8,5.5-5.8,6.8c-1.8,0.6-3.6,1.1-5.5,1.2V197.7z"/>
<path class="st3" d="M0,173.5c2.3-0.2,4.6-0.1,6.8,0.3c1.3,0.1,2.4,1.3,2.3,2.6c0.5,4.3,0.2,8.6,0.4,12.8c0.1,2-1.1,3.7-3,4.4
	c-2.1,0.8-4.3,1.5-6.5,2L0,173.5z"/>
<path class="st4" d="M0,56.1c0.6,0.5,1,1.3,1,2.1c0.2,2.8,0.2,5.7,0,8.5C1,73.8,0.4,80.9,1.1,88C1.4,89.5,1,91,0,92.1V56.1z"/>
<path class="st2" d="M142.3,321.4l29.1,0h90.3c0.7,0,1.4,0,2,0l-0.2,0.1h-121L142.3,321.4z"/>
<path class="st5" d="M31.7,321.5c0.3-0.2,0.7-0.1,1-0.1H89c0.2,0,0.5,0,0.7,0c0,0,0,0.1,0,0.1L31.7,321.5z"/>
<path class="st4" d="M89.8,321.5c0,0,0-0.1,0-0.1h39.9c4.2,0,8.5,0,12.7,0l0.2,0.1L89.8,321.5z"/>
<path class="st4" d="M287.9,176c0,0,0.1,0,0.2,0c0,0,0,0,0,0v24.7l-0.3-0.2c0-5.7,0-11.4,0-17.1C287.8,181,287.8,178.5,287.9,176z"
	/>
<path class="st4" d="M263.5,321.5l0.2-0.1l21.6,0l2.6-0.1c-0.2,0.5-0.6,0.2-1,0.2C279.2,321.5,271.4,321.5,263.5,321.5z"/>
<path class="st2" d="M178.1,235.7c-0.1-4,0-8.1,0.2-12.1c0.1-0.9,0.3-1.8,0.7-2.7c0.5-1.7,2.1-2.9,3.8-2.9c3.6,0,6.9-1.7,9-4.5
	c0.8-1.1,1.2-1,2.2,0c3,2.7,6.2,4.9,10.3,5.5c1.1,0.1,2.2,0.1,3.3,0c1.4-0.2,2.7,0.5,3.3,1.7c2.4,4,3.7,8.5,4,13.1
	c0.6,8.2,0.5,16.5-0.3,24.7c-0.1,0.6-0.2,0.8-0.8,0.9c-4.4,0.8-8.9,1.6-13.3,2.4c-1.5,0.3-3.1,0.2-4.6,0.5c-2.4,0.4-4.8,0.5-7.2,0.9
	c-2,0.4-4,0.5-6,0.8c-0.8,0-1.6,0.2-2.4,0.4c-1.1,0.5-1,0-1.1-0.7C178.8,254.3,177.8,245,178.1,235.7z"/>
<path class="st2" d="M173.5,251c0,4,0,8.1,0,12.1c0,1.9-0.1,2.2-2,2.2c-2,0-4,0.1-6,0.3c-7.1,0.5-14.3,0.2-21.5,0.6
	c-1.3,0.1-2.6,0.1-3.9,0.2c-0.7,0.1-0.9-0.2-0.9-0.9c-0.1-6.2-0.3-12.4-0.2-18.6c0.1-2.4,0.1-4.7,0.3-7.1c0.3-4.5,0.9-9,1.7-13.5
	c0.4-2.3,0.7-4.6,1.1-6.9c0.2-1.4,0.7-2.6,1.5-3.8c0.6-0.8,1.4-1.4,2.4-0.7c2.2,1.4,4.8,1.5,7.3,1.6c2.4,0,4.7-0.1,7.1-0.4
	c2.2-0.2,4.4-0.3,6.4,0.9c1.3,0.8,2.2,2,2.8,3.3c1.9,4.1,2.3,8.6,2.9,13C173.1,239.4,173,245.2,173.5,251z"/>
<path class="st2" d="M103.4,256.2c0.1-5.1,0-10.1-0.4-15.2c-0.2-1.9-0.3-3.7-0.2-5.6c0.3-4.3,1.4-8.6,3.1-12.6
	c0.6-1.5,2-2.5,3.6-2.7c2.9-0.5,5.7-1.7,8.5-2.4c3.9-1,7.7-0.4,11.4,0.7c1,0.4,1.9,1.1,2.5,2c2.7,3.4,3.7,7.5,4.1,11.7
	c0.7,7.6,0.9,15.2,0.6,22.9c-0.1,3.6-0.2,7.2-0.6,10.8c0,0.5-0.1,0.9-0.8,0.9c-9.9,0.2-19.7,1.2-29.5,2.1c-2.8,0.2-2.8,0.2-2.8-2.7
	v-9.9H103.4z"/>
<path class="st2" d="M65,229.7c-0.9,7.9-1,16.4-2.2,24.9c-0.5,3.5-0.8,7-1.1,10.5c-0.1,0.7-0.2,1-1,0.9c-8.8-1.1-17.5-2.7-26.2-4.3
	c-1.8-0.3-3.5-0.8-5.3-1c-0.9-0.1-1.2-0.4-1.1-1.4c0.6-8,1.5-15.9,2.5-23.8c0.5-4.1,0.8-8.4,1.2-12.5c0.2-2.5,1.2-4.9,2.7-6.8
	c0.6-0.9,1.8-1.3,2.8-1c3.6,0.9,7.2,1.7,10.8,2.6c2.2,0.6,4.5,0.4,6.5-0.5c0.8-0.4,1.7-0.7,2.5-1c1.8-0.8,3.9-0.2,5,1.5
	c1.5,2.2,2.4,4.7,2.6,7.4C64.9,226.5,64.9,227.8,65,229.7z"/>
<path class="st2" d="M99.1,246.6c0,8.9,0,15.1,0,21.3c0,0.5,0.1,0.9-0.7,0.9c-6.1-0.3-12.2,0.2-18.2-0.3c-4.4-0.4-8.8-1.1-13.2-1.6
	c-0.6-0.1-0.8-0.3-0.7-0.9c0.4-4.3,0.7-8.6,1.1-12.9c0.4-5.2,0.9-10.4,1.2-15.6c0.2-3.7,0.7-7.3,1.6-10.9c0.5-1.8,1.3-3.5,2.4-5
	c0.7-1.3,2.1-2,3.6-1.8c3.3,0.5,6.2-0.8,9-2.2c2-1.2,4.3-1.7,6.7-1.4c1.8,0.1,3.4,1.2,4.3,2.7c1.5,3.1,2.3,6.4,2.4,9.8
	C99,235.6,98.9,242.4,99.1,246.6z"/>
<path class="st2" d="M218.3,236.7c-0.1-4.3,0.2-8.7,0.8-13c0.2-1.2,0.5-2.4,1-3.6c0.7-1.7,1.6-2.3,3.5-2c1.7,0.2,3.4,0.6,5.1,0.9
	c3.6,0.7,7.3,0.5,10.8-0.6c1.4-0.5,2.6-1.2,3.6-2.2c0.7-0.8,1.8-0.9,2.6-0.2c3.1,2,6.5,3.7,9.9,5c2,0.8,2.8,2.8,3.5,4.6
	c1.4,3.8,1.8,7.9,2.5,11.8c0.7,3.7,1.2,7.5,1.4,11.3c0,0.5,1,1.2,0,1.6c-0.6,0.2-1.2,0.4-1.8,0.5c-2.1,0.4-4.3,0.8-6.4,1.3
	c-1.7,0.4-3.4,0.7-5.1,0.8c-2.5,0.3-5,0.8-7.5,1.3s-4.8,0.5-7.1,1.2s-4.9,0.9-7.4,1.5c-2.3,0.6-4.7,1.1-7.1,1.4
	c-0.7,0.1-0.7-0.4-0.8-0.8c-0.8-4.6-1.3-9.2-1.5-13.8C218.3,241.4,218.3,239.1,218.3,236.7z"/>
<path class="st3" d="M179.7,118.4c0.6-7.5,0.7-15,2.2-22.3c0.2-1.4,1-2.7,2.1-3.6c1.6-1.3,3.2-2.4,4.9-3.4c1.4-0.7,2.9-0.9,4.4-0.5
	c4.8,1.3,9.5,3,14.1,5.1c1.7,0.7,2.3,2.3,2.5,4.1c0.2,1.9,0.4,3.7,0.4,5.6c0.3,5.7,0.6,11.4,0.5,17.1c0,0.9-0.2,1.8-0.2,2.6
	c-0.1,4.3-6,8.6-9.9,8.5c-4.5-0.1-9.1,0.1-13.6-1.1c-1.9-0.5-3.7-1.4-5.3-2.7c-1.3-1-2.1-2.5-2.1-4.1
	C179.7,122.1,179.7,120.2,179.7,118.4z"/>
<path class="st3" d="M52.5,113.7c0.2,4.2,0.5,8.3,0.4,12.5c0.1,2.2-1.3,4.1-3.3,4.8c-3.4,1.3-6.9,2.9-10.5,3.3
	c-6.8,0.8-13.2-1.6-14.5-9.1c-0.7-4.3-1-8.6-0.9-13c-0.1-4.5,0.1-8.9,0.5-13.4c0.3-2.9,2.2-4.6,4.6-5.6c4.6-1.8,9.7-2,14.5-0.7
	c1.5,0.4,3.1,0.9,4.5,1.5c2.7,1.1,4.4,3.7,4.4,6.6c0.2,3.5,0.2,6.9,0.3,10.4C52.5,112,52.5,112.8,52.5,113.7z"/>
<path class="st3" d="M84.6,112.6c0.1,2.3,0.1,4.6,0.3,6.8c0.6,5.2-2,8.6-6.3,11c-2.6,1.4-5.4,2.4-8.3,3c-2.9,0.6-5.9,0.5-8.8-0.5
	c-1.4-0.6-2.6-1.7-3.2-3.1c-1.3-2.9-2.1-6-2.3-9.1c-0.4-5.9-1.2-11.8-1.2-17.7c0-1.4,0-2.7,0.2-4.1c0.1-1,0.6-1.8,1.4-2.4
	c3.7-3.1,8.3-4.9,13.1-5c5.3-0.3,9.9,1.3,13.2,5.8c1.4,2,1.6,4.3,1.7,6.6C84.4,106.8,84.3,109.7,84.6,112.6z"/>
<path class="st3" d="M241,114.4c0,3,0.4,6,0.2,9c0,2-1.2,3.8-2.9,4.8c-3.4,2-7,3.6-10.6,5.2c-2.2,1-4.3,0.5-6.3-0.6
	s-3.6-2.3-5.4-3.5c-0.4-0.3-0.6-0.6-0.7-1.1c-0.8-3.1-1.2-6.2-1.2-9.4c-0.2-4.8-0.1-9.7-0.2-14.5c0.1-2.2,0.3-4.5,0.6-6.7
	c0.5-4.2,3.2-6.7,6.9-8.2c3.9-1.7,8.3-1.7,12.3-0.1c3.5,1.4,5.4,4.3,6.2,8c0.9,4.6,1.4,9.2,1.2,13.9C241,112.3,241,113.4,241,114.4z
	"/>
<path class="st3" d="M178,107.1c-0.2,4.2-0.3,8.4-0.8,12.6c-0.2,1.9-0.5,3.9-1,5.8c-1,3.5-3.7,5.2-7,5.6c-4,0.6-8,0.2-11.8-1.3
	c-4.7-2-7.4-5.7-7.5-10.8c-0.2-6.2-0.8-12.4-0.1-18.6c0.1-0.8,0.2-1.6,0.4-2.4c0.7-4.4,3.8-6.4,7.6-7.5c5.2-1.3,10.6-0.9,15.5,1.2
	c2.8,0.9,4.6,3.5,4.6,6.4C178,101.1,178.1,104.1,178,107.1z"/>
<path class="st3" d="M271.6,111c0,5.4-0.2,9.8-0.4,14.2c0.1,2.1-1.2,3.9-3.1,4.6c-3.2,1.3-6.3,2.8-9.8,2.9c-0.5,0.1-1,0-1.4-0.2
	c-2.9-1.9-6-3.5-9.3-4.8c-2.9-1.3-3.9-3.3-3.8-6.3c0.2-7.8,0.3-15.6,0.5-23.4c0.1-3.4,1.5-5.1,4.8-6.1c1.6-0.5,3.2-1,4.8-1.5
	c2.1-0.7,4.3-0.7,6.4,0c3,0.8,5.8,2,8.5,3.6c1.7,1,2.8,3,2.7,5C271.3,103.3,271.5,107.7,271.6,111z"/>
<path class="st4" d="M187.8,72.1c0,3.2-0.2,6.5-0.5,9.7c-0.3,2.3-1.5,4.3-3.3,5.7c-1.2,0.8-2.4,1.7-3.5,2.6c-1,1-2.1,0.6-3.2,0.3
	c-2.8-0.7-5.4-1.7-8.2-2.4c-2.2-0.5-4.4-1-6.6-1.6c-3.4-1-4.6-2.8-4.3-6.3s0.7-7.3,1-11s0.4-7.5,0.8-11.2c0.2-1.5,1-2.8,2.2-3.7
	c2.1-1.7,4.8-2.2,7.2-3.2c6.2-2.5,11.1-0.2,15.5,4c0.7,0.8,1.2,1.8,1.3,2.9C187.1,62.9,188.3,67.9,187.8,72.1z"/>
<path class="st3" d="M117.3,113.4c0,2.9,0.4,5.8,0.1,8.8c0,2.7-1.7,5.1-4.3,6.1c-3.9,1.8-8.1,3-12.4,3.4c-4.9,0.3-8.1-2.4-10.5-6.3
	c-1.7-2.8-2.2-6-2.5-9.2c-0.5-5.3-0.5-10.6,0-15.8c0.1-1,0.6-1.9,1.3-2.5c1-1.1,2.3-2,3.7-2.5c2.8-1.2,5.7-2.2,8.7-2.8
	c2-0.2,4,0.1,5.8,0.9c1.7,0.7,3.4,1.6,5,2.6c3.1,1.9,4.5,4.9,4.8,8.4C117.3,107.4,117.3,110.4,117.3,113.4z"/>
<path class="st3" d="M257,148.3c0.3,4.9,0.2,9.7-0.3,14.6c-0.1,1.6-0.9,3-2.2,3.9c-2.5,2.1-5.6,2.7-8.7,3c-2.8,0.3-5.5,0.3-8-1.5
	c-1.8-1.3-3.9-1.9-5.8-3.2c-1.9-1.3-3.1-3.4-3.1-5.8c-0.2-4.4-0.4-8.7-0.6-13.1c-0.1-1.8-0.4-3.6-0.3-5.5c0-2,1.1-3.8,2.8-4.9
	c3.4-2.3,6.8-4.5,10.8-5.5c1.8-0.5,3.8-0.3,5.5,0.4c1.9,0.8,3.7,1.8,5.5,2.9c2.8,1.6,4.5,4.6,4.4,7.8C257,144,257,146.4,257,148.3z"
	/>
<path class="st3" d="M196.3,143.8c-0.6,6.8-0.8,13.6-1.4,20.4c-0.4,3.9-1.6,5.1-5.5,6.1c-5.4,1.4-11.1,1.2-16.4-0.5
	c-2.5-0.8-4.3-3.6-4.5-6.9c0-1.2,0-2.4,0.2-3.6c0.5-4.7,0.2-9.4,0.6-14c0.2-3,0.4-6,2.1-8.6s4.2-3.8,6.7-5.1c0.6-0.2,1.3-0.2,1.9,0
	c2.7,0.6,5.4,1.1,8.2,1.3c1.4,0.1,2.7,0.5,3.9,1.1c2.7,1.2,4.4,3.9,4.4,6.9C196.4,141.9,196.3,142.8,196.3,143.8z"/>
<path class="st4" d="M190.2,78.5c0.7-6.8,0.6-13.7,1.6-20.5c0.6-3.7,2.2-5.4,6-5.7c5.9-0.5,11.6,0,16.4,3.8c4.1,3.1,7,7,6.3,12.7
	c-0.2,1.3-0.2,2.6-0.4,3.9c-0.5,3.2-0.4,6.5-0.7,9.7c-0.1,0.7-0.1,1.3-0.3,2c-0.2,1.3-1.1,2.5-2.3,3c-1.8,0.8-3.6,1.5-5.4,2.2
	c-1.8,0.6-3.8,0.6-5.5-0.1c-4.3-1.3-8.6-2.9-12.7-4.6c-1.9-0.6-3.1-2.4-3-4.3C190.2,79.8,190.2,79.1,190.2,78.5z"/>
<path class="st3" d="M135,154.7c0,2.7,0.1,5.4,0,8c-0.1,3.9-2.4,6.4-6.4,7c-1.6,0.2-3.2,0.2-4.8,0.1c-3.1,0-6.2-0.2-9.2-0.8
	c-4.1-1-6.2-2.9-6.5-7.2c-0.4-6.9-1.2-13.7-0.7-20.6c0.1-1,0.2-1.9,0.5-2.8c0.6-2.9,2.8-5.2,5.7-5.9c2.5-0.6,5.1-1.1,7.7-1.4
	c0.5-0.1,1-0.1,1.6,0.1c3.3,0.9,6.4,2.6,8.9,5c1.9,2.1,3,4.9,3.2,7.7C135.3,147.4,135.4,151.1,135,154.7z"/>
<path class="st3" d="M138.3,149.8c0-3.2,0-6.5,0-9.7c0-2.5,1.4-4.7,3.6-5.8c2.4-1.3,5.1-2.2,7.8-2.8c0.5-0.1,1-0.1,1.6-0.1
	c3.7,0.5,7.2,1.7,10.3,3.6c2.8,1.8,3.9,4.4,4.2,7.6c0.5,4.4-0.2,8.7-0.2,13.1c-0.1,2.3-0.3,4.7-0.6,7c-0.4,3.9-3.4,7-7.3,7.5
	c-5.1,0.7-10.4,0.1-15.1-2c-2.9-1.2-3.9-3.9-4.2-6.8C138,157.6,138,153.7,138.3,149.8z"/>
<path class="st3" d="M146.9,118c-0.1,1.6-0.3,3.3-0.4,4.9c-0.2,2.3-1.3,4.5-3.1,6c-0.9,0.9-2.1,1.4-3.4,1.5c-3,0.3-6,1.2-9,0.5
	c-6-1.4-10.3-4-10.8-11.8c-0.5-6.2-0.5-12.5,0.1-18.7c0.2-1.2,0.5-2.3,1-3.3c0.4-1,1.2-1.8,2.2-2.3c1.1-0.5,2.1-1.2,3-2
	c0.5-0.5,1.2-0.7,1.8-0.8c3.6-0.2,7.2-0.8,10.9-0.1s5.6,2.6,6.3,6.3c0.3,1.4,0.4,2.8,0.5,4.3C146,107.8,147.1,112.9,146.9,118z"/>
<path class="st3" d="M45.8,153.5c0.2-3.5,0.5-7.9,1-12.2c0.3-2.4,1.7-3.9,3.9-5.1c3.9-2,8.5-2.3,12.6-0.7c2.4,0.8,4.9,1.5,7.3,2.3
	c2.1,0.6,3.5,2.5,3.6,4.6c0.1,2,0,4.1-0.2,6.1c-0.4,4.9-0.4,9.8-0.1,14.7c0.2,1.9-0.9,3.8-2.6,4.6c-2.5,1.4-5,2.6-7.7,3.7
	c-1.6,0.7-3.3,0.8-5,0.3c-2.7-0.7-5.4-1.1-7.9-2.5c-2.5-1.2-4.2-3.6-4.4-6.4C46.2,160.2,45.8,157.3,45.8,153.5z"/>
<path class="st3" d="M103.6,152.2c-0.1,4.3,0.2,8.5-0.3,12.7c-0.1,2.6-1.9,4.9-4.5,5.5c-4.9,1.7-10.2,1.8-15.1,0.3
	c-3.3-0.9-4.8-3.7-5.3-6.9c-0.5-4.8-0.6-9.7-0.1-14.5c0.2-2.6,0-5.1,0.3-7.7c0.1-2.6,1.6-5,4-6.1c2.3-1.1,4.8-1.9,7.3-2.4
	c0.9-0.2,1.9-0.1,2.8,0.2c1.8,0.6,3.6,1.3,5.4,1.9c3.6,1.1,5.2,3.7,5.5,7.2C104,145.7,103.5,149,103.6,152.2z"/>
<path class="st3" d="M225.7,151.9c-0.1,3.5,0.3,7-0.3,10.5c-0.2,1.4-0.9,2.6-2,3.5c-2.8,2.5-6.4,3.8-10.1,3.6
	c-1.7,0-3.5,0.2-5.2,0.6c-2.1,0.6-4.4,0-6-1.6c-2.1-1.9-3.3-4.7-3-7.5c0-1.3-0.1-2.7-0.2-4c-0.1-0.8-0.2-1.7-0.1-2.5
	c0.6-3.8,0.5-7.6,0.7-11.4c0-4.3,2.8-8,6.9-9.2c1.1-0.4,2.2-0.7,3.3-1.1c2.4-1,5.1-0.7,7.2,0.7c1.9,1.1,3.8,2.4,5.6,3.7
	c1.8,1.3,2.8,3.3,2.9,5.4C225.4,145.8,225.6,148.9,225.7,151.9z"/>
<path class="st4" d="M104.9,75.4c0-5,0-9.4,0.4-13.8c0.3-3.5,1.7-5.8,5.1-6.9c1.8-0.6,3.5-1.3,5.3-1.9c5.5-1.9,11.5,0.9,13.5,6.4
	c0.3,0.8,0.5,1.6,0.5,2.4c0.7,5,0,10-0.2,15c-0.1,1-0.2,1.9-0.2,2.9c0.1,3.4-1.2,6.6-3.6,8.9c-0.6,0.7-1.5,1.3-2.4,1.6
	c-2.8,0.9-5.6,1.8-8.3,2.7c-0.4,0.1-0.9,0.1-1.2-0.1c-2.1-1-4.2-2.1-6.2-3.3c-1.4-0.8-2.3-2.3-2.4-3.9
	C104.7,81.8,105.1,78.3,104.9,75.4z"/>
<path class="st4" d="M54,72.9c0-4.3,0.1-8.6,0.2-13s2-6,6.1-7c2.2-0.5,4.4-0.8,6.6-1.1c4.3-0.6,7.7,1.3,10.8,3.8
	c1.1,0.8,1.2,2.2,1.2,3.5c0,3.4-0.4,6.7-0.7,10c-0.4,4.5-0.8,8.9-1.3,13.4c-0.6,4.7-1.8,5.9-6.5,6.3c-3.8,0.4-7.6,0.5-11.4,0.8
	c-0.7,0-1.4,0-2.1-0.2C54.8,88.9,54,88,54,85.9C54,81.6,54,77.3,54,72.9z"/>
<path class="st3" d="M259.7,152.3c-0.1-4.4,0.2-8.7,0.9-13c0.5-3.1,2-5.3,5.1-6.3c1.7-0.5,3.4-1.2,5.1-1.8c1.9-0.8,4-0.5,5.5,0.8
	c2,1.3,3.8,2.9,5.3,4.6c1.2,1.3,1.8,3,1.8,4.8c-0.3,7.6-0.8,15.1-1.7,22.6c0,0.2-0.1,0.5-0.1,0.7c-1,4.4-2.9,5.8-7.4,5.7
	c-1.4,0-2.7-0.1-4.1,0c-1.2,0-2.5-0.3-3.5-0.9c-0.8-0.5-1.6-1.1-2.4-1.6c-3.2-1.6-4.2-4.3-4.4-7.7
	C259.6,157.6,259.6,154.9,259.7,152.3z"/>
<path class="st4" d="M133.3,77.7c0.8-5.8,0.4-12.3,0.8-18.8c0.1-0.8,0.2-1.7,0.3-2.5c0.2-2.4,1.9-4.3,4.2-4.8c2-0.6,4-1,6.1-1.2
	c1.5-0.1,3,0.4,4.2,1.2c1.9,1.2,3.8,2.6,5.4,4.1c1.7,1.5,2.6,3.7,2.4,6c-0.5,7-0.9,14.1-1.4,21.2c-0.1,2.8-2,5.3-4.7,6
	c-4,1.7-8.6,1.2-12.2-1.3c-0.9-0.5-1.7-1-2.6-1.4c-1.3-0.7-2.2-2-2.3-3.4C133.3,81.1,133.2,79.4,133.3,77.7z"/>
<path class="st3" d="M42.3,145.3c-0.4,6.4-1.3,12.7-1.6,19.1c0,1.7-1.2,3.2-2.8,3.6c-2.8,0.9-5.7,1.9-8.6,2.6
	c-2,0.5-3.9-0.3-5.8-1.1c-2.4-1.1-3.6-3.2-4.4-5.6c-1.8-4.9-1.7-9.9-1.7-14.9c0.1-3.8,0.3-7.5,0.5-11.3c0-1.7,1-3.3,2.6-3.9
	c1-0.5,2-0.9,2.9-1.4c0.5-0.4,1.3-0.2,1.7,0.3c0,0,0,0,0,0c0.7,0.8,1.4,1.5,2.3,2.1c1.8,1.4,4,2.1,6.2,2c1.6-0.1,3.2-0.1,4.8-0.1
	c2.9,0.2,4.2,1.6,4,4.5C42.5,142.6,42.4,143.9,42.3,145.3z"/>
<path class="st4" d="M27.7,71.6c0-3.6,0-7.3,0-10.9c0-2.6,1-4.1,3.5-4.9c2.2-0.7,4.5-1.4,6.8-2.1c1.4-0.4,3-0.3,4.3,0.4
	c1.8,0.8,3.5,1.7,5.3,2.6c1.8,0.8,3,2.6,3.1,4.6c0.6,7.4,0.8,14.8,0.5,22.3c0,0.7-0.1,1.3-0.2,2c-0.5,3.5-3.1,5.5-6.5,4.6
	c-4.1-1.1-8.3-1.5-12.5-2.3c-2.5-0.5-3.9-1.9-4-4.4C27.5,79.6,27.4,75.6,27.7,71.6z"/>
<path class="st4" d="M102.1,74.5c0,3,0,6.8,0,10.6c0.1,1.6-0.8,3.1-2.3,3.7c-3.2,1.8-6.8,2.8-10.4,2.9c-3.1-0.1-6-1.2-8.4-3.2
	c-0.7-0.6-1-1.6-0.8-2.6c0.1-3.2,0.3-6.3,0.4-9.5c0.2-5.3,0.5-10.7,1-16c0.1-2.6,1.7-5,4-6.2c3.7-2.1,7.2-2.6,11-0.1
	c1.7,1,3.2,2.4,4.4,4c0.9,1.3,1.4,2.9,1.3,4.5C102.1,66.4,101.9,70,102.1,74.5z"/>
<path class="st4" d="M228.7,27.3c0.6,0.1,1.1,0.1,1.7,0c4-0.7,6.9,1.2,9.8,3.5c1.4,1.2,2.1,3,2,4.8c0.1,4.6-0.6,9.1-2.1,13.4
	c-0.4,1.3-1.3,2.3-2.5,2.9c-4.4,2.2-9.2,3.8-14.1,4.5c-1.6,0.3-3.3-0.2-4.5-1.3c-1.2-1.2-2.6-2.4-3.8-3.6c-1.8-1.7-2.7-4.2-2.4-6.6
	c0.3-3.7,0.8-7.3,1.6-10.9c0.7-3.7,2.9-5.5,6.6-6C223.4,27.6,226,27.3,228.7,27.3z"/>
<path class="st4" d="M25,73.6c0,3.3,0,6.6,0,9.8c0,3.6-1.9,5.7-5.4,6.3c-1.2,0.2-2.5,0.4-3.6,0.7c-3.9,1-7.4-0.3-10.8-2.1
	c-0.9-0.5-1.5-1.5-1.5-2.5c-0.5-6.2-0.6-12.5-0.3-18.7c0-0.8,0.1-1.6,0.1-2.4c0-2.3,1-4.5,2.9-6c1.7-1.4,3.6-2.5,5.6-3.3
	c0.5-0.2,1.1-0.3,1.6-0.2c2.9,0.3,5.7,1,8.3,2.3c2.3,1.2,3.1,3.4,3.2,5.8C25.1,66.6,25,70.1,25,73.6L25,73.6z"/>
<path class="st3" d="M248.6,183.6c0-2.2,0-4.4,0-6.6c0-1.2,0.6-2.3,1.5-3c2.3-1.8,4.6-3.4,7.1-4.9c0.7-0.4,1.4-0.5,2.2-0.4
	c1.4,0.3,2.8,0.9,4.1,1.6c2,1.2,4.1,2.1,6.3,2.7c3,0.8,4.3,2.9,4.8,5.6c0.8,3.7,0.3,7.5,0,11.2c-0.1,1.6-0.3,3.1-0.5,4.6
	c-0.2,1.8-1.5,3.4-3.3,3.9c-2.1,0.6-4.3,1.1-6.4,1.3c-0.3,0-0.6,0-0.9-0.1c-1.4-0.5-3-0.7-4.5-0.8c-4.4-0.3-7.4-2.9-9.8-6.3
	c-0.5-0.9-0.8-1.9-0.7-2.9c0-2,0-4.1,0-6.1L248.6,183.6z"/>
<path class="st4" d="M237,55.9c1.5-0.1,3.1,0.5,4.2,1.5c0.3,0.3,0.6,0.5,0.9,0.8c2.5,1.7,3.7,4.8,3.1,7.7
	c-0.9,5.5-0.7,11.2-0.8,16.8c0,1.3-0.1,2.7-0.3,4c-0.4,3.1-3,4.5-5.6,2.9c-4.2-2.6-9-3.9-13.6-5.4c-2.7-0.8-3.1-1.7-3.1-4.5
	c0.2-4.5,0.7-8.9,1.6-13.3c0.2-1.1,0.3-2.1,0.3-3.2c-0.1-3.8,2.6-6,6.1-6.5C232.1,56.3,234.5,56.1,237,55.9z"/>
<path class="st4" d="M246.6,77.8c0-5,0.4-10,1.2-15c0.2-2.5,2.1-4.5,4.6-4.9c2.7-0.7,5.4-1,8.2-0.8c1,0.1,2,0.4,2.9,1.1
	c2.2,1.7,4.2,3.8,5.7,6.1c0.9,1.3,1.2,2.9,1,4.5c-0.6,4.3-0.9,8.7-1,13c0,1-0.2,2-0.2,3c0,1.4-1.1,2.5-2.4,2.7
	c-3.2,0.8-6.5,1.5-9.7,0c-0.3-0.1-0.7-0.1-1,0l-5.5,1c-1.8,0.3-2.7-0.3-3.2-2.1c-0.3-1.4-0.4-2.9-0.4-4.3
	C246.6,80.6,246.6,79.2,246.6,77.8z"/>
<path class="st3" d="M245.6,183.3c0.1,2.6,0,5.1-0.3,7.7c-0.2,1.6-1.1,3-2.5,3.7c-3.3,1.8-6.9,3-10.7,3.4c-1.2,0.1-2.5-0.2-3.6-0.8
	c-1.6-0.7-3.2-1.6-4.9-2.3c-1.3-0.5-2.1-1.8-1.9-3.2c0-2,0.4-4,0.5-6.1c0.2-3.6,0.4-7.1,0.7-10.6c0.1-1.7,0.3-3.4,1.8-4.4
	c2.1-1.2,4.3-2.6,6.8-1.7c3.8,1.4,7.8,2.5,11.5,4.2c1.7,0.7,2.7,2.4,2.6,4.2C245.6,179.4,245.6,181.3,245.6,183.3z"/>
<path class="st3" d="M90.4,184.9c-0.1-1.8-0.1-3.5,0.1-5.3c0.2-1.9,1.3-3.7,3.1-4.5c1.5-0.7,3-1.3,4.6-1.8c1.7-0.6,3.4-1.1,5.1-1.7
	c1.3-0.4,2.6-0.4,3.9,0.1c1,0.3,1.9,0.5,2.9,0.6c0.5,0.1,1.1,0.3,1.6,0.4c3.1,1,4.1,2.4,3.7,5.6c-0.5,3.5-0.6,7.1-0.3,10.6
	c0.1,1,0,2.1-0.2,3.1c-0.3,1.3-1.1,2.5-2.3,3.2c-4.7,3.6-11.1,3.9-16.3,1c-1.6-0.8-3.1-1.9-4.3-3.2c-0.9-0.9-1.5-2.1-1.6-3.4
	C90.4,188.1,90.4,186.5,90.4,184.9z"/>
<path class="st3" d="M209.5,172.3c1.6-0.1,3.2-0.2,4.8-0.1c3.5,0,6.4,2.8,6.5,6.3c0.1,3.7-0.8,7.2-1.3,10.8c-0.6,4.4-3,6.7-7.4,7.3
	c-3.2,0.5-6.4,1.1-9.7,0.2c-3.4-1-5.7-3.4-7.4-6.4c-0.3-0.5-0.4-1.1-0.3-1.8c0-4.2,0.8-8.3,1-12.4c0.1-1.1,0.9-1.5,1.8-1.9
	c3-1.4,6.2-2.1,9.5-2C207.8,172.4,208.7,172.3,209.5,172.3z"/>
<path class="st4" d="M157.3,42.2c0.2,2.1,0.3,4.3,0.2,6.5c-0.1,1.5-0.5,1.9-1.9,2.1c-2,0.3-4,0-5.7-1c-1.2-0.7-2.4-1.3-3.6-2
	c-1.7-1-3.7-1.2-5.5-0.4c-2.4,1-4.6,2.3-6.7,3.7c-0.7,0.5-1,0.4-1.6-0.1c-1.4-1.1-2.1-2.9-1.9-4.7c0.3-4.3,0.3-8.7,0.6-13
	c0-2.9,2.1-5.4,5-5.9c2.4-0.6,4.8-1,7.3-1.2c4.5-0.2,8.8,1.6,11.8,4.9c1.4,1.4,2.1,3.3,2,5.2C157.3,38.3,157.3,40.3,157.3,42.2z"/>
<path class="st4" d="M266.1,41.7c-0.1,1.8-0.2,4.5-0.5,7.2c-0.3,3.5-2.1,5.5-5.5,6.1c-4.1,0.7-8.2,1.2-12.3,1.8
	c-0.7,0.1-1.5-0.2-1.9-0.8c-1.2-1.4-2.1-2.9-2.8-4.6c-0.2-0.6-0.3-1.3-0.1-2c0.8-4.6,1.8-9.1,2.2-13.7c0.2-2,1.5-3.8,3.4-4.6
	c2.8-1.5,5.9-2.5,9.1-2.9c3.5-0.6,8.9,4.2,8.5,7.5C266,37.7,266,39.7,266.1,41.7z"/>
<path class="st3" d="M45.1,195.8c-2.7-0.1-6.5-1.6-7.4-5.2c-0.7-2.7-1-5.5-0.8-8.3c0.1-2.2,0.3-4.5,0.4-6.7c0-1.8,1-3.5,2.6-4.5
	c0.6-0.4,1.2-0.7,1.9-1.1c2.7-1.5,5.3-1.6,7.6,0.9c2.3,2.3,5.5,3.5,8.7,3.3c2.9,0,4.2,1.3,4.2,4.2c0,0.7-0.1,1.4-0.3,2.1
	c-0.5,2.8-0.9,5.7-1.2,8.6c-0.2,2.7-1.4,4-4,4.4c-3.4,0.6-6.8,1.2-10.2,2.1C46,195.7,45.5,195.8,45.1,195.8z"/>
<path class="st3" d="M287.7,89.5c0,1,0.1,2.1,0.1,3.1c0,13.8,0,27.7,0,41.5c0,0.4,0,0.7-0.1,1.1c-1,0.2-2.1,0-3-0.6
	c-3.3-2.4-6.5-5-9.4-7.8c-0.9-0.9-1.4-2.2-1.4-3.4c-0.1-5.3-0.3-10.6-0.4-15.8c-0.1-2.6,0.2-5.2,0.8-7.7c1-4.7,4.6-8.3,9.2-9.4
	C285,89.9,286.3,89.7,287.7,89.5z"/>
<path class="st4" d="M27.3,41.9V37c0-1.2,0.2-2.4,0.4-3.6c0.6-2.7,2.5-4.1,4.9-4.9c1.8-0.5,3.7-1,5.6-1.5c1.2-0.3,2.5-0.2,3.6,0.4
	c2.1,1.1,4.2,2.3,6.1,3.8c2.4,1.9,3.8,4.8,3.7,7.8c0,3.1,0.1,6.2,0.2,9.2c0,1.7-0.5,2.3-2.2,2.7c-2.9,0.7-5.8,0.3-8.7,0.5
	c-1,0-2,0.1-3,0.3c-2.9,0.7-5.7,0.1-8.6-0.2c-1.3-0.1-1.9-1-2-2.3C27.1,46.9,27.5,44.5,27.3,41.9z"/>
<path class="st4" d="M214.6,25.4c0.5-3,0.7-6.1,0.6-9.1c-0.1-5.6,3.9-10.5,9.4-11.6c2.8-0.5,5.7-0.8,8.6-1c2.4-0.2,4.8,0.7,6.5,2.5
	c2.5,2.2,3.9,5.4,3.6,8.8c-0.3,3.7-0.8,7.4-1.1,11.1c-0.1,1.1-0.6,1.2-1.4,0.9c-0.5-0.2-0.9-0.4-1.3-0.6c-0.9-0.5-1.9-1.1-2.8-1.6
	c-1.3-0.7-2.8-0.9-4.2-0.4c-0.9,0.3-1.9,0.6-2.9,0.9c-1.7,0.6-3.6,0.6-5.3,0C221.1,24,217.9,23.6,214.6,25.4z"/>
<path class="st4" d="M201.7,50.1c-0.8,0-1.7,0-2.5,0c-3-0.3-6,0.5-8.5,2.3c-0.6,0.5-1,0.4-1.6-0.2c-3.1-3.3-3.6-7.2-2.5-11.4
	c0.8-3.3,1.6-6.6,2.3-9.9s1.1-3.5,4.2-4.2c2-0.4,4.1-0.6,6.2-0.8c1.7-0.2,3.5,0.3,4.9,1.3c3.4,2.3,5.8,5.7,6.8,9.7
	c0.3,1.6,0.3,3.3-0.2,4.9c-0.4,2.2-0.9,4.3-1.3,6.5c-0.3,1.6-0.7,2-2.3,2C205.4,50.1,203.5,50.1,201.7,50.1L201.7,50.1z"/>
<path class="st3" d="M166.5,188.3c0.4-3.1,0.7-6.5,1.1-10c0.2-1.3,1-2.5,2.1-3.2c1.9-1.3,4.3-1.9,6.6-1.6c3.8,0.7,7.7,1,11.6,0.8
	c1.9-0.2,3.6,1.1,4,2.9c0.3,0.9,0.5,1.8,0.6,2.7c0.3,3.7-0.2,7.5-1.4,11c-0.7,2.4-2.7,4.1-5.1,4.6c-2,0.4-4,0.9-5.9,1.4
	c-3,0.8-5.7-0.1-8.3-1.3c-0.7-0.3-1.4-0.8-2.2-1c-1.8-0.7-3-2.3-3.1-4.2C166.6,189.8,166.6,189.2,166.5,188.3z"/>
<path class="st3" d="M164.9,181.6c-0.1,3.5-0.7,7-1.7,10.4c-0.5,1.7-1.7,3-3.3,3.5c-2,0.8-4.2,1.4-6.3,1.7c-3.3,0.4-6-1-8.5-2.9
	c-3-2.1-4.7-5.7-4.3-9.4c0.2-2.2,0.3-4.5,0.6-6.7c0.5-3.8,4-6.5,7.8-6.2c3.1,0.3,6.2,0.4,9.3,0.4c0.9,0,1.8,0.3,2.5,0.9
	c2.2,1.9,3.9,4,3.7,7.2C164.9,180.9,164.9,181.2,164.9,181.6z"/>
<path class="st4" d="M160.4,40.9c0-2.6,0-5.2,0-7.8c-0.1-2.3,1.2-4.5,3.4-5.3c5.7-2.4,11.4-3.1,17,0.2c1.9,1,3.1,2.8,3.3,4.9
	c0.3,3.5,0.2,7-0.3,10.5c-0.3,2.6-1,3.3-3.6,3.6c-2.9,0.4-5.8,1.1-8.8,1.2s-6,1.3-8.8,2.5c-1.5,0.6-2.2,0.3-2.2-1.4
	C160.3,46.6,160.3,43.7,160.4,40.9L160.4,40.9z"/>
<path class="st3" d="M11.4,181.5c0.1-1.9,0.2-3.8,0.4-5.7c0.1-1.4,0.9-2.7,2.1-3.3c3.2-1.7,6.4-2.7,10-1.2c2,0.7,4.1,1.3,6.2,1.8
	c3.1,0.9,4.4,3.5,4.3,6.9c-0.1,3.3-0.4,6.5-0.5,9.8c-0.1,2.9-1.1,4.2-3.8,5.1c-3.7,1.1-7.4,1.4-11-0.2c-0.6-0.3-1.3-0.5-1.9-0.7
	c-2.8-0.7-4.2-2.7-4.8-5.3C11.7,186.4,11.4,183.9,11.4,181.5z"/>
<path class="st3" d="M117.4,183.8c0.1-2.1,0.1-4.2,0.3-6.3c0.4-3.9,2.8-6,6.8-5.9c2.7,0.1,5.3,0,8-0.2c3.5-0.5,6.7,2,7.1,5.5
	c0,0.2,0,0.4,0,0.6c0.1,1.8,0,3.6-0.5,5.4c-0.4,1.9-0.7,3.9-0.6,5.9c0.1,3.2-1.7,4.9-4.2,6c-1.8,0.7-3.6,1.3-5.5,1.6
	c-1.4,0.3-2.9,0.2-4.2-0.4c-1.2-0.6-2.6-1.1-3.8-1.6c-2.7-1.1-3.7-3.2-3.5-6.1C117.3,186.8,117.4,185.2,117.4,183.8L117.4,183.8z"/>
<path class="st4" d="M105.1,41.9c0-2.9,0.3-5.7,0.7-8.6c0.4-2.2,1.9-4.1,4.1-4.8c2.4-0.9,4.9-1.4,7.5-1.7c4-0.3,9.9,3.8,10.9,7.6
	c0.5,1.7,0.2,3.3,0.3,5c0.3,2.5,0.2,5-0.3,7.4c-0.2,1.2-1.2,2.1-2.4,2.3c-2.3,0.4-4.7,0.6-7,0.5c-3.3,0.2-6.6,0.4-9.9,0.6
	c-2.7,0.2-3.8-0.9-3.7-3.6c0-0.8,0-1.7,0-2.5L105.1,41.9z"/>
<path class="st3" d="M87.5,183.5c-0.1,1.1-0.2,2.6-0.4,4c-0.2,3-2.2,5.5-5,6.4c-0.6,0.2-1.2,0.5-1.8,0.7c-1.9,0.8-4,0.9-6,0.2
	c-2.4-0.9-4.8-1.8-7.2-2.9c-1.9-0.8-3.1-2.8-3-4.9c0-2.1,0.1-4.2,0.6-6.2c0.1-1.4,0.4-2.7,0.8-4c0.3-0.9,0.8-1.6,1.5-2.3
	c2-1.8,4.3-3.2,6.8-4.3c1.5-0.8,3.4-0.7,4.8,0.1c2,1.2,4,2.4,6,3.7c2.2,1.5,2.8,3.8,3,6.3C87.6,181.4,87.5,182.2,87.5,183.5z"/>
<path class="st4" d="M287.7,55.6c0.2,3.8,0.1,7.5,0.1,11.3c0,6.2,0,12.5,0,18.7c0,0.4-0.1,0.8-0.1,1.2c-2.6,0.7-5.1,1.5-7.6,2.4
	c-5.5,1.9-8.1-0.5-8.3-6c-0.1-3.8,0.2-7.5,0.8-11.2c0.4-3,0.6-6,1.3-9c0.4-1.7,1.4-3.2,2.9-4.2C280.1,56.7,283.9,56.1,287.7,55.6z"
	/>
<path class="st4" d="M102.1,40.7c0.2,3-0.4,6.3-0.6,9.7c-0.1,1.2-0.7,1.6-1.8,1.6c-2.4-0.1-4.9-0.5-7.2-1.3
	c-1.4-0.4-2.8-0.5-4.2-0.2c-1.8,0.4-3.6,0.6-5.3,0.5c-0.6,0-1-0.2-1.1-0.8c-0.8-4.8-1.4-9.7-0.6-14.5c0.2-1.3,0.8-2.5,1.6-3.4
	c1.8-2.4,4.4-4.1,7.3-4.8c4.4-1,7.9,0.9,10.9,4.1c0.4,0.5,0.7,1.2,0.7,1.9C102.1,35.9,102.2,38.3,102.1,40.7z"/>
<path class="st4" d="M210.7,29.6c-1.2-2.2-2.4-4.4-4.5-5.8c-1.6-0.9-3.3-1.5-5.2-1.6c-4.6-0.5-8.5,1.2-12.4,3.4
	c-1,0.6-1.4,0.3-1.8-0.6c-0.4-0.9-0.6-1.8-0.5-2.8c0.2-3.1,0.4-6.3,0.6-9.4c0.1-1.1,0.3-2.2,0.8-3.2c1.5-3.7,4.4-5.2,8.1-5.3
	c2.9-0.1,5.8,0,8.7,0.1c3.7,0.1,5.3,1.4,5.7,5.1c0.7,6.6,1.5,13.1,0.6,19.7L210.7,29.6z"/>
<path class="st4" d="M70.9,49.8c-4-0.1-7.9-0.6-11.8-1.6c-3.1-0.7-4-1.9-4.2-5.1c-0.1-2.1-0.1-4.2-0.2-6.2c0-1.5,0.7-2.9,1.9-3.8
	c2.4-1.9,5-3.6,7.7-5c0.7-0.4,1.6-0.5,2.4-0.2c2.2,0.6,4.3,1.3,6.4,2.2c3.1,1.3,5.2,4.2,5.3,7.5c0.4,3.2,0.6,6.3,0.5,9.5
	c-0.1,1.9-0.7,2.5-2.5,2.6C74.7,49.8,72.8,49.9,70.9,49.8z"/>
<path class="st3" d="M89.2,201.2c0,1.2-0.1,2.5,0,3.7c0.2,3.1-1.2,6.2-3.8,8c-1.7,1.5-3.7,2.6-5.9,3.2c-4.5,1-8.9,0.4-12.5-2.9
	c-0.7-0.6-1.2-1.5-1.5-2.4c-1.1-4.8-1.6-9.8-1.3-14.8c0-0.2,0-0.5,0.1-0.7c0.3-1,0.7-1.2,1.6-0.6c3.8,2.7,8.5,3.7,13.1,2.8
	c3-0.5,5.9-1.3,8.1-3.7c0.7-0.8,1.2-0.5,1.5,0.3c0.3,0.6,0.4,1.3,0.4,2L89.2,201.2L89.2,201.2z"/>
<path class="st4" d="M269,16.9c-0.2,3.7-0.5,7.2-0.7,10.8c0,0.8-0.6,1.4-1.4,1.4c-0.4,0-0.7-0.1-1-0.4c-1-0.8-2-1.7-3.1-2.5
	c-1.7-1.4-3.9-1.8-6-1.2c-3.3,0.9-6.6,1.7-9.9,2.4c-1.7,0.4-2.3-0.2-2-1.9c0.6-3.8,1.1-7.7,1.7-11.5c0.3-2,1.4-3.7,3-4.9
	c2.7-2.2,6-3.4,9.5-3.4c0.8,0,1.6,0,2.4-0.1c3.7-0.4,7.1,2.2,7.5,5.9c0,0.2,0,0.4,0,0.6C269.2,13.7,269.2,15.3,269,16.9z"/>
<path class="st4" d="M287.6,28.2c0.1,0.3,0.1,0.6,0.1,0.9c0,7.3,0,14.7,0,22.1c0,0.3-0.1,0.5-0.1,0.8c-4,1.3-8,2.2-12.1,2.8
	c-3.2,0.4-4.5-0.5-5.7-3.4c-0.5-1.2-0.7-2.5-0.5-3.8c0.7-4,1-8.1,1-12.2c0.1-3.2,0.8-4.2,3.9-5.2c2.5-0.8,5.1-1.5,7.7-2.3
	C283.8,27.5,285.8,27.5,287.6,28.2z"/>
<path class="st4" d="M132,17.6c0-1.6,0.1-3.2,0.3-4.8c0.3-2.3,1.9-3.6,3.7-4.6c5.1-2.7,10.4-3.2,15.8-0.8c3.1,1.4,4.4,4.1,5.2,7.2
	c0.6,2.2,0.7,4.5,0.3,6.8c-0.2,1-0.2,2.1-0.3,3.1c0,1-0.7,1.8-1.7,1.9c-0.4,0-0.8-0.1-1.1-0.3c-1.3-0.6-2.6-1.3-3.8-2
	c-2.5-1.4-5.2-0.9-7.6-0.1c-3,1-5.8,0.5-8.7,0.2c-1.2-0.1-1.7-1.1-1.8-2.2C132.1,20.5,132.1,19,132,17.6z"/>
<path class="st4" d="M172.6,3.4c4.5-0.2,9.4,4,9.9,8.3c0.4,3,0.9,6,1.4,9c0.2,1.3,0,2.6-0.5,3.8c-0.2,0.7-0.8,1.1-1.5,0.9
	c-0.1,0-0.1,0-0.2-0.1c-1.2-0.4-2.4-0.9-3.5-1.5c-2.2-1.2-4.7-1.5-7.1-0.9c-3.2,0.6-6.3,1.6-9.6,2.2c-1.4,0.2-1.9-0.2-1.7-1.5
	c0.7-4.8,1.4-9.6,2.2-14.3c0.3-1.7,1.5-3.2,3.1-3.8C167.5,4.1,170,3.5,172.6,3.4z"/>
<path class="st4" d="M259.9,218.4c-2.6,0.1-5.1-0.3-7.6-1c-3-0.8-5-3.5-4.9-6.6c0-3.9,0.7-7.6,1.1-11.5c0.2-1.7,0.7-1.9,1.9-0.6
	c3.9,4.2,8.6,4.2,13.6,3c2.7-0.6,5.4-1,8.2-1.1c0.5-0.1,1,0.2,1.1,0.8c0.8,2,0.5,4,0.2,6c-0.2,1.4-0.5,2.8-0.8,4.2
	c-0.4,1.9-1.7,3.4-3.4,4.3C266.5,217.5,263.3,218.4,259.9,218.4z"/>
<path class="st4" d="M244.5,196.3c0.1,0.4,0.2,0.8,0.2,1.1c0.2,4.4,0,8.8-0.7,13.1c-0.5,2.7-2.3,4-4.6,4.9c-2.2,0.9-4.4,1.6-6.7,2.2
	c-1.2,0.2-2.5,0.1-3.7-0.3c-2.2-0.4-4.2-1.3-6-2.6c-2-1.3-3.1-3.7-2.8-6.1c0.2-3.5,0.6-6.9,1-10.4c0.1-1.1,0.5-1.2,1.5-0.8
	c2.6,1.1,5.1,2.5,7.9,2.6c4.6,0.2,9-0.6,12.8-3.4C243.9,196.6,244.1,196.3,244.5,196.3z"/>
<path class="st4" d="M29.3,18.3c0-1.8,0.1-3.5,0.4-5.2c0.2-1.2,1-2.2,2-2.8c2-1.2,4.2-1.7,6.5-1.4c3.7,0.2,7.3,0.8,10.8,1.8
	c2.6,0.6,4.5,2.7,5,5.3c0.8,4.1,0.8,8.3-0.1,12.4c-0.1,0.7-0.5,1.3-1.1,1.7c-1.2,0.9-1.6,0.9-2.7-0.2c-2.5-2.8-5.8-4.6-9.4-5.3
	c-1.6-0.3-3.2-0.1-4.7,0.4c-1.2,0.3-2.3,0.7-3.5,0.9c-1.9,0.4-2.5-0.1-3-2C29.3,21.9,29.2,20.1,29.3,18.3z"/>
<path class="st4" d="M128.7,29.5c-6.4-6.9-13.7-7.6-21.8-3.1c-0.2-3.3-0.6-6.6-1.2-9.9c-0.3-2-0.2-4.1,0.3-6.1
	c0.4-1.3,1.4-2.4,2.7-2.9c0.4-0.2,0.8-0.4,1.2-0.6c1.1-0.7,2.5-0.8,3.6-0.2c2.2,0.9,4.6,1.3,7,1.3c1.8,0,3.6,0.2,5.3,0.8
	c1.3,0.5,2.3,1.6,2.5,3c0.5,3.8,0.8,7.6,0.9,11.5c0.3,1.7,0.3,3.3,0.1,5C129.1,28.7,129.1,29.2,128.7,29.5z"/>
<path class="st4" d="M57,28.2c1.1-3.1-0.5-5.9-0.5-8.9c-0.1-1.7-0.1-3.5,0.2-5.2c0.4-1.8,1.5-3.3,3.1-4.1c2.3-1.3,5-1.8,7.6-1.2
	c3.3,0.5,6.6,1,9.4,3.2c1.2,0.9,2,2.1,2.3,3.5c0.7,3.1,1.2,6.3,1.3,9.5c0,0.8-0.1,1.5-0.3,2.2c-0.6,1.9-1.9,2.4-3.5,1.2
	c-4.7-3.8-9.9-4.4-15.5-2.8C59.6,26.1,58.2,27,57,28.2z"/>
<path class="st4" d="M26.4,23c0.2,1.3,0.1,2.7-0.4,4c-0.3,1.1-1.4,1.8-2.6,1.5c-0.2,0-0.3-0.1-0.4-0.2c-2.3-0.8-4.6-1.6-6.9-2.5
	c-2.3-0.9-4.9-1-7.3-0.1c-1.2,0.4-2.4,0.7-3.7,1.1c-0.6,0.3-1.4,0-1.7-0.6c-0.1-0.1-0.1-0.3-0.1-0.4c-0.9-3.8-1.1-7.7-0.8-11.5
	c0.1-1.1,0.8-2.1,1.9-2.6c5-2.2,10.2-3.3,15.6-1.5c2.5,0.7,4.4,2.7,5.1,5.2C25.9,18,26.3,20.5,26.4,23z"/>
<path class="st4" d="M115.6,196.3c0.7,1,1,2.2,0.9,3.4c-0.5,4.1-0.4,8.1-0.7,12.2c-0.2,2.5-2.1,3.6-4.4,4.3
	c-2.8,0.8-5.7,0.6-8.6,0.6c-0.7,0-1.4-0.1-2-0.4c-1.3-0.7-2.6-1.3-4-2c-2.3-1-3.8-3.3-3.8-5.8c0-3.2-0.2-6.3-0.2-9.5
	c0-1.1,0.4-1.4,1.4-0.8c2.4,1.5,5.2,2.5,8,2.9c2.4,0.3,4.8-0.1,7-1.1C111.3,198.9,113.7,197.9,115.6,196.3z"/>
<path class="st4" d="M208,216.3c-2.2,0.1-4.4-0.2-6.5-0.8c-2.6-0.6-4.5-2.7-5-5.2c-0.7-3.8-1.2-7.6-1.4-11.4
	c-0.1-0.8-0.2-1.6-0.2-2.4c0-0.3-0.2-0.7,0.2-0.8s0.4,0.2,0.6,0.4c0.6,0.5,0.9,1.2,1.4,1.8c1.2,1.2,2.8,2,4.5,2.3
	c3.7,0.9,7.6,0.6,11.2-0.7c1.8-0.6,3.6-1.1,5.4-1.7c0.5-0.1,0.8-0.2,0.8,0.5c-0.3,4.2-0.5,8.4-0.9,12.5c-0.3,3-1.4,4.1-4.3,4.8
	C211.9,216,209.9,216.3,208,216.3z"/>
<path class="st4" d="M59.2,195.8c0,3.9,0,7.8,0,11.7c0,2.4-1.4,4.6-3.5,5.6c-4.1,2.4-8.3,2.3-12.7,0.9c-3.6-1.1-4.9-3.6-5.1-7.1
	c-0.2-2.5-0.3-4.9-0.1-7.4c0-0.3,0.1-0.6,0.2-0.9c0.5-1.8,0.8-2,2.4-1.2c2.2,1.2,4.8,1.6,7.3,1.1c2.9-0.6,5.9-1.2,8.8-1.8
	C57.5,196.4,58.3,196.1,59.2,195.8z"/>
<path class="st4" d="M191.2,195c0.4,3.1,0.4,6.3,0.2,9.4c-0.1,1.1-0.2,2.3-0.4,3.4c-0.6,4.1-2.7,6.2-6.7,6.9
	c-3.3,0.7-6.8,0.5-10-0.5c-2.4-0.6-4.2-2.5-4.9-4.8c-0.9-3.1-1.5-6.2-1.8-9.4c0-0.2,0-0.3,0-0.5c0.1-1.7,0.3-1.9,1.9-1.3
	c2.9,1.2,6,1.9,9.2,2.1c3.5,0.2,6.9-1,9.5-3.3C189.1,196.2,190.1,195.5,191.2,195z"/>
<path class="st4" d="M83.4,27.1c-0.8-4-0.9-8.2-0.1-12.2c0.6-3.1,2.2-5.1,5.4-5.7c2.7-0.5,5.4-1.1,8.2-0.7c3.9,0.6,5.5,2,6.3,5.8
	c0.7,4.1,0.7,8.2-0.1,12.3c-0.2,0.9-0.5,0.4-0.9,0.3c-3.3-1.5-6.9-2.4-10.5-2.5c-2.6,0-5.1,0.7-7.2,2.1L83.4,27.1z"/>
<path class="st4" d="M119.8,200.7V198c0-0.8,0.3-1,0.9-0.5c0.4,0.2,0.8,0.5,1.2,0.7c3.2,1.9,6.5,1.6,9.8,0.3
	c1.9-0.7,3.8-1.5,5.6-2.3c1-0.4,1.5-0.1,1.9,0.9c0.6,1.7,0.4,3.5,0.6,5.2c0.2,1.4,0.3,2.9,0.5,4.3c0.3,1.9-0.3,3.8-1.6,5.2
	c-4.6,5.1-10,4.9-15.6,1.8c-1.2-0.7-2-1.9-2.2-3.2C120.2,207.2,119.8,203.9,119.8,200.7z"/>
<path class="st4" d="M22.6,214.4c-3.8-0.1-6.4-2.1-8.4-5.1c-0.5-1-0.7-2.1-0.5-3.1c0.1-2.1,0.3-4.1,0.4-6.2c0-1.8,1.4-3.3,3.2-3.3
	c0.4,0,0.8,0.1,1.2,0.2c0.7,0.2,1.4,0.4,2,0.7c3.4,1.2,7.1,1,10.3-0.6l0.8-0.3c2.3-1,3.8,0,3.7,2.6c-0.1,1-0.2,1.9-0.4,2.9
	c-0.2,0.8-0.3,1.6-0.4,2.4c0.3,6-2.6,7.2-8.4,9.4C25,214.2,23.8,214.4,22.6,214.4z"/>
<path class="st4" d="M164.4,195.9c0.6,3.8,0.7,7.6,0.3,11.4c-0.2,1.6-1.1,3.1-2.5,4c-2.5,1.9-5.6,2.9-8.7,2.8c-2.5-0.2-5-0.9-7.2-2
	c-0.9-0.4-1.5-1.2-1.8-2.2c-1-3.4-1.6-6.9-1.6-10.5c0-0.4,0.1-0.8,0.2-1.1c0.3-0.8,0.7-1.1,1.6-0.7c4.9,2.5,10,2.4,15.2,1.3
	c0.7-0.2,1.3-0.5,1.8-0.9L164.4,195.9z"/>
<path class="st3" d="M287.9,176c0,2.5-0.1,5-0.1,7.4c0,5.7,0,11.4,0,17.1c-0.4,0.1-0.8,0.1-1.2,0.2c-4.6,0.1-9.5-4.5-9.6-9.1
	s0.6-8.8,0.9-13.2c0.1-0.4,0.1-0.7,0.1-1.1c-0.1-1.3,0.4-2.6,1.4-3.4c2.4-2.3,3.1-2.5,6.1-1.3c0.8,0.3,1.5,0.7,2.3,1
	C287.8,174.5,287.8,175.3,287.9,176z"/>
<path class="st4" d="M287.6,4.7c0.2,2.6,0.1,5.3,0.1,7.9c0,4,0.1,8-0.1,12c-3.2,0.5-6.2,1.8-9.3,2.6c-1.4,0.4-2.8,0.7-4.2,0.9
	c-1.9,0.3-2.3-0.3-1.7-2.1c1.2-3.8,2.4-7.6,3.3-11.5c0.3-1.2,0.5-2.4,0.8-3.6c0.7-3.1,3.2-5.4,6.3-5.9C284.4,4.7,286,4.6,287.6,4.7z
	"/>
<path class="st3" d="M287.8,137.9c0,3.3,0.1,6.6,0.1,9.8c0,7.5,0,15,0,22.4c0,0.3,0,0.6-0.1,0.8c-2.7-1.3-3.6-2.7-3.4-5.7
	c0.4-6.2,0.4-12.4,1-18.6c0.2-2.2,0.6-4.4,0.9-6.6C286.3,139.2,286.9,138.3,287.8,137.9z"/>
</svg>
