<svg id="Layer_1" data-name="Layer 1" xmlns="http://www.w3.org/2000/svg" viewBox="0 0 502.67 99.23"><defs><style>.cls-2{fill:#f8c014}</style></defs><path d="M485.2 18.22c1.35-5.84 5.32-9.1 11.07-10.26a22.16 22.16 0 0 1 6.24-.47V4c-4.33.29-9.05.42-13 2.17a15.13 15.13 0 0 0-5.79 4.71c-.24.36-.47.73-.68 1.12l-.05.07a6.08 6.08 0 0 0-.67 2.28 2.52 2.52 0 0 1-1.26 2.07 2.85 2.85 0 0 1-2.37.77.93.93 0 0 1-1.1-.36 2.66 2.66 0 0 1-1.13-1.32 15.5 15.5 0 0 0-.69-1.48q-.33-.54-.63-1.11c-4.29-7-12.28-8.28-20.34-8.4-4.1-.06-8 .13-11.67 2-2.87 1.48-8.13 4.25-9.43 7.4a2.71 2.71 0 0 1-.26.51c-.61 1.63-3.09 1.76-4.34.42l-.18-.24a.78.78 0 0 1-.1-.15 2.58 2.58 0 0 1-.4-1.15 13.1 13.1 0 0 0-.64-2.82c-.89-1.1-1.68-2.27-2.52-3.4a16.24 16.24 0 0 0-1.05-1.28c-.31-.3-.63-.59-1-.86-.13-.07-.25-.15-.13-.12a2.55 2.55 0 0 1-.46-.25c-4.39-2.43-10.43-2.74-15.3-2.6-4.66.14-9.29 0-13.95 0a23.16 23.16 0 0 0-11.65 3 .1.1 0 0 1 0 .05 15 15 0 0 1-1.16 1.09c-.13.23-.26.47-.38.71-.29.6-.56 1.21-.88 1.79a2.34 2.34 0 0 1-.64.75 16 16 0 0 1-.51 2.1c-1 3.15-6 1.8-5-1.36 1.23-3.8.63-7.06-3.57-7.78-2.94-.5-6-.17-9-.12-8.07.15-16.2-1.22-24.31-1.4a2.52 2.52 0 0 1-.33.13c-3.14.79-7.76 2.17-7.61 6.12a2.55 2.55 0 0 1-.28 1.26 2.36 2.36 0 0 1-2.43 2.09A2.4 2.4 0 0 1 323.17 8v-.06C321.94-.55 308.08-.43 301.78.33a70.26 70.26 0 0 0-10.07 1.86c-4.81 1.32-7.22 4.34-10 8.31a2.71 2.71 0 0 1-1.08.91 2.4 2.4 0 0 1-3.74.25c-6.17-6.48-14.68-7.1-23.19-8-5-.55-9.21 1.37-13.45 3.85-2.19 1.28-6.72 3.39-7.49 5.88a2.75 2.75 0 0 1-.23.55c-.25 2.68-4.46 3.6-5 .61-.85-4.75-3.21-6.4-7.69-6.83-2.5-.24-5-.25-7.48-.6-3.55-.49-8.33-.3-11.7-2.1H199.27c-5.15.81-9.11 2.73-13.6 6l-.11.06a2.79 2.79 0 0 1-2.57 1.81.81.81 0 0 1-.67-.07 2.62 2.62 0 0 1-1.59-1.06c-1.4-2-7-1.8-9-1.76-3.41.06-6.76.69-10.14 1-4 .44-8.07.2-12 1.13-2.63.63-4.65 2.26-7.2 2.95a2.45 2.45 0 0 1-3.1-1.89 1 1 0 0 1-.06-.16c-.46-1.42-5.68-2.05-7-2.31a74.62 74.62 0 0 0-13.77-.85c-8 0-15 .13-20.37 6.86-1.35 1.69-3.66.44-4.3-1.13a5.1 5.1 0 0 0-2.14-2.36 3.1 3.1 0 0 1-.73-.36l-.23-.06a52.64 52.64 0 0 1-6.51-1.38 8.2 8.2 0 0 1-2.5-.72 2.9 2.9 0 0 1-.54-.22c-3.43-.42-6.9-.61-10.27-.76-7.87-.43-13.87 2.2-20.39 6.5A4.16 4.16 0 0 1 48 17.7a.92.92 0 0 1-1 0 3.55 3.55 0 0 1-2.05-1c-3.9-3.77-10.85-5.7-15.82-7.35a3.52 3.52 0 0 1-.45-.18 27.25 27.25 0 0 0-9.1.51 58.48 58.48 0 0 1-7.12 1.9 3.8 3.8 0 0 1-1.69.38L9 12h-.5a3.92 3.92 0 0 1-1.17.24h-.24a10.82 10.82 0 0 0-2.89 1.3c-1.35.83-2.66 1.62-4 2.32v43C1.13 54.94 4 53 7.53 51.72c4.38-1.58 8.41-4.38 13.35-3.93A43.2 43.2 0 0 1 40 54.07a7.93 7.93 0 0 1 4.08 7c.36 8.21.29 16.43.45 24.64.09 4.58-1.46 6.08-6.07 5.91-4.09-.15-8.19-.59-12.26-1a28.3 28.3 0 0 0-15.56 2.98c-3.32 1.59-5.75.66-8.31-1.15-.75-.53-1.45-1.13-2.17-1.7-.43 2.81.12 5.59.39 8.37h14.6c3.9-3 8-5 13.12-3.37 3.37 1 7.05 1.18 10 3.37H51.4a5.34 5.34 0 0 1 2.14-1.69c5-2.22 10.3-3.35 15.51-4.81a7 7 0 0 1 3.71.19 46.74 46.74 0 0 1 12.88 6.31h11.07c.46-3.72 3.4-5.44 6.27-6.47a49.83 49.83 0 0 1 20.13-3.15c5.31.37 10 3 14.13 6.44a4.22 4.22 0 0 1 1.76 3.18h6.54c1.8-4 12.74-9.71 17.19-8.49 4.86 1.33 9.5 3.35 13.14 7.07.39.39 1 .71.89 1.42h11.07a8.86 8.86 0 0 1 4.59-3.71 114.51 114.51 0 0 1 13.4-5c7-1.94 17.14 2.41 20.28 8.66h10.57c.3-5.63 2.58-8.56 7.93-10.18a57.12 57.12 0 0 1 9.33-1.88 10.32 10.32 0 0 1 6.79 1.19c5 2.92 9.87 6 13.21 10.87H282a3.62 3.62 0 0 1 1.05-3 11.6 11.6 0 0 1 2.7-2.59c7.5-4.23 15.3-7.9 24.16-7 6.72.68 11.83 4.78 16.31 9.57a4 4 0 0 1 1.09 3h10.58c.2-4.39 2.84-7.87 7.59-8.59 11.21-1.7 22-.69 31.59 6.25a30.17 30.17 0 0 1 2.6 2.34h20.13a9.39 9.39 0 0 1 4.71-1.45c4-.46 8.1-.79 12.16-1.08a8.41 8.41 0 0 1 6.8 2.53h26.18c3.35-.7 6.71-1.09 10.07 0h30.71c3.86-1.68 8.05-2 12.08-3v-5.49c-6.25 1.51-12.42 3.44-18.85 4.13s-10.19-2.37-11-8.89a22.46 22.46 0 0 1 .5-6.74c1.05-5.7 1.09-11.48 1.24-17.26.18-6.88 1.3-8.37 7.88-10.39 4.55-1.4 9.16-2.63 13.77-3.84a10.06 10.06 0 0 1 6.41.2v-5c-3.72.24-7.09 1.86-10.62 2.83a107.11 107.11 0 0 1-10.73 2.53c-3.17.52-4.26-.61-3.21-3.56a234.91 234.91 0 0 0 7.3-26.35zM46.45 45.92c-1.09 2.59-2.73 3.42-5.4 2.54-3.82-1.26-7.65-2.5-11.39-4a19.2 19.2 0 0 0-14.22-.25c-1.87.69-3.87 1.07-5.81 1.58s-3.05-.3-3.35-2.06C5.13 37.16 4 30.54 5 23.79a5.12 5.12 0 0 1 3.11-4.26c9.26-4 18.7-5.88 28.56-2.26a13.09 13.09 0 0 1 8.22 8.57A44.91 44.91 0 0 1 47 39.21c.08 2.26.37 4.52-.55 6.71zm41.88 42.25c-4.71 1.08-9.51.73-14.27.88a48.85 48.85 0 0 0-7.73.72c-4.69.91-9.34 0-14-.55-2.28-.27-3.37-1.78-3.6-4.14-.41-4.19.12-8.37 0-12.55.14-3.77-.36-7.52-.06-11.3.57-7.32 3.31-10.72 10.44-12.55 2.51-.65 5-1.23 7.52-2a11.15 11.15 0 0 1 9.61 1.37c2.42 1.49 4.88 2.93 7.3 4.44a16.63 16.63 0 0 1 8.07 14.23c.22 5.61.15 11.23.3 16.84.09 2.63-1.1 4.05-3.58 4.61zm5.35-37.12c-1.74 1.35-3.24 1.7-5-.17a27.78 27.78 0 0 0-18.92-9.28c-3.37-.23-6.41 1.09-9.56 1.86-6.4 1.56-8.07.36-8.13-6.31 0-4.28.1-8.56.37-12.82.33-5.27 3.24-8.11 8.89-9.31C68 13.6 74.5 15.07 81 16.25c1.73.31 3.41.86 5.12 1.26 5.42 1.26 8.52 4.71 9.56 10.09a44.64 44.64 0 0 1 .95 10.76c-.36 3-.69 6-1.09 9a5.19 5.19 0 0 1-1.86 3.69zm40.86 34.66c-9 1-17.87-.29-26.72-1.75s-10.71-3.82-10.75-12.65v-3c-2.16-7.15 1.72-11.95 8.22-15.41.22-.12.42-.28.64-.4 3.46-2 6.55-5.57 10.66-5.12a35.75 35.75 0 0 1 16.54 6.22c3.56 2.49 5.29 6.29 5.71 10.51.52 5.33.88 10.69 1 16 .16 4.36-1.1 5.16-5.3 5.6zm4.85-36.29a2.27 2.27 0 0 1-3.12-.12c-7.86-6.83-17-8.1-26.85-5.89-3.28.74-5.84 2.77-8.57 4.82 1.91-4.91-.75-9.43-.8-14.13 0-2.09-.28-4.18-.26-6.27.09-9 5.49-13.09 13.61-13.67a38.53 38.53 0 0 1 18.35 3.45c4.78 2.12 7.8 5.68 8.57 10.94.71 4.88 1.8 9.73 1.68 14.7 0 2.32-.26 4.75-2.61 6.17zm40.75 21.81c0 5.74-.76 10.81-1.12 15.91-.17 2.48-1.92 2.71-3.75 2.67a46.09 46.09 0 0 1-11.59-2.12 15.41 15.41 0 0 0-8.38-.25 40.24 40.24 0 0 1-8.49.79 2.13 2.13 0 0 1-2.53-2.09c-1.25-7.79-2.22-15.61-1.16-23.5a15.2 15.2 0 0 1 6.26-10.51c4-3 8.17-5.8 13.44-5.49a22 22 0 0 1 15.1 7 6 6 0 0 1 1.52 3.37 62.25 62.25 0 0 1 .7 14.22zm1.75-25.95c-.33 1.81-1.14.88-1.9.56a51 51 0 0 0-17.51-4.11 22.91 22.91 0 0 0-13.37 3.59c-.49.31-1 .56-1.53.83-.06 0-.16 0-.4-.08-1.53-7.74-1.8-15.51.42-23.24a9.38 9.38 0 0 1 7.4-7.09c5-1.15 9.95-2.25 15.15-1.78 7.25.65 10.45 3.2 11.9 10.33a54.9 54.9 0 0 1-.16 20.99zm44.27 35.06a5.6 5.6 0 0 1-4.82 4.74c-4.07.82-8.19.67-12.28.83-5.36.22-10.7.64-16 1.06-6 .48-7.77-1.29-7.67-7.25.13-7.61-.13-15.25 1.34-22.79a10.08 10.08 0 0 1 7-8.11 52.37 52.37 0 0 1 13.21-2.93c9.69-.79 19.62 8.49 19.61 18.15v5.28c.11 3.68.45 7.36-.39 11.02zm1.16-30.84c-.35 1.06-.81 1.44-1.64.31-7.22-9.88-24.61-12.69-35.82-5.3-.41.27-.86.46-1.5.79-.17-6.95-1.77-13.48-2.26-20.14a29.88 29.88 0 0 1 .32-6.27 8.51 8.51 0 0 1 4.64-6.47c3.31-1.89 6.33-3 10.32-1.17 4.68 2.16 10 1.6 15.11 2.13a24.22 24.22 0 0 1 3.94.75 7.1 7.1 0 0 1 5.66 6.58c.32 3.25.62 6.5.85 9.76q.52 7.41.92 14.81a11.21 11.21 0 0 1-.54 4.22zm46.73 38.27a15.46 15.46 0 0 1-9.77-1.46c-2.23-1.16-4.4-2.45-6.6-3.65a10.68 10.68 0 0 0-9.67-.6 65.06 65.06 0 0 0-11.64 6.44 1.85 1.85 0 0 1-2.76-.22c-2.38-2.14-3.71-4.51-3.48-7.91.5-7.6.64-15.24 1-22.85.3-5.8 3.26-9.4 9-10.48s11.57-2.95 17.62-1.9a30.32 30.32 0 0 1 12.84 5.48c4.16 3 6.6 7 6.43 12.37-.1 3.19 0 6.37 0 9.56h.36v11.31c.01 2.29-1 3.54-3.33 3.91zm3-52.12c-.33 2-.46 4-.64 6-.25 2.89-2.21 4.15-4.87 3-2.29-1-4.53-2.18-6.73-3.39-4.56-2.5-9.35-1.55-13.69-.11-5.11 1.7-9.92.73-14.87.21a3.42 3.42 0 0 1-3.2-3.34c-.28-2.66-.41-5.34-.6-7.93.09-2.19.25-4.28.27-6.38 0-4.76 2.66-7.91 6.54-10 9.16-4.89 18.59-5.84 28.26-1.39a13.13 13.13 0 0 1 6.32 5.9c2.91 5.45 4.28 11.21 3.24 17.43zm4.43 3.94C282.7 31.71 284 23.86 285.2 16a9.61 9.61 0 0 1 5.74-7.47c3.95-1.85 8-3.4 12.33-3.24a17.53 17.53 0 0 1 18.07 15.37c.7 4.64 1.51 9.27 2.29 13.89a13.74 13.74 0 0 1-.41 6.46c-.69 2.27-2 2.83-4.21 2.11a55 55 0 0 1-6.85-3.12c-3.29-1.59-6.49-1.61-10.19-1-5.79 1-11.4 2.63-17.14 3.75-2.98.58-3.77-.23-3.32-3.16zm41.8 36.47c-.49 3.28-1.84 4.56-5.09 5-5.3.68-10.49 2-15.87 2.25-5.61.23-10.8 2.28-16 4.29-3 1.17-4.07.69-4.21-2.56-.2-4.69-.05-9.4-.05-14.1.05-4.94-.08-9.89.14-14.84a8.7 8.7 0 0 1 5.52-8.26c10.19-4.43 20.43-5.76 30.64.12A10.33 10.33 0 0 1 324 56c.93 6.79.29 13.42-.69 20.06zm47.41-3.66c-.75 3.52-1.54 7-2.16 10.58-.44 2.52-1.85 3.6-4.31 3.59h-9.81v-.21c-2.18 0-4.36.08-6.54 0-4.57-.2-8.54 1.48-12.21 4-1.27.86-2 .85-3.09-.38-5.06-5.54-6.1-12-4.49-19 1.45-6.28 3.11-12.52 4.37-18.84.71-3.61 2.67-5.89 6.55-6.54s7.79-1.1 11.71-1.42a14.77 14.77 0 0 1 9.7 2.82 24.79 24.79 0 0 1 10.31 25.4zm-.32-21.34c-.92-1.75-1.58-3.08-2.31-4.37-3.3-5.75-8.39-8.18-14.89-8.72-7.69-.64-14.29 2.07-20.78 5.54-2.54 1.36-3.18 1.08-4.17-1.63a13.9 13.9 0 0 1-.44-5.73c.28-4.77.62-9.53.92-14.3.57-9.13 6.35-15 15.43-15.3 5.78-.16 11.57.09 17.34.41 4.44.24 7.11 2.54 7.82 6.8 1.05 6.06 3.23 28.86 1.11 37.3zm7.8-22.74a20.21 20.21 0 0 1 17.1-20.89c4.31-.7 8.67-.92 13-1.58 10.64-1.62 19.44 8.92 19.13 17.83-.25 7.1-1.31 14.18-2 21.27-.12 1.2-.78 1.52-1.88 1.41a9.45 9.45 0 0 1-4.29-2c-4.22-2.8-8.56-3.91-13.52-1.81a18.22 18.22 0 0 1-14.46-.24c-4.68-1.94-9.2-.84-14 1a65.2 65.2 0 0 0 .95-14.99zM422 83.91a10.1 10.1 0 0 1-5.08 5.94 93.7 93.7 0 0 1-23.31 7.65 9.64 9.64 0 0 1-9.46-2.75c-2-2.14-4.21-4.09-6.32-6.12-3.27-3.15-4.24-7.07-4-11.46A167.65 167.65 0 0 1 376.28 59c1.14-6.93 5.21-10.35 12.19-11.33a149.39 149.39 0 0 1 19.81-1.17c6.73 0 11.87 3.75 15.85 8.87 1.74 2.24 1.2 5.31 1.36 7.94-.49 7.07-1.04 13.98-3.49 20.6zm45.2-22.31c-.43 2.87-.07 5.86-.07 10-.24 3.55-.5 8.33-.89 13.09-.45 5.31-3.72 9.13-9 10C450 96 442.68 97 435.4 98.11a3.53 3.53 0 0 1-3.58-1.32c-3.31-4.21-6.08-8.38-4.53-14.38a123.92 123.92 0 0 0 3.31-20.59c.35-4.06 2.59-6.81 6-8.69a48.59 48.59 0 0 1 15.49-4.91c6.55-1.12 16.05 7.2 15.11 13.38zm4-18.37c-.06 1.34-.18 2.67-.3 4-.23 2.4-2.05 3.34-4 2-1.58-1.09-3-2.39-4.5-3.62A12.58 12.58 0 0 0 450 43.1c-5.44 1.69-11 2.73-16.59 4-2.14.48-3.55-.7-3.24-2.76q1.63-10.68 3.34-21.33a11.89 11.89 0 0 1 4.59-7.52 28.4 28.4 0 0 1 20.29-6.39c4.13-.51 7.54.1 10.43 3.07a12.32 12.32 0 0 1 3.57 8c.61 7.75-.86 15.37-1.16 23.06z" fill="#1c1c16"/><path class="cls-2" d="M502.51 90.56c-6.25 1.51-12.42 3.44-18.85 4.13s-10.19-2.37-11-8.89a22.46 22.46 0 0 1 .5-6.74c1.05-5.7 1.09-11.48 1.24-17.26.18-6.88 1.3-8.37 7.88-10.39 4.55-1.4 9.16-2.63 13.77-3.84a10.06 10.06 0 0 1 6.41.2zM502.51 42.73c-3.72.24-7.09 1.86-10.62 2.83a107.11 107.11 0 0 1-10.73 2.53c-3.17.52-4.26-.61-3.21-3.56a234.91 234.91 0 0 0 7.25-26.31c1.35-5.84 5.32-9.1 11.07-10.26a22.16 22.16 0 0 1 6.24-.47zM282 99.12a3.62 3.62 0 0 1 1.05-3 11.6 11.6 0 0 1 2.7-2.59c7.5-4.23 15.3-7.9 24.16-7 6.72.68 11.83 4.78 16.31 9.57a4 4 0 0 1 1.09 3zM236.68 99.12c.3-5.63 2.58-8.56 7.93-10.18a57.12 57.12 0 0 1 9.33-1.88 10.32 10.32 0 0 1 6.79 1.19c5 2.92 9.87 6 13.21 10.87zM96.71 99.12c.46-3.72 3.4-5.44 6.27-6.47a49.83 49.83 0 0 1 20.13-3.15c5.31.37 10 3 14.13 6.44a4.22 4.22 0 0 1 1.76 3.18zM337.88 99.12c.2-4.39 2.84-7.87 7.59-8.59 11.21-1.7 22-.69 31.59 6.25a30.17 30.17 0 0 1 2.6 2.34zM187.84 99.12a8.86 8.86 0 0 1 4.59-3.71 114.51 114.51 0 0 1 13.4-5c7-1.94 17.14 2.41 20.28 8.66zM145.55 99.12c1.8-4 12.74-9.71 17.19-8.49 4.86 1.33 9.5 3.35 13.14 7.07.39.39 1 .71.89 1.42zM51.4 99.12a5.34 5.34 0 0 1 2.14-1.69c5-2.22 10.3-3.35 15.51-4.81a7 7 0 0 1 3.71.19 46.74 46.74 0 0 1 12.88 6.31zM15.15 99.12c3.9-3 8-5 13.12-3.37 3.37 1 7.05 1.18 10 3.37zM399.8 99.12a9.39 9.39 0 0 1 4.71-1.45c4-.46 8.1-.79 12.16-1.08a8.41 8.41 0 0 1 6.8 2.53zM490.43 99.12c3.86-1.68 8.05-2 12.08-3 .57 2.58-.41 3.34-3 3.09-3.02-.31-6.06-.09-9.08-.09zM449.65 99.12c3.35-.7 6.71-1.09 10.07 0zM425.49 63.31c-.45 7.07-1 14-3.47 20.6a10.1 10.1 0 0 1-5.08 5.94 93.7 93.7 0 0 1-23.31 7.65 9.64 9.64 0 0 1-9.46-2.75c-2-2.14-4.21-4.09-6.32-6.12-3.27-3.15-4.24-7.07-4-11.46A167.65 167.65 0 0 1 376.28 59c1.14-6.93 5.21-10.35 12.19-11.33a149.39 149.39 0 0 1 19.81-1.17c6.73 0 11.87 3.75 15.85 8.87 1.74 2.24 1.2 5.31 1.36 7.94zM.16 90.75v-31.9C1.13 54.94 4 53 7.53 51.72c4.38-1.58 8.41-4.38 13.35-3.93A43.2 43.2 0 0 1 40 54.07a7.93 7.93 0 0 1 4.08 7c.36 8.21.29 16.43.45 24.64.09 4.58-1.46 6.08-6.07 5.91-4.09-.15-8.19-.59-12.26-1a28.3 28.3 0 0 0-15.56 2.98c-3.32 1.59-5.75.66-8.31-1.15-.75-.53-1.45-1.13-2.17-1.7z"/><path class="cls-2" d="M277.37 72.55v11.32c0 2.28-1 3.53-3.33 3.9a15.46 15.46 0 0 1-9.77-1.46c-2.23-1.16-4.4-2.45-6.6-3.65a10.68 10.68 0 0 0-9.67-.6 65.06 65.06 0 0 0-11.64 6.44 1.85 1.85 0 0 1-2.76-.22c-2.38-2.14-3.71-4.51-3.48-7.91.5-7.6.64-15.24 1-22.85.3-5.8 3.26-9.4 9-10.48s11.57-2.95 17.62-1.9a30.32 30.32 0 0 1 12.84 5.48c4.16 3 6.6 7 6.43 12.37-.1 3.19 0 6.37 0 9.56zM467.13 71.61c-.24 3.55-.5 8.33-.89 13.09-.45 5.31-3.72 9.13-9 10C450 96 442.68 97 435.4 98.11a3.53 3.53 0 0 1-3.58-1.32c-3.31-4.21-6.08-8.38-4.53-14.38a123.92 123.92 0 0 0 3.31-20.59c.35-4.06 2.59-6.81 6-8.69a48.59 48.59 0 0 1 15.49-4.91c6.53-1.12 16 7.2 15.1 13.38-.42 2.87-.06 5.86-.06 10.01zM48.78 72.53c.14-3.77-.36-7.52-.06-11.3.57-7.32 3.31-10.72 10.44-12.55 2.51-.65 5-1.23 7.52-2a11.15 11.15 0 0 1 9.61 1.37c2.42 1.49 4.88 2.93 7.3 4.44a16.63 16.63 0 0 1 8.07 14.23c.22 5.61.15 11.23.3 16.84.07 2.63-1.15 4-3.63 4.61-4.71 1.08-9.51.73-14.27.88a48.85 48.85 0 0 0-7.73.72c-4.69.91-9.34 0-14-.55-2.28-.27-3.37-1.78-3.6-4.14-.39-4.19.14-8.37.05-12.55zM377.23 43.33a65.2 65.2 0 0 0 1-15 20.21 20.21 0 0 1 17.04-20.9c4.31-.7 8.68-.92 13-1.58 10.64-1.62 19.44 8.92 19.13 17.83-.25 7.1-1.31 14.18-2 21.27-.12 1.2-.78 1.52-1.88 1.41a9.45 9.45 0 0 1-4.29-2c-4.22-2.8-8.56-3.91-13.52-1.81a18.22 18.22 0 0 1-14.46-.24c-4.71-1.92-9.25-.82-14.02 1.02zM354.44 86.36c-2.18 0-4.36.08-6.54 0-4.57-.2-8.54 1.48-12.21 4-1.27.86-2 .85-3.09-.38-5.06-5.54-6.1-12-4.49-19 1.45-6.28 3.11-12.52 4.37-18.84.71-3.61 2.67-5.89 6.55-6.54s7.79-1.1 11.71-1.42a14.77 14.77 0 0 1 9.67 2.82 24.79 24.79 0 0 1 10.31 25.4c-.75 3.52-1.54 7-2.16 10.58-.44 2.52-1.85 3.6-4.31 3.59h-9.81zM282.13 70.92c.05-4.94-.08-9.89.14-14.84a8.7 8.7 0 0 1 5.52-8.26c10.19-4.43 20.43-5.76 30.64.12A10.33 10.33 0 0 1 324 56c.94 6.76.3 13.39-.68 20-.49 3.28-1.84 4.56-5.09 5-5.3.68-10.49 2-15.87 2.25-5.61.23-10.8 2.28-16 4.29-3 1.17-4.07.69-4.21-2.56-.15-4.65-.02-9.36-.02-14.06zM226.53 69.32c.13 3.68.44 7.36-.37 11a5.6 5.6 0 0 1-4.82 4.74c-4.07.82-8.19.67-12.28.83-5.36.22-10.7.64-16 1.06-6 .48-7.77-1.29-7.67-7.25.13-7.61-.13-15.25 1.34-22.79a10.08 10.08 0 0 1 7-8.11 52.37 52.37 0 0 1 13.21-2.93c9.69-.79 19.62 8.49 19.61 18.15zM180.14 71.23c0 5.74-.76 10.81-1.12 15.91-.17 2.48-1.92 2.71-3.75 2.67a46.09 46.09 0 0 1-11.59-2.12 15.41 15.41 0 0 0-8.38-.25 40.24 40.24 0 0 1-8.49.79 2.13 2.13 0 0 1-2.53-2.09c-1.25-7.79-2.22-15.61-1.16-23.5a15.2 15.2 0 0 1 6.26-10.51c4-3 8.17-5.8 13.44-5.49a22 22 0 0 1 15.1 7 6 6 0 0 1 1.52 3.37 62.25 62.25 0 0 1 .7 14.22z"/><path class="cls-2" d="M370.4 51.06c-.92-1.75-1.58-3.08-2.31-4.37-3.3-5.75-8.39-8.18-14.89-8.72-7.69-.64-14.29 2.07-20.78 5.54-2.54 1.36-3.18 1.08-4.17-1.63a13.9 13.9 0 0 1-.44-5.73c.28-4.77.62-9.53.92-14.3.57-9.13 6.35-15 15.43-15.3 5.78-.16 11.57.09 17.34.41 4.44.24 7.11 2.54 7.82 6.8 1.02 6.06 3.2 28.86 1.08 37.3zM97.06 68.33c-2.16-7.15 1.72-11.95 8.22-15.41.22-.12.42-.28.64-.4 3.46-2 6.55-5.57 10.66-5.12a35.75 35.75 0 0 1 16.54 6.22c3.56 2.49 5.29 6.29 5.71 10.51.52 5.33.88 10.69 1 16 .11 4.3-1.11 5.1-5.31 5.54-9 1-17.87-.29-26.72-1.75s-10.69-3.78-10.73-12.61c-.01-.75-.01-1.51-.01-2.98zM458.34 9.08c4.13-.51 7.54.1 10.43 3.07a12.32 12.32 0 0 1 3.57 8c.63 7.74-.81 15.36-1.11 23-.06 1.34-.18 2.67-.3 4-.23 2.4-2.05 3.34-4 2-1.58-1.09-3-2.39-4.5-3.62A12.58 12.58 0 0 0 450 43.1c-5.44 1.69-11 2.73-16.59 4-2.14.48-3.55-.7-3.24-2.76q1.63-10.68 3.34-21.33a11.89 11.89 0 0 1 4.59-7.52 28.4 28.4 0 0 1 20.24-6.41zM232.48 30.05c.09-2.19.25-4.28.27-6.38 0-4.76 2.66-7.91 6.54-10 9.16-4.89 18.59-5.84 28.26-1.39a13.13 13.13 0 0 1 6.32 5.9c2.88 5.48 4.25 11.24 3.21 17.46-.33 2-.46 4-.64 6-.25 2.89-2.21 4.15-4.87 3-2.29-1-4.53-2.18-6.73-3.39-4.56-2.5-9.35-1.55-13.69-.11-5.11 1.7-9.92.73-14.87.21a3.42 3.42 0 0 1-3.2-3.34c-.28-2.69-.41-5.37-.6-7.96zM303.27 5.28a17.53 17.53 0 0 1 18.07 15.37c.7 4.64 1.51 9.27 2.29 13.89a13.74 13.74 0 0 1-.41 6.46c-.69 2.27-2 2.83-4.21 2.11a55 55 0 0 1-6.85-3.11c-3.29-1.59-6.49-1.61-10.19-1-5.79 1-11.4 2.63-17.14 3.75-3 .58-3.77-.23-3.32-3.16C282.7 31.71 284 23.86 285.2 16a9.61 9.61 0 0 1 5.74-7.47c3.95-1.86 8.06-3.41 12.33-3.25zM96.63 38.36c-.36 3-.69 6-1.09 9a5.19 5.19 0 0 1-1.86 3.71c-1.74 1.35-3.24 1.7-5-.17a27.78 27.78 0 0 0-18.92-9.3c-3.37-.23-6.41 1.09-9.56 1.86-6.4 1.56-8.07.36-8.13-6.31 0-4.28.1-8.56.37-12.82.33-5.27 3.24-8.11 8.89-9.31C68 13.6 74.5 15.07 81 16.25c1.73.31 3.41.86 5.12 1.26 5.42 1.26 8.52 4.71 9.56 10.09a44.64 44.64 0 0 1 .95 10.76zM188.36 45.3c-.17-6.95-1.77-13.48-2.26-20.14a29.88 29.88 0 0 1 .32-6.27 8.51 8.51 0 0 1 4.64-6.47c3.31-1.89 6.33-3 10.32-1.17 4.68 2.16 10 1.6 15.11 2.13a24.22 24.22 0 0 1 3.94.75 7.1 7.1 0 0 1 5.66 6.58c.32 3.25.62 6.5.85 9.76q.52 7.41.92 14.81a11.21 11.21 0 0 1-.54 4.22c-.35 1.06-.81 1.44-1.64.31-7.22-9.88-24.61-12.69-35.82-5.3-.41.27-.86.49-1.5.79z"/><path class="cls-2" d="M100.85 48.23c1.91-4.91-.75-9.43-.8-14.13 0-2.09-.28-4.18-.26-6.27.09-9 5.49-13.09 13.61-13.67a38.53 38.53 0 0 1 18.35 3.45c4.78 2.12 7.8 5.68 8.57 10.94.71 4.88 1.8 9.73 1.68 14.7-.05 2.32-.26 4.73-2.61 6.17a2.27 2.27 0 0 1-3.12-.12c-7.86-6.83-17-8.1-26.85-5.89-3.28.74-5.84 2.77-8.57 4.82zM47 39.21c.12 2.26.41 4.52-.51 6.71-1.09 2.59-2.73 3.42-5.4 2.54-3.82-1.26-7.65-2.5-11.39-4a19.2 19.2 0 0 0-14.22-.25c-1.87.69-3.87 1.07-5.81 1.58s-3.05-.3-3.35-2.06C5.13 37.16 4 30.54 5 23.79a5.12 5.12 0 0 1 3.11-4.26c9.26-4 18.7-5.88 28.56-2.26a13.09 13.09 0 0 1 8.22 8.57A44.91 44.91 0 0 1 47 39.21zM147.18 46.07c-1.53-7.74-1.8-15.51.42-23.24a9.38 9.38 0 0 1 7.4-7.09c5-1.15 9.95-2.25 15.15-1.78 7.25.65 10.45 3.2 11.9 10.33a54.9 54.9 0 0 1-.12 21c-.33 1.81-1.14.88-1.9.56a51 51 0 0 0-17.51-4.11 22.91 22.91 0 0 0-13.37 3.59c-.49.3-1 .56-1.53.83-.1.02-.2-.04-.44-.09z"/></svg>