<svg id="Layer_1" data-name="Layer 1" xmlns="http://www.w3.org/2000/svg" viewBox="0 0 503.02 213.19"><defs><style>.cls-1{fill:#1c1c16}.cls-2{fill:none}.cls-4{fill:#f7f4eb}.cls-5{fill:#f8f6eb}.cls-6{fill:#31312a}.cls-7{fill:#f8c014}</style></defs><path class="cls-1" d="M503 40.33c-10.54-4.93-21.14-9.71-31.6-14.8-16.95-8.24-33.8-16.68-51.11-24.16a5.72 5.72 0 0 1-2.41-1.32Q459.42.05 501 0c1.73 0 2.08.34 2.07 2.06-.15 12.76-.07 25.51-.07 38.27zM50.35.05c-5.29 2.28-10.69 4.36-15.86 6.88-11 5.37-21.83 11-32.74 16.48-.37.18-.76.32-1.15.48L.5.05z"/><path class="cls-2" d="M302 113.21l.4.65-.4-.65a6.43 6.43 0 0 0-.77-.42 6.43 6.43 0 0 1 .77.42zM313.79 119.73a1.64 1.64 0 0 0 .37-.27l1.22-.71-1.22.71a1.64 1.64 0 0 1-.37.27zM264.11 165.86a4.28 4.28 0 0 1 1.25.29 4.28 4.28 0 0 0-1.25-.29zM266.45 166.58l.49.18zM285.17 165.77l-1.14-.1zM268.9 165.78a1.76 1.76 0 0 0-1.9 1 1.74 1.74 0 0 1 1.9-1zM266.27 148.32a.66.66 0 0 1-.33-.43.66.66 0 0 0 .33.43zM291.53 158.65a5.94 5.94 0 0 0 .77.5 5.94 5.94 0 0 1-.77-.5zM268.38 157.13a6.51 6.51 0 0 0-.2-1.16 6.51 6.51 0 0 1 .2 1.16zM275.4 154.57l1.07-.3zM268.27 138.24a1.91 1.91 0 0 1 .32.24 1.91 1.91 0 0 0-.32-.24zM280.82 155.62a6.09 6.09 0 0 1 .11 1.95 6.09 6.09 0 0 0-.11-1.95zM314.25 111.41a2.69 2.69 0 0 0-3.4.1h-.06.06a2.69 2.69 0 0 1 3.4-.1zM275.4 154.57l-1 1.06zM293.24 154.33a4.11 4.11 0 0 0-.88.41l-1.56-.05 1.56.05a4.11 4.11 0 0 1 .88-.41zM320.48 133a2.26 2.26 0 0 0 .18-.5 2.26 2.26 0 0 1-.18.5zM295.22 100.73a2.82 2.82 0 0 0-.65 1.46 2.82 2.82 0 0 1 .65-1.46zM302 131.15a2.3 2.3 0 0 0-.16-.77 2.3 2.3 0 0 1 .16.77zM262.78 116.61a3.19 3.19 0 0 0-.23.32 3.19 3.19 0 0 1 .23-.32zM294.17 134a1.5 1.5 0 0 0 1.27-1 1.5 1.5 0 0 1-1.27 1zM349.67 106.73a3.12 3.12 0 0 0-.35-.2 3.12 3.12 0 0 1 .35.2zM303.85 81.56a2 2 0 0 0-.35-.21 1.55 1.55 0 0 1 .35.21zM300.31 85.36a.72.72 0 0 0-.65-.5.72.72 0 0 1 .65.5zM334.76 127.35a4.13 4.13 0 0 0 .55.21c-.17-.06-.38-.13-.55-.21zM328.17 115.78l-.3.81v.14-.14zM294.48 103.15a1.75 1.75 0 0 1-.35 1.47 1.75 1.75 0 0 0 .35-1.47zM346.27 139.31a2.58 2.58 0 0 0 0 .39 2.58 2.58 0 0 1 0-.39zM324.31 107.33a3 3 0 0 1-1.26-.23 3 3 0 0 0 1.26.23zM341.57 153.58c-1.37-.09-2.82-.6-3.85.9 1.03-1.48 2.48-.99 3.85-.9zM313.44 104.39a9 9 0 0 1-2.84.88 9.22 9.22 0 0 0 2.84-.88zM332.47 157.8l-.36-.76c0-3.65 1.91-4.51 5.57-2.58-3.66-1.94-5.54-1.07-5.57 2.58l-.7.09.7-.09zM342.45 147.32a3.12 3.12 0 0 1-.35-.2 3.12 3.12 0 0 0 .35.2zM348.14 127a3.12 3.12 0 0 0 .35.2 3.12 3.12 0 0 1-.35-.2zM322.19 121.14a3.19 3.19 0 0 0-.23.32 3.19 3.19 0 0 1 .23-.32zM345.46 124.67a2.39 2.39 0 0 0 .15-.37 2.39 2.39 0 0 1-.15.37zM328.76 109.59a2.39 2.39 0 0 1 .21.34 2.39 2.39 0 0 0-.21-.34zM.61 110.67c8.5-5.14 16.8-10.63 25.45-15.51C17.41 100 9.11 105.53.61 110.67zM328.51 109.86a2 2 0 0 0 .35.2 2 2 0 0 1-.35-.2zM346.63 139.65a3.17 3.17 0 0 0-.15-.37 3.17 3.17 0 0 1 .15.37zM323.88 100.52a3.47 3.47 0 0 0-1.65 1.74 3.47 3.47 0 0 1 1.65-1.74zM322 153.78a2 2 0 0 0-.24-.26 2 2 0 0 1 .24.26zM319.14 138.38a.82.82 0 0 1-.17.67.82.82 0 0 0 .17-.67c-.09-.43-.26-.8-.78-.72.52-.08.69.34.78.72zM315.27 140.6a.86.86 0 0 1 .84 1c0 .46-.23.83-.7.81.47 0 .68-.35.7-.81a.86.86 0 0 0-.84-1zM267.43 108.57a1.51 1.51 0 0 1 .15.37 2.06 2.06 0 0 0-.15-.37zM280 152.36c-.12-.06-.23-.14-.35-.21.14.07.25.15.35.21zM303 151.37a2.21 2.21 0 0 1 .37.15 2.21 2.21 0 0 0-.37-.15zM322.45 121.44a2.47 2.47 0 0 1-.36.19 2.47 2.47 0 0 0 .36-.19zM337.73 154.48a2.54 2.54 0 0 1 .28.29 2.54 2.54 0 0 0-.28-.29zM334.42 156.72c1.24-.86 3.32-.06 3.26-2.26.06 2.2-2.02 1.4-3.26 2.26zM305.67 133.14l-.43-.18.43.18zM283.11 108.12a4.24 4.24 0 0 1-1.69-.68 4.24 4.24 0 0 0 1.69.68zM323.7 155.58l-.22-.41z"/><path d="M26.06 95.16c2.94-1.62 5.81-3.16 8.79-4.63 22.59-11 46.31-18 71.55-19.58 17.93-1.14 35.37 1.44 52.91 4.74 20.44 3.85 40.62 8.77 60.92 13.22 16 3.51 31.13 1.45 45.75-5.59 11.53-5.55 23.44-10 36-12.43 12.76-2.42 25.64-2.57 38.58-1.52 13.47 1.09 26.39 4.45 39.16 8.7 13.29 4.42 27.05 7.21 40.44 11.26 15.81 4.78 31.13 11 46.7 16.5 12 4.24 23.85 8.93 36.08 12.53v-78c-10.54-4.93-21.14-9.71-31.6-14.8-16.95-8.24-33.8-16.68-51.11-24.16a5.72 5.72 0 0 1-2.35-1.35H50.35c-5.29 2.28-10.69 4.36-15.86 6.88-11 5.37-21.83 11-32.74 16.48-.37.18-.76.32-1.15.48q0 23-.07 46c0 13.59 0 27.17.08 40.75 8.5-5.11 16.8-10.64 25.45-15.48z" fill="#de4626"/><path class="cls-1" d="M12.11 194.46c-.65-.12-1.12-.65-1.64-1.54-3.81-6.54-5.38-13.85-7.52-21-.67-2.26-.84-4.72-2.41-6.67v33.49c1.36-.69 2.66-1.48 4-2.3a10.68 10.68 0 0 1 2.89-1.3h.24a4.26 4.26 0 0 0 1.17-.23H11.16a4 4 0 0 0 .87-.1 2.93 2.93 0 0 1 .08-.35zM328.58 187.79a31.64 31.64 0 0 1 4.13-3.22 14.53 14.53 0 0 0-1.46.85 12.63 12.63 0 0 0-2.67 2.37z"/><path class="cls-1" d="M464.61 187a5.68 5.68 0 0 1-.49-1.19c-3.37-11-5-22.4-7.12-33.67a173.89 173.89 0 0 1-3.39-40c0-.5.06-1 .12-2 16.29 7.29 33.08 12.74 49.24 19.81v-11.59c-12.23-3.6-24.08-8.29-36.08-12.53-15.57-5.5-30.89-11.72-46.7-16.5-13.39-4-27.15-6.84-40.44-11.26-12.77-4.25-25.69-7.61-39.16-8.7-12.94-1.05-25.82-.9-38.58 1.52-12.59 2.39-24.5 6.88-36 12.43-14.62 7-29.79 9.1-45.75 5.59-20.3-4.45-40.48-9.37-60.92-13.22-17.54-3.3-35-5.88-52.91-4.74-25.24 1.6-49 8.59-71.55 19.58-3 1.45-5.9 3-8.79 4.63C17.41 100 9.11 105.53.61 110.67c0 2.73-.07 5.46-.1 8.19 1.72-.49 3-1.79 4.38-2.75A211.94 211.94 0 0 1 59.24 89.6c0 4.49-.2 8.72 0 12.92 1 16.5 1.2 33 1.85 49.53.52 13.18-2.18 26-4.83 38.79-.95 4.57-4.49 6.87-7.61 9.59a.42.42 0 0 1-.12.08 4.14 4.14 0 0 0 2.35-1.43c6.47-4.29 12.51-6.93 20.45-6.56 3.37.15 6.83.35 10.26.76a3 3 0 0 0 .55.22c-2.53-1.17-4.08-3.56-5.33-6.36a87.93 87.93 0 0 1-7.31-29.6q-1.92-25.33-2.92-50.72c-.22-6 0-12.08-.18-18.12 0-1.72 1.1-1.64 2-1.92a158.29 158.29 0 0 1 34.65-5.74 272.78 272.78 0 0 1 38.46.42 31.87 31.87 0 0 0 3.74.4c2.74-.12 3.38.91 3.18 3.68-.55 7.44-.42 14.92-1 22.36-1.43 19-1.88 38-4.57 56.87a151.11 151.11 0 0 1-3.92 19.23 23.26 23.26 0 0 1-1.05 2.82 14.24 14.24 0 0 1-2.43 4.34 4.39 4.39 0 0 1-1.42 2.62c2.06.34 5.35 1 5.7 2.08 0 .06 0 .1.07.16a2.45 2.45 0 0 0 3.1 1.89c2.55-.68 4.57-2.32 7.2-3 3.9-.93 8-.69 12-1.12l.59-.08a2.84 2.84 0 0 1-.3-2.21 4.74 4.74 0 0 1-1.13-2.22c-3-11.52-5.62-23.08-6.79-35-1.49-15.13-1.68-30.3-2.15-45.47-.25-8.11.55-16.25.78-24.38 0-1.45.69-1.39 1.74-1.21a477 477 0 0 1 47.41 10.12c9.93 2.72 19.83 5.59 30.05 7.1a29.76 29.76 0 0 0 8.52.36c2.07-.3 2.28.53 2.45 2.25 1.43 14.63 1.58 29.3 1.56 44 0 10.07.16 20.13-2.09 30a63.27 63.27 0 0 1-3.37 10.5 13.63 13.63 0 0 1-1.09 2.12c.16.58.31 1.16.44 1.73.76-.42 1.46-.8 2-1.12 4.23-2.48 8.44-4.39 13.44-3.84 2.59.28 5.17.54 7.69.94a2.59 2.59 0 0 1 .69-1.33 5.35 5.35 0 0 1-.3-.68c-3.49-9.68-4.9-19.82-6.47-29.91-1.11-7.16-1.43-14.42-2.13-21.62a329.32 329.32 0 0 1-1.48-34.54 2.77 2.77 0 0 1 2.06-3.07c9.26-3.86 18.22-8.45 27.84-11.44a102.26 102.26 0 0 1 21-4.53c1-.1 2.05-.17 3.08-.22l2.95-.3h1.08a.51.51 0 0 1 .22-.09.43.43 0 0 1 .23.08l5.07-.17a40.84 40.84 0 0 1 8.49-.23h1.14a7.59 7.59 0 0 1 1.25-.14 10.28 10.28 0 0 1 1.24 0 17.34 17.34 0 0 1 2.46.35 6.31 6.31 0 0 0 3.59.41c.85-.07 1.82-.41 2.49.51l1 .16c3.2-.35 6.3.55 9.39 1.1 1.49.27 3.1.46 4.53.6 1.94.2 2 1 1.92 2.28-.06 1.17-.15 2.33-.22 3.5v1.51c-1 3.14.34 6.49-.89 9.61l-.09 6.5c.15 1.07.31 2.14-.56 3v1.51a15.48 15.48 0 0 1-.51 7.31v1.75a30.2 30.2 0 0 1-.29 9.53 5.9 5.9 0 0 0 .36 4.07q.13 3.24.28 6.5v3.1a11.55 11.55 0 0 1 .1 1.31v1.29a22.2 22.2 0 0 1-.34 2.58c-1.12 2-.72 4.36-.83 6.44-.21 4.09-1.12 8-1.67 12.05-.6 4.43-1 8.89-1.9 13.3a6.77 6.77 0 0 1-.21.81 6.4 6.4 0 0 1-.57 3.85A147.14 147.14 0 0 0 361 185c2 0 4.06-.19 6.09-.13a2.62 2.62 0 0 1 .19-2 5 5 0 0 1-.69-1.45c-2.19-6.64-3.05-13.55-4.13-20.4-3.67-23.16-3.49-46.42-1.62-69.71.16-2.08-.5-4.88.92-6s4 .26 6 .62c15.52 2.71 30.67 7 45.89 11 10.93 2.83 21.66 6.38 32.27 10.28a2.16 2.16 0 0 1 1.68 2.79c-1.39 12.59-1.48 25.27-2.52 37.88-1 11.86-1.59 23.76-4 35.45-.42 2-1.15 4-1.77 6l-.09.3a2.42 2.42 0 0 1-.11 2.28c1.59-1 3.24-1.86 4.46-2.49 3.72-1.89 7.57-2.08 11.68-2a45.15 45.15 0 0 1 8.87.87 2.9 2.9 0 0 1 .49-1.29z"/><path class="cls-4" d="M61.13 152.05c-.65-16.51-.89-33-1.85-49.53-.24-4.2 0-8.43 0-12.92a211.94 211.94 0 0 0-54.39 26.51c-1.43 1-2.66 2.26-4.38 2.75l-.51 1v1.51c.62.59.5 1.37.5 2.11v26c0 .74.12 1.52-.5 2.11v1a16.79 16.79 0 0 1 0 9.06v1.51c.66.58.46 1.38.54 2.1 1.57 1.95 1.74 4.41 2.41 6.67 2.14 7.13 3.71 14.44 7.52 21 .52.89 1 1.42 1.64 1.54a2.75 2.75 0 0 1 2.38-2.27c6.58-.8 12.89-4.16 19.62-2.6 5.41 1.26 9.7 4.7 13.93 8.1a2 2 0 0 1 .53 2.82.42.42 0 0 0 .12-.08c3.12-2.72 6.66-5 7.61-9.59 2.7-12.85 5.35-25.62 4.83-38.8z"/><path class="cls-5" d="M464.61 187a2.26 2.26 0 0 1 3.27-.7c3 2 5.29 4.56 7.93 6.92 2.15 1.92 3.76 3.16 6.16.86.82-.79 1.35-1.94 2.1-2.81 4.51-5.15 11.49-8.79 18.37-8.81a3 3 0 0 1 .53.05v-52.57c-16.16-7.07-33-12.52-49.24-19.81-.06 1-.1 1.48-.12 2a173.89 173.89 0 0 0 3.39 40c2.15 11.27 3.75 22.66 7.12 33.67a5.68 5.68 0 0 0 .49 1.2zM.61 110.67c0 2.73-.07 5.46-.1 8.19 0-2.73.07-5.46.1-8.19zM.5 149.48v-26c0-.74.12-1.52-.5-2.11v30.2c.62-.57.5-1.35.5-2.09zM243.25 103.1c-.17-1.72-.38-2.55-2.45-2.25a29.76 29.76 0 0 1-8.52-.36c-10.22-1.51-20.12-4.38-30.05-7.1a477 477 0 0 0-47.41-10.12c-1-.18-1.69-.24-1.74 1.21-.23 8.13-1 16.27-.78 24.38.47 15.17.66 30.34 2.15 45.47 1.17 11.91 3.77 23.47 6.79 35a4.74 4.74 0 0 0 1.13 2.22 2.41 2.41 0 0 1 2.38-1.88c6.82-.14 14.89-2.39 21.21 1.09 3.72-1.65 6.91-4.92 10.92-6s8.5-.56 12.57.07a64.44 64.44 0 0 1 14 3.5 17.78 17.78 0 0 1 5.06 2.8 26.66 26.66 0 0 1 2.6 2.83 31.32 31.32 0 0 1 2.22-5.53 2.61 2.61 0 0 1 4.71.62c.07.22.12.45.18.67a13.63 13.63 0 0 0 1.09-2.12 63.27 63.27 0 0 0 3.37-10.5c2.25-9.91 2.07-20 2.09-30 .06-14.7-.09-29.37-1.52-44z"/><path class="cls-4" d="M145.37 81.92a31.87 31.87 0 0 1-3.74-.4 272.78 272.78 0 0 0-38.46-.42 158.29 158.29 0 0 0-34.65 5.74c-1 .28-2.1.2-2 1.92.16 6 0 12.08.18 18.12q1 25.38 2.92 50.72a87.93 87.93 0 0 0 7.31 29.6c1.25 2.8 2.8 5.19 5.33 6.36.13.06.28.11.42.16a2.34 2.34 0 0 1 2.46-2.27c4 .08 5.78 2.5 9.23 3.72 2.89 1 2.85-.42 4.72-1.74a15.63 15.63 0 0 1 5.12-2 64.26 64.26 0 0 1 15.26-1.74c2.72 0 5.44.06 8.16.08a8.92 8.92 0 0 0 2.68 0 .3.3 0 0 1 .29 0 4.28 4.28 0 0 1-.1-.86c-.16-3.32 5-3.3 5.15 0a9.1 9.1 0 0 1-.14 2.21 14.24 14.24 0 0 0 2.43-4.34 23.26 23.26 0 0 0 1.05-2.82 151.11 151.11 0 0 0 4.01-19.13c2.69-18.86 3.14-37.91 4.57-56.87.55-7.44.42-14.92 1-22.36.18-2.77-.46-3.8-3.2-3.68z"/><path class="cls-5" d="M445.93 107.24c-10.61-3.9-21.34-7.45-32.27-10.28-15.22-3.95-30.37-8.25-45.89-11-2-.36-4.58-1.73-6-.62s-.76 3.91-.92 6c-1.87 23.29-2.05 46.55 1.62 69.71 1.08 6.85 1.94 13.76 4.13 20.4a5 5 0 0 0 .69 1.45 2.39 2.39 0 0 1 3.51-1.11c3.73 2.27 4.4 5.37 5.65 8.74 1.9-2.11 3.56-4.43 5.84-6.16a19.07 19.07 0 0 1 8.41-3.31c6.64-1.13 13.81-.67 20.53-.5 5.91.14 12.79 1 16.65 6.06 1.55 2 2.12 4.84 3.82 6.73s.89 1 1.62-.94a21.45 21.45 0 0 1 1.35-3.16c1.17-2.06 3.76-1.32 4.56.33l.09-.3c.62-2 1.35-4 1.77-6 2.39-11.69 3-23.59 4-35.45 1-12.61 1.13-25.29 2.52-37.88a2.16 2.16 0 0 0-1.68-2.71zM351.25 82.38c-1.43-.14-3-.33-4.53-.6-3.09-.55-6.19-1.45-9.39-1.1a4 4 0 0 1 0 .49c-.18 1-.76 2.27-1.62 2.19-1.31-.11-.73-1-.09-1.63a5.4 5.4 0 0 0 .62-.74 1.5 1.5 0 0 0 .14-.47c-.67-.92-1.64-.58-2.49-.51a6.31 6.31 0 0 1-3.59-.41c-1.65-.1-3.32.24-4.95-.22h-1.14c-2.82.5-5.66.11-8.49.23l-5.07.17h-1.53c-.94.5-2 .22-2.95.3-1 0-2.06.12-3.08.22a102.26 102.26 0 0 0-21 4.53c-9.62 3-18.58 7.58-27.84 11.44a2.77 2.77 0 0 0-2.06 3.07 329.32 329.32 0 0 0 1.48 34.54c.7 7.2 1 14.46 2.13 21.62 1.57 10.09 3 20.23 6.47 29.91a5.35 5.35 0 0 0 .3.68 2.35 2.35 0 0 1 1.74-.68c3.22 0 6.42.16 9.4 1.49 1.45.65 4.11 3.62 6.08 4.79 2.53-4.59 6.87-7.18 11.83-8.67a2.11 2.11 0 0 1 1.79-2.73c.23 0 .45 0 .68-.08h.11a55.6 55.6 0 0 1 12.1.11c8.31.22 16.56 1.48 21.32 8.33l1-.88a12.63 12.63 0 0 1 2.67-2.37 14.53 14.53 0 0 1 1.46-.85 13.92 13.92 0 0 1 2.4-1.23c2.45-1 6.83-.18 5.88-3.54-.91-3.2 4.06-4.55 5-1.37a12.83 12.83 0 0 1 .39 1.92 6.77 6.77 0 0 0 .21-.81c.89-4.41 1.3-8.87 1.9-13.3.55-4 1.46-8 1.67-12.05.11-2.08-.29-4.42.83-6.44.07-1.73-.36-3.48.27-5.18v-3.1a5.88 5.88 0 0 1-.18-.81 13.27 13.27 0 0 1-.14-2.44c0-1.08.11-2.17 0-3.25a5.9 5.9 0 0 1-.36-4.07 30.2 30.2 0 0 0 .29-9.53 24.22 24.22 0 0 1-7.56-1l-2 .64a1 1 0 0 1-1.48 0c-2.2-1-4.41.22-6.64 0-1.05-.1-2.09.15-3-.63a2 2 0 0 1-2.41-1.63c-.79.79-.76 2.61-2.14 2.47-1.19-.11-1.43-1.69-2.05-2.65-.31-.49-.57-1-.88-1.52-1.1-1.8-1.44-2.37-.54-2.64a13.14 13.14 0 0 1 2-.27h.46c.48.33 1.77-.12 1.18 1.25-.32.74-.12 1.5.66 1.51s.9-.83.72-1.51a.94.94 0 0 1 .51-1.23 1.29 1.29 0 0 1 .51-.07c1.07-.29 2.21-1.25 3.06.47l1.05-.39c-.07-.91-.27-2.08 1-2.14s.75 1.17.9 1.9c2.05.36 3 1.52 2.76 3.65-.11 1 .15 2.24 1.17 2.25s1.23-1.21 1.12-2.19c-.15-1.27.42-2.64-.49-3.82-.41.08-.83.62-1.22.08-.2-.29.15-.52.41-.69.23-2.09 2.12-1.55 3.33-2.09h.46a5.68 5.68 0 0 1 .59 2.68c0 .61 0 1.22-.07 1.84v.91a7.33 7.33 0 0 0 .2 1.81l.34.88.36.4c0-.25.06-.5.1-.75.17-.84-.25-2 1-2.28.93-.17 1.32.85 1.49 1.45.63 2.36 2 2.35 3.84 1.52.34-.15.81 0 1.22 0a15.48 15.48 0 0 0 .51-7.31c-.56 0-1.31 0-1.3-.76s.75-.7 1.31-.75c.87-.88.71-2 .56-3a2 2 0 0 1-1.52-.67c-1.38-1.44-2.71-1.24-3.4.65-.6 1.61-1.85 2-2.95 1.31a2.62 2.62 0 0 1-1.24-3.41c1.1-2.07 1.38-3.47-1.63-3.59a1.7 1.7 0 0 1-1.38-1c-.6-1.23-1.27-1.52-2.56-.72-1.13.71-1.93-1-2.92-.88-1.34.17-2 .07-2.16-1.47a1.25 1.25 0 0 0-1.7-1.06c-2.92.91-2.3-1.55-2.42-2.78a6.4 6.4 0 0 1 .42-2.78c1-2.11 2.89-.41 3.66.08 1.41.89 1.5.46 1.67-.7a2.59 2.59 0 0 1 2.18-2.41c1.47-.2 1.11 1.35 1.6 2.12.61.94 1 2.12 2.16 2.58.73-.54.18-1 .1-1.4-.14-.79-1.52-1.71-.23-2.3 1.09-.5 2.08-3 3.8-.62.31.44 1.2.48 1.84.65 3.26.85 4.2 2.38 3.51 5.85-.08.37-.13.72.24.81a1.22 1.22 0 0 0 .86-.31c.52-.46.83-1.53 1.7-1.07s.2 1.4.4 2.1c.44 1.52-1 3.07.09 4.56 1.23-3.12-.07-6.47.89-9.61-.59-.13-1.59.31-1.65-.57s1-.86 1.68-.94c.07-1.17.16-2.33.22-3.5.02-1.33-.02-2.08-1.96-2.28zm-1.93 24.15a3.12 3.12 0 0 1 .35.2l-.27.29a1.79 1.79 0 0 1-.22-.34s.11-.16.14-.15zm-2.41 2.92a1.8 1.8 0 0 1 1.8.78c.07.84-.37 1-.9 1-.69 0-1.6.31-1.76-.79a.93.93 0 0 1 .86-.99zm-33.74-27.16c.59.1 1.23.27 1.31.92.13 1-.73 1.19-1.44 1.3s-1.21-.21-1.16-.93a1.45 1.45 0 0 1 1.29-1.29zm-9.67-.94a2 2 0 0 1 .35.21l-.27.28a2.3 2.3 0 0 1-.21-.33s.11-.17.13-.16zm-3.84 3.51a.72.72 0 0 1 .65.5.88.88 0 0 1 0 .33.9.9 0 0 1-.64.79 1.4 1.4 0 0 1-.37 0 .64.64 0 0 1-.65-.81.87.87 0 0 1 1.01-.81zm-22.32 4.57c.3-.06.45.14.48.45l-.2.38a2.65 2.65 0 0 1-.49-.45c-.04-.06.11-.35.21-.38zM258 120.2a4.93 4.93 0 0 0-1.35-1.42c-.68-.43-1.58-.92-1.16-1.91s1.55-.37 2.22-1.06a9.53 9.53 0 0 1 3.38 3.09c.46.77-.68.89-1.19 1.23s-1.25.96-1.9.07zm2.94 12.8c0-.05.17-.05.34 0h.53v-.55c-.62-.74-1.55-1.43-.83-2.57s2-.87 3.18-.91c.15 0 .45.06.45.13.16 1.47.7 3.06.32 4.38s-2.05 1.14-3.28.84a.93.93 0 0 1-.71-1.32zm1.61-16a3.19 3.19 0 0 1 .23-.32l.26.3a2.47 2.47 0 0 1-.36.19s-.14-.17-.13-.24zm11.23 54c-1.52.72-3.12 0-4.71.17-1.12.13-1.19-1.14-1.28-2.07s.33-1.88-.81-2.35c-.42.1-.35.38-.33.73.15 3.79.14 3.79-3.46 3.87-.9 0-1.7-.18-1.9-1.21s.58-1.46 1.39-1.76a2.55 2.55 0 0 1 .73-.14c.55 0 1.11-.21.9-.85-.3-.92-.86-.45-1.33-.08s-.92.67-1.21.06.3-.85.75-1.12a2.9 2.9 0 0 1 1.19-.4 3.09 3.09 0 0 1 .43 0 4.28 4.28 0 0 1 1.25.29l.39.15.15.06.55.22.49.18h.05a1.76 1.76 0 0 1 1.9-1 2.52 2.52 0 0 1 .37.05l.34.08c1.06.28.46 1.42.63 2.18s-.43 1.81.7 1.72c.93-.08.7-1.24.55-1.9-.25-1.09-.77-2 1.07-2.11s1.24 1.13 1.31 2c.05.75.06 1.5.05 2.25-.02.39.06.98-.16.98zm19.22-.56a2.39 2.39 0 0 1-2.78.62c-1.91-1-3.76 0-5.54.06-2.32.07-2.84-.65-2.85-2.58 0-.81.17-1.73-1.14-2.06-.36 2-1.52 3-3.69 2.64.23 1 .78.66 1.18.68s.84-.05 1.25 0c.85 0 1.6.35 1.49 1.3-.2 1.69-1.58 2-3 2.11s-2.85.28-3.08-1.63c-.16-1.39.22-2.77.09-4.21s1.43-1.65 2.65-1.67H284l1.14.1c.9.32 2.28-.92 2.74.74.27 1-.21 2.11.29 3.19 1-.41.92-1 .61-1.8-.25-.66-.53-1.65.33-2a4.8 4.8 0 0 1 3.44 0c.84.33.43 1-.06 1.61-.09.1 0 .54.16.65.93.63 1.12 1.4.35 2.28zm5.34-.92c.48.43.34.67 0 .93a2.5 2.5 0 0 1-2.34.55 1.85 1.85 0 0 1-1.35-1.62c-.17-1 .39-2.19-.8-3.15-.47-.38.43-1.25 1.2-1.5s1.49-1.29 1.92 0c.35 1 1.4.68 1.86 1.33-2.17 1.36-2.27 1.87-.49 3.49zm.2-10.48a12.1 12.1 0 0 0-4.16.32 2.76 2.76 0 0 1-.87.12 2.35 2.35 0 0 1-.54-.07 3.08 3.08 0 0 1-.67-.29 5.94 5.94 0 0 1-.77-.5l-.05-.08a2.23 2.23 0 0 1-.71.84 1.51 1.51 0 0 1-.28.15 1.78 1.78 0 0 1-.5.14 2.34 2.34 0 0 1-.46 0 3.27 3.27 0 0 1-.42-.06 2.47 2.47 0 0 1-.43-.11h-8.18a10.81 10.81 0 0 0 .45-2 6.09 6.09 0 0 0-.11-1.95h-.34c-.35.33-.73.95-1.05.93-3.25-.26-1.66 1.4-.81 3.1h-3.75l-.88-.49c-1.32 1-2.74 1.4-4.11.26-.71-.59-.88-.22-1.48.14-1.6 1-2.52.27-2.53-1.64 0-.69.3-1.82-.75-1.8s-.87 1.2-.65 1.82c.67 1.95-.37 2.13-1.83 2-.73-.08-1.19-.19-.85-1.24.49-1.56.76-3.2-.3-4.76-.33-.49-.29-1.22.62-1.16s2-.84 2.15.68c.1 1 .46 1.38 1.36 1.2 1.58-.33 2.25.31 2.56 1.35a6.51 6.51 0 0 1 .2 1.16h.38a4.27 4.27 0 0 1 1.85-2.48 1.9 1.9 0 0 1 .67-.18 3 3 0 0 1 1.18.17 8.35 8.35 0 0 1 1.91 1h.08l1-1.06a1.65 1.65 0 0 1 .16-.46c.18-.38.45-.44.91.16l.84.09c.42-.65.82-.63 1.21 0a1.43 1.43 0 0 1 .57 0 1.36 1.36 0 0 1 .48.16 3 3 0 0 1 .43.29l.42.33h.41a2 2 0 0 1 .56-.43 2.77 2.77 0 0 1 .63-.22c.44-.12.9-.17 1.33-.32h5.23a2.8 2.8 0 0 1 2.22.54l1.56.05a4.11 4.11 0 0 1 .88-.41 3.74 3.74 0 0 1 .45-.12 5.78 5.78 0 0 1 .93-.13 11.24 11.24 0 0 1 1.42 0c.25-.21.34-.1.37.15l2.41-.06c1.42-.5 2.84.38 4.37-.24 1-.39 1.65.85 1.77 1.93s.13 2 .2 3c-3.51 1.55-2.92-1.43-3.21-3.28-1.13 0-1 .82-.84 1.27.75 2.85-.94 2.35-2.64 2.22zm-32.63-11.49c0-.33.06-.7.48-.72.62 0 .82.45.82 1a.61.61 0 0 1 0 .24.7.7 0 0 1-.59.37 1 1 0 0 1-.31-.11.66.66 0 0 1-.33-.43 1.48 1.48 0 0 1-.07-.32zm2.68-9.1l-.3.25a2.42 2.42 0 0 1-.18-.36s.13-.14.16-.13a1.91 1.91 0 0 1 .32.24zm2.58.79c-.14 0-.5-.23-.48-.32.06-.47.49-.61.88-.72s.48 0 .5.38a1 1 0 0 1-.9.69zm1.45 7a.47.47 0 0 1-.55.61c-.57-.06-.81-.53-.95-1a.74.74 0 0 1 0-.25.32.32 0 0 1 .06-.17.53.53 0 0 1 .45-.17 1.6 1.6 0 0 1 .99 1.06zm4.36-5.38c0-.34.16-.69.55-.65s.7.34.69 1c-.16.12-.38.45-.62.47-.52.12-.6-.31-.6-.74zm2.69 11.21l.27-.28a1.72 1.72 0 0 1 .22.33s-.12.16-.14.16-.23-.14-.35-.21zm19.18-2.87a1.36 1.36 0 0 1 1.24-1.34c.82-.11 1.12.53 1.36 1.13 0 .83-.52 1-1.14 1s-1.5.36-1.46-.71zm4.51 2.24l-.24.32a1.79 1.79 0 0 1-.25-.31s.09-.17.12-.16a2.21 2.21 0 0 1 .37.15zm2.93-6.32c-.26-.56-1.2-1.63.19-2a1.19 1.19 0 0 1 1.46 1.31c-.52 2.64 2.17 3.95 2.34 6.42-1.36-1-2.5-1.71-3.63.07a.79.79 0 0 1-1.29.16c-.45-.59-.42-1.61.14-1.79 2.99-.92 1.55-2.46.79-4.09zm1.63 24.88c-.28 1.17-1 1.17-2.09.94a20.84 20.84 0 0 0-4-.06c0-1.1.87-1.36 1.26-1.94s1.22-1.16.93-1.93c-.36-1-1.09-.09-1.66-.11-.8 0-.9-.47-.47-1.18.86-1.4 4.32-1.6 5.23-.24s-.65 2-1 3c.78.52 2.17.09 1.8 1.6zm.42-12.21c1.7-.92-1.47-3.61 1.4-3.93 1.26-.14 2.57-.12 3.82-.14a7.48 7.48 0 0 0 2.89-.1c1.14-.42 1.88.36 2 1.6a6.8 6.8 0 0 0 .52 3.15h.03a2.34 2.34 0 0 0 .74-3.13 2 2 0 0 1-.2-.57.76.76 0 0 1 0-.31.5.5 0 0 1 .1-.19 2.16 2.16 0 0 1 .57-.47l-.06-.59c-1.53-1.09-.29-1.35.52-1.75h.46c.9.15 1.2.5.93 1a2.19 2.19 0 0 1-.44.57v.53a2 2 0 0 1 .24.26 2.43 2.43 0 0 1 .33.55 1.42 1.42 0 0 1 .1.29 2.9 2.9 0 0 1 .11.6 12.54 12.54 0 0 0 .12 3.12c.27.83-1.4.53-2.23.64-.55.07-.78-.54-1.36-.53h-.06a1.29 1.29 0 0 0-.24.05c-2.87 1-2.89.93-2.68-1.89l-.3-1.14c-.88-.19-1 .2-.93.68 0 .17 0 .34.06.51l.25 1.19c-.38 1.71-1.65 1.4-2.85 1.25H309.25a2.09 2.09 0 0 1-.95-.17.65.65 0 0 1 .04-1zm3.56-15.61c.9.28.79.92 1.08 1.3.57.75 1.07 1.56.15 2.41-.31.29-.78.54-1.11.23-.7-.64-.08-1.38 0-2.09a12.87 12.87 0 0 0-.12-1.77zm3.51.11c-.69 0-1-.6-1-1.17s.39-.64.84-.6a.86.86 0 0 1 .84 1c0 .48-.21.87-.68.85zm1.16 2.52l-.44.35a2.11 2.11 0 0 1-.3-.55c0-.09.16-.31.27-.33.3.02.44.22.47.61zm-1.23 5.69c-1.35.6-2.16.71-2.85-.13a.6.6 0 0 1 .11-.89c1.14-.69 1.55.52 2.74 1.1zm3-12.92c.52-.08.69.29.78.72a.82.82 0 0 1-.17.67.41.41 0 0 1-.23.1c-.53.08-.64-.4-.78-.77a.49.49 0 0 1 .42-.64zm2.75 7.68a.69.69 0 0 1 .42-.16c.26 0 .46.17.37.58-.17 0-.41.17-.59.11s-.16-.26-.18-.45zm-5.41 27.35c.2-2.47-.71-2.81-2.72-1.95a6.38 6.38 0 0 1-4.44-.28c1.69-1.62 1.57-2.94-.3-4.66 2.1-1.14 2.1-1.14 4.88-1a5.59 5.59 0 0 0-.49 2.52c.15.79-.42 1.85.4 2.32 1 .57 1.21-.69 1.81-1.08 1.18-.78 2.09-.11 2.27 1.23a3.1 3.1 0 0 1-1.39 2.98zm12.36-.86c-.6.11-1.65 0-1-1 .88-1.25.57-1.36-.75-1.54-1.93-.26-1.79-2.08-2.35-3.49-.65 1.63-.77 3.22 1.06 4.6a10.48 10.48 0 0 1-6.43-.33c1.73-.45 2.2-1.25 2.26-2.59s-.87-1.33-1.66-1.66c1.64-1.38 3.26-1.77 5-.86.88.47 1.23-.13 1.77-.34 1.92-.76 4.1-.15 4.7 1.39s-1.08 5.6-2.58 5.9zm-1.32-19.23c.1 2-.39 4 .74 5.94h-3.73a6.74 6.74 0 0 0 .24-5.31c-.16-.41-.81-.7-.15-1.17a3.58 3.58 0 0 1 2.36-.64c.73.13.54.79.56 1.26zm-3 3l-.15.46a1.56 1.56 0 0 1-.28-.5c0-.11.13-.25.21-.37zm7.35 3c-.87.23-1.83-.14-2.83.06.62-2 1-3.79.13-5.55-.24-.46-.71-.82 0-1.15a6.49 6.49 0 0 1 2.13-.65c.61-.06.72.51.74 1.06a20.32 20.32 0 0 0 .21 4.74l.7-.09c0-3.65 1.91-4.52 5.57-2.58 1-1.5 2.48-1 3.85-.9h.64a2.8 2.8 0 0 0 .64-.13c.43-.14.84.77.63 1.39-.38 1.14-1.27.81-2.09.64 0 .61-.06 1.22-.1 1.83.14.34.83.68.38 1-1 .68-2.2.38-3.3.2-.51-.09-.22-.58-.09-1 0-.14.08-.28.11-.41a4.76 4.76 0 0 0 .11-.62 2.28 2.28 0 0 0-.49-1.72 2.54 2.54 0 0 0-.28-.29h-.05c.06 2.2-2 1.4-3.26 2.26a1.43 1.43 0 0 0-.23.2l3.13.41a3.9 3.9 0 0 1-2.24 1.66 3.57 3.57 0 0 1-2.49-1l-.68.1a1.9 1.9 0 0 1-.85.48zm3.52-17.78l.64 2.72c-1.33-.81-1.61-1.56-.65-2.62zm4.41 4.85c0-.09.16-.3.27-.33.3-.05.45.13.45.55l-.42.34a2.17 2.17 0 0 1-.3-.46zm3.11 1.43l.27-.29a1.72 1.72 0 0 1 .22.33s-.12.17-.14.16a3.12 3.12 0 0 1-.35-.2zm0 23.23c-1.48.82-2.72.24-3.81-.88a3.56 3.56 0 0 1-1.1-2.38c-1 1.23-1.13 2.56-1.58 3.75-.36 1-.9 1.4-1.87.95s-.28-1.08-.05-1.64a4.54 4.54 0 0 0 .21-.45c.35-1.06 1.84-2.16 1.13-3-.84-1-2.28 0-3.42.51-.65-2.11-.45-3.11 2.14-3.05 2.17.05 4.29 1 6.6.14 1.54-.57 2.86.6 3.33 2.25a3.08 3.08 0 0 1-1.63 3.9zm6.35-43.66a2.1 2.1 0 0 1 .22.33s-.11.17-.14.16a3.12 3.12 0 0 1-.35-.2zm-1.21 20.46c.09.86.37 1.79-.59 2.17-1.3.51-1.58-.76-1.8-1.52a47 47 0 0 1-.86-4.7c1.74 1.32 3 2.29 3.2 4.15zm-1.76-23s.17.1.17.12a2.39 2.39 0 0 1-.15.37l-.32-.24a3.61 3.61 0 0 1 .25-.12zm-1 13.46a.45.45 0 0 1 .65.47 1 1 0 0 1-.57.7 4.13 4.13 0 0 1-4.23-1c1.66-.38 2.87.62 4.07-.04zm-16.39-14.03c1 0 1.16.7 1.16 1.55-.07.5 0 1.26-.86 1.09-.74-.14-1.46-.49-1.52-1.39a1.13 1.13 0 0 1 1.22-1.25zm-5.91-2.34l.26.3a2.47 2.47 0 0 1-.36.19s-.14-.14-.13-.17a3.19 3.19 0 0 1 .23-.32zm5.47-34.38a17.85 17.85 0 0 1-2.05.92 1.89 1.89 0 0 0-1.3 1.94c0 .93.7 1 1.39 1.07 1.44.19 1.49.82.9 2.08a2.21 2.21 0 0 0 1.82 3.35c2.6.36 3.09 2.31 3.87 4.16 1.49 0 2.9.61 4.51 0 1.25-.45 2.11.67 2.32 2a36.79 36.79 0 0 0 .39 3.71c.34 1.33-1.12 1.11-1.9 1.13s-2 .41-1.88-1.16c.13-1.3 1.13-3.41-.67-3.48-1.42-.06-.8 2.15-.51 3.37s-.6 1.28-1.28 1.3c-.92 0-2.8.3-2.49-.69.63-2-.19-3.8.07-5.66h-1.24c.39 2 .07 3.22-2.32 2.26-.94-.39-1 0-.85.72.07.44.15.89.22 1.33-.11.76 1.25.75.89 1.53s-1.24.66-1.95.65h-1.29a3 3 0 0 1-1.26-.23 2.31 2.31 0 0 1-.68-.47l-.57-.84c-3.14 2.59-5.62 2.26-7.71-1h-.4c-.69 2.73-4.27 4-7.07 2.36a13.54 13.54 0 0 1-1.91-1.59l.9 6.68h1a1 1 0 0 1 1.48 0c1.39 1.88 1.92.13 2.69-.63a6.33 6.33 0 0 1-2.52-1.77 2.62 2.62 0 0 1 1.25-.32 1.07 1.07 0 0 1 .32.07 1.16 1.16 0 0 1 .22.13 3.89 3.89 0 0 1 .74 1.8 2.69 2.69 0 0 1 3.4-.1 7 7 0 0 1 .72.62l.43.43c.27.29.54.59.82.87h.4l2.08-1v-.44c-.72-.12-1.59 0-1.9-.86-.19-.55.27-1 .75-1.12.85-.28 1.86-.77 2.57 0a1.74 1.74 0 0 1 .19.22 1 1 0 0 1 .2.37c.09.32-.13.51-.42.67s-.77.34-.93.61v.51c.88 0 1.52 0 1.5 1.31 0 1.5-.53 3.09.48 4.55.35.51-.23 1-.73 1-1.34.19-2.78.7-3.82-.74h-.54l-.71.42-1.22.71a1.64 1.64 0 0 1-.37.27.94.94 0 0 1-1.12-.24c-1.81-.52-2-1.9-2-3.5 0-.74.44-1.65-.48-2.22s-1.14 1-2 .78c0 .23 0 .46-.08.69 2.14 2.15 1.91 3.13-1 4.28 0 .46-1.58.26-.54.85 1.83 1-.08 1.47-.21 2.21a6 6 0 0 1 .73.21c2.5 1 4.46 1.22 5.83-2 .51-1.19 1.61.29 2 1.17a12.09 12.09 0 0 0 1.54 2.78 4.78 4.78 0 0 0 .66.69 4.87 4.87 0 0 0 .81.57 2.49 2.49 0 0 1 .93.1 1.24 1.24 0 0 1 .2.1.85.85 0 0 1 .36.37 1.28 1.28 0 0 1 .15.5c.11.82-.2 1.89.44 2.4.18.14.1.61.13.93h.46l1.15-1.88c0-.08-.07-.16-.11-.25-.14-.25-.3-.52-.22-.67 1.08-2.06.19-3.53-1.78-4.86 2.95-1.1 3.48 1.41 4.52 2.55 1.36 1.52-.77 1.89-1.42 2.73a3.2 3.2 0 0 1 2.19.3c.93.76 1.68.23 2.63.09l1.34-.23c.45-.07.9-.13 1.36-.16a5.91 5.91 0 0 1 2 .2 4.69 4.69 0 0 1 .67.27l1.4-.07a3.22 3.22 0 0 0 .54-.1.6.6 0 0 0 .41-.37v-.41a4.13 4.13 0 0 1-.55-.21c-.3-.15-.5-.35-.31-.72a1.77 1.77 0 0 1 2.22-.65c.48.13.58.34.52.58a3 3 0 0 1-.42.73l.05.58c.58.84 1 1.9 2.3.67a2.91 2.91 0 0 1 3.72-.12 1.05 1.05 0 0 1 .45 1.5.84.84 0 0 1-1.45.2c-.4-.39-.67-1.09-1.35-.5a1.3 1.3 0 0 0-.15.94 1.36 1.36 0 0 0 1.18 1.13c.53.13 1.11-.38 1.65.08-1.18 2.12-2.19 2.26-4.78.67h-.51c-1 1.59-2.3 1-3.59.51h-.44c-.89.85-2 .37-3 .48h-4.07c-.65 1.33-1.53.85-2.42.29a3.29 3.29 0 0 1-2-.29 14.26 14.26 0 0 1-1.65-.94h-.08a2.26 2.26 0 0 1-.18.5 1.18 1.18 0 0 1-.19.25l-.09.13a1.57 1.57 0 0 1-.75.4 1.36 1.36 0 0 1-1.27-.24c-1.78-2.13-3 .78-4.5.27-.43-.15-.73.13-.58.46.47 1.09-.05 1.37-1 1.3s-2.29.32-2.41-1.35c.14-.23.27-.47.41-.71.17-1.39.54-2.81-.72-3.94-.73-.51-1.41-1.27-2.42-.55-.13.52-.25 1-.38 1.55l-.6.38-.82-.2c-.05.64-.09 1.28-.14 1.92a.29.29 0 0 0 .2.33l.43.18-.49.33c-1 .59-2.07.3-3.1.46-.23 2.28-1 4.69 1.57 6.37.84-1.23-.57-1.84-.57-2.8 0-1.15.19-2 1.45-2.23s1.48.27 1.32 1.38c-.12.83.49.6 1 .54a20.88 20.88 0 0 1 2.23-.15 1.25 1.25 0 0 1 1.44 1.11 1.43 1.43 0 0 1-.7 1.51c-.67.35-1.1-.26-1.41-.72-.58-.87-1.27-1.1-2.1-.47-.55.41-1.15 1 .09 1.3.45.1 1.09-.2 1 .63a1.2 1.2 0 0 1-1 1 16.87 16.87 0 0 1-2.25.09 1.58 1.58 0 0 0-1.75 1.12c-.27.88.35 1.19 1 1.41.83.28 1.34.84 1.11 1.7-.3 1.17-1.17.55-1.85.43a1.77 1.77 0 0 0-1.39.43 1.31 1.31 0 0 1-1.81-.25c-.51-.51-.21-1.09 0-1.63.5-1.08 1.18-2.5 0-3.2s-2.34-2.5-4.34-1.14c-.81.55-1.92 0-2.81-.59a1.26 1.26 0 0 0-1.8.26 2.55 2.55 0 0 0-.51 2.13c.09.52.54.8.89.53 2.36-1.8 3.6 1.68 5.7 1.18.32-.07.45.71.28 1.07-.64 1.37-.19 2.76 0 4.11-.3.08-.53.19-.58.14-1.77-2.14-3.23-1.92-4.31.74-.29.72-.4 1.69-1.35 1.44-1.12-.3-.89-1.67-1.34-2.52s.59-.75 1.1-.82a1.48 1.48 0 0 0 1.32-1.31.87.87 0 0 0-.59-1 1.6 1.6 0 0 0-2 .51 5.3 5.3 0 0 1-1.2 1.25c-1.47.87-2.39.5-2.51-1.32a10.07 10.07 0 0 0-.18-1.74 1 1 0 0 0-1.13-.76c-.59.1-.5.56-.39 1 .3 1.23-.68 2.44 0 3.69.09.18-.15.67-.37.83-.48.34-.68-.09-.93-.45a18.35 18.35 0 0 1-1.45-2c-.56-1.18-1.16-1.29-2.09-.43-.34.32-.8.82-1.24.22a1.13 1.13 0 0 1 .26-1.58c1.83-1.46 2.51-4.23 5.33-4.56.59-.08.87-.88.33-1.08-2.15-.82-1.36-2.35-1-3.74a1.25 1.25 0 0 0-.58-1.48l-.8-.21h-.81l-.94.23a1.4 1.4 0 0 1-.36.22 1 1 0 0 1-1.09-.24l-.52-.17h-.62l-8.79.48a1.26 1.26 0 0 1-.48-.12c-1.37-.47-1.87-4.39-.69-5.42 0-.69-.08-1.07-1.06-1.26-2.14-.4-3-2.42-2.07-4.37.81.09.47 1 .94 1.32.66.44 1.77 0 1.47-.34-1.45-1.44 1.3-3.64-1-4.77-.34-.17-.15-.78.17-1.11a1.38 1.38 0 0 1 1.38-.3c1.75.29 2.06 2 3.11 3 .22.2.27.59.39.9 1.94-1.78 3 .88 4.64.87a.9.9 0 0 0 1-.85 1.1 1.1 0 0 0-.95-1.29c-2.8-.14-3.94-2.52-5.68-4.09a6.51 6.51 0 0 0-.54-.51c-.8-.57-3-.09-2.39-1.29s1.77-3.08 3.85-3a2.23 2.23 0 0 0 2.22-1.28 1.31 1.31 0 0 1 2.13-.43c.63.65-.37 1.09-.71 1.6s-1.57 1-.93 1.77 1.7.08 2.41-.52c.32-.27.75-.59.81-.94.71-4 3.83-2.45 6.07-2.5 1.17 0 1.75-.15 1.86-1.32a5.68 5.68 0 0 1-.85-.09 4.24 4.24 0 0 1-1.69-.68 3.8 3.8 0 0 1-.62-.52 5.48 5.48 0 0 1-1.27-2.31c-.18-.44-.35-.89-.53-1.33L278 105c-.33.58-.66 1.16-1 1.75-.81 1.54-1.69 1.55-2.48.07-1.06-2-1.84-1.72-2.67.15-.63 1.42-1.44 1.48-2.31.15-.69-1-1.42-2.08-2.13-3.11-.24-.36-.5-.8-.94-.78a.42.42 0 0 1-.18.24.61.61 0 0 1-.41.16c-.07.28.1.64.09.94-.05 2.44-1.34 3.62-4 3.72-3.8.13-4.71-.46-5.05-3.31 0-.08.23-.2.35-.31l1-.8c-1.42-.95-1-2.44-.66-3.55a2.47 2.47 0 0 1 2.79-1.59c2.06.32 4.82-1.16 5.66 2.38.15.66 1.5 0 2.3 0-.27-1.8-.53-3.6-.84-5.69 1 .4 1.44 1.63 2.59 1.32a.74.74 0 0 1 1 .78c-.2 2.61 1.33 1.8 2.49 1.17s2.46-.37 3.69-.5c.7-.08 1.48-.23 1.35-1.11s-.89-.95-1.59-.8c-1.07.24-2.13.75-2.63-.86-.42-1.36-.53-2.64.58-3.67a2.51 2.51 0 0 1 3.18.07c1.11.73 1.82 1 2.69-.19.37-.51.87-.21 1.35 0 1.95 1 2.1-1.37 3.3-1.92s-.48-1.15-1-1.64c-.35-.32-.55-.68-.28-1.08a1 1 0 0 1 1.15-.29 2.34 2.34 0 0 1 1.37 1c.43.59.94 1 1.69.71a1.34 1.34 0 0 0 .82-1.65c-.41-1.5.21-1.91 1.54-1.51a2.51 2.51 0 0 0 1.92-.28c.86-.42 1.55-.23 1.72.73.28 1.67 1.38 1.88 2.73 1.58.12 1-.89.79-1 1.4a1.2 1.2 0 0 0 .42 1.34c.34.25.94.58 1.11.25.8-1.6 2-1.82 3.66-1.69a1.19 1.19 0 0 0 .83-2c-1.35-1.65-.48-1.24.92-1.82 3-1.22 5.52-.41 8.21.49 3.57 1.19 4.76.51 5.6-3.15 3 3.18 2.67 6.52-.85 9.3a3.53 3.53 0 0 0-.68 5.34c.44.6.86 1.08.35 1.74-.87 1.12-.94-.22-1.37-.48s-.65-.23-.83-.08a1.47 1.47 0 0 0-.37.76 1.58 1.58 0 0 1 .51.83 3.66 3.66 0 0 1 .05.94 3 3 0 0 0 .18 1.47.75.75 0 0 1 .28.3 12.52 12.52 0 0 1 2.88-1.73 4.12 4.12 0 0 1 1-.26 3.54 3.54 0 0 1 .92 0 3.23 3.23 0 0 1 .89.26 3.74 3.74 0 0 1 .56.29 9.35 9.35 0 0 1 1.79 1.46 3.47 3.47 0 0 1 1.65-1.74 2.11 2.11 0 0 1 1.09-.14 3.41 3.41 0 0 1 1.26.46c1.08.63 1.26-.77 2-.65a10.56 10.56 0 0 1-2-.85c-.59-.39-1.73-.66-.81-1.86a1.34 1.34 0 0 0-.5-2c-.84-.58-1.34.21-1.88.72-2.56 2.41-4.92 2-6.09-1.22-.47-1.26-.49-2.42 1-3.22 2.62-1.46 4.83-3.19 3.44-6.74a1.06 1.06 0 0 1 .13-.72c.52-1.25 5.79-2.35 6.8-1.44 1.48 1.44 1.25 2.93-.67 3.92zm-10.79 21.89c-.07.16-.1.4-.2.44-.8.32-1.45.21-1.82-.91a2.08 2.08 0 0 1 2.02.47zm-49.29.29h-.39a2.45 2.45 0 0 1 0-.39s.19-.06.2 0a2.06 2.06 0 0 1 .16.37zm63.89-21.52c-.07 0-.33-.18-.65-.35a4.46 4.46 0 0 1 .76-.66c.07 0 .3.22.46.35a3.3 3.3 0 0 1-.57.66z"/><path class="cls-5" d="M333.95 135.03l.11-.19.08.2-.19-.01zM346.27 139.31s.19-.06.21 0a3.17 3.17 0 0 1 .15.37h-.4a2.58 2.58 0 0 1 .04-.37zM328.86 110.06a2 2 0 0 1-.35-.2l.25-.27a2.39 2.39 0 0 1 .21.34s-.09.14-.11.13zM351.23 142.57v-3.1zM310.17 79.78h-1.08 1.08zM306.14 80.11c-1 0-2.06.12-3.08.22 1-.1 2.05-.17 3.08-.22z"/><path class="cls-4" d="M351.94 94.72c-.2-.7.34-1.71-.4-2.1s-1.18.61-1.7 1.07a1.22 1.22 0 0 1-.84.31c-.37-.09-.32-.44-.24-.81.69-3.47-.25-5-3.51-5.85-.64-.17-1.53-.21-1.84-.65-1.72-2.4-2.71.12-3.8.62-1.29.59.09 1.51.23 2.3.08.44.63.86-.1 1.4-1.15-.46-1.55-1.64-2.16-2.58-.49-.77-.13-2.32-1.6-2.12a2.59 2.59 0 0 0-2.15 2.46c-.17 1.16-.26 1.59-1.67.7-.77-.49-2.69-2.19-3.66-.08a6.4 6.4 0 0 0-.42 2.78c.12 1.23-.5 3.69 2.42 2.78a1.25 1.25 0 0 1 1.7 1.06c.12 1.54.82 1.64 2.16 1.47 1-.13 1.79 1.59 2.92.88 1.29-.8 2-.51 2.56.72a1.7 1.7 0 0 0 1.38 1c3 .12 2.73 1.52 1.63 3.59a2.62 2.62 0 0 0 1.24 3.41c1.1.65 2.35.3 2.95-1.31.69-1.89 2-2.09 3.4-.65a2 2 0 0 0 1.52.67l.09-6.5c-1.14-1.5.33-3.05-.11-4.57zM349.64 117.59c-1.83.83-3.21.84-3.84-1.52-.17-.6-.56-1.62-1.49-1.45-1.24.24-.82 1.44-1 2.28 0 .25-.06.5-.1.75s0 .46.07.69a24.22 24.22 0 0 0 7.56 1v-1.75c-.39.02-.84-.15-1.2 0zM335.59 81.73c-.64.62-1.22 1.52.09 1.63.86.08 1.44-1.17 1.62-2.19a4 4 0 0 0 0-.49l-1-.16a1.5 1.5 0 0 1-.14.47 5.4 5.4 0 0 1-.57.74zM324.18 79.37a40.84 40.84 0 0 0-8.49.23c2.83-.12 5.67.27 8.49-.23zM350.88 136.22a13.27 13.27 0 0 0 .14 2.44 5.88 5.88 0 0 0 .18.81q-.15-3.25-.28-6.5c.08 1.08-.01 2.17-.04 3.25z"/><path class="cls-4" d="M351.2 139.47a5.88 5.88 0 0 1-.18-.81 5.88 5.88 0 0 0 .18.81zM351.27 89.1c.06.88 1.06.44 1.65.57v-1.51c-.68.08-1.73-.09-1.65.94zM351 147.75a22.2 22.2 0 0 0 .34-2.58v-1.29a11.55 11.55 0 0 0-.1-1.31c-.64 1.7-.24 3.43-.24 5.18z"/><path class="cls-4" d="M351.33 143.88a11.55 11.55 0 0 0-.1-1.31 11.55 11.55 0 0 1 .1 1.31zM330.27 79.6a17.34 17.34 0 0 0-2.46-.35 10.28 10.28 0 0 0-1.24 0 7.59 7.59 0 0 0-1.25.14c1.68.45 3.3.11 4.95.21z"/><path class="cls-4" d="M326.57 79.24a7.59 7.59 0 0 0-1.25.14 7.59 7.59 0 0 1 1.25-.14zM350.07 109.55c0 .79.74.71 1.3.76v-1.51c-.55.05-1.29-.04-1.3.75zM309.09 79.81l-2.95.3c.99-.11 2.01.2 2.95-.3zM306.14 80.11l2.95-.3-2.95.3zM310.62 79.77a.43.43 0 0 0-.23-.08.51.51 0 0 0-.22.09z"/><path class="cls-4" d="M310.39 79.69a.51.51 0 0 0-.22.09.51.51 0 0 1 .22-.09zM301.09 129.43l-.06-.07.06.07.01-.01-.01.01zM301.1 129.42l-.07-.06z"/><path class="cls-4" d="M303.47 117.45c.25-.48.55-.31.84-.07l.27.21a.91.91 0 0 0 .27.15c.15-.21.31-.41.47-.62-1.95-2.79-4.32-.11-6.65-.8.62 1.52 1.44 1.68 2.53 1.22.45-.19 1-.47 1.26.2s-.29.89-.69 1.2a3.9 3.9 0 0 1-5.22-.56 3.68 3.68 0 0 1 .77-5.31 9.31 9.31 0 0 1 1.32-.71l-1.32-.54c-.25 1-.69 1.31-1.54.51a3.24 3.24 0 0 0-2.57-.73c-.62 0-.79.51-.85 1.05s-.11.88.3 1.13.78.06 1.09-.29c1.44-1.62 1.35-.14 1.35.74s.51 1.8-.24 2.39c-.93.74-.78-.72-1.35-.89-.33-.1-.63-.29-.85.07a1.79 1.79 0 0 0-.06 1.91c2.34 2.55-.11 2-1.35 2.12a4.87 4.87 0 0 1-3.39-.51c2.33-3 1.17-6 .23-9a3.82 3.82 0 0 1-2.22-2.93l-1.91.78c-.11 1.17-.69 1.28-1.86 1.32-2.24 0-5.36-1.5-6.07 2.5-.06.35-.49.67-.81.94-.71.6-1.66 1.34-2.41.52s.54-1.19.93-1.77 1.34-1 .71-1.6a1.31 1.31 0 0 0-2.13.43 2.23 2.23 0 0 1-2.22 1.28c-2.08-.11-3.21 1.77-3.85 3s1.59.72 2.39 1.29a6.51 6.51 0 0 1 .54.51c1.74 1.57 2.88 4 5.68 4.09a1.1 1.1 0 0 1 .95 1.29.9.9 0 0 1-1 .85c-1.6 0-2.7-2.65-4.64-.87-.12-.31-.17-.7-.39-.9-1.05-1-1.36-2.73-3.11-3a1.38 1.38 0 0 0-1.38.3c-.32.33-.51.94-.17 1.11 2.33 1.13-.42 3.33 1 4.77.3.3-.81.78-1.47.34-.47-.31-.13-1.23-.94-1.32-.89 2-.07 4 2.07 4.37 1 .19 1 .57 1.06 1.26l1-.11c.22-2 1.87-1.75 3.22-2 1-.19 2.18.12 2.67-1.49.31-1 1.78-.89 2.91-1.36.14 2.64-3.74 2.67-2.81 5.33l2.06-.68c.08-.89.43-1.56 1.43-1.57s1.06.75 1.09 1.49c1.08.37 2.11 1.35 3.32.16.17-.17.83-.06 1.13.13 1.78 1.13.85 3 1 4.53.14 1.16-1.29.49-2 .8a1.25 1.25 0 0 1 .58 1.48c-.32 1.39-1.11 2.92 1 3.74.54.2.26 1-.33 1.08-2.82.33-3.5 3.1-5.33 4.56a1.13 1.13 0 0 0-.26 1.58c.44.6.9.1 1.24-.22.93-.86 1.53-.75 2.09.43a18.35 18.35 0 0 0 1.45 2c.25.36.45.79.93.45.22-.16.46-.65.37-.83-.63-1.25.35-2.46 0-3.69-.11-.42-.2-.88.39-1a1 1 0 0 1 1.13.76 10.07 10.07 0 0 1 .18 1.74c.12 1.82 1 2.19 2.51 1.32a5.3 5.3 0 0 0 1.2-1.25 1.6 1.6 0 0 1 2-.51.87.87 0 0 1 .59 1 1.48 1.48 0 0 1-1.32 1.31c-.51.07-1.54 0-1.1.82s.22 2.22 1.34 2.52c1 .25 1.06-.72 1.35-1.44 1.08-2.66 2.54-2.88 4.31-.74.05.05.28-.06.58-.14-.2-1.35-.65-2.74 0-4.11.17-.36 0-1.14-.28-1.07-2.1.5-3.34-3-5.7-1.18-.35.27-.8 0-.89-.53a2.55 2.55 0 0 1 .51-2.13 1.26 1.26 0 0 1 1.8-.26c.89.59 2 1.14 2.81.59 2-1.36 3.14.4 4.34 1.14s.45 2.12 0 3.2c-.25.54-.55 1.12 0 1.63a1.31 1.31 0 0 0 1.81.25 1.77 1.77 0 0 1 1.39-.43c.68.12 1.55.74 1.85-.43.23-.86-.28-1.42-1.11-1.7-.67-.22-1.29-.53-1-1.41a1.58 1.58 0 0 1 1.75-1.12 16.87 16.87 0 0 0 2.25-.09 1.2 1.2 0 0 0 1-1c.14-.83-.5-.53-1-.63-1.24-.29-.64-.89-.09-1.3.83-.63 1.52-.4 2.1.47.31.46.74 1.07 1.41.72a1.43 1.43 0 0 0 .7-1.51 1.25 1.25 0 0 0-1.44-1.11 20.88 20.88 0 0 0-2.23.15c-.51.06-1.12.29-1-.54.16-1.11-.1-1.63-1.32-1.38s-1.46 1.08-1.45 2.23c0 1 1.41 1.57.57 2.8-2.57-1.68-1.8-4.09-1.57-6.37-.75-.38-.71-.81-.35-1.56a2.9 2.9 0 0 0 .16-.41 2.56 2.56 0 0 0 .14-.81 2.3 2.3 0 0 0-.16-.77 2.45 2.45 0 0 0-.77-1h-.06c.35 2.06-.83 2-2 2a5.13 5.13 0 0 0-1.14.11c.52 1.7 1.85.6 2.8.75-1.27 2.12-2 2.2-5.17.67l-.06-.05a1.5 1.5 0 0 1-1.27 1 3.21 3.21 0 0 1-.54 0 6.85 6.85 0 0 1-.74-.14c-1.22-.3-.27-1.24-.41-1.87s.39-1.79-.69-1.79c-.82 0-.66 1.1-.48 1.65.77 2.43-.91 2.14-2.32 2.19-.31.45-1 .69-.75 1.43s.28 1.55-.61 1.86c-1.1.37-1.33-.73-1.81-1.32a2.86 2.86 0 0 1-.35-1.91c-.91-1.51.21-3.25-.54-4.77.51-.25 1.05-.73 1.53-.69a22.22 22.22 0 0 0 6.81-.11c1.11-.24 1.49.73 1.69 1.74s-.49 1.95.48 2.68h.06c.41-1-.29-2 .3-3 1-1.71 2.6-1.9 5.23-.5l.07.06c1.37-1.4 2.87-1.07 4.38-.73l.75.17a6.5 6.5 0 0 0 .75.12c1-.72 1.69 0 2.42.55a5.17 5.17 0 0 1 6.46-.56c1.59.93 1.67-1.33 2.88-.7-.65-.72-2.88-.74-.79-2.22a4.87 4.87 0 0 1-.81-.57 4.78 4.78 0 0 1-.66-.69 12.09 12.09 0 0 1-1.54-2.78c-.4-.88-1.5-2.36-2-1.17-1.37 3.17-3.33 3-5.83 2a6 6 0 0 0-.73-.21c.13-.74 2-1.19.21-2.21-1-.59.58-.39.54-.85a12.17 12.17 0 0 1-2.65-.21 1.35 1.35 0 0 1-.93-1.89z"/><path class="cls-4" d="M318 126.05a4.87 4.87 0 0 1-.81-.57 4.87 4.87 0 0 0 .81.57zM305.23 99.91a5.5 5.5 0 0 1 6-1.52 18.61 18.61 0 0 0 2 .32 1.47 1.47 0 0 1 .37-.76c.18-.15.44-.16.83.08s.5 1.6 1.37.48c.51-.66.09-1.14-.35-1.74a3.53 3.53 0 0 1 .68-5.34c3.52-2.78 3.82-6.12.85-9.3-.84 3.66-2 4.34-5.6 3.15-2.69-.9-5.22-1.71-8.21-.49-1.4.58-2.27.17-.92 1.82a1.19 1.19 0 0 1-.83 2c-1.68-.13-2.86.09-3.66 1.69-.17.33-.77 0-1.11-.25a1.2 1.2 0 0 1-.42-1.34c.12-.61 1.13-.45 1-1.4-1.35.3-2.45.09-2.73-1.58-.17-1-.86-1.15-1.72-.73a2.51 2.51 0 0 1-1.92.28c-1.33-.4-1.95 0-1.54 1.51a1.34 1.34 0 0 1-.82 1.65c-.75.33-1.26-.12-1.69-.71a2.34 2.34 0 0 0-1.37-1 1 1 0 0 0-1.15.29c-.27.4-.07.76.28 1.08.53.49 2.06 1.16 1 1.64s-1.35 2.94-3.3 1.92c-.48-.24-1-.54-1.35 0-.87 1.21-1.58.92-2.69.19a2.51 2.51 0 0 0-3.18-.07c-1.11 1-1 2.31-.58 3.67.5 1.61 1.56 1.1 2.63.86.7-.15 1.48 0 1.59.8s-.65 1-1.35 1.11c-1.23.13-2.47-.16-3.69.5s-2.69 1.44-2.49-1.17a.74.74 0 0 0-1-.78c-1.15.31-1.55-.92-2.59-1.32.31 2.09.57 3.89.84 5.69h1c.93-2 1.52.11 2.28.19h.15l.08-.12c.13-.23.29-.29.5-.09h2.25c.75 0 1.55.11 1.15 1.3-.2.59 0 1.28.76 1.22a.93.93 0 0 0 .78-1.29c-.33-.94.07-1.26.89-1.25s2.06-.46 2.2 1h.07c1.73-1.48 3.55-2.1 5.53-.45a2.05 2.05 0 0 1 .89 2.19c-.28.91-1.18.71-1.91.74l-2.1.09c.41 1.34 1.23 1.59 2.3 1.16.84-.34 1.47-.48 1.4.76l1-1c0-.24-.06-.46-.07-.69a3.8 3.8 0 0 1 3.34-4.32 2.8 2.8 0 0 1 .5 0 5.5 5.5 0 0 1 2.62 1.08l.59.41a2.91 2.91 0 0 1 1.19-2 4.45 4.45 0 0 1 .64-.37 7.56 7.56 0 0 1 1.12-.42l.55-.16c1.22-.36 1.69 1.81 3.07 2-.17.26-.27.62-.5.78-2.33 1.57-2.28 2.4.21 3.72.46.24.21.72.06 1.1.54 1 1 .49 1.48-.07.34-.39.83-.67 1.29-.3a.94.94 0 0 1-.06 1.52c-1.84 1.33-1.47 3.31-1.67 5.14l.4.65c.15.23.31.5.5.81.83-.93 1.33-2.29 2.76-2.45l-.9-6.68c-.88-1.77-1.06-3.7.48-5.43z"/><path class="cls-4" d="M313.16 98.71a1.47 1.47 0 0 1 .37-.76 1.47 1.47 0 0 0-.37.76z"/><path class="cls-6" d="M279.2 102.78a1.18 1.18 0 0 1 .3-.36 1.09 1.09 0 0 1 .9-.2c-.14-1.5-1.32-1-2.2-1s-1.22.31-.89 1.25a.93.93 0 0 1-.78 1.29c-.77.06-1-.63-.76-1.22.4-1.19-.36-1.26-1.15-1.3s-1.5 0-2.25 0l-.5.09-.08.12h-.15l-.32.4a3.79 3.79 0 0 0 .3.68c.34.5.72 1.12-.09 1.37-.48.14-.79-.52-.85-1a4.75 4.75 0 0 1 .11-1l-1.43-.62h-1c-.8 0-2.15.65-2.3 0-.84-3.54-3.6-2.06-5.66-2.38a2.47 2.47 0 0 0-2.79 1.59c-.37 1.11-.76 2.6.66 3.55l4.23 2c-1.41 1.35-2.47.76-3.41-.14-.54-.52-.91-1.19-1.8-1.09-.12.11-.36.23-.35.31.34 2.85 1.25 3.44 5.05 3.31 2.68-.1 4-1.28 4-3.72 0-.3-.16-.66-.09-.94-.35 0-.54-.52-.77-.81l-3.06-1.06c-.4-.14-.83-.36-.72-.84a.79.79 0 0 1 1.17-.56c1.15.74 2.75.88 3.38 2.36.27.11.63.28.59.51.44 0 .7.42.94.78.71 1 1.44 2.06 2.13 3.11.87 1.33 1.68 1.27 2.31-.15.83-1.87 1.61-2.13 2.67-.15.79 1.48 1.67 1.47 2.48-.07.31-.59.64-1.17 1-1.75l1-1.73a2.27 2.27 0 0 1 .18-.63zM278 105l1-1.73z"/><path class="cls-4" d="M321.47 84.33a1.06 1.06 0 0 0-.13.72c1.39 3.55-.82 5.28-3.44 6.74-1.45.8-1.43 2-1 3.22 1.17 3.17 3.53 3.63 6.09 1.22.54-.51 1-1.3 1.88-.72a1.34 1.34 0 0 1 .5 2c-.92 1.2.22 1.47.81 1.86a10.56 10.56 0 0 0 2 .85l1.35.62h1.24c.07-.25.19-.35.43-.15l1-.41c-.78-1.85-1.27-3.8-3.87-4.16a2.21 2.21 0 0 1-1.82-3.35c.59-1.26.54-1.89-.9-2.08-.69-.09-1.41-.14-1.39-1.07a1.89 1.89 0 0 1 1.3-1.94 17.85 17.85 0 0 0 2.05-.92c1.92-1 2.15-2.48.61-3.87-.92-.89-6.18.19-6.71 1.44z"/><path class="cls-6" d="M302.85 114.67c-.19-.31-.35-.58-.5-.81l-.4-.65a6.43 6.43 0 0 0-.77-.42 5.33 5.33 0 0 0-2.54-.43 9.31 9.31 0 0 0-1.32.71 3.68 3.68 0 0 0-.77 5.31 3.9 3.9 0 0 0 5.22.56c.4-.31.91-.63.69-1.2s-.81-.39-1.26-.2c-1.09.46-1.91.3-2.53-1.22 2.33.69 4.7-2 6.65.8.37.13 1 .21.73.72-.33.68-.81.13-1.2-.1a.91.91 0 0 1-.27-.15l-.27-.21c-.29-.24-.59-.41-.84.07a1.35 1.35 0 0 0 1 1.86 12.17 12.17 0 0 0 2.65.21c2.92-1.15 3.15-2.13 1-4.28-.66-.32-1.6-.24-1.79-1.27.91-.63 1.29.31 1.87.58.85.2 1-1.42 2-.78s.49 1.48.48 2.22c0 1.6.18 3 2 3.5h1.49l1.22-.71.71-.42a2.78 2.78 0 0 0-.07-.69c-1.46-.15-2.09-.68-2.06-2.39 0-1.88 1.61-1.2 2.26-1.92-.28-.28-.55-.58-.82-.87L315 112a7 7 0 0 0-.72-.62 2.69 2.69 0 0 0-3.4.1h-.06c-.77.76-1.3 2.51-2.69.63h-2.48c-1.47.27-1.97 1.63-2.8 2.56zM315.38 118.75l.71-.42z"/><path class="cls-6" d="M304.58 117.59a.91.91 0 0 0 .27.15.91.91 0 0 1-.27-.15zM342.86 117.25c-.41-.17-.42-.51-.34-.88a7.33 7.33 0 0 1-.2-1.81v-.91c0-.62.07-1.23.07-1.84a5.68 5.68 0 0 0-.59-2.68h-.24l-.22-.06c-1.21.54-3.1 0-3.33 2.09.37.07.75.13.81.61.91 1.18.34 2.55.49 3.82.11 1-.18 2.2-1.12 2.19s-1.28-1.27-1.17-2.25c.24-2.13-.71-3.29-2.76-3.65l-1.89.24-1.05.39c-1.1.52-2-.46-3.06-.47a2.4 2.4 0 0 1-.51.07.94.94 0 0 0-.51 1.23c.18.68.11 1.53-.72 1.51s-1-.77-.66-1.51c.59-1.37-.7-.92-1.18-1.25l-.23.07-.23-.08a13.14 13.14 0 0 0-2 .27c-.9.27-.56.84.54 2.64.31.5.57 1 .88 1.52.62 1 .86 2.54 2.05 2.65 1.38.14 1.35-1.68 2.14-2.47v-.14l.3-.81c.1-.27.2-.54.32-.8a4.06 4.06 0 0 1 1-1.39c.74-.66 1-.2.86.59a1.38 1.38 0 0 0 2-.21c.38-.4.75-1 1.42-.44a1 1 0 0 1 .23.68c0 .86-.63.82-1.21.87-.33 0-.66.09-1 .13a2.86 2.86 0 0 0-1.95 2.15l.42 1c.89.78 1.93.53 3 .63 2.23.22 4.44-1 6.64 0h1.48l2-.64c0-.23 0-.46-.07-.69z"/><path class="cls-6" d="M342.43 111.81c0 .61 0 1.22-.07 1.84.03-.65.07-1.23.07-1.84zM342.52 116.37a7.33 7.33 0 0 1-.2-1.81 7.33 7.33 0 0 0 .2 1.81zM292.68 168.12c-.15-.11-.25-.55-.16-.65.49-.56.9-1.28.06-1.61a4.8 4.8 0 0 0-3.44 0c-.86.34-.58 1.33-.33 2 .31.82.35 1.39-.61 1.8-.5-1.08 0-2.2-.29-3.19-.46-1.66-1.84-.42-2.74-.74-.27 1.07.74 2 .4 3.09-.13.39-.12.87-.66.87s-.66-.45-.7-.86c-.08-1.07-.12-2.14-.18-3.2h-6.41c-1.22 0-2.76.31-2.65 1.67s-.25 2.82-.09 4.21c.23 1.91 1.81 1.68 3.08 1.63s2.76-.42 3-2.11c.11-1-.64-1.28-1.49-1.3-.41 0-.83.07-1.25 0s-.95.28-1.18-.68c2.17.4 3.33-.67 3.69-2.64 1.31.33 1.14 1.25 1.14 2.06 0 1.93.53 2.65 2.85 2.58 1.78-.05 3.63-1.08 5.54-.06a2.39 2.39 0 0 0 2.78-.62c.73-.78.54-1.55-.36-2.25zM283.9 133.31c-.18-1.51.75-3.4-1-4.53-.3-.19-1-.3-1.13-.13-1.21 1.19-2.24.21-3.32-.16-.83.43-1.64 1.54-2.52.08l-2.06.68c-.17 1.28.72 2.56 0 3.84-.39.73-.74.93-1-.09-.47-.22-.43-.61-.33-1v-1.06c-.06-.66-.11-1.32-.16-2l-.54-.2h-.45c-1 .26-2.31.17-1.32 1.92.37.66.37 2.05-.48 2.16-1.29.17-.66-1.17-.81-1.87s.45-1.91-.93-2.2l-1 .11c-1.18 1-.68 4.95.69 5.42a1.26 1.26 0 0 0 .48.12l8.79-.48c0-1.11-.91-2.29 0-3.3.58-.67 1.08.37.82 2.13l-.18 1.21.52.17h1.45l.94-.23c-.08-.8-.19-1.61-.24-2.41 0-.48-.07-1.06.63-1.08s.65.6.64 1.05c0 .8-.14 1.61-.22 2.41l.8.21c.64-.28 2.03.39 1.93-.77zM279.39 134.16l.94-.23-.94.23zM318 126.05c-2.09 1.48.14 1.5.79 2.22-1.21-.63-1.29 1.63-2.88.7a5.17 5.17 0 0 0-6.46.56c1.26 1.13.89 2.55.72 3.94a.61.61 0 0 1-.41.71c.12 1.67 1.41 1.28 2.41 1.35s1.45-.21 1-1.3c-.15-.33.15-.61.58-.46 1.49.51 2.72-2.4 4.5-.27a1.36 1.36 0 0 0 1.27.24 1.57 1.57 0 0 0 .75-.4l.09-.13a1.18 1.18 0 0 0 .19-.25 2.26 2.26 0 0 0 .18-.5c-1.07-.42-.57-1.28-.5-2 0-.32 0-.79-.13-.93-.64-.51-.33-1.58-.44-2.4a1.28 1.28 0 0 0-.15-.5.85.85 0 0 0-.36-.37 1.24 1.24 0 0 0-.2-.1 2.49 2.49 0 0 0-.93-.1z"/><path class="cls-6" d="M318 126.05a2.49 2.49 0 0 1 .93.1 2.49 2.49 0 0 0-.93-.1zM320.2 133.34a1.57 1.57 0 0 1-.75.4 1.57 1.57 0 0 0 .75-.4zM319 158.45a6.8 6.8 0 0 1-.52-3.15c-.1-1.24-.84-2-2-1.6a7.48 7.48 0 0 1-2.89.1c-1.25 0-2.56 0-3.82.14-2.87.32.3 3-1.4 3.93a.65.65 0 0 0 0 1.07 2.09 2.09 0 0 0 .95.17h1.76c.85-1.13-.67-2.59.6-3.75 1.61 1.05.05 2.57.57 3.72 1.2.15 2.47.46 2.85-1.25a1.12 1.12 0 0 1-.25-1.19c0-.17-.05-.34-.06-.51 0-.48.05-.87.93-.68.47.28.42.7.3 1.14-.21 2.82-.19 2.89 2.68 1.89a1.29 1.29 0 0 1 .3-.03zM322.62 158.34a12.54 12.54 0 0 1-.12-3.12 2.9 2.9 0 0 0-.11-.6 1.42 1.42 0 0 0-.1-.29 2.43 2.43 0 0 0-.33-.55 2 2 0 0 0-.24-.26l-1.45.26a2.16 2.16 0 0 0-.57.47.5.5 0 0 0-.1.19.76.76 0 0 0 0 .31 2 2 0 0 0 .2.57 2.34 2.34 0 0 1-.74 3.13c.58 0 .81.6 1.36.53.8-.11 2.47.19 2.2-.64z"/><path class="cls-6" d="M320.27 153.78a2.16 2.16 0 0 0-.57.47 2.16 2.16 0 0 1 .57-.47zM319 158.45zM273.23 158.39c-.72.26-1.44.45-2-.62 1.08-.65 3.53.45 3.1-2.14a8.35 8.35 0 0 0-1.91-1 3 3 0 0 0-1.18-.17 1.9 1.9 0 0 0-.67.18 4.27 4.27 0 0 0-1.85 2.48c0 .47.32 1.35-.05 1.33-.77-.05-.34-.83-.33-1.33a6.51 6.51 0 0 0-.2-1.16c-.31-1-1-1.68-2.56-1.35-.9.18-1.26-.18-1.36-1.2-.14-1.52-1.38-.63-2.15-.68s-.95.67-.62 1.16c1.06 1.56.79 3.2.3 4.76-.34 1.05.12 1.16.85 1.24 1.46.17 2.5 0 1.83-2-.22-.62-.36-1.79.65-1.82s.75 1.11.75 1.8c0 1.91.93 2.6 2.53 1.64.6-.36.77-.73 1.48-.14 1.37 1.14 2.79.73 4.11-.26.05-.46.1-1.01-.72-.72z"/><path class="cls-6" d="M274.37 155.63a8.35 8.35 0 0 0-1.91-1 8.35 8.35 0 0 1 1.91 1zM326 164.67c-.54.21-.89.81-1.77.34-1.71-.91-3.33-.52-5 .86.79.33 1.72.31 1.66 1.66s-.53 2.14-2.26 2.59a10.48 10.48 0 0 0 6.43.33c-1.83-1.38-1.71-3-1.06-4.6.56 1.41.42 3.23 2.35 3.49 1.32.18 1.63.29.75 1.54-.68 1 .37 1.06 1 1 1.5-.3 3.21-4.19 2.6-5.77s-2.82-2.2-4.7-1.44zM302 155.63c.29 1.85-.3 4.83 3.21 3.28-.07-1-.09-2-.2-3s-.79-2.32-1.77-1.93c-1.53.62-2.95-.26-4.37.24-1.11 1.35.77 3.05-.64 4.47-1.88-.9-.28-3.33-1.77-4.39a.34.34 0 0 1-.38-.17 11.24 11.24 0 0 0-1.42 0 5.78 5.78 0 0 0-.93.13 3.74 3.74 0 0 0-.45.12 4.11 4.11 0 0 0-.88.41c.62 1.49-.22 2.68-.83 3.91a5.94 5.94 0 0 0 .77.5 3.08 3.08 0 0 0 .67.29 2.35 2.35 0 0 0 .54.07 2.76 2.76 0 0 0 .87-.12 12.1 12.1 0 0 1 4.16-.32c1.7.13 3.39.63 2.57-2.17-.15-.5-.33-1.29.85-1.32z"/><path class="cls-6" d="M293 159.44a3.08 3.08 0 0 1-.67-.29 3.08 3.08 0 0 0 .67.29zM313.44 104.39a9.22 9.22 0 0 1-2.84.87 3.22 3.22 0 0 1-.7 0 2.54 2.54 0 0 1-1.94-1.69c-.51-1.08-.82-2.35.3-3.15s2.19-.41 2.92.77l.61.79c.59.89 1.45-.41 2.11 0a3 3 0 0 1-.18-1.47 3.66 3.66 0 0 0-.05-.94 1.58 1.58 0 0 0-.51-.83 18.61 18.61 0 0 1-2-.32 5.5 5.5 0 0 0-6 1.52c-1.54 1.73-1.36 3.66-.52 5.63a13.54 13.54 0 0 0 1.91 1.59c2.8 1.6 6.38.37 7.07-2.36a.52.52 0 0 1-.17-.16.58.58 0 0 1-.01-.25z"/><path class="cls-6" d="M313.67 99.54a1.58 1.58 0 0 0-.51-.83 1.58 1.58 0 0 1 .51.83zM340.31 164.28c-2.31.87-4.43-.09-6.6-.14-2.59-.06-2.79.94-2.14 3.05 1.14-.52 2.58-1.54 3.42-.51.71.86-.78 2-1.13 3a4.54 4.54 0 0 1-.21.45c-.23.56-1 1.16.05 1.64s1.51 0 1.87-.95c.45-1.19.58-2.52 1.58-3.75a3.56 3.56 0 0 0 1.1 2.38c1.09 1.12 2.33 1.7 3.81.88a3.08 3.08 0 0 0 1.58-3.82c-.47-1.63-1.79-2.8-3.33-2.23zm.6 4.54c-1-.16-.78-1.13-1-1.8s.19-1.23.67-1.06c.79.27.75 1.2.85 1.95-.05.38.06 1.01-.52.91zM330.85 100.85c-.26 1.86.56 3.67-.07 5.66-.31 1 1.57.71 2.49.69.68 0 1.57 0 1.28-1.3s-.91-3.43.51-3.37c1.8.07.8 2.18.67 3.48-.15 1.57 1.1 1.18 1.88 1.16s2.24.2 1.9-1.13a36.79 36.79 0 0 1-.39-3.71c-.21-1.35-1.07-2.47-2.32-2-1.61.58-3-.06-4.51 0l-1 .41a.53.53 0 0 1-.44.11zM322.39 133.42a3.29 3.29 0 0 0 2 .29c.58-.4 1.62-.52 1.4-1.48s-1-.15-1.49-.24a1.73 1.73 0 0 1-1.35-1.31.89.89 0 0 1 .46-1.07c.65-.32.75.39 1.08.69 1.33 1.2 1.49-.51 2.17-.93 1.29 1.34 0 2.71.15 4h2.88c.36-1.22-.73-3.6.45-3.52 1.83.12.17 2.35.74 3.55 1-.11 2.12.37 3-.48-1-1.35-.16-3-.86-4.43a4.69 4.69 0 0 0-.67-.27 5.91 5.91 0 0 0-2-.2c-.46 0-.91.09-1.36.16l-1.34.23c-.95.14-1.7.67-2.63-.09a3.2 3.2 0 0 0-2.19-.3l-1 .5-1.15 1.88.12 2a14.26 14.26 0 0 0 1.59 1.02zM321.77 128.57l-1.15 1.88 1.15-1.88z"/><path class="cls-6" d="M320.74 132.48a14.26 14.26 0 0 0 1.65.94 14.26 14.26 0 0 1-1.65-.94zM333 128.54a4.69 4.69 0 0 0-.67-.27 4.69 4.69 0 0 1 .67.27zM291.46 158.61c-1-1.17-.09-2.68-.66-3.92a2.8 2.8 0 0 0-2.22-.54c-.62.66-1.24 1.09-1.91 0h-1.51c-.61.66-1.22 1-1.81 0-.43.15-.89.2-1.33.32a2.77 2.77 0 0 0-.63.22 2 2 0 0 0-.56.43v.5a6.09 6.09 0 0 1 .11 1.95 10.81 10.81 0 0 1-.45 2h6.89c.63-1.19-.59-2.63.53-3.87 1.58 1.07.1 2.69.76 3.85a2.47 2.47 0 0 0 .43.11 3.27 3.27 0 0 0 .42.06 2.34 2.34 0 0 0 .46 0 1.78 1.78 0 0 0 .5-.14 1.51 1.51 0 0 0 .28-.15 2.23 2.23 0 0 0 .7-.82z"/><path class="cls-6" d="M280.83 155.12a2 2 0 0 1 .56-.43 2 2 0 0 0-.56.43zM290.75 159.45a2.23 2.23 0 0 0 .71-.84 2.23 2.23 0 0 1-.71.84zM286.67 154.2h-1.51 1.51zM322.19 102.27a9.75 9.75 0 0 0-1.79-1.46 3.74 3.74 0 0 0-.56-.29 3.23 3.23 0 0 0-.89-.26 3.54 3.54 0 0 0-.92 0 4.12 4.12 0 0 0-1 .26 12.52 12.52 0 0 0-2.88 1.73c-.05.67-.09 1.35-.14 2v.5c2.09 3.28 4.57 3.61 7.71 1a5.83 5.83 0 0 0 .47-3.48zm-3.73 3.48c-1.16-.25-.8-1.48-1.14-2.22 0-.64 0-1.47.76-1.26 1.05.27 1 1.4 1.12 2.28.08.57.09 1.39-.74 1.2z"/><path class="cls-6" d="M322.19 102.27a9.35 9.35 0 0 0-1.79-1.46 9.75 9.75 0 0 1 1.79 1.46zM334.29 133c1.29.49 2.59 1.08 3.59-.51a.32.32 0 0 1-.22-.34c-.72-.9-.19-1.78.18-2.67.06.78.12 1.57.17 2.36l.38.63c2.59 1.59 3.6 1.45 4.78-.67-.54-.46-1.12 0-1.65-.08a1.36 1.36 0 0 1-1.18-1.13 1.3 1.3 0 0 1 .15-.94c.68-.59.95.11 1.35.5a.84.84 0 0 0 1.45-.2 1.05 1.05 0 0 0-.45-1.5 2.91 2.91 0 0 0-3.72.12c-1.34 1.23-1.72.17-2.3-.67l-1.48.13a.6.6 0 0 1-.41.37 3.22 3.22 0 0 1-.54.1c.5 1.5.91 2.99-.1 4.5z"/><path class="cls-6" d="M335.34 128a.6.6 0 0 1-.41.37.6.6 0 0 0 .41-.37zM286.56 106.77c.07-1.24-.56-1.1-1.4-.76-1.07.43-1.89.18-2.3-1.16l2.1-.09c.73 0 1.63.17 1.91-.74a2.05 2.05 0 0 0-.89-2.19c-2-1.65-3.8-1-5.53.45l-.92 2.33a5.48 5.48 0 0 0 1.27 2.31 3.8 3.8 0 0 0 .62.52 4.24 4.24 0 0 0 1.69.68 5.68 5.68 0 0 0 .85.09l1.91-.78z"/><path class="cls-6" d="M279.53 104.61a5.48 5.48 0 0 0 1.27 2.31 5.48 5.48 0 0 1-1.27-2.31zM326.23 100.84a3.41 3.41 0 0 0-1.26-.46 2.11 2.11 0 0 0-1.09.14 3.47 3.47 0 0 0-1.65 1.74c1.51 1 1.55 2.14.14 4.36a2.14 2.14 0 0 0 .68.47 3 3 0 0 0 1.26.23h1.29c.71 0 1.58.13 1.95-.65s-1-.77-.89-1.53a1.36 1.36 0 0 1-.22-1.33c-.11-.7-.09-1.11.85-.72 2.39 1 2.71-.31 2.32-2.26l-1.35-.62c-.77-.14-.95 1.26-2.03.63z"/><path class="cls-6" d="M322.37 106.62a2.31 2.31 0 0 0 .68.47 2.14 2.14 0 0 1-.68-.47zM314.84 168.56c-.6.39-.81 1.65-1.81 1.08-.82-.47-.25-1.53-.4-2.32a5.59 5.59 0 0 1 .49-2.52c-2.78-.14-2.78-.14-4.88 1 1.87 1.72 2 3 .3 4.66a6.38 6.38 0 0 0 4.44.28c2-.86 2.92-.52 2.72 1.95a3.1 3.1 0 0 0 1.41-2.9c-.18-1.34-1.11-2.01-2.27-1.23zM273.87 167.83c-.07-.9.46-2.11-1.31-2s-1.32 1-1.07 2.11c.15.66.38 1.82-.55 1.9-1.13.09-.55-1.09-.7-1.72s.43-1.9-.63-2.18l-.34-.08a2.52 2.52 0 0 0-.37-.05 1.74 1.74 0 0 0-1.89 1c1.14.47.74 1.5.81 2.35s.16 2.2 1.28 2.07c1.59-.18 3.19.55 4.71-.17.17-.07.14-.62.14-.95-.02-.78-.03-1.53-.08-2.28zM267 166.78h-.05.05zM306.21 168.6c.3-1 1.87-1.66 1-3s-4.37-1.16-5.23.24c-.43.71-.33 1.17.47 1.18.57 0 1.3-.87 1.66.11.29.77-.51 1.32-.93 1.93s-1.23.84-1.26 1.94a20.84 20.84 0 0 1 4 .06c1.09.23 1.81.23 2.09-.94.28-1.55-1.11-1.12-1.8-1.52zM265.9 166.36l-.15-.06-.39-.15a4.28 4.28 0 0 0-1.25-.29 3.09 3.09 0 0 0-.43 0 2.9 2.9 0 0 0-1.19.4c-.45.27-1 .59-.75 1.12s.81.27 1.21-.06 1-.84 1.33.08c.21.64-.35.82-.9.85a2.55 2.55 0 0 0-.73.14c-.81.3-1.6.68-1.39 1.76s1 1.23 1.9 1.21c3.6-.08 3.61-.08 3.46-3.87 0-.35-.09-.63.33-.73l-.49-.18z"/><path class="cls-6" d="M262.48 166.26a2.9 2.9 0 0 1 1.19-.4 2.9 2.9 0 0 0-1.19.4zM266.94 166.76zM267 166.76zM267 166.78h-.05zM316.63 118.36c1 1.44 2.48.93 3.82.74.5-.07 1.08-.51.73-1-1-1.46-.5-3-.48-4.55 0-1.28-.62-1.31-1.5-1.31l-.5.06-2.08 1c1.04 1.7 1.55 3.38.01 5.06zM337.69 154.46h-.01.01zM337.68 154.46c-3.66-1.93-5.54-1.07-5.57 2.58l.36.76.12.24a3.57 3.57 0 0 0 2.49 1 3.9 3.9 0 0 0 2.24-1.66l-3.13-.41a1.43 1.43 0 0 1 .23-.2c1.24-.91 3.32-.11 3.26-2.31zM337.68 154.46h.05zM337.69 154.44zM337.69 154.44z"/><path class="cls-6" d="M332.59 158a3.57 3.57 0 0 0 2.49 1 3.57 3.57 0 0 1-2.49-1zM298.85 166.08c-.46-.65-1.51-.29-1.86-1.33-.43-1.28-1.26-.21-1.92 0s-1.67 1.12-1.2 1.5c1.19 1 .63 2.1.8 3.15A1.85 1.85 0 0 0 296 171a2.5 2.5 0 0 0 2.33-.55c.33-.26.47-.5 0-.93-1.77-1.59-1.67-2.1.52-3.44zM305.48 128.69c-1.51-.34-3-.67-4.38.73a2.45 2.45 0 0 1 .77 1 2.3 2.3 0 0 1 .16.77 2.56 2.56 0 0 1-.14.81 2.9 2.9 0 0 1-.16.41c-.36.75-.4 1.18.35 1.56 1-.16 2.13.13 3.1-.46l.06-.51a.29.29 0 0 1-.2-.33c-1-.32-.9-1.15-.77-1.85s.57-.39.91-.07l.82.2.6-.38c.13-.52.25-1 .38-1.55a6.5 6.5 0 0 1-.75-.12zM301.09 129.43l-.07-.06z"/><path class="cls-6" d="M305.48 128.69c-1.51-.34-3-.67-4.38.73 1.37-1.42 2.9-1.07 4.38-.73zM301.1 129.42a2.45 2.45 0 0 1 .77 1 2.45 2.45 0 0 0-.77-1zM301.1 129.42zM337.73 154.48l-.01-.01.01.01zM337.73 154.48a2.54 2.54 0 0 1 .28.29 2.28 2.28 0 0 1 .49 1.72 4.76 4.76 0 0 1-.11.62c0 .13-.07.27-.11.41-.13.4-.42.89.09 1 1.1.18 2.3.48 3.3-.2.45-.31-.24-.65-.38-1a1.68 1.68 0 0 1-.27-1.84c0-.05.12-.12.16-.11s.14.08.21.12c.82.17 1.71.5 2.09-.64.21-.62-.2-1.53-.63-1.39a2.8 2.8 0 0 1-.64.13h-.64c-1.37-.1-2.82-.59-3.84.89zM337.72 154.48z"/><path class="cls-6" d="M338 154.77a2.28 2.28 0 0 1 .49 1.72 2.28 2.28 0 0 0-.49-1.72zM337.69 154.44zM337.72 154.48h.01l-.01-.01v.01zM337.69 154.44l-.01-.01.01.01zM331.91 158.14c-.17-.34-.34-.67-.5-1a20.32 20.32 0 0 1-.21-4.74c0-.55-.13-1.12-.74-1.06a6.49 6.49 0 0 0-2.13.65c-.68.33-.21.69 0 1.15.91 1.76.49 3.58-.13 5.55 1-.2 2 .17 2.83-.06a1.9 1.9 0 0 0 .85-.48z"/><path class="cls-6" d="M331.91 158.14a2.26 2.26 0 0 1-.42.31 2.26 2.26 0 0 0 .42-.31zM326.2 151.42a3.58 3.58 0 0 0-2.36.64c-.66.47 0 .76.15 1.17a6.74 6.74 0 0 1-.24 5.31h3.73c-1.13-2-.64-4-.74-5.94-.02-.47.17-1.13-.54-1.18zM280 154.79a3 3 0 0 0-.43-.29 1.36 1.36 0 0 0-.48-.16 1.43 1.43 0 0 0-.57 0c-.41.47-.83.94-1.21 0l-.84-.09-1.07.3-1 1.06c1.87 1.13.19 2.69.43 4h3.75c-.85-1.7-2.44-3.36.81-3.1.32 0 .7-.6 1.05-.93l-.06-.5zM280.42 155.12l-.42-.33.42.33zM274.87 159.65zM264.94 133.44c.38-1.32-.16-2.91-.32-4.38 0-.07-.3-.14-.45-.13-1.14 0-2.41-.29-3.18.91s.21 1.83.83 2.57c.42 0 .87 0 1 .57 0 .12-.1.36-.2.38a.63.63 0 0 1-.79-.4H260.96a.93.93 0 0 0 .72 1.31c1.21.31 2.86.54 3.26-.83zM261.81 133z"/><path class="cls-4" d="M305.5 149.33c-.56.18-.59 1.2-.14 1.79a.79.79 0 0 0 1.29-.16c1.13-1.78 2.27-1 3.63-.07-.17-2.47-2.86-3.78-2.34-6.42a1.19 1.19 0 0 0-1.46-1.31c-1.39.41-.45 1.48-.19 2 .76 1.67 2.2 3.21-.79 4.17zM261.1 118.9a9.53 9.53 0 0 0-3.38-3.09c-.67.69-1.84.19-2.22 1.06s.48 1.48 1.16 1.91a4.93 4.93 0 0 1 1.34 1.42c.64.89 1.28.35 1.9-.07s1.66-.46 1.2-1.23zM322.76 128.07c.65-.84 2.78-1.21 1.42-2.73-1-1.14-1.57-3.65-4.52-2.55 2 1.33 2.86 2.8 1.78 4.86-.08.15.08.42.22.67 0 .09.08.17.11.25z"/><path class="cls-4" d="M321.66 128.32c0 .09.08.17.11.25-.03-.08-.07-.16-.11-.25zM344.81 147.8c.22.76.5 2 1.8 1.52 1-.38.68-1.31.59-2.17-.19-1.86-1.46-2.83-3.23-4.16a47 47 0 0 0 .84 4.81zM314 115.25c0 1.71.6 2.24 2.06 2.39a2.78 2.78 0 0 1 .07.69h.54c1.54-1.68 1-3.36 0-5h-.4c-.7.72-2.27.04-2.27 1.92zM326.62 129.37c-.68.42-.84 2.13-2.17.93-.33-.3-.43-1-1.08-.69a.89.89 0 0 0-.46 1.07 1.73 1.73 0 0 0 1.35 1.31c.51.09 1.3-.59 1.49.24s-.82 1.08-1.4 1.48c.89.56 1.77 1 2.42-.29-.15-1.34 1.14-2.71-.15-4.05z"/><path class="cls-6" d="M319.16 111.71c.16-.27.59-.42.93-.61s.51-.35.42-.67a1 1 0 0 0-.2-.37 1.74 1.74 0 0 0-.19-.22c-.71-.75-1.72-.26-2.57 0-.48.17-.94.57-.75 1.12.31.85 1.18.74 1.9.86a.46.46 0 0 1 .46-.11z"/><path class="cls-6" d="M319.16 111.71c.16-.27.59-.42.93-.61-.34.19-.77.34-.93.61z"/><path class="cls-4" d="M274.87 159.65c-.24-1.33 1.44-2.89-.43-4 .43 2.59-2 1.49-3.1 2.14.52 1.07 1.24.88 2 .62s.77.26.76.77l.88.49zM274.87 159.65l-.88-.49.88.49zM274.41 155.65zM274.41 155.65zM274.41 155.65l-.05-.07zM274.41 155.65z"/><path class="cls-4" d="M274.44 155.63h-.08l.05.07zM328.4 126.12c.9.17.79-.59.86-1.09 0-.85-.11-1.6-1.16-1.55a1.13 1.13 0 0 0-1.22 1.25c.06.9.78 1.27 1.52 1.39zM259.08 105.77c.94.9 2 1.49 3.41.14l-4.23-2-1 .8c.91-.13 1.28.54 1.82 1.06zM312 146.2c.33.31.8.06 1.11-.23.92-.85.42-1.66-.15-2.41-.29-.38-.18-1-1.08-1.3a12.87 12.87 0 0 1 .11 1.85c-.05.71-.67 1.45.01 2.09zM340.26 137.85a4.13 4.13 0 0 0 4.23 1 1 1 0 0 0 .57-.7.45.45 0 0 0-.65-.47c-1.2.62-2.41-.38-4.15.17zM296.41 154.27c1.49 1.06-.11 3.49 1.77 4.39 1.41-1.42-.47-3.12.64-4.47l-2.41.06zM298.82 154.19l-2.41.06zM334.07 133h.22c1-1.48.6-3 .1-4.5l-1.4.07c.7 1.39-.11 3.08.86 4.43zM313 84.51c.71-.11 1.57-.3 1.44-1.3-.08-.65-.72-.82-1.31-.92a1.45 1.45 0 0 0-1.29 1.29c-.01.72.57 1.03 1.16.93zM300.31 150.05c.62 0 1.16-.15 1.14-1-.24-.6-.54-1.24-1.36-1.13a1.36 1.36 0 0 0-1.24 1.34c-.04 1.09.87.74 1.46.79zM347.81 111.27c.53 0 1-.2.9-1a1.8 1.8 0 0 0-1.8-.78.93.93 0 0 0-.86 1c.16 1.09 1.07.78 1.76.78zM311.69 155.38c-1.27 1.16.25 2.62-.6 3.75h1.17c-.52-1.13 1.04-2.7-.57-3.75zM291.46 158.61l.07.05c.61-1.23 1.45-2.42.83-3.91l-1.56-.05c.57 1.23-.34 2.74.66 3.91zM291.46 158.6v.01-.01zM291.46 158.6h.07zM291.51 158.69h-.07zM291.46 158.6zM291.46 158.61l.05.08-.05-.08zM284.21 168.87c0 .41.19.85.7.86s.53-.48.66-.87c.34-1.1-.67-2-.4-3.09l-1.14-.1c.06 1.06.1 2.13.18 3.2zM312.6 149.56a.6.6 0 0 0-.11.89c.69.84 1.5.73 2.85.13-1.19-.58-1.6-1.79-2.74-1.02zM287.9 155.73c-1.12 1.24.1 2.68-.53 3.87h1.29c-.66-1.18.82-2.8-.76-3.87z"/><path class="cls-6" d="M336.77 127.29a3 3 0 0 0 .42-.73c.06-.24 0-.45-.52-.58a1.77 1.77 0 0 0-2.22.65c-.19.37 0 .57.31.72s.38.15.55.21z"/><path class="cls-6" d="M336.77 127.29a3 3 0 0 0 .42-.73 3 3 0 0 1-.42.73zM321.68 153a2.19 2.19 0 0 0 .44-.57c.27-.51 0-.86-.93-1l-.23.09-.23-.06c-.81.4-2.05.66-.52 1.75l1.47-.2z"/><path class="cls-6" d="M321.68 153a2.19 2.19 0 0 0 .44-.57 2.19 2.19 0 0 1-.44.57z"/><path class="cls-4" d="M322.23 102.26a5.83 5.83 0 0 1-.39 3.52l.57.83c1.37-2.21 1.33-3.34-.18-4.35zM322.21 102.29zM321.8 105.79l.57.84zM322.21 102.29zM322.21 102.29v-.07zM322.21 102.29zM322.23 102.26v.07zM333.4 110c-1.26.06-1.06 1.23-1 2.14l1.89-.24c-.14-.71.39-1.9-.89-1.9zM330.1 129.9c-1.18-.08-.09 2.3-.45 3.52h1.19c-.57-1.17 1.09-3.42-.74-3.52zM310.85 111.51a3.89 3.89 0 0 0-.74-1.8 1.16 1.16 0 0 0-.22-.13 1.07 1.07 0 0 0-.32-.07 2.62 2.62 0 0 0-1.25.32 6.33 6.33 0 0 0 2.52 1.77h.06z"/><path class="cls-4" d="M310.85 111.51a3.89 3.89 0 0 0-.74-1.8 3.89 3.89 0 0 1 .74 1.8zM316.11 141.56a.86.86 0 0 0-.84-1c-.45 0-.87.11-.84.6s.29 1.14 1 1.17c.45.06.66-.33.68-.77zM299.34 86.52a1.4 1.4 0 0 0 .37 0 .9.9 0 0 0 .64-.79 1.15 1.15 0 0 0 0-.33.72.72 0 0 0-.65-.5.87.87 0 0 0-1 .85.64.64 0 0 0 .64.77z"/><path class="cls-4" d="M299.71 86.48a.9.9 0 0 0 .64-.79.88.88 0 0 0 0-.33 1.15 1.15 0 0 1 0 .33.9.9 0 0 1-.64.79zM280.72 130.44c-.7 0-.66.6-.63 1.08.05.8.16 1.61.24 2.41h.81c.08-.8.19-1.61.22-2.41.01-.52.1-1.1-.64-1.08zM335.22 143.56l-.64-2.72c-.96 1.06-.68 1.81.64 2.72zM276.78 130.63c-.89 1 .05 2.19 0 3.3h.62l.18-1.21c.28-1.72-.22-2.72-.8-2.09zM271.62 145.29a.53.53 0 0 0-.45.17.32.32 0 0 0-.06.17.74.74 0 0 0 0 .25c.14.49.38 1 .95 1a.47.47 0 0 0 .55-.61 1.6 1.6 0 0 0-.99-.98z"/><path class="cls-4" d="M271.17 145.46a.53.53 0 0 1 .45-.17 1.6 1.6 0 0 1 1 1 1.6 1.6 0 0 0-1-1 .53.53 0 0 0-.45.17zM266.27 148.32a1 1 0 0 0 .31.11.7.7 0 0 0 .59-.37.61.61 0 0 0 0-.24c0-.51-.2-1-.82-1-.42 0-.48.39-.48.72a1.48 1.48 0 0 0 0 .31.66.66 0 0 0 .4.47z"/><path class="cls-4" d="M266.58 148.43a1 1 0 0 1-.31-.11 1 1 0 0 0 .31.11.7.7 0 0 0 .59-.37.7.7 0 0 1-.59.37zM316.67 109.09c.1 0 .13-.28.2-.44a2.08 2.08 0 0 0-2-.47c.35 1.12 1 1.23 1.8.91zM331.36 112.55c-.85-1.72-2-.76-3.06-.47 1.03.01 1.96.99 3.06.47zM327.79 112.15a2.4 2.4 0 0 0 .51-.07 1.29 1.29 0 0 0-.51.07zM278.22 141.27c0-.64-.24-.94-.69-1s-.52.31-.55.65.1.86.62.8c.24 0 .46-.33.62-.45zM318.74 139.15a.41.41 0 0 0 .23-.1.82.82 0 0 0 .17-.67c-.09-.43-.26-.8-.78-.72a.49.49 0 0 0-.4.72c.14.37.25.85.78.77zM271.57 138.23c-.39.11-.82.25-.88.72 0 .09.34.34.48.32a1 1 0 0 0 .9-.66c-.02-.37-.26-.45-.5-.38zM330.82 87.07c.32.17.58.4.65.35a3.3 3.3 0 0 0 .57-.66c-.16-.13-.39-.39-.46-.35a4.46 4.46 0 0 0-.76.66zM327.87 116.59v.14a2 2 0 0 0 2.41 1.63l-.42-1a2.58 2.58 0 0 1-1.99-.77zM306.34 114c.19 1 1.13 1 1.79 1.27 0-.23.05-.46.08-.69-.58-.3-.96-1.24-1.87-.58zM339.26 145.36c-.11 0-.29.24-.27.33a2.17 2.17 0 0 0 .3.56l.42-.34c0-.42-.15-.6-.45-.55zM280.45 102.28v-.1a1.09 1.09 0 0 0-.9.2 1.18 1.18 0 0 0-.3.36 2.27 2.27 0 0 0-.2.5c.17.44.35.89.53 1.33zM279 103.28c.18.44.35.89.53 1.33-.18-.44-.36-.89-.53-1.33zM279.2 102.78a2.27 2.27 0 0 0-.2.5 2.27 2.27 0 0 1 .2-.5z"/><path class="cls-4" d="M280.47 102.23h-.07v.1zM280.45 102.28l-.06.09s.05-.07.06-.09zM315.83 144.69a2.11 2.11 0 0 0 .3.55l.44-.35c0-.39-.17-.59-.47-.53-.1.02-.29.24-.27.33zM304.27 130.78c-.13.7-.2 1.53.77 1.85 0-.64.09-1.28.14-1.92-.34-.32-.8-.52-.91.07zM321.31 145.87c.18.06.42-.07.59-.11.09-.41-.11-.56-.37-.58a.69.69 0 0 0-.42.16c.02.19.08.5.2.53zM277.62 90.26l.2-.38c0-.31-.18-.51-.48-.45-.1 0-.25.32-.21.38a2.65 2.65 0 0 0 .49.45zM338.05 111.2c-.26.17-.61.4-.41.69.39.54.81 0 1.22-.08-.06-.48-.44-.54-.81-.61zM341 155.47a1.68 1.68 0 0 0 .27 1.84c0-.61.07-1.22.1-1.83-.07 0-.13-.11-.21-.12s-.16.06-.16.11zM280.16 152.2a1.72 1.72 0 0 0-.22-.33l-.27.28c.12.07.23.15.35.21s.15-.13.14-.16zM279.67 152.15l.27-.28zM262.6 133.36c.1 0 .22-.26.2-.38-.11-.53-.56-.53-1-.57v.59a.63.63 0 0 0 .8.36zM303.85 81.56a1.55 1.55 0 0 0-.35-.21s-.15.13-.13.16a2.3 2.3 0 0 0 .21.33zM303.85 81.56l-.27.28zM268.11 138.37a2.42 2.42 0 0 0 .18.36l.3-.25a1.91 1.91 0 0 0-.32-.24s-.17.11-.16.13zM268.59 138.48l-.3.25zM346.63 139.65a3.17 3.17 0 0 0-.15-.37h-.21a2.58 2.58 0 0 0 0 .39zM346.63 139.65h-.4zM342.59 147.16a1.72 1.72 0 0 0-.22-.33l-.27.29a3.12 3.12 0 0 0 .35.2s.15-.13.14-.16zM342.1 147.12l.27-.29zM263 116.91l-.26-.3a3.19 3.19 0 0 0-.23.32s.11.18.13.17a2.47 2.47 0 0 0 .36-.19zM262.78 116.61l.26.3zM323.28 155.54a1.56 1.56 0 0 0 .28.5l.14-.46-.21-.41c-.08.12-.24.26-.21.37zM323.71 155.58l-.14.46zM302.87 151.53a1.79 1.79 0 0 0 .25.31l.24-.32a2.21 2.21 0 0 0-.37-.15s-.14.14-.12.16zM303.36 151.52l-.24.32zM348.49 127.18s.15-.13.14-.16a2.1 2.1 0 0 0-.22-.33l-.27.29a3.12 3.12 0 0 0 .35.2zM348.41 126.69l-.27.29zM349.67 106.73a3.12 3.12 0 0 0-.35-.2s-.15.12-.14.15a1.79 1.79 0 0 0 .22.34zM349.67 106.73l-.27.29zM320.66 132.46h.07l-.12-2h-.46c-.06.72-.56 1.54.51 2zM320.67 132.43zM320.67 132.43h.07zM320.67 132.43zM320.67 132.43h.08zM320.67 132.43h-.07zM267.23 108.6a2.45 2.45 0 0 0 0 .39h.39a1.51 1.51 0 0 0-.15-.37s-.23-.05-.24-.02zM267.58 108.94h-.39zM345.61 124.3s-.14-.13-.17-.12a3.61 3.61 0 0 0-.3.25l.32.24a2.39 2.39 0 0 0 .15-.37zM345.46 124.67l-.32-.24.32.24zM275.56 154.11a1.65 1.65 0 0 0-.16.46l1.07-.3c-.47-.6-.73-.54-.91-.16zM322.09 121.63a2.47 2.47 0 0 0 .36-.19l-.26-.3a3.19 3.19 0 0 0-.23.32s.11.18.13.17zM322.45 121.44l-.26-.3.26.3zM328.76 109.59l-.25.27a2 2 0 0 0 .35.2s.15-.12.13-.15a2.39 2.39 0 0 0-.21-.34zM328.51 109.86l.25-.27zM278.52 154.39c-.39-.66-.79-.68-1.21 0 .38.94.8.47 1.21 0zM277.94 134.14a1 1 0 0 0 1.09.24 1.4 1.4 0 0 0 .36-.22z"/><path class="cls-4" d="M279 134.38a1.4 1.4 0 0 0 .36-.22 1.4 1.4 0 0 1-.36.22zM312.67 119.49a.94.94 0 0 0 1.12.24 1.64 1.64 0 0 0 .37-.27zM341.34 119h-1.48a1 1 0 0 0 1.48 0zM268.71 158.46c.37 0 .06-.86.05-1.33h-.38c-.01.5-.44 1.28.33 1.33zM321.72 153.52v-.53l-1.47.2.06.59zM321.68 153v.53zM320.21 153.19l.06.59zM285.16 154.18h-1.81c.59 1.03 1.2.66 1.81 0zM306.62 112.24h1.48a1 1 0 0 0-1.48 0zM332.59 158l-.12-.24-.36-.76-.7.09c.16.34.33.67.5 1zM336.82 127.87c0-.19 0-.39-.05-.58l-1.46.27v.41z"/><path class="cls-4" d="M336.82 127.87l-.05-.58c.02.19.03.39.05.58zM335.31 127.59v.41c.01-.14.01-.27 0-.41zM288.58 154.15h-1.91c.67 1.09 1.33.66 1.91 0zM288.58 154.15h-1.91zM326.66 105.12c-.07-.44-.15-.89-.22-1.33a1.36 1.36 0 0 0 .22 1.33zM342.86 117.25l-.34-.88c-.08.37-.07.71.34.88zM342.86 117.25l-.34-.88zM315.11 157.85l-.25-1.19a1.12 1.12 0 0 0 .25 1.19zM315.11 157.85l-.25-1.19zM333.95 135.03l.19.01-.08-.2-.11.19zM305.67 133.14l-.43-.18-.06.51zM305.67 133.14l-.49.33zM315.73 155.47l.3 1.14c.12-.44.17-.86-.3-1.14zM324.72 112.13h-.46l.23.08zM321.19 151.41h-.46l.23.06zM313.44 104.38a.58.58 0 0 0 .08.22.52.52 0 0 0 .17.16h.4v-.5z"/><path class="cls-4" d="M313.44 104.39a.58.58 0 0 0 .08.22.58.58 0 0 1-.08-.22zM319.16 111.71a.46.46 0 0 0-.46.13v.44l.5-.06zM341.84 109.13h-.46l.22.06zM296.4 154.25c0-.25-.12-.36-.37-.15a.34.34 0 0 0 .38.17zM296.4 154.25l.02.02-.02-.02zM296.42 154.27zM296.4 154.25zM296.4 154.25zM310.12 133.47c-.14.24-.27.48-.41.71a.61.61 0 0 0 .41-.71zM280.83 155.12h-.41l.06.5h.34zM280.83 155.12zM280.83 155.12v0zM337.66 132.12a.32.32 0 0 0 .22.34h.51l-.38-.63z"/><path class="cls-5" d="M288.09 110.36l2.44-.23a1.24 1.24 0 0 1 .32-.17 1.3 1.3 0 0 1 .33-.07 1.88 1.88 0 0 1 .7.07 3.74 3.74 0 0 0 2.65.11c1.64-.43 2.52.11 2.79 1.75l1.32.54a5.33 5.33 0 0 1 2.54.43 6.43 6.43 0 0 1 .77.42c.2-1.83-.17-3.81 1.67-5.14a.94.94 0 0 0 .06-1.52c-.46-.37-.95-.09-1.29.3-.49.56-.94 1-1.48.07-2.54 1.25-3.49 1.26-4.62-.35-.16-.23-.33-.49-.5-.79h-1.61a2.09 2.09 0 0 1-.05.52 1.3 1.3 0 0 1-.15.42c-.39.73-1.32.9-2.09 1.22 0 .52 0 1.14-.63 1.15s-.68-.6-.7-1.12a4.15 4.15 0 0 1-2.73-1.8l-.29-.39-1 1-.69.66a3.82 3.82 0 0 0 2.24 2.92z"/><path class="cls-6" d="M294.53 110.07a3.74 3.74 0 0 1-2.65-.11 1.39 1.39 0 0 1-1.35.17l-2.44.23c.94 3 2.1 6-.23 9a4.87 4.87 0 0 0 3.39.51c1.24-.09 3.69.43 1.35-2.12a1.79 1.79 0 0 1 .06-1.91c.22-.36.52-.17.85-.07.57.17.42 1.63 1.35.89.75-.59.24-1.59.24-2.39s.09-2.36-1.35-.74c-.31.35-.68.54-1.09.29s-.35-.71-.3-1.13.23-1 .85-1.05a3.24 3.24 0 0 1 2.57.73c.85.8 1.29.46 1.54-.51-.27-1.68-1.15-2.22-2.79-1.79zM295 130.24c-.2-1-.58-2-1.69-1.74a22.22 22.22 0 0 1-6.81.11c-.48 0-1 .44-1.53.69.75 1.52-.37 3.26.54 4.77l2.28-.18c.49-1.17-.87-2.56.45-3.74 1.5 1.14 0 2.58.42 3.77a.33.33 0 0 1 .37.09c1.41 0 3.09.24 2.32-2.19-.18-.55-.34-1.65.48-1.65 1.08 0 .55 1.14.69 1.79s-.81 1.57.41 1.87a6.85 6.85 0 0 0 .74.14 3.21 3.21 0 0 0 .54 0 1.5 1.5 0 0 0 1.27-1c-1.01-.78-.35-1.84-.48-2.73z"/><path class="cls-6" d="M295.44 132.92l.06.05s-.05 0-.05-.05z"/><path class="cls-5" d="M268.78 131c.15.7-.48 2 .81 1.87.85-.11.85-1.5.48-2.16-1-1.75.35-1.66 1.32-1.92h.45l.54.2a1.39 1.39 0 0 1 .16 2V132l.33 1c.25 1 .6.82 1 .09.7-1.28-.19-2.56 0-3.84-.93-2.66 3-2.69 2.81-5.33-1.13.47-2.6.34-2.91 1.36-.49 1.61-1.64 1.3-2.67 1.49-1.35.24-3 0-3.22 2 1.35.28.73 1.39.9 2.23z"/><path class="cls-6" d="M301 129.4c-2.63-1.4-4.24-1.21-5.23.5-.59 1 .11 2.07-.3 3 3.18 1.53 3.9 1.45 5.17-.67-.95-.15-2.28.95-2.8-.75a5.13 5.13 0 0 1 1.14-.11c1.22.05 2.4.09 2.02-1.97z"/><path class="cls-6" d="M299 131.42c1.19 0 2.37 0 2-2 .38 2.04-.8 2-2 2zM295.45 132.92l.05.05h-.06zM301 129.4h.06l-.06-.07zM295.5 133l-.05-.05.05.05z"/><path class="cls-5" d="M288.62 133.92h-.87l-2.28.18a2.86 2.86 0 0 0 .35 1.91c.48.59.71 1.69 1.81 1.32.89-.31.88-1.08.61-1.86s.44-1 .75-1.43a.33.33 0 0 0-.37-.12zM278.42 128.49c0-.74-.06-1.51-1.09-1.49s-1.35.68-1.43 1.57c.88 1.43 1.69.35 2.52-.08z"/><path class="cls-6" d="M290.56 108h1.33c.77-.32 1.7-.49 2.09-1.22a1.3 1.3 0 0 0 .15-.42 2.09 2.09 0 0 0 .05-.52 1.23 1.23 0 0 0-.46-.07 4.55 4.55 0 0 0-1 .17l-.52.09c-.68.07-1.34-.12-1.86-1.35h3.79a1.75 1.75 0 0 0 .35-1.47v-.33a1.78 1.78 0 0 1 .06-.57l-.59-.41a5.5 5.5 0 0 0-2.62-1.08 2.8 2.8 0 0 0-.5 0 3.8 3.8 0 0 0-3.34 4.32c0 .23 0 .45.07.69l.29.39a4.15 4.15 0 0 0 2.71 1.78zM294.52 102.25l-.59-.41.59.41z"/><path class="cls-6" d="M294.13 106.3a2.09 2.09 0 0 0 .05-.52 2.09 2.09 0 0 1-.05.52zM287.83 106.17l-.29-.39z"/><path class="cls-1" d="M295.54 102.38c.68 1.09.27 2.26.25 3.4.17.3.34.56.5.79 1.13 1.61 2.08 1.6 4.62.35.15-.38.4-.86-.06-1.1-2.49-1.32-2.54-2.15-.21-3.72.23-.16.33-.52.5-.78-1.38-.23-1.85-2.4-3.07-2l-.55.16a7.56 7.56 0 0 0-1.12.42 4.45 4.45 0 0 0-.64.37 2.91 2.91 0 0 0-1.19 2 .88.88 0 0 1 .97.11zM295.79 105.78z"/><path class="cls-5" d="M271.32 101.75l.32-.4c-.76-.08-1.35-2.2-2.28-.19l1.43.62zM271.87 101.26l.5-.09c-.21-.17-.37-.17-.5.09z"/><path class="cls-4" d="M262.53 100.37a.79.79 0 0 0-1.17.56c-.11.48.32.7.72.84l3.06 1.06.77-.1c-.63-1.48-2.23-1.62-3.38-2.36zM270.68 102.76c.06.52.37 1.18.85 1 .81-.25.43-.87.09-1.37a3.79 3.79 0 0 1-.3-.68h-.53a4.75 4.75 0 0 0-.11 1.05z"/><path class="cls-5" d="M265.91 102.73l-.77.1c.23.29.42.79.77.81a.5.5 0 0 1 .36-.35 1.06 1.06 0 0 1 .23-.05c.04-.24-.32-.4-.59-.51z"/><path class="cls-5" d="M265.91 103.64a.61.61 0 0 0 .41-.16.42.42 0 0 0 .18-.24 1.06 1.06 0 0 0-.23.05.5.5 0 0 0-.36.35zM330.85 100.84a.53.53 0 0 0 .43-.16c-.28-.19-.36-.09-.43.16zM330.85 100.84l-.01.01.01-.01zM330.84 100.85h.01v-.01l-.01.01z"/><path class="cls-4" d="M306.05 117.84c.25-.51-.36-.59-.73-.72l-.47.62c.39.26.87.78 1.2.1z"/><path class="cls-4" d="M304.85 117.74l.47-.62c-.16.21-.32.41-.47.62z"/><path class="cls-5" d="M329.82 117.36a2.86 2.86 0 0 1 1.95-2.15c-.42-.43-1.23-.31-1.45-1 .11-.79-.12-1.25-.86-.59a4.06 4.06 0 0 0-1 1.39c-.12.26-.22.53-.32.8l-.3.81a2.58 2.58 0 0 0 1.98.74z"/><path class="cls-4" d="M331.77 115.21c.33 0 .66-.1 1-.13.58 0 1.24 0 1.21-.87a1 1 0 0 0-.23-.68c-.67-.57-1 0-1.42.44a1.38 1.38 0 0 1-2 .21c.21.72 1.02.6 1.44 1.03zM272.38 128.94c.05.66.1 1.32.16 2a1.39 1.39 0 0 0-.16-2zM272.87 133l-.33-1c-.1.39-.14.78.33 1zM271.62 128.79h.22-.45z"/><path class="cls-5" d="M311.79 102c-.16.28-.39.66-.69.46-.58-.38 0-.83.08-1.25-.73-1.18-1.82-1.56-2.92-.77s-.81 2.07-.3 3.15a2.54 2.54 0 0 0 1.94 1.69 3.22 3.22 0 0 0 .7 0 9 9 0 0 0 2.84-.88l.6-.11c0-.67.09-1.35.14-2h-.06a1.41 1.41 0 0 1-.22-.34c-.66-.4-1.52.9-2.11.05zM314.18 102.25z"/><path class="cls-5" d="M314.16 102.27a.75.75 0 0 0-.28-.3 1.41 1.41 0 0 0 .22.34z"/><path class="cls-5" d="M314 104.27c0-.67.09-1.35.14-2-.01.65-.05 1.33-.14 2zM314.16 102.27h.06z"/><path class="cls-4" d="M311.1 102.42c.3.2.53-.18.69-.46l-.61-.79c-.08.42-.66.83-.08 1.25zM340.61 166c-.48-.17-.82.53-.67 1.06s0 1.64 1 1.8c.58.1.47-.53.55-.91-.13-.79-.09-1.72-.88-1.95zM318.08 102.27c-.79-.21-.76.62-.76 1.26.34.74 0 2 1.14 2.22.83.19.82-.63.74-1.2-.12-.88-.07-2.01-1.12-2.28z"/><path class="cls-5" d="M337.84 129.45c-.37.89-.9 1.77-.18 2.67l.35-.31c-.01-.81-.11-1.58-.17-2.36z"/><path class="cls-4" d="M295.54 102.38c-.15 1 .45 2.37-1.41 2.24h-3.79c.52 1.23 1.18 1.42 1.86 1.35l.52-.09a4.55 4.55 0 0 1 1-.17 1.23 1.23 0 0 1 .46.07h1.61c.02-1.14.43-2.31-.25-3.4zM294.18 105.78z"/><path class="cls-4" d="M294.18 105.78a1.23 1.23 0 0 0-.46-.07 1.23 1.23 0 0 1 .46.07zM291.26 109.09c.67 0 .64-.63.63-1.15h-1.33c.02.55.04 1.17.7 1.15zM291.88 110a1.88 1.88 0 0 0-.7-.07 1.3 1.3 0 0 0-.33.07 1.24 1.24 0 0 0-.32.17 1.39 1.39 0 0 0 1.35-.17z"/><path class="cls-4" d="M290.85 110a1.24 1.24 0 0 0-.32.17 1.24 1.24 0 0 1 .32-.17zM288.2 130.15c-1.32 1.18 0 2.57-.45 3.74h.87c-.43-1.16 1.08-2.6-.42-3.74z"/><path class="cls-5" d="M294.13 104.62c1.86.13 1.26-1.29 1.41-2.24a.88.88 0 0 0-1-.19.24.24 0 0 1 0 .08 1.78 1.78 0 0 0-.06.57v.33a1.75 1.75 0 0 1-.35 1.45zM294.55 102.27zM294.55 102.27v.01-.01zM294.55 102.27v-.06z"/><path class="cls-5" d="M294.55 102.27a.24.24 0 0 0 0-.08.24.24 0 0 1 0 .08zM294.57 102.19v.06a.24.24 0 0 0 0-.06z"/><path class="cls-4" d="M12.11 194.46s6.4 13.23 36.58 6c1.82-4.42-.26-11.18-.26-11.18l-25.2-5.33-10.78 6zM82.21 193.56s35 27 53.25-2.41c2.1-17.46-.08-19.64-1.89-19.64s-36.13 2-36.13 2zM162.37 191.54s6.11 22.08 38.67 21.58 37.22-23.38 37.22-23.38l2.31-8.69-37.29-8.7-25.61.5L163 185.78zM262.23 185.44s8.43 25.48 45.68 27.66 38.44-32.75 38.44-32.75l.5-10.06 1-38.46L343 99.42 330.48 95l-49.66-.85-24.67 3.63zM439.24 189.61s-36 54.52-71.94-6.68c12.18-20.25 17.87-23.28 17.87-23.28L422 169.89l15.93 8.34zM464.61 187s11.31 27.61 25.63 16.05S503 182.49 503 182.49l-5.31-3.28-29.16-.69z"/><path class="cls-1" d="M501.27 63.47v-5.55 5.54zM498.23 64.13l1.56-.32c-1.07.23-2.15.43-3.22.64zM501.27 57.93L501 58z"/><path class="cls-7" d="M493.68 65.05zM493.68 65.05zM493.68 65.05c1-.23 1.92-.42 2.89-.6l-.62.12c-.76.15-1.52.3-2.27.48zM493.65 65.06zM499.79 63.81l1.48-.34z"/></svg>