<?xml version="1.0" encoding="utf-8"?>
<!-- Generator: Adobe Illustrator 23.0.2, SVG Export Plug-In . SVG Version: 6.00 Build 0)  -->
<svg version="1.1" id="Layer_1" xmlns="http://www.w3.org/2000/svg" xmlns:xlink="http://www.w3.org/1999/xlink" x="0px" y="0px"
	 viewBox="0 0 503 213.2" style="enable-background:new 0 0 503 213.2;" xml:space="preserve">
<style type="text/css">
	.st0{fill:#1C1C16;}
	.st1{fill:none;}
	.st2{fill:#DE4626;}
	.st3{fill:#F7F4EB;}
	.st4{fill:#F8F6EB;}
	.st5{fill:#31312A;}
	.st6{fill:#F8C014;}
</style>
<path class="st0" d="M503,40.3c-10.5-4.9-21.1-9.7-31.6-14.8c-17-8.2-33.8-16.7-51.1-24.2c-0.9-0.2-1.7-0.7-2.4-1.3
	c27.7,0,55.4,0,83.1-0.1c1.7,0,2.1,0.3,2.1,2.1C502.9,14.8,503,27.6,503,40.3z M50.3,0.1c-5.3,2.3-10.7,4.4-15.9,6.9
	c-11,5.4-21.8,11-32.7,16.5c-0.4,0.2-0.8,0.3-1.1,0.5L0.5,0.1H50.3z"/>
<path class="st1" d="M302,113.2l0.4,0.7L302,113.2c-0.2-0.2-0.5-0.3-0.8-0.4C301.5,112.9,301.8,113.1,302,113.2z M313.8,119.7
	c0.1-0.1,0.3-0.2,0.4-0.3l1.2-0.7l-1.2,0.7C314,119.6,313.9,119.7,313.8,119.7z M264.1,165.9c0.4,0,0.9,0.1,1.2,0.3
	C265,166,264.5,165.9,264.1,165.9z M266.5,166.6l0.5,0.2L266.5,166.6z M285.2,165.8l-1.1-0.1L285.2,165.8z M268.9,165.8
	c-0.8-0.1-1.6,0.3-1.9,1C267.3,166,268.1,165.6,268.9,165.8z M266.3,148.3c-0.2-0.1-0.3-0.2-0.3-0.4
	C266,148.1,266.1,148.2,266.3,148.3z M291.5,158.6c0.2,0.2,0.5,0.4,0.8,0.5C292,159,291.8,158.8,291.5,158.6z M268.4,157.1
	c0-0.4-0.1-0.8-0.2-1.2C268.3,156.3,268.3,156.7,268.4,157.1z M275.4,154.6l1.1-0.3L275.4,154.6z M268.3,138.2
	c0.1,0.1,0.2,0.1,0.3,0.2C268.5,138.4,268.4,138.3,268.3,138.2z M280.8,155.6c0.1,0.6,0.2,1.3,0.1,1.9
	C281,156.9,281,156.3,280.8,155.6z M314.2,111.4c-1-0.8-2.4-0.7-3.4,0.1h-0.1h0.1C311.8,110.7,313.2,110.6,314.2,111.4z
	 M275.4,154.6l-1,1.1L275.4,154.6z M293.2,154.3c-0.3,0.1-0.6,0.2-0.9,0.4l-1.6-0.1l1.6,0.1C292.6,154.6,292.9,154.4,293.2,154.3z
	 M320.5,133c0.1-0.2,0.1-0.3,0.2-0.5C320.6,132.7,320.6,132.8,320.5,133z M295.2,100.7c-0.4,0.4-0.6,0.9-0.6,1.5
	C294.6,101.7,294.9,101.1,295.2,100.7z M302,131.1c0-0.3-0.1-0.5-0.2-0.8C301.9,130.6,302,130.9,302,131.1z M262.8,116.6
	c-0.1,0.1-0.2,0.2-0.2,0.3C262.6,116.8,262.7,116.7,262.8,116.6z M294.2,134c0.6-0.1,1.1-0.4,1.3-1
	C295.2,133.6,294.8,133.9,294.2,134z M349.7,106.7c-0.1-0.1-0.2-0.1-0.4-0.2C349.4,106.6,349.6,106.7,349.7,106.7z M303.9,81.6
	c-0.1-0.1-0.2-0.2-0.4-0.2C303.6,81.4,303.7,81.5,303.9,81.6z M300.3,85.4c-0.1-0.3-0.4-0.5-0.6-0.5C300,84.9,300.2,85.1,300.3,85.4
	z M334.8,127.3c0.2,0.1,0.4,0.2,0.5,0.2C335.1,127.5,334.9,127.4,334.8,127.3z M328.2,115.8l-0.3,0.8v0.1v-0.1L328.2,115.8z
	 M294.5,103.2c0.1,0.5,0,1.1-0.4,1.5C294.5,104.2,294.6,103.7,294.5,103.2z M346.3,139.3c0,0.1,0,0.3,0,0.4
	C346.3,139.6,346.3,139.4,346.3,139.3z M324.3,107.3c-0.4,0-0.9-0.1-1.3-0.2C323.4,107.3,323.9,107.3,324.3,107.3z M341.6,153.6
	c-1.4-0.1-2.8-0.6-3.9,0.9C338.8,153,340.2,153.5,341.6,153.6z M313.4,104.4c-0.9,0.4-1.9,0.7-2.8,0.9
	C311.6,105.1,312.5,104.8,313.4,104.4z M332.5,157.8l-0.4-0.8c0-3.6,1.9-4.5,5.6-2.6c-3.7-1.9-5.5-1.1-5.6,2.6l-0.7,0.1l0.7-0.1
	L332.5,157.8z M342.5,147.3c-0.1-0.1-0.2-0.1-0.4-0.2C342.2,147.2,342.3,147.3,342.5,147.3z M348.1,127c0.1,0.1,0.2,0.1,0.4,0.2
	C348.4,127.1,348.3,127.1,348.1,127z M322.2,121.1c-0.1,0.1-0.2,0.2-0.2,0.3C322,121.3,322.1,121.2,322.2,121.1z M345.5,124.7
	c0.1-0.1,0.1-0.2,0.1-0.4C345.6,124.4,345.5,124.6,345.5,124.7z M328.8,109.6c0.1,0.1,0.1,0.2,0.2,0.3
	C328.9,109.8,328.8,109.7,328.8,109.6z M0.6,110.7c8.5-5.1,16.8-10.6,25.5-15.5C17.4,100,9.1,105.5,0.6,110.7z M328.5,109.9
	c0.1,0.1,0.2,0.1,0.4,0.2C328.7,110,328.6,109.9,328.5,109.9z M346.6,139.6c0-0.1-0.1-0.2-0.1-0.4
	C346.5,139.4,346.6,139.5,346.6,139.6z M323.9,100.5c-0.7,0.4-1.3,1-1.6,1.7C322.6,101.5,323.1,100.9,323.9,100.5z M322,153.8
	c-0.1-0.1-0.2-0.2-0.2-0.3C321.8,153.6,321.9,153.7,322,153.8z M319.1,138.4c0,0.2,0,0.5-0.2,0.7
	C319.1,138.9,319.2,138.6,319.1,138.4c-0.1-0.4-0.3-0.8-0.8-0.7C318.9,137.6,319.1,138,319.1,138.4z M315.3,140.6
	c0.5,0,0.9,0.4,0.9,0.9c0,0,0,0.1,0,0.1c0,0.5-0.2,0.8-0.7,0.8c0.5,0,0.7-0.4,0.7-0.8c0.1-0.5-0.2-0.9-0.7-1
	C315.4,140.6,315.3,140.6,315.3,140.6z M267.4,108.6c0.1,0.1,0.1,0.2,0.1,0.4C267.5,108.8,267.5,108.7,267.4,108.6z M280,152.4
	c-0.1-0.1-0.2-0.1-0.4-0.2C279.8,152.2,279.9,152.3,280,152.4z M303,151.4c0.1,0,0.3,0.1,0.4,0.1C303.3,151.5,303.1,151.4,303,151.4
	z M322.5,121.4c-0.1,0.1-0.2,0.1-0.4,0.2C322.2,121.6,322.3,121.5,322.5,121.4z M337.7,154.5c0.1,0.1,0.2,0.2,0.3,0.3
	C337.9,154.7,337.8,154.6,337.7,154.5z M334.4,156.7c1.2-0.9,3.3-0.1,3.3-2.3C337.7,156.7,335.7,155.9,334.4,156.7z M305.7,133.1
	l-0.4-0.2L305.7,133.1z M283.1,108.1c-0.6-0.1-1.2-0.3-1.7-0.7C281.9,107.8,282.5,108,283.1,108.1z M323.7,155.6l-0.2-0.4
	L323.7,155.6z"/>
<path class="st2" d="M26.1,95.2c2.9-1.6,5.8-3.2,8.8-4.6c22.6-11,46.3-18,71.6-19.6c17.9-1.1,35.4,1.4,52.9,4.7
	c20.4,3.8,40.6,8.8,60.9,13.2c16,3.5,31.1,1.4,45.7-5.6c11.5-5.6,23.4-10,36-12.4c12.8-2.4,25.6-2.6,38.6-1.5
	c13.5,1.1,26.4,4.4,39.2,8.7c13.3,4.4,27,7.2,40.4,11.3c15.8,4.8,31.1,11,46.7,16.5c12,4.2,23.9,8.9,36.1,12.5v-78
	c-10.5-4.9-21.1-9.7-31.6-14.8c-17-8.2-33.8-16.7-51.1-24.2c-0.9-0.3-1.7-0.7-2.4-1.4H50.3c-5.3,2.3-10.7,4.4-15.9,6.9
	c-11,5.4-21.8,11-32.7,16.5c-0.4,0.2-0.8,0.3-1.1,0.5c0,15.3,0,30.7-0.1,46c0,13.6,0,27.2,0.1,40.8C9.1,105.5,17.4,100,26.1,95.2z"
	/>
<path class="st0" d="M12.1,194.5c-0.6-0.1-1.1-0.6-1.6-1.5c-3.8-6.5-5.4-13.9-7.5-21c-0.7-2.3-0.8-4.7-2.4-6.7v33.5
	c1.4-0.7,2.7-1.5,4-2.3c0.9-0.6,1.9-1,2.9-1.3h0.2c0.4,0,0.8-0.1,1.2-0.2h2.3c0.3,0,0.6,0,0.9-0.1C12,194.7,12.1,194.6,12.1,194.5z
	 M328.6,187.8c1.3-1.2,2.7-2.3,4.1-3.2c-0.5,0.3-1,0.5-1.5,0.9C330.3,186.1,329.4,186.9,328.6,187.8z"/>
<path class="st0" d="M464.6,187c-0.2-0.4-0.4-0.8-0.5-1.2c-3.4-11-5-22.4-7.1-33.7c-2.7-13.2-3.8-26.6-3.4-40c0-0.5,0.1-1,0.1-2
	c16.3,7.3,33.1,12.7,49.2,19.8v-11.6c-12.2-3.6-24.1-8.3-36.1-12.5c-15.6-5.5-30.9-11.7-46.7-16.5c-13.4-4-27.1-6.8-40.4-11.3
	c-12.8-4.2-25.7-7.6-39.2-8.7c-12.9-1.1-25.8-0.9-38.6,1.5c-12.6,2.4-24.5,6.9-36,12.4c-14.6,7-29.8,9.1-45.8,5.6
	c-20.3-4.4-40.5-9.4-60.9-13.2c-17.5-3.3-35-5.9-52.9-4.7c-25.2,1.6-49,8.6-71.6,19.6c-3,1.4-5.9,3-8.8,4.6
	c-8.7,4.8-17,10.4-25.5,15.5c0,2.7-0.1,5.5-0.1,8.2c1.7-0.5,3-1.8,4.4-2.8c16.8-11.4,35.1-20.3,54.4-26.5c0,4.5-0.2,8.7,0,12.9
	c1,16.5,1.2,33,1.8,49.5c0.5,13.2-2.2,26-4.8,38.8c-1,4.6-4.5,6.9-7.6,9.6c0,0-0.1,0.1-0.1,0.1c0.9-0.2,1.8-0.7,2.3-1.4
	c6.5-4.3,12.5-6.9,20.5-6.6c3.4,0.1,6.8,0.4,10.3,0.8c0.2,0.1,0.4,0.2,0.6,0.2c-2.5-1.2-4.1-3.6-5.3-6.4c-4.1-9.4-6.6-19.4-7.3-29.6
	c-1.3-16.9-2.3-33.8-2.9-50.7c-0.2-6,0-12.1-0.2-18.1c0-1.7,1.1-1.6,2-1.9c11.3-3.2,22.9-5.1,34.7-5.7c12.8-0.8,25.7-0.6,38.5,0.4
	c1.2,0.2,2.5,0.3,3.7,0.4c2.7-0.1,3.4,0.9,3.2,3.7c-0.6,7.4-0.4,14.9-1,22.4c-1.4,19-1.9,38-4.6,56.9c-0.9,6.5-2.2,12.9-3.9,19.2
	c-0.3,1-0.6,1.9-1.1,2.8c-0.5,1.6-1.4,3-2.4,4.3c-0.2,1-0.7,1.9-1.4,2.6c2.1,0.3,5.4,1,5.7,2.1c0,0.1,0,0.1,0.1,0.2
	c0.3,1.3,1.5,2.2,2.9,1.9c0.1,0,0.2,0,0.2-0.1c2.6-0.7,4.6-2.3,7.2-3c3.9-0.9,8-0.7,12-1.1l0.6-0.1c-0.4-0.7-0.5-1.5-0.3-2.2
	c-0.6-0.6-1-1.4-1.1-2.2c-3-11.5-5.6-23.1-6.8-35c-1.5-15.1-1.7-30.3-2.1-45.5c-0.2-8.1,0.6-16.2,0.8-24.4c0-1.4,0.7-1.4,1.7-1.2
	c16,2.6,31.8,5.9,47.4,10.1c9.9,2.7,19.8,5.6,30.1,7.1c2.8,0.5,5.7,0.6,8.5,0.4c2.1-0.3,2.3,0.5,2.4,2.2c1.4,14.6,1.6,29.3,1.6,44
	c0,10.1,0.2,20.1-2.1,30c-0.8,3.6-1.9,7.1-3.4,10.5c-0.3,0.7-0.7,1.4-1.1,2.1c0.2,0.6,0.3,1.2,0.4,1.7c0.8-0.4,1.5-0.8,2-1.1
	c4.2-2.5,8.4-4.4,13.4-3.8c2.6,0.3,5.2,0.5,7.7,0.9c0.1-0.5,0.3-1,0.7-1.3c-0.1-0.2-0.2-0.4-0.3-0.7c-3.5-9.7-4.9-19.8-6.5-29.9
	c-1.1-7.2-1.4-14.4-2.1-21.6c-1.1-11.5-1.6-23-1.5-34.5c-0.2-1.4,0.7-2.7,2.1-3.1c9.3-3.9,18.2-8.4,27.8-11.4
	c6.8-2.2,13.9-3.8,21-4.5c1-0.1,2-0.2,3.1-0.2l3-0.3h1.1c0.1,0,0.1-0.1,0.2-0.1c0.1,0,0.2,0,0.2,0.1l5.1-0.2
	c2.8-0.4,5.7-0.4,8.5-0.2h1.1c0.4-0.1,0.8-0.1,1.2-0.1c0.4,0,0.8,0,1.2,0c0.8,0.1,1.6,0.2,2.5,0.3c1.1,0.5,2.4,0.6,3.6,0.4
	c0.9-0.1,1.8-0.4,2.5,0.5l1,0.2c3.2-0.3,6.3,0.6,9.4,1.1c1.5,0.3,3.1,0.5,4.5,0.6c1.9,0.2,2,1,1.9,2.3c-0.1,1.2-0.1,2.3-0.2,3.5v1.5
	c-1,3.1,0.3,6.5-0.9,9.6l-0.1,6.5c0.1,1.1,0.3,2.1-0.6,3v1.5c0.4,2.4,0.2,4.9-0.5,7.3v1.8c0.4,3.2,0.3,6.4-0.3,9.5
	c-0.4,1.4-0.2,2.8,0.4,4.1c0.1,2.2,0.2,4.3,0.3,6.5v3.1c0.1,0.4,0.1,0.9,0.1,1.3v1.3c-0.1,0.9-0.2,1.7-0.3,2.6
	c-1.1,2-0.7,4.4-0.8,6.4c-0.2,4.1-1.1,8-1.7,12.1c-0.6,4.4-1,8.9-1.9,13.3c-0.1,0.3-0.1,0.5-0.2,0.8c0.2,1.3,0,2.7-0.6,3.9
	c5,0.6,10.1,0.8,15.1,0.9c2,0,4.1-0.2,6.1-0.1c-0.2-0.7-0.1-1.4,0.2-2c-0.3-0.4-0.5-0.9-0.7-1.4c-2.2-6.6-3-13.6-4.1-20.4
	c-3.7-23.2-3.5-46.4-1.6-69.7c0.2-2.1-0.5-4.9,0.9-6s4,0.3,6,0.6c15.5,2.7,30.7,7,45.9,11c10.9,2.8,21.7,6.4,32.3,10.3
	c1.2,0.2,2,1.3,1.8,2.5c0,0.1,0,0.2-0.1,0.3c-1.4,12.6-1.5,25.3-2.5,37.9c-1,11.9-1.6,23.8-4,35.4c-0.4,2-1.1,4-1.8,6l-0.1,0.3
	c0.3,0.7,0.3,1.6-0.1,2.3c1.6-1,3.2-1.9,4.5-2.5c3.7-1.9,7.6-2.1,11.7-2c3,0,5.9,0.3,8.9,0.9C464.2,187.8,464.3,187.4,464.6,187
	L464.6,187z"/>
<path class="st3" d="M61.1,152.1c-0.7-16.5-0.9-33-1.8-49.5c-0.2-4.2,0-8.4,0-12.9C40,95.8,21.7,104.7,4.9,116.1
	c-1.4,1-2.7,2.3-4.4,2.8l-0.5,1v1.5c0.6,0.6,0.5,1.4,0.5,2.1v26c0,0.7,0.1,1.5-0.5,2.1v1c0.8,3,0.8,6.1,0,9.1v1.5
	c0.7,0.6,0.5,1.4,0.5,2.1c1.6,1.9,1.7,4.4,2.4,6.7c2.1,7.1,3.7,14.4,7.5,21c0.5,0.9,1,1.4,1.6,1.5c0.2-1.2,1.2-2.1,2.4-2.3
	c6.6-0.8,12.9-4.2,19.6-2.6c5.4,1.3,9.7,4.7,13.9,8.1c0.9,0.6,1.2,1.9,0.6,2.8c0,0,0,0,0,0c0,0,0.1,0,0.1-0.1c3.1-2.7,6.7-5,7.6-9.6
	C59,178,61.7,165.2,61.1,152.1z"/>
<path class="st4" d="M464.6,187c0.6-1.1,2-1.4,3.1-0.8c0.1,0,0.1,0.1,0.2,0.1c3,2,5.3,4.6,7.9,6.9c2.1,1.9,3.8,3.2,6.2,0.9
	c0.8-0.8,1.4-1.9,2.1-2.8c4.5-5.1,11.5-8.8,18.4-8.8c0.2,0,0.4,0,0.5,0.1v-52.6c-16.2-7.1-33-12.5-49.2-19.8c-0.1,1-0.1,1.5-0.1,2
	c-0.4,13.4,0.7,26.8,3.4,40c2.1,11.3,3.8,22.7,7.1,33.7C464.2,186.2,464.4,186.6,464.6,187z M0.6,110.7c0,2.7-0.1,5.5-0.1,8.2
	C0.5,116.1,0.6,113.4,0.6,110.7z M0.5,149.5v-26c0-0.7,0.1-1.5-0.5-2.1v30.2C0.6,151,0.5,150.2,0.5,149.5z M243.2,103.1
	c-0.2-1.7-0.4-2.6-2.4-2.2c-2.8,0.3-5.7,0.2-8.5-0.4c-10.2-1.5-20.1-4.4-30.1-7.1c-15.6-4.2-31.4-7.6-47.4-10.1
	c-1-0.2-1.7-0.2-1.7,1.2c-0.2,8.1-1,16.3-0.8,24.4c0.5,15.2,0.7,30.3,2.1,45.5c1.2,11.9,3.8,23.5,6.8,35c0.2,0.8,0.6,1.6,1.1,2.2
	c0.3-1.1,1.2-1.9,2.4-1.9c6.8-0.1,14.9-2.4,21.2,1.1c3.7-1.6,6.9-4.9,10.9-6s8.5-0.6,12.6,0.1c4.8,0.6,9.5,1.8,14,3.5
	c1.8,0.7,3.5,1.6,5.1,2.8c0.9,0.9,1.8,1.8,2.6,2.8c0.6-1.9,1.3-3.8,2.2-5.5c0.8-1.2,2.4-1.6,3.6-0.8c0.5,0.3,0.9,0.8,1.1,1.5
	c0.1,0.2,0.1,0.4,0.2,0.7c0.4-0.7,0.8-1.4,1.1-2.1c1.4-3.4,2.6-6.9,3.4-10.5c2.2-9.9,2.1-20,2.1-30
	C244.8,132.4,244.7,117.7,243.2,103.1L243.2,103.1z"/>
<path class="st3" d="M145.4,81.9c-1.3-0.1-2.5-0.2-3.7-0.4c-12.8-1-25.6-1.2-38.5-0.4c-11.7,0.6-23.3,2.5-34.7,5.7
	c-1,0.3-2.1,0.2-2,1.9c0.2,6,0,12.1,0.2,18.1c0.7,16.9,1.6,33.8,2.9,50.7c0.7,10.2,3.2,20.2,7.3,29.6c1.2,2.8,2.8,5.2,5.3,6.4
	c0.1,0.1,0.3,0.1,0.4,0.2c0-1.3,1.1-2.3,2.4-2.3c0,0,0,0,0.1,0c4,0.1,5.8,2.5,9.2,3.7c2.9,1,2.8-0.4,4.7-1.7c1.6-1,3.3-1.6,5.1-2
	c5-1.2,10.1-1.8,15.3-1.7c2.7,0,5.4,0.1,8.2,0.1c0.9,0.1,1.8,0.1,2.7,0c0.1,0,0.2,0,0.3,0c-0.1-0.3-0.1-0.6-0.1-0.9
	c-0.2-3.3,5-3.3,5.1,0c0,0.7,0,1.5-0.1,2.2c1.1-1.3,1.9-2.8,2.4-4.3c0.4-0.9,0.8-1.9,1.1-2.8c1.7-6.3,3.1-12.7,4-19.1
	c2.7-18.9,3.1-37.9,4.6-56.9c0.6-7.4,0.4-14.9,1-22.4C148.7,82.8,148.1,81.8,145.4,81.9L145.4,81.9z"/>
<path class="st4" d="M445.9,107.2c-10.6-3.9-21.3-7.4-32.3-10.3c-15.2-3.9-30.4-8.2-45.9-11c-2-0.4-4.6-1.7-6-0.6s-0.8,3.9-0.9,6
	c-1.9,23.3-2,46.6,1.6,69.7c1.1,6.9,1.9,13.8,4.1,20.4c0.2,0.5,0.4,1,0.7,1.4c0.5-1.2,1.9-1.8,3.1-1.3c0.1,0.1,0.3,0.1,0.4,0.2
	c3.7,2.3,4.4,5.4,5.6,8.7c1.9-2.1,3.6-4.4,5.8-6.2c2.5-1.8,5.4-2.9,8.4-3.3c6.6-1.1,13.8-0.7,20.5-0.5c5.9,0.1,12.8,1,16.6,6.1
	c1.5,2,2.1,4.8,3.8,6.7s0.9,1,1.6-0.9c0.4-1.1,0.8-2.1,1.4-3.2c1.2-2.1,3.8-1.3,4.6,0.3l0.1-0.3c0.6-2,1.4-4,1.8-6
	c2.4-11.7,3-23.6,4-35.4c1-12.6,1.1-25.3,2.5-37.9c0.3-1.1-0.3-2.3-1.5-2.7C446.1,107.3,446,107.3,445.9,107.2L445.9,107.2z
	 M351.2,82.4c-1.4-0.1-3-0.3-4.5-0.6c-3.1-0.6-6.2-1.4-9.4-1.1c0,0.2,0,0.3,0,0.5c-0.2,1-0.8,2.3-1.6,2.2c-1.3-0.1-0.7-1-0.1-1.6
	c0.2-0.2,0.4-0.5,0.6-0.7c0.1-0.1,0.1-0.3,0.1-0.5c-0.7-0.9-1.6-0.6-2.5-0.5c-1.2,0.2-2.5,0.1-3.6-0.4c-1.6-0.1-3.3,0.2-5-0.2h-1.1
	c-2.8,0.5-5.7,0.1-8.5,0.2l-5.1,0.2h-1.5c-0.9,0.5-2,0.2-3,0.3c-1,0-2.1,0.1-3.1,0.2c-7.1,0.8-14.2,2.3-21,4.5
	c-9.6,3-18.6,7.6-27.8,11.4c-1.4,0.3-2.3,1.7-2.1,3.1c-0.1,11.5,0.4,23.1,1.5,34.5c0.7,7.2,1,14.5,2.1,21.6
	c1.6,10.1,3,20.2,6.5,29.9c0.1,0.2,0.2,0.5,0.3,0.7c0.5-0.5,1.1-0.7,1.7-0.7c3.2,0,6.4,0.2,9.4,1.5c1.5,0.6,4.1,3.6,6.1,4.8
	c2.5-4.6,6.9-7.2,11.8-8.7c-0.3-1.1,0.3-2.3,1.4-2.6c0.1,0,0.3-0.1,0.4-0.1c0.2,0,0.5,0,0.7-0.1h0.1c4-0.4,8.1-0.4,12.1,0.1
	c8.3,0.2,16.6,1.5,21.3,8.3l1-0.9c0.8-0.9,1.7-1.7,2.7-2.4c0.5-0.3,1-0.6,1.5-0.9c0.8-0.5,1.6-0.9,2.4-1.2c2.5-1,6.8-0.2,5.9-3.5
	c-0.9-3.2,4.1-4.6,5-1.4c0.2,0.6,0.3,1.3,0.4,1.9c0.1-0.3,0.2-0.5,0.2-0.8c0.9-4.4,1.3-8.9,1.9-13.3c0.5-4,1.5-8,1.7-12.1
	c0.1-2.1-0.3-4.4,0.8-6.4c0.1-1.7-0.4-3.5,0.3-5.2v-3.1c-0.1-0.3-0.1-0.5-0.2-0.8c-0.1-0.8-0.2-1.6-0.1-2.4c0-1.1,0.1-2.2,0-3.2
	c-0.6-1.3-0.7-2.7-0.4-4.1c0.6-3.1,0.7-6.4,0.3-9.5c-2.6,0.1-5.1-0.3-7.6-1l-2,0.6c-0.4,0.4-1,0.4-1.4,0.1c0,0,0,0-0.1-0.1
	c-2.2-1-4.4,0.2-6.6,0c-1-0.1-2.1,0.2-3-0.6c-1.1,0.2-2.1-0.4-2.4-1.5c0,0,0-0.1,0-0.1c-0.8,0.8-0.8,2.6-2.1,2.5
	c-1.2-0.1-1.4-1.7-2-2.7c-0.3-0.5-0.6-1-0.9-1.5c-1.1-1.8-1.4-2.4-0.5-2.6c0.7-0.1,1.3-0.2,2-0.3h0.5c0.5,0.3,1.8-0.1,1.2,1.2
	c-0.3,0.7-0.1,1.5,0.7,1.5s0.9-0.8,0.7-1.5c-0.2-0.5,0-1,0.5-1.2c0,0,0,0,0,0c0.2-0.1,0.3-0.1,0.5-0.1c1.1-0.3,2.2-1.2,3.1,0.5
	l1-0.4c-0.1-0.9-0.3-2.1,1-2.1s0.8,1.2,0.9,1.9c2,0.4,3,1.5,2.8,3.7c-0.1,1,0.1,2.2,1.2,2.2s1.2-1.2,1.1-2.2
	c-0.1-1.3,0.4-2.6-0.5-3.8c-0.4,0.1-0.8,0.6-1.2,0.1c-0.2-0.3,0.1-0.5,0.4-0.7c0.2-2.1,2.1-1.6,3.3-2.1h0.5c0.4,0.8,0.6,1.8,0.6,2.7
	c0,0.6,0,1.2-0.1,1.8v0.9c0,0.6,0.1,1.2,0.2,1.8l0.3,0.9l0.4,0.4c0-0.2,0.1-0.5,0.1-0.8c0.2-0.8-0.2-2,1-2.3
	c0.9-0.2,1.3,0.8,1.5,1.4c0.6,2.4,2,2.3,3.8,1.5c0.3-0.2,0.8,0,1.2,0c0.8-2.4,0.9-4.9,0.5-7.3c-0.6,0-1.3,0-1.3-0.8s0.8-0.7,1.3-0.8
	c0.9-0.9,0.7-2,0.6-3c-0.6,0-1.1-0.2-1.5-0.7c-1.4-1.4-2.7-1.2-3.4,0.7c-0.6,1.6-1.9,2-3,1.3c-1.3-0.6-1.8-2.1-1.2-3.4
	c1.1-2.1,1.4-3.5-1.6-3.6c-0.6-0.1-1.1-0.4-1.4-1c-0.6-1.2-1.3-1.5-2.6-0.7c-1.1,0.7-1.9-1-2.9-0.9c-1.3,0.2-2,0.1-2.2-1.5
	c-0.1-0.7-0.7-1.2-1.4-1.1c-0.1,0-0.2,0-0.3,0.1c-2.9,0.9-2.3-1.6-2.4-2.8c-0.1-0.9,0.1-1.9,0.4-2.8c1-2.1,2.9-0.4,3.7,0.1
	c1.4,0.9,1.5,0.5,1.7-0.7c0.1-1.2,1-2.2,2.2-2.4c1.5-0.2,1.1,1.3,1.6,2.1c0.6,0.9,1,2.1,2.2,2.6c0.7-0.5,0.2-1,0.1-1.4
	c-0.1-0.8-1.5-1.7-0.2-2.3c1.1-0.5,2.1-3,3.8-0.6c0.3,0.4,1.2,0.5,1.8,0.7c3.3,0.8,4.2,2.4,3.5,5.8c-0.1,0.4-0.1,0.7,0.2,0.8
	c0.3,0,0.6-0.1,0.9-0.3c0.5-0.5,0.8-1.5,1.7-1.1s0.2,1.4,0.4,2.1c0.4,1.5-1,3.1,0.1,4.6c1.2-3.1-0.1-6.5,0.9-9.6
	c-0.6-0.1-1.6,0.3-1.6-0.6s1-0.9,1.7-0.9c0.1-1.2,0.2-2.3,0.2-3.5C353.2,83.3,353.2,82.6,351.2,82.4L351.2,82.4z M349.3,106.5
	c0.1,0.1,0.2,0.1,0.4,0.2l-0.3,0.3c-0.1-0.1-0.2-0.2-0.2-0.3C349.2,106.7,349.3,106.5,349.3,106.5L349.3,106.5z M346.9,109.4
	c0.7-0.1,1.4,0.2,1.8,0.8c0.1,0.8-0.4,1-0.9,1c-0.7,0-1.6,0.3-1.8-0.8C346,109.9,346.4,109.5,346.9,109.4L346.9,109.4z M313.2,82.3
	c0.6,0.1,1.2,0.3,1.3,0.9c0.1,1-0.7,1.2-1.4,1.3s-1.2-0.2-1.2-0.9C312,82.9,312.5,82.4,313.2,82.3z M303.5,81.3
	c0.1,0.1,0.2,0.1,0.4,0.2l-0.3,0.3c-0.1-0.1-0.1-0.2-0.2-0.3C303.4,81.5,303.5,81.3,303.5,81.3L303.5,81.3z M299.7,84.9
	c0.3,0,0.6,0.2,0.6,0.5c0,0.1,0,0.2,0,0.3c0,0.4-0.3,0.7-0.6,0.8c-0.1,0-0.2,0-0.4,0c-0.4,0-0.7-0.3-0.7-0.6c0-0.1,0-0.1,0-0.2
	C298.7,85.2,299.1,84.8,299.7,84.9C299.6,84.9,299.6,84.9,299.7,84.9z M277.3,89.4c0.3-0.1,0.5,0.1,0.5,0.4l-0.2,0.4
	c-0.2-0.1-0.3-0.3-0.5-0.4C277.1,89.7,277.2,89.5,277.3,89.4z M258,120.2c-0.4-0.6-0.8-1-1.4-1.4c-0.7-0.4-1.6-0.9-1.2-1.9
	s1.5-0.4,2.2-1.1c1.4,0.7,2.5,1.8,3.4,3.1c0.5,0.8-0.7,0.9-1.2,1.2S258.6,121.1,258,120.2z M260.9,133c0-0.1,0.2-0.1,0.3,0h0.5v-0.6
	c-0.6-0.7-1.5-1.4-0.8-2.6s2-0.9,3.2-0.9c0.1,0,0.5,0.1,0.5,0.1c0.2,1.5,0.7,3.1,0.3,4.4s-2,1.1-3.3,0.8c-0.5-0.1-0.9-0.5-0.8-1.1
	C260.9,133.2,260.9,133.1,260.9,133L260.9,133z M262.5,117c0.1-0.1,0.1-0.2,0.2-0.3l0.3,0.3c-0.1,0.1-0.2,0.1-0.4,0.2
	C262.7,117.2,262.5,117,262.5,117L262.5,117z M273.8,171c-1.5,0.7-3.1,0-4.7,0.2c-1.1,0.1-1.2-1.1-1.3-2.1s0.3-1.9-0.8-2.4
	c-0.4,0.1-0.4,0.4-0.3,0.7c0.1,3.8,0.1,3.8-3.5,3.9c-0.9,0-1.7-0.2-1.9-1.2s0.6-1.5,1.4-1.8c0.2-0.1,0.5-0.1,0.7-0.1
	c0.5,0,1.1-0.2,0.9-0.9c-0.3-0.9-0.9-0.4-1.3-0.1s-0.9,0.7-1.2,0.1s0.3-0.9,0.8-1.1c0.4-0.2,0.8-0.4,1.2-0.4c0.1,0,0.3,0,0.4,0
	c0.4,0,0.9,0.1,1.2,0.3l0.4,0.1l0.1,0.1l0.5,0.2l0.5,0.2h0c0.3-0.7,1.1-1.1,1.9-1c0.1,0,0.2,0,0.4,0.1l0.3,0.1
	c1.1,0.3,0.5,1.4,0.6,2.2s-0.4,1.8,0.7,1.7c0.9-0.1,0.7-1.2,0.5-1.9c-0.2-1.1-0.8-2,1.1-2.1s1.2,1.1,1.3,2c0,0.8,0.1,1.5,0,2.2
	C273.9,170.4,274,171,273.8,171L273.8,171z M293,170.4c-0.7,0.8-1.8,1-2.8,0.6c-1.9-1-3.8,0-5.5,0.1c-2.3,0.1-2.8-0.6-2.9-2.6
	c0-0.8,0.2-1.7-1.1-2.1c-0.4,2-1.5,3-3.7,2.6c0.2,1,0.8,0.7,1.2,0.7s0.8-0.1,1.2,0c0.9,0,1.6,0.4,1.5,1.3c-0.2,1.7-1.6,2-3,2.1
	s-2.9,0.3-3.1-1.6c-0.2-1.4,0.2-2.8,0.1-4.2s1.4-1.6,2.6-1.7h6.4l1.1,0.1c0.9,0.3,2.3-0.9,2.7,0.7c0.3,1-0.2,2.1,0.3,3.2
	c1-0.4,0.9-1,0.6-1.8c-0.2-0.7-0.5-1.6,0.3-2c1.1-0.4,2.3-0.4,3.4,0c0.8,0.3,0.4,1-0.1,1.6c-0.1,0.1,0,0.5,0.2,0.6
	C293.6,168.8,293.8,169.6,293,170.4L293,170.4z M298.3,169.5c0.5,0.4,0.3,0.7,0,0.9c-0.6,0.6-1.5,0.8-2.3,0.6
	c-0.7-0.2-1.3-0.9-1.4-1.6c-0.2-1,0.4-2.2-0.8-3.1c-0.5-0.4,0.4-1.2,1.2-1.5s1.5-1.3,1.9,0c0.4,1,1.4,0.7,1.9,1.3
	C296.7,167.4,296.6,167.9,298.3,169.5L298.3,169.5z M298.5,159c-1.4-0.1-2.8,0-4.2,0.3c-0.3,0.1-0.6,0.1-0.9,0.1
	c-0.2,0-0.4,0-0.5-0.1c-0.2-0.1-0.5-0.2-0.7-0.3c-0.3-0.1-0.5-0.3-0.8-0.5l0-0.1c-0.2,0.3-0.4,0.6-0.7,0.8c-0.1,0.1-0.2,0.1-0.3,0.1
	c-0.2,0.1-0.3,0.1-0.5,0.1c-0.2,0-0.3,0-0.5,0c-0.1,0-0.3,0-0.4-0.1c-0.1,0-0.3-0.1-0.4-0.1h-8.2c0.2-0.7,0.4-1.3,0.5-2
	c0.1-0.7,0-1.3-0.1-1.9h-0.3c-0.4,0.3-0.7,0.9-1,0.9c-3.2-0.3-1.7,1.4-0.8,3.1h-3.8l-0.9-0.5c-1.3,1-2.7,1.4-4.1,0.3
	c-0.7-0.6-0.9-0.2-1.5,0.1c-1.6,1-2.5,0.3-2.5-1.6c0-0.7,0.3-1.8-0.8-1.8s-0.9,1.2-0.6,1.8c0.7,1.9-0.4,2.1-1.8,2
	c-0.7-0.1-1.2-0.2-0.9-1.2c0.5-1.6,0.8-3.2-0.3-4.8c-0.3-0.5-0.3-1.2,0.6-1.2s2-0.8,2.1,0.7c0.1,1,0.5,1.4,1.4,1.2
	c1.6-0.3,2.2,0.3,2.6,1.4c0.1,0.4,0.2,0.8,0.2,1.2h0.4c0.3-1,0.9-1.9,1.9-2.5c0.2-0.1,0.4-0.2,0.7-0.2c0.4,0,0.8,0,1.2,0.2
	c0.7,0.2,1.3,0.6,1.9,1h0.1l1-1.1c0-0.2,0.1-0.3,0.2-0.5c0.2-0.4,0.5-0.4,0.9,0.2l0.8,0.1c0.4-0.6,0.8-0.6,1.2,0c0.2,0,0.4,0,0.6,0
	c0.2,0,0.3,0.1,0.5,0.2c0.2,0.1,0.3,0.2,0.4,0.3l0.4,0.3h0.4c0.2-0.2,0.3-0.3,0.6-0.4c0.2-0.1,0.4-0.2,0.6-0.2
	c0.4-0.1,0.9-0.2,1.3-0.3h5.2c0.8-0.1,1.6,0.1,2.2,0.5l1.6,0.1c0.3-0.2,0.6-0.3,0.9-0.4c0.1,0,0.3-0.1,0.5-0.1
	c0.3-0.1,0.6-0.1,0.9-0.1c0.5,0,0.9,0,1.4,0c0.2-0.2,0.3-0.1,0.4,0.1l2.4-0.1c1.4-0.5,2.8,0.4,4.4-0.2c1-0.4,1.6,0.9,1.8,1.9
	s0.1,2,0.2,3c-3.5,1.6-2.9-1.4-3.2-3.3c-1.1,0-1,0.8-0.8,1.3C301.9,159.7,300.2,159.2,298.5,159L298.5,159z M265.9,147.6
	c0-0.3,0.1-0.7,0.5-0.7c0.6,0,0.8,0.4,0.8,1c0,0.1,0,0.2,0,0.2c-0.1,0.2-0.3,0.4-0.6,0.4c-0.1,0-0.2-0.1-0.3-0.1
	c-0.2-0.1-0.3-0.2-0.3-0.4C265.9,147.8,265.9,147.7,265.9,147.6L265.9,147.6z M268.6,138.4l-0.3,0.2c-0.1-0.1-0.1-0.2-0.2-0.4
	c0,0,0.1-0.1,0.2-0.1C268.4,138.3,268.5,138.4,268.6,138.4L268.6,138.4z M271.2,139.2c-0.1,0-0.5-0.2-0.5-0.3
	c0.1-0.5,0.5-0.6,0.9-0.7s0.5,0,0.5,0.4C271.9,139,271.6,139.2,271.2,139.2L271.2,139.2z M272.6,146.2c0.1,0.2,0,0.5-0.3,0.6
	c-0.1,0-0.2,0-0.3,0c-0.6-0.1-0.8-0.5-1-1c0-0.1,0-0.2,0-0.2c0-0.1,0-0.1,0.1-0.2c0.1-0.1,0.3-0.2,0.5-0.2
	C272.1,145.4,272.5,145.8,272.6,146.2L272.6,146.2z M277,140.9c0-0.3,0.2-0.7,0.5-0.6s0.7,0.3,0.7,1c-0.2,0.1-0.4,0.4-0.6,0.5
	C277.1,141.8,277,141.4,277,140.9L277,140.9z M279.7,152.1l0.3-0.3c0.1,0.1,0.2,0.2,0.2,0.3c0,0-0.1,0.2-0.1,0.2
	S279.8,152.1,279.7,152.1L279.7,152.1z M298.8,149.2c0-0.7,0.5-1.3,1.2-1.3c0.8-0.1,1.1,0.5,1.4,1.1c0,0.8-0.5,1-1.1,1
	S298.8,150.4,298.8,149.2L298.8,149.2z M303.4,151.4l-0.2,0.3c-0.1-0.1-0.2-0.2-0.2-0.3c0,0,0.1-0.2,0.1-0.2
	C303.1,151.3,303.2,151.4,303.4,151.4z M306.3,145.1c-0.3-0.6-1.2-1.6,0.2-2c0.6-0.2,1.3,0.2,1.4,0.9c0,0.1,0,0.3,0,0.4
	c-0.5,2.6,2.2,3.9,2.3,6.4c-1.4-1-2.5-1.7-3.6,0.1c-0.2,0.4-0.7,0.5-1.1,0.3c-0.1,0-0.2-0.1-0.2-0.2c-0.5-0.6-0.4-1.6,0.1-1.8
	C308.5,148.4,307,146.8,306.3,145.1L306.3,145.1z M307.9,170c-0.3,1.2-1,1.2-2.1,0.9c-1.3-0.1-2.7-0.2-4-0.1c0-1.1,0.9-1.4,1.3-1.9
	s1.2-1.2,0.9-1.9c-0.4-1-1.1-0.1-1.7-0.1c-0.8,0-0.9-0.5-0.5-1.2c0.9-1.4,4.3-1.6,5.2-0.2s-0.6,2-1,3
	C306.9,169,308.3,168.6,307.9,170L307.9,170z M308.3,157.8c1.7-0.9-1.5-3.6,1.4-3.9c1.3-0.1,2.6-0.1,3.8-0.1c1,0.2,1.9,0.1,2.9-0.1
	c1.1-0.4,1.9,0.4,2,1.6c-0.1,1.1,0.1,2.2,0.5,3.1h0c1-0.7,1.4-2.1,0.7-3.1c-0.1-0.2-0.2-0.4-0.2-0.6c0-0.1,0-0.2,0-0.3
	c0-0.1,0.1-0.1,0.1-0.2c0.2-0.2,0.4-0.3,0.6-0.5l-0.1-0.6c-1.5-1.1-0.3-1.4,0.5-1.8h0.5c0.9,0.1,1.2,0.5,0.9,1
	c-0.1,0.2-0.3,0.4-0.4,0.6v0.5c0.1,0.1,0.2,0.2,0.2,0.3c0.1,0.2,0.2,0.4,0.3,0.6c0,0.1,0.1,0.2,0.1,0.3c0.1,0.2,0.1,0.4,0.1,0.6
	c-0.1,1,0,2.1,0.1,3.1c0.3,0.8-1.4,0.5-2.2,0.6c-0.5,0.1-0.8-0.5-1.4-0.5h-0.1c-0.1,0-0.2,0-0.2,0.1c-2.9,1-2.9,0.9-2.7-1.9
	l-0.3-1.1c-0.9-0.2-1,0.2-0.9,0.7c0,0.2,0,0.3,0.1,0.5l0.2,1.2c-0.4,1.7-1.6,1.4-2.9,1.2h-2.9c-0.3,0-0.7,0-1-0.2
	c-0.3-0.2-0.3-0.7,0-0.9C308.3,157.9,308.3,157.9,308.3,157.8L308.3,157.8z M311.9,142.2c0.9,0.3,0.8,0.9,1.1,1.3
	c0.6,0.8,1.1,1.6,0.1,2.4c-0.3,0.3-0.8,0.5-1.1,0.2c-0.7-0.6-0.1-1.4,0-2.1C312,143.4,312,142.8,311.9,142.2L311.9,142.2z
	 M315.4,142.3c-0.7,0-1-0.6-1-1.2s0.4-0.6,0.8-0.6c0.5,0,0.9,0.4,0.9,0.9c0,0,0,0.1,0,0.1C316.1,142,315.9,142.4,315.4,142.3
	L315.4,142.3z M316.6,144.8l-0.4,0.4c-0.1-0.2-0.2-0.4-0.3-0.6c0-0.1,0.2-0.3,0.3-0.3C316.4,144.3,316.5,144.5,316.6,144.8
	L316.6,144.8z M315.3,150.5c-1.4,0.6-2.2,0.7-2.9-0.1c-0.2-0.2-0.2-0.6,0.1-0.8c0,0,0,0,0.1,0C313.7,148.8,314.1,150,315.3,150.5
	L315.3,150.5z M318.3,137.6c0.5-0.1,0.7,0.3,0.8,0.7c0,0.2,0,0.5-0.2,0.7c-0.1,0.1-0.1,0.1-0.2,0.1c-0.5,0.1-0.6-0.4-0.8-0.8
	c-0.1-0.3,0.1-0.5,0.3-0.6C318.3,137.7,318.3,137.7,318.3,137.6L318.3,137.6z M321.1,145.3c0.1-0.1,0.3-0.2,0.4-0.2
	c0.3,0,0.5,0.2,0.4,0.6c-0.2,0-0.4,0.2-0.6,0.1S321.1,145.5,321.1,145.3L321.1,145.3z M315.7,172.6c0.2-2.5-0.7-2.8-2.7-1.9
	c-1.5,0.4-3,0.3-4.4-0.3c1.7-1.6,1.6-2.9-0.3-4.7c2.1-1.1,2.1-1.1,4.9-1c-0.4,0.8-0.5,1.7-0.5,2.5c0.1,0.8-0.4,1.9,0.4,2.3
	c1,0.6,1.2-0.7,1.8-1.1c1.2-0.8,2.1-0.1,2.3,1.2C317.2,170.9,316.7,172,315.7,172.6L315.7,172.6z M328,171.8c-0.6,0.1-1.6,0-1-1
	c0.9-1.2,0.6-1.4-0.8-1.5c-1.9-0.3-1.8-2.1-2.4-3.5c-0.6,1.6-0.8,3.2,1.1,4.6c-2.1,0.6-4.4,0.5-6.4-0.3c1.7-0.4,2.2-1.2,2.3-2.6
	s-0.9-1.3-1.7-1.7c1.6-1.4,3.3-1.8,5-0.9c0.9,0.5,1.2-0.1,1.8-0.3c1.9-0.8,4.1-0.1,4.7,1.4S329.6,171.5,328,171.8L328,171.8z
	 M326.7,152.5c0.1,2-0.4,4,0.7,5.9h-3.7c0.8-1.7,0.9-3.6,0.2-5.3c-0.2-0.4-0.8-0.7-0.1-1.2c0.7-0.5,1.5-0.7,2.4-0.6
	C326.9,151.5,326.7,152.1,326.7,152.5L326.7,152.5z M323.7,155.5l-0.1,0.5c-0.1-0.1-0.2-0.3-0.3-0.5c0-0.1,0.1-0.2,0.2-0.4
	L323.7,155.5z M331.1,158.5c-0.9,0.2-1.8-0.1-2.8,0.1c0.6-2,1-3.8,0.1-5.6c-0.2-0.5-0.7-0.8,0-1.1c0.7-0.3,1.4-0.6,2.1-0.6
	c0.6-0.1,0.7,0.5,0.7,1.1c-0.1,1.6,0,3.2,0.2,4.7l0.7-0.1c0-3.6,1.9-4.5,5.6-2.6c1-1.5,2.5-1,3.9-0.9h0.6c0.2,0,0.4-0.1,0.6-0.1
	c0.4-0.1,0.8,0.8,0.6,1.4c-0.4,1.1-1.3,0.8-2.1,0.6c0,0.6-0.1,1.2-0.1,1.8c0.1,0.3,0.8,0.7,0.4,1c-1,0.7-2.2,0.4-3.3,0.2
	c-0.5-0.1-0.2-0.6-0.1-1c0-0.1,0.1-0.3,0.1-0.4c0.1-0.2,0.1-0.4,0.1-0.6c0.1-0.6-0.1-1.2-0.5-1.7c-0.1-0.1-0.2-0.2-0.3-0.3h0
	c0.1,2.2-2,1.4-3.3,2.3c-0.1,0.1-0.2,0.1-0.2,0.2l3.1,0.4c-0.5,0.8-1.3,1.4-2.2,1.7c-0.9,0-1.8-0.4-2.5-1l-0.7,0.1
	C331.7,158.2,331.4,158.4,331.1,158.5L331.1,158.5z M334.6,140.7l0.6,2.7c-1.3-0.8-1.6-1.6-0.6-2.6L334.6,140.7z M339,145.6
	c0-0.1,0.2-0.3,0.3-0.3c0.3-0.1,0.5,0.1,0.5,0.6l-0.4,0.3C339.2,146,339.1,145.9,339,145.6L339,145.6z M342.1,147l0.3-0.3
	c0.1,0.1,0.2,0.2,0.2,0.3c0,0-0.1,0.2-0.1,0.2C342.3,147.2,342.2,147.1,342.1,147L342.1,147z M342.1,170.2c-1.5,0.8-2.7,0.2-3.8-0.9
	c-0.7-0.6-1-1.5-1.1-2.4c-1,1.2-1.1,2.6-1.6,3.8c-0.4,1-0.9,1.4-1.9,0.9s-0.3-1.1,0-1.6c0.1-0.1,0.1-0.3,0.2-0.4
	c0.4-1.1,1.8-2.2,1.1-3c-0.8-1-2.3,0-3.4,0.5c-0.6-2.1-0.5-3.1,2.1-3.1c2.2,0.1,4.3,1,6.6,0.1c1.5-0.6,2.9,0.6,3.3,2.2
	C344.3,168,343.6,169.7,342.1,170.2L342.1,170.2z M348.5,126.6c0.1,0.1,0.2,0.2,0.2,0.3c0,0-0.1,0.2-0.1,0.2
	c-0.1-0.1-0.2-0.1-0.4-0.2L348.5,126.6z M347.2,147c0.1,0.9,0.4,1.8-0.6,2.2c-1.3,0.5-1.6-0.8-1.8-1.5c-0.4-1.6-0.7-3.1-0.9-4.7
	C345.7,144.3,347,145.3,347.2,147L347.2,147z M345.5,124c0,0,0.2,0.1,0.2,0.1c0,0.1-0.1,0.3-0.1,0.4l-0.3-0.2c0.1,0,0.2-0.1,0.2-0.1
	L345.5,124z M344.5,137.5c0.2-0.1,0.5,0,0.6,0.2c0,0.1,0.1,0.2,0,0.3c-0.1,0.3-0.3,0.6-0.6,0.7c-1.5,0.5-3.1,0.1-4.2-1
	c1.7-0.4,2.9,0.6,4.1,0L344.5,137.5z M328.1,123.5c1,0,1.2,0.7,1.2,1.6c-0.1,0.5,0,1.3-0.9,1.1c-0.7-0.1-1.5-0.5-1.5-1.4
	c-0.1-0.6,0.4-1.2,1-1.2C328,123.5,328,123.5,328.1,123.5L328.1,123.5z M322.2,121.1l0.3,0.3c-0.1,0.1-0.2,0.1-0.4,0.2
	c0,0-0.1-0.1-0.1-0.2C322,121.3,322.1,121.2,322.2,121.1L322.2,121.1z M327.7,86.8c-0.7,0.3-1.3,0.7-2,0.9c-0.8,0.3-1.4,1.1-1.3,1.9
	c0,0.9,0.7,1,1.4,1.1c1.4,0.2,1.5,0.8,0.9,2.1c-0.6,1-0.3,2.4,0.8,3c0.3,0.2,0.7,0.3,1.1,0.3c2.6,0.4,3.1,2.3,3.9,4.2
	c1.5,0,2.9,0.6,4.5,0c1.2-0.4,2.1,0.7,2.3,2c0.1,1.2,0.2,2.5,0.4,3.7c0.3,1.3-1.1,1.1-1.9,1.1s-2,0.4-1.9-1.2
	c0.1-1.3,1.1-3.4-0.7-3.5c-1.4-0.1-0.8,2.2-0.5,3.4s-0.6,1.3-1.3,1.3c-0.9,0-2.8,0.3-2.5-0.7c0.6-2-0.2-3.8,0.1-5.7h-1.2
	c0.4,2,0.1,3.2-2.3,2.3c-0.9-0.4-1,0-0.9,0.7c0.1,0.4,0.1,0.9,0.2,1.3c-0.1,0.8,1.2,0.8,0.9,1.5s-1.2,0.7-2,0.7h-1.3
	c-0.4,0-0.9-0.1-1.3-0.2c-0.3-0.1-0.5-0.3-0.7-0.5l-0.6-0.8c-3.1,2.6-5.6,2.3-7.7-1h-0.4c-0.7,2.7-4.3,4-7.1,2.4
	c-0.7-0.5-1.3-1-1.9-1.6l0.9,6.7h1c0.4-0.4,1-0.4,1.4-0.1c0,0,0,0,0.1,0.1c1.4,1.9,1.9,0.1,2.7-0.6c-1-0.4-1.8-1-2.5-1.8
	c0.4-0.2,0.8-0.3,1.2-0.3c0.1,0,0.2,0,0.3,0.1c0.1,0,0.2,0.1,0.2,0.1c0.4,0.5,0.6,1.1,0.7,1.8c1-0.8,2.4-0.9,3.4-0.1
	c0.3,0.2,0.5,0.4,0.7,0.6l0.4,0.4c0.3,0.3,0.5,0.6,0.8,0.9h0.4l2.1-1v-0.4c-0.7-0.1-1.6,0-1.9-0.9c-0.2-0.6,0.3-1,0.8-1.1
	c0.9-0.3,1.9-0.8,2.6,0c0.1,0.1,0.1,0.1,0.2,0.2c0.1,0.1,0.2,0.2,0.2,0.4c0.1,0.3-0.1,0.5-0.4,0.7s-0.8,0.3-0.9,0.6v0.5
	c0.9,0,1.5,0,1.5,1.3c0,1.5-0.5,3.1,0.5,4.6c0.4,0.5-0.2,1-0.7,1c-1.3,0.2-2.8,0.7-3.8-0.7H316l-0.7,0.4l-1.2,0.7
	c-0.1,0.1-0.2,0.2-0.4,0.3c-0.4,0.2-0.8,0.1-1.1-0.2c-1.8-0.5-2-1.9-2-3.5c0-0.7,0.4-1.7-0.5-2.2s-1.1,1-2,0.8c0,0.2,0,0.5-0.1,0.7
	c2.1,2.2,1.9,3.1-1,4.3c0,0.5-1.6,0.3-0.5,0.8c1.8,1-0.1,1.5-0.2,2.2c0.2,0.1,0.5,0.1,0.7,0.2c2.5,1,4.5,1.2,5.8-2
	c0.5-1.2,1.6,0.3,2,1.2c0.4,1,0.9,1.9,1.5,2.8c0.2,0.3,0.4,0.5,0.7,0.7c0.2,0.2,0.5,0.4,0.8,0.6c0.3,0,0.6,0,0.9,0.1
	c0.1,0,0.1,0.1,0.2,0.1c0.2,0.1,0.3,0.2,0.4,0.4c0.1,0.2,0.1,0.3,0.1,0.5c0.1,0.8-0.2,1.9,0.4,2.4c0.2,0.1,0.1,0.6,0.1,0.9h0.5
	l1.1-1.9c0-0.1-0.1-0.2-0.1-0.2c-0.1-0.2-0.3-0.5-0.2-0.7c1.1-2.1,0.2-3.5-1.8-4.9c3-1.1,3.5,1.4,4.5,2.6c1.4,1.5-0.8,1.9-1.4,2.7
	c0.7-0.2,1.5-0.1,2.2,0.3c0.9,0.8,1.7,0.2,2.6,0.1l1.3-0.2c0.5-0.1,0.9-0.1,1.4-0.2c0.7,0,1.3,0,2,0.2c0.2,0.1,0.5,0.2,0.7,0.3
	l1.4-0.1c0.2,0,0.4-0.1,0.5-0.1c0.2,0,0.3-0.2,0.4-0.4v-0.4c-0.2-0.1-0.4-0.1-0.5-0.2c-0.3-0.2-0.5-0.3-0.3-0.7
	c0.5-0.7,1.4-1,2.2-0.7c0.5,0.1,0.6,0.3,0.5,0.6c-0.1,0.3-0.2,0.5-0.4,0.7l0,0.6c0.6,0.8,1,1.9,2.3,0.7c1-0.9,2.6-1,3.7-0.1
	c0.5,0.2,0.8,0.9,0.5,1.4c0,0,0,0.1-0.1,0.1c-0.2,0.4-0.7,0.6-1.1,0.5c-0.1-0.1-0.3-0.2-0.4-0.3c-0.4-0.4-0.7-1.1-1.4-0.5
	c-0.2,0.3-0.2,0.6-0.1,0.9c0.1,0.6,0.6,1.1,1.2,1.1c0.5,0.1,1.1-0.4,1.6,0.1c-1.2,2.1-2.2,2.3-4.8,0.7h-0.5c-1,1.6-2.3,1-3.6,0.5
	h-0.4c-0.9,0.9-2,0.4-3,0.5h-4.1c-0.6,1.3-1.5,0.9-2.4,0.3c-0.7,0.1-1.4,0-2-0.3c-0.6-0.3-1.1-0.6-1.6-0.9h-0.1
	c0,0.2-0.1,0.3-0.2,0.5c-0.1,0.1-0.1,0.2-0.2,0.2l-0.1,0.1c-0.2,0.2-0.5,0.3-0.8,0.4c-0.4,0.1-0.9,0-1.3-0.2c-1.8-2.1-3,0.8-4.5,0.3
	c-0.4-0.1-0.7,0.1-0.6,0.5c0.5,1.1,0,1.4-1,1.3s-2.3,0.3-2.4-1.4c0.1-0.2,0.3-0.5,0.4-0.7c0.2-1.4,0.5-2.8-0.7-3.9
	c-0.7-0.5-1.4-1.3-2.4-0.6c-0.1,0.5-0.2,1-0.4,1.6l-0.6,0.4l-0.8-0.2c0,0.6-0.1,1.3-0.1,1.9c0,0.1,0.1,0.3,0.2,0.3l0.4,0.2l-0.5,0.3
	c-1,0.6-2.1,0.3-3.1,0.5c-0.2,2.3-1,4.7,1.6,6.4c0.8-1.2-0.6-1.8-0.6-2.8c0-1.1,0.2-2,1.5-2.2s1.5,0.3,1.3,1.4
	c-0.1,0.8,0.5,0.6,1,0.5c0.7-0.1,1.5-0.1,2.2-0.1c0.7-0.1,1.3,0.4,1.4,1c0,0,0,0,0,0.1c0.1,0.6-0.2,1.2-0.7,1.5
	c-0.7,0.4-1.1-0.3-1.4-0.7c-0.6-0.9-1.3-1.1-2.1-0.5c-0.5,0.4-1.1,1,0.1,1.3c0.5,0.1,1.1-0.2,1,0.6c-0.1,0.5-0.5,0.9-1,1
	c-0.7,0.1-1.5,0.1-2.2,0.1c-0.8-0.1-1.5,0.4-1.8,1.1c-0.3,0.9,0.4,1.2,1,1.4c0.8,0.3,1.3,0.8,1.1,1.7c-0.3,1.2-1.2,0.6-1.9,0.4
	c-0.5-0.1-1,0.1-1.4,0.4c-0.6,0.4-1.4,0.3-1.8-0.2c-0.5-0.5-0.2-1.1,0-1.6c0.5-1.1,1.2-2.5,0-3.2s-2.3-2.5-4.3-1.1
	c-0.8,0.6-1.9,0-2.8-0.6c-0.5-0.4-1.3-0.3-1.8,0.2c0,0,0,0,0,0c-0.5,0.6-0.7,1.4-0.5,2.1c0.1,0.5,0.5,0.8,0.9,0.5
	c2.4-1.8,3.6,1.7,5.7,1.2c0.3-0.1,0.5,0.7,0.3,1.1c-0.6,1.4-0.2,2.8,0,4.1c-0.3,0.1-0.5,0.2-0.6,0.1c-1.8-2.1-3.2-1.9-4.3,0.7
	c-0.3,0.7-0.4,1.7-1.4,1.4c-1.1-0.3-0.9-1.7-1.3-2.5s0.6-0.8,1.1-0.8c0.7-0.1,1.2-0.6,1.3-1.3c0.1-0.4-0.2-0.9-0.6-1
	c-0.7-0.3-1.5-0.1-2,0.5c-0.3,0.5-0.7,0.9-1.2,1.2c-1.5,0.9-2.4,0.5-2.5-1.3c0-0.6-0.1-1.2-0.2-1.7c-0.1-0.5-0.6-0.8-1.1-0.8
	c-0.6,0.1-0.5,0.6-0.4,1c0.3,1.2-0.7,2.4,0,3.7c0.1,0.2-0.1,0.7-0.4,0.8c-0.5,0.3-0.7-0.1-0.9-0.4c-0.5-0.6-1-1.3-1.5-2
	c-0.6-1.2-1.2-1.3-2.1-0.4c-0.3,0.3-0.8,0.8-1.2,0.2c-0.4-0.5-0.3-1.2,0.3-1.6c0,0,0,0,0,0c1.8-1.5,2.5-4.2,5.3-4.6
	c0.6-0.1,0.9-0.9,0.3-1.1c-2.1-0.8-1.4-2.4-1-3.7c0.2-0.6-0.1-1.2-0.6-1.5l-0.8-0.2h-0.8l-0.9,0.2c-0.1,0.1-0.2,0.2-0.4,0.2
	c-0.4,0.1-0.8,0.1-1.1-0.2l-0.5-0.2h-0.6l-8.8,0.5c-0.2,0-0.3,0-0.5-0.1c-1.4-0.5-1.9-4.4-0.7-5.4c0-0.7-0.1-1.1-1.1-1.3
	c-2.1-0.4-3-2.4-2.1-4.4c0.8,0.1,0.5,1,0.9,1.3c0.7,0.4,1.8,0,1.5-0.3c-1.5-1.4,1.3-3.6-1-4.8c-0.3-0.2-0.1-0.8,0.2-1.1
	c0.4-0.3,0.9-0.5,1.4-0.3c1.8,0.3,2.1,2,3.1,3c0.2,0.2,0.3,0.6,0.4,0.9c1.9-1.8,3,0.9,4.6,0.9c0.5,0.1,0.9-0.3,1-0.8c0,0,0,0,0-0.1
	c0.1-0.6-0.3-1.2-0.9-1.3c0,0,0,0-0.1,0c-2.8-0.1-3.9-2.5-5.7-4.1c-0.2-0.2-0.4-0.4-0.5-0.5c-0.8-0.6-3-0.1-2.4-1.3s1.8-3.1,3.9-3
	c0.9,0.1,1.8-0.4,2.2-1.3c0.3-0.7,1-1,1.7-0.7c0.2,0.1,0.3,0.2,0.4,0.3c0.6,0.7-0.4,1.1-0.7,1.6s-1.6,1-0.9,1.8s1.7,0.1,2.4-0.5
	c0.3-0.3,0.8-0.6,0.8-0.9c0.7-4,3.8-2.4,6.1-2.5c1.2,0,1.8-0.2,1.9-1.3c-0.3,0-0.6,0-0.9-0.1c-0.6-0.1-1.2-0.3-1.7-0.7
	c-0.2-0.2-0.4-0.3-0.6-0.5c-0.6-0.7-1-1.4-1.3-2.3c-0.2-0.4-0.4-0.9-0.5-1.3L278,105c-0.3,0.6-0.7,1.2-1,1.8
	c-0.8,1.5-1.7,1.6-2.5,0.1c-1.1-2-1.8-1.7-2.7,0.2c-0.6,1.4-1.4,1.5-2.3,0.2c-0.7-1-1.4-2.1-2.1-3.1c-0.2-0.4-0.5-0.8-0.9-0.8
	c0,0.1-0.1,0.2-0.2,0.2c-0.1,0.1-0.3,0.2-0.4,0.2c-0.1,0.3,0.1,0.6,0.1,0.9c0,2.4-1.3,3.6-4,3.7c-3.8,0.1-4.7-0.5-5-3.3
	c0-0.1,0.2-0.2,0.4-0.3l1-0.8c-1.4-0.9-1-2.4-0.7-3.6c0.4-1.1,1.6-1.8,2.8-1.6c2.1,0.3,4.8-1.2,5.7,2.4c0.1,0.7,1.5,0,2.3,0
	c-0.3-1.8-0.5-3.6-0.8-5.7c1,0.4,1.4,1.6,2.6,1.3c0.4-0.1,0.8,0,1,0.4c0,0.1,0.1,0.2,0,0.4c-0.2,2.6,1.3,1.8,2.5,1.2
	s2.5-0.4,3.7-0.5c0.7-0.1,1.5-0.2,1.4-1.1s-0.9-0.9-1.6-0.8c-1.1,0.2-2.1,0.8-2.6-0.9c-0.4-1.4-0.5-2.6,0.6-3.7
	c0.9-0.7,2.3-0.7,3.2,0.1c1.1,0.7,1.8,1,2.7-0.2c0.4-0.5,0.9-0.2,1.4,0c2,1,2.1-1.4,3.3-1.9s-0.5-1.2-1-1.6
	c-0.4-0.3-0.5-0.7-0.3-1.1c0.3-0.3,0.7-0.5,1.1-0.3c0.6,0.2,1.1,0.5,1.4,1c0.4,0.6,0.9,1,1.7,0.7c0.7-0.2,1-1,0.8-1.7
	c-0.4-1.5,0.2-1.9,1.5-1.5c0.7,0.2,1.3,0.1,1.9-0.3c0.9-0.4,1.5-0.2,1.7,0.7c0.3,1.7,1.4,1.9,2.7,1.6c0.1,1-0.9,0.8-1,1.4
	c-0.2,0.5,0,1,0.4,1.3c0.3,0.2,0.9,0.6,1.1,0.2c0.8-1.6,2-1.8,3.7-1.7c0.7,0,1.2-0.6,1.1-1.2c0-0.3-0.1-0.6-0.3-0.8
	c-1.4-1.7-0.5-1.2,0.9-1.8c3-1.2,5.5-0.4,8.2,0.5c3.6,1.2,4.8,0.5,5.6-3.2c3,3.2,2.7,6.5-0.9,9.3c-1.6,1.1-2.1,3.3-1,4.9
	c0.1,0.2,0.2,0.3,0.4,0.5c0.4,0.6,0.9,1.1,0.4,1.7c-0.9,1.1-0.9-0.2-1.4-0.5s-0.6-0.2-0.8-0.1c-0.2,0.2-0.3,0.5-0.4,0.8
	c0.3,0.2,0.4,0.5,0.5,0.8c0.1,0.3,0.1,0.6,0,0.9c-0.1,0.5,0,1,0.2,1.5c0.1,0.1,0.2,0.2,0.3,0.3c0.9-0.7,1.8-1.3,2.9-1.7
	c0.3-0.1,0.7-0.2,1-0.3c0.3,0,0.6,0,0.9,0c0.3,0,0.6,0.1,0.9,0.3c0.2,0.1,0.4,0.2,0.6,0.3c0.7,0.4,1.3,0.9,1.8,1.5
	c0.3-0.8,0.9-1.4,1.6-1.7c0.3-0.1,0.7-0.2,1.1-0.1c0.4,0.1,0.9,0.2,1.3,0.5c1.1,0.6,1.3-0.8,2-0.7c-0.7-0.2-1.4-0.5-2-0.8
	c-0.6-0.4-1.7-0.7-0.8-1.9c0.4-0.6,0.3-1.4-0.3-1.9c-0.1,0-0.1-0.1-0.2-0.1c-0.8-0.6-1.3,0.2-1.9,0.7c-2.6,2.4-4.9,2-6.1-1.2
	c-0.5-1.3-0.5-2.4,1-3.2c2.6-1.5,4.8-3.2,3.4-6.7c0-0.2,0-0.5,0.1-0.7c0.5-1.2,5.8-2.3,6.8-1.4C329.8,84.3,329.6,85.8,327.7,86.8
	L327.7,86.8z M316.9,108.6c-0.1,0.2-0.1,0.4-0.2,0.4c-0.8,0.3-1.5,0.2-1.8-0.9C315.6,108,316.3,108.1,316.9,108.6L316.9,108.6z
	 M267.6,108.9h-0.4c0-0.1,0-0.3,0-0.4c0,0,0.2-0.1,0.2,0C267.5,108.7,267.5,108.8,267.6,108.9L267.6,108.9z M331.5,87.4
	c-0.1,0-0.3-0.2-0.6-0.3c0.2-0.2,0.5-0.5,0.8-0.7c0.1,0,0.3,0.2,0.5,0.3C331.9,87,331.7,87.2,331.5,87.4z"/>
<path class="st4" d="M334,135l0.1-0.2l0.1,0.2L334,135L334,135z M346.3,139.3c0,0,0.2-0.1,0.2,0c0.1,0.1,0.1,0.2,0.1,0.4h-0.4
	C346.2,139.6,346.2,139.4,346.3,139.3z M328.9,110.1c-0.1-0.1-0.2-0.1-0.4-0.2l0.2-0.3c0.1,0.1,0.1,0.2,0.2,0.3
	C329,109.9,328.9,110.1,328.9,110.1z M351.2,142.6v-3.1V142.6z M310.2,79.8h-1.1H310.2z M306.1,80.1c-1,0-2.1,0.1-3.1,0.2
	C304.1,80.2,305.1,80.2,306.1,80.1z"/>
<path class="st3" d="M351.9,94.7c-0.2-0.7,0.3-1.7-0.4-2.1s-1.2,0.6-1.7,1.1c-0.2,0.2-0.5,0.3-0.8,0.3c-0.4-0.1-0.3-0.4-0.2-0.8
	c0.7-3.5-0.2-5-3.5-5.8c-0.6-0.2-1.5-0.2-1.8-0.7c-1.7-2.4-2.7,0.1-3.8,0.6c-1.3,0.6,0.1,1.5,0.2,2.3c0.1,0.4,0.6,0.9-0.1,1.4
	c-1.1-0.5-1.5-1.6-2.2-2.6c-0.5-0.8-0.1-2.3-1.6-2.1c-1.2,0.2-2.1,1.2-2.1,2.5c-0.2,1.2-0.3,1.6-1.7,0.7c-0.8-0.5-2.7-2.2-3.7-0.1
	c-0.3,0.9-0.5,1.8-0.4,2.8c0.1,1.2-0.5,3.7,2.4,2.8c0.6-0.3,1.4,0.1,1.6,0.7c0,0.1,0.1,0.2,0.1,0.3c0.1,1.5,0.8,1.6,2.2,1.5
	c1-0.1,1.8,1.6,2.9,0.9c1.3-0.8,2-0.5,2.6,0.7c0.2,0.6,0.8,0.9,1.4,1c3,0.1,2.7,1.5,1.6,3.6c-0.6,1.3,0,2.8,1.2,3.4
	c1.1,0.7,2.4,0.3,3-1.3c0.7-1.9,2-2.1,3.4-0.7c0.4,0.4,0.9,0.7,1.5,0.7l0.1-6.5C350.9,97.8,352.4,96.2,351.9,94.7L351.9,94.7z
	 M349.6,117.6c-1.8,0.8-3.2,0.8-3.8-1.5c-0.2-0.6-0.6-1.6-1.5-1.4c-1.2,0.2-0.8,1.4-1,2.3c0,0.2-0.1,0.5-0.1,0.8s0,0.5,0.1,0.7
	c2.5,0.7,5,1.1,7.6,1v-1.8C350.5,117.6,350,117.4,349.6,117.6z M335.6,81.7c-0.6,0.6-1.2,1.5,0.1,1.6c0.9,0.1,1.4-1.2,1.6-2.2
	c0-0.2,0-0.3,0-0.5l-1-0.2c0,0.2-0.1,0.3-0.1,0.5C336,81.3,335.8,81.5,335.6,81.7L335.6,81.7z M324.2,79.4c-2.8-0.2-5.7-0.1-8.5,0.2
	C318.5,79.5,321.4,79.9,324.2,79.4z M350.9,136.2c0,0.8,0,1.6,0.1,2.4c0,0.3,0.1,0.5,0.2,0.8c-0.1-2.2-0.2-4.3-0.3-6.5
	C351,134.1,350.9,135.1,350.9,136.2z"/>
<path class="st3" d="M351.2,139.5c-0.1-0.3-0.1-0.5-0.2-0.8C351.1,138.9,351.1,139.2,351.2,139.5z M351.3,89.1
	c0.1,0.9,1.1,0.4,1.6,0.6v-1.5C352.2,88.2,351.2,88.1,351.3,89.1z M351,147.8c0.2-0.9,0.3-1.7,0.3-2.6v-1.3c0-0.4,0-0.9-0.1-1.3
	C350.6,144.3,351,146,351,147.8z"/>
<path class="st3" d="M351.3,143.9c0-0.4,0-0.9-0.1-1.3C351.3,143,351.3,143.4,351.3,143.9z M330.3,79.6c-0.8-0.2-1.6-0.3-2.5-0.3
	c-0.4,0-0.8,0-1.2,0c-0.4,0-0.8,0.1-1.2,0.1C327,79.8,328.6,79.5,330.3,79.6L330.3,79.6z"/>
<path class="st3" d="M326.6,79.2c-0.4,0-0.8,0.1-1.2,0.1C325.7,79.3,326.2,79.3,326.6,79.2z M350.1,109.6c0,0.8,0.7,0.7,1.3,0.8
	v-1.5C350.8,108.9,350.1,108.8,350.1,109.6z M309.1,79.8l-3,0.3C307.1,80,308.1,80.3,309.1,79.8z M306.1,80.1l3-0.3L306.1,80.1z
	 M310.6,79.8c-0.1,0-0.1-0.1-0.2-0.1c-0.1,0-0.2,0-0.2,0.1L310.6,79.8z"/>
<path class="st3" d="M310.4,79.7c-0.1,0-0.2,0-0.2,0.1C310.2,79.7,310.3,79.7,310.4,79.7z M301.1,129.4L301.1,129.4L301.1,129.4
	L301.1,129.4L301.1,129.4z M301.1,129.4L301.1,129.4L301.1,129.4z"/>
<path class="st3" d="M303.5,117.4c0.2-0.5,0.5-0.3,0.8-0.1l0.3,0.2c0.1,0.1,0.2,0.1,0.3,0.2c0.1-0.2,0.3-0.4,0.5-0.6
	c-2-2.8-4.3-0.1-6.6-0.8c0.6,1.5,1.4,1.7,2.5,1.2c0.5-0.2,1-0.5,1.3,0.2s-0.3,0.9-0.7,1.2c-1.6,1.2-3.9,0.9-5.2-0.6
	c-1.3-1.6-1-3.9,0.6-5.2c0.1,0,0.1-0.1,0.2-0.1c0.4-0.3,0.9-0.5,1.3-0.7l-1.3-0.5c-0.2,1-0.7,1.3-1.5,0.5c-0.7-0.6-1.6-0.9-2.6-0.7
	c-0.6,0-0.8,0.5-0.9,1.1s-0.1,0.9,0.3,1.1s0.8,0.1,1.1-0.3c1.4-1.6,1.4-0.1,1.4,0.7s0.5,1.8-0.2,2.4c-0.9,0.7-0.8-0.7-1.4-0.9
	c-0.3-0.1-0.6-0.3-0.9,0.1c-0.4,0.6-0.4,1.3-0.1,1.9c2.3,2.6-0.1,2-1.4,2.1c-1.2,0.2-2.4,0.1-3.4-0.5c2.3-3,1.2-6,0.2-9
	c-1.2-0.5-2-1.6-2.2-2.9l-1.9,0.8c-0.1,1.2-0.7,1.3-1.9,1.3c-2.2,0-5.4-1.5-6.1,2.5c-0.1,0.3-0.5,0.7-0.8,0.9
	c-0.7,0.6-1.7,1.3-2.4,0.5s0.5-1.2,0.9-1.8s1.3-1,0.7-1.6c-0.5-0.5-1.3-0.5-1.9,0c-0.1,0.1-0.2,0.3-0.3,0.4
	c-0.4,0.9-1.3,1.4-2.2,1.3c-2.1-0.1-3.2,1.8-3.9,3s1.6,0.7,2.4,1.3c0.2,0.2,0.4,0.3,0.5,0.5c1.7,1.6,2.9,4,5.7,4.1
	c0.6,0.1,1,0.6,1,1.2c0,0,0,0,0,0.1c0,0.5-0.4,0.9-0.9,0.9c0,0,0,0-0.1,0c-1.6,0-2.7-2.7-4.6-0.9c-0.1-0.3-0.2-0.7-0.4-0.9
	c-1-1-1.4-2.7-3.1-3c-0.5-0.2-1,0-1.4,0.3c-0.3,0.3-0.5,0.9-0.2,1.1c2.3,1.1-0.4,3.3,1,4.8c0.3,0.3-0.8,0.8-1.5,0.3
	c-0.5-0.3-0.1-1.2-0.9-1.3c-0.9,2-0.1,4,2.1,4.4c1,0.2,1,0.6,1.1,1.3l1-0.1c0.2-2,1.9-1.8,3.2-2c1-0.2,2.2,0.1,2.7-1.5
	c0.3-1,1.8-0.9,2.9-1.4c0.1,2.6-3.7,2.7-2.8,5.3l2.1-0.7c0.1-0.9,0.4-1.6,1.4-1.6s1.1,0.8,1.1,1.5c1.1,0.4,2.1,1.4,3.3,0.2
	c0.2-0.2,0.8-0.1,1.1,0.1c1.8,1.1,0.9,3,1,4.5c0.1,1.2-1.3,0.5-2,0.8c0.5,0.3,0.8,0.9,0.6,1.5c-0.3,1.4-1.1,2.9,1,3.7
	c0.5,0.2,0.3,1-0.3,1.1c-2.8,0.3-3.5,3.1-5.3,4.6c-0.5,0.4-0.6,1.1-0.3,1.6c0,0,0,0,0,0c0.4,0.6,0.9,0.1,1.2-0.2
	c0.9-0.9,1.5-0.8,2.1,0.4c0.4,0.7,0.9,1.4,1.5,2c0.2,0.4,0.5,0.8,0.9,0.4c0.2-0.2,0.5-0.6,0.4-0.8c-0.6-1.2,0.4-2.5,0-3.7
	c-0.1-0.4-0.2-0.9,0.4-1c0.5-0.1,1,0.2,1.1,0.8c0.1,0.6,0.2,1.2,0.2,1.7c0.1,1.8,1,2.2,2.5,1.3c0.5-0.3,0.9-0.8,1.2-1.2
	c0.5-0.6,1.3-0.9,2-0.5c0.4,0.1,0.7,0.6,0.6,1c-0.1,0.7-0.6,1.2-1.3,1.3c-0.5,0.1-1.5,0-1.1,0.8s0.2,2.2,1.3,2.5
	c1,0.2,1.1-0.7,1.4-1.4c1.1-2.7,2.5-2.9,4.3-0.7c0,0.1,0.3-0.1,0.6-0.1c-0.2-1.4-0.6-2.7,0-4.1c0.2-0.4,0-1.1-0.3-1.1
	c-2.1,0.5-3.3-3-5.7-1.2c-0.4,0.3-0.8,0-0.9-0.5c-0.2-0.8,0-1.5,0.5-2.1c0.4-0.6,1.2-0.7,1.8-0.3c0,0,0,0,0,0c0.9,0.6,2,1.1,2.8,0.6
	c2-1.4,3.1,0.4,4.3,1.1s0.5,2.1,0,3.2c-0.2,0.5-0.5,1.1,0,1.6c0.4,0.6,1.2,0.7,1.8,0.2c0.4-0.3,0.9-0.5,1.4-0.4
	c0.7,0.1,1.5,0.7,1.9-0.4c0.2-0.9-0.3-1.4-1.1-1.7c-0.7-0.2-1.3-0.5-1-1.4c0.2-0.8,1-1.2,1.8-1.1c0.8,0,1.5,0,2.2-0.1
	c0.5-0.1,0.9-0.5,1-1c0.1-0.8-0.5-0.5-1-0.6c-1.2-0.3-0.6-0.9-0.1-1.3c0.8-0.6,1.5-0.4,2.1,0.5c0.3,0.5,0.7,1.1,1.4,0.7
	c0.5-0.3,0.8-0.9,0.7-1.5c-0.1-0.7-0.7-1.2-1.4-1.1c0,0,0,0-0.1,0c-0.7,0-1.5,0.1-2.2,0.1c-0.5,0.1-1.1,0.3-1-0.5
	c0.2-1.1-0.1-1.6-1.3-1.4s-1.5,1.1-1.5,2.2c0,1,1.4,1.6,0.6,2.8c-2.6-1.7-1.8-4.1-1.6-6.4c-0.8-0.4-0.7-0.8-0.4-1.6
	c0.1-0.1,0.1-0.3,0.2-0.4c0.1-0.3,0.1-0.5,0.1-0.8c0-0.3-0.1-0.5-0.2-0.8c-0.2-0.4-0.4-0.7-0.8-1h-0.1c0.4,2.1-0.8,2-2,2
	c-0.4,0-0.8,0-1.1,0.1c0.5,1.7,1.9,0.6,2.8,0.8c-1.3,2.1-2,2.2-5.2,0.7l-0.1-0.1c-0.2,0.6-0.7,0.9-1.3,1c-0.2,0-0.4,0-0.5,0
	c-0.2,0-0.5-0.1-0.7-0.1c-1.2-0.3-0.3-1.2-0.4-1.9s0.4-1.8-0.7-1.8c-0.8,0-0.7,1.1-0.5,1.6c0.8,2.4-0.9,2.1-2.3,2.2
	c-0.3,0.4-1,0.7-0.8,1.4s0.3,1.6-0.6,1.9c-1.1,0.4-1.3-0.7-1.8-1.3c-0.3-0.6-0.5-1.3-0.4-1.9c-0.9-1.5,0.2-3.2-0.5-4.8
	c0.5-0.2,1-0.7,1.5-0.7c2.3,0.3,4.6,0.3,6.8-0.1c1.1-0.2,1.5,0.7,1.7,1.7s-0.5,1.9,0.5,2.7h0.1c0.4-1-0.3-2,0.3-3
	c1-1.7,2.6-1.9,5.2-0.5l0.1,0.1c1.4-1.4,2.9-1.1,4.4-0.7l0.8,0.2c0.2,0.1,0.5,0.1,0.8,0.1c1-0.7,1.7,0,2.4,0.6
	c1.8-1.7,4.4-1.9,6.5-0.6c1.6,0.9,1.7-1.3,2.9-0.7c-0.6-0.7-2.9-0.7-0.8-2.2c-0.3-0.2-0.6-0.4-0.8-0.6c-0.2-0.2-0.5-0.4-0.7-0.7
	c-0.6-0.9-1.2-1.8-1.5-2.8c-0.4-0.9-1.5-2.4-2-1.2c-1.4,3.2-3.3,3-5.8,2c-0.2-0.1-0.5-0.2-0.7-0.2c0.1-0.7,2-1.2,0.2-2.2
	c-1-0.6,0.6-0.4,0.5-0.8c-0.9,0-1.8,0-2.6-0.2c-0.7-0.2-1.2-0.9-1-1.6C303.4,117.6,303.4,117.5,303.5,117.4L303.5,117.4z"/>
<path class="st3" d="M318,126.1c-0.3-0.2-0.6-0.4-0.8-0.6C317.4,125.7,317.7,125.9,318,126.1z M305.2,99.9c1.5-1.7,3.9-2.3,6-1.5
	c0.7,0.1,1.3,0.2,2,0.3c0-0.3,0.2-0.5,0.4-0.8c0.2-0.2,0.4-0.2,0.8,0.1s0.5,1.6,1.4,0.5c0.5-0.7,0.1-1.1-0.4-1.7
	c-1.3-1.4-1.2-3.7,0.2-5c0.1-0.1,0.3-0.2,0.5-0.4c3.5-2.8,3.8-6.1,0.9-9.3c-0.8,3.7-2,4.3-5.6,3.2c-2.7-0.9-5.2-1.7-8.2-0.5
	c-1.4,0.6-2.3,0.2-0.9,1.8c0.4,0.5,0.4,1.2-0.1,1.7c-0.2,0.2-0.5,0.3-0.8,0.3c-1.7-0.1-2.9,0.1-3.7,1.7c-0.2,0.3-0.8,0-1.1-0.2
	c-0.4-0.3-0.6-0.8-0.4-1.3c0.1-0.6,1.1-0.4,1-1.4c-1.4,0.3-2.5,0.1-2.7-1.6c-0.2-1-0.9-1.2-1.7-0.7c-0.6,0.3-1.3,0.4-1.9,0.3
	c-1.3-0.4-2,0-1.5,1.5c0.2,0.7-0.2,1.4-0.8,1.7c-0.8,0.3-1.3-0.1-1.7-0.7c-0.3-0.5-0.8-0.8-1.4-1c-0.4-0.2-0.9,0-1.1,0.3
	c-0.3,0.4-0.1,0.8,0.3,1.1c0.5,0.5,2.1,1.2,1,1.6s-1.4,2.9-3.3,1.9c-0.5-0.2-1-0.5-1.4,0c-0.9,1.2-1.6,0.9-2.7,0.2
	c-0.9-0.8-2.2-0.8-3.2-0.1c-1.1,1-1,2.3-0.6,3.7c0.5,1.6,1.6,1.1,2.6,0.9c0.7-0.2,1.5,0,1.6,0.8s-0.6,1-1.4,1.1
	c-1.2,0.1-2.5-0.2-3.7,0.5s-2.7,1.4-2.5-1.2c0-0.4-0.2-0.8-0.6-0.8c-0.1,0-0.2,0-0.4,0c-1.1,0.3-1.5-0.9-2.6-1.3
	c0.3,2.1,0.6,3.9,0.8,5.7h1c0.9-2,1.5,0.1,2.3,0.2h0.1l0.1-0.1c0.1-0.2,0.3-0.3,0.5-0.1h2.2c0.8,0,1.5,0.1,1.1,1.3
	c-0.2,0.6,0,1.3,0.8,1.2c0.5,0,0.9-0.5,0.9-1c0-0.1,0-0.2-0.1-0.3c-0.3-0.9,0.1-1.3,0.9-1.2s2.1-0.5,2.2,1h0.1
	c1.7-1.5,3.5-2.1,5.5-0.4c0.7,0.5,1.1,1.3,0.9,2.2c-0.3,0.9-1.2,0.7-1.9,0.7l-2.1,0.1c0.4,1.3,1.2,1.6,2.3,1.2
	c0.8-0.3,1.5-0.5,1.4,0.8l1-1c0-0.2-0.1-0.5-0.1-0.7c-0.3-2.1,1.1-4,3.2-4.3c0,0,0.1,0,0.1,0c0.2,0,0.3,0,0.5,0
	c1,0.1,1.9,0.5,2.6,1.1l0.6,0.4c0.1-0.8,0.5-1.5,1.2-2c0.2-0.1,0.4-0.3,0.6-0.4c0.4-0.2,0.7-0.3,1.1-0.4l0.5-0.2
	c1.2-0.4,1.7,1.8,3.1,2c-0.2,0.3-0.3,0.6-0.5,0.8c-2.3,1.6-2.3,2.4,0.2,3.7c0.5,0.2,0.2,0.7,0.1,1.1c0.5,1,1,0.5,1.5-0.1
	c0.3-0.4,0.8-0.7,1.3-0.3c0.4,0.3,0.5,0.9,0.2,1.3c-0.1,0.1-0.1,0.1-0.2,0.2c-1.8,1.3-1.5,3.3-1.7,5.1l0.4,0.7
	c0.1,0.2,0.3,0.5,0.5,0.8c0.8-0.9,1.3-2.3,2.8-2.4l-0.9-6.7C303.9,103.6,303.7,101.6,305.2,99.9L305.2,99.9z"/>
<path class="st3" d="M313.2,98.7c0-0.3,0.2-0.5,0.4-0.8C313.3,98.2,313.2,98.4,313.2,98.7z"/>
<path class="st5" d="M279.2,102.8c0.1-0.1,0.2-0.3,0.3-0.4c0.3-0.2,0.6-0.3,0.9-0.2c-0.1-1.5-1.3-1-2.2-1s-1.2,0.3-0.9,1.2
	c0.2,0.5,0,1-0.5,1.2c-0.1,0-0.2,0.1-0.3,0.1c-0.8,0.1-1-0.6-0.8-1.2c0.4-1.2-0.4-1.3-1.1-1.3s-1.5,0-2.2,0l-0.5,0.1l-0.1,0.1h-0.1
	l-0.3,0.4c0.1,0.2,0.2,0.5,0.3,0.7c0.3,0.5,0.7,1.1-0.1,1.4c-0.5,0.1-0.8-0.5-0.9-1c0-0.3,0-0.7,0.1-1l-1.4-0.6h-1
	c-0.8,0-2.1,0.7-2.3,0c-0.8-3.5-3.6-2.1-5.7-2.4c-1.2-0.2-2.4,0.4-2.8,1.6c-0.4,1.1-0.8,2.6,0.7,3.6l4.2,2c-1.4,1.3-2.5,0.8-3.4-0.1
	c-0.5-0.5-0.9-1.2-1.8-1.1c-0.1,0.1-0.4,0.2-0.4,0.3c0.3,2.8,1.2,3.4,5,3.3c2.7-0.1,4-1.3,4-3.7c0-0.3-0.2-0.7-0.1-0.9
	c-0.4,0-0.5-0.5-0.8-0.8l-3.1-1.1c-0.4-0.1-0.8-0.4-0.7-0.8c0.1-0.4,0.5-0.7,0.9-0.7c0.1,0,0.2,0,0.3,0.1c1.1,0.7,2.8,0.9,3.4,2.4
	c0.3,0.1,0.6,0.3,0.6,0.5c0.4,0,0.7,0.4,0.9,0.8c0.7,1,1.4,2.1,2.1,3.1c0.9,1.3,1.7,1.3,2.3-0.2c0.8-1.9,1.6-2.1,2.7-0.2
	c0.8,1.5,1.7,1.5,2.5-0.1c0.3-0.6,0.6-1.2,1-1.8l1-1.7C279,103.2,279.1,103,279.2,102.8z M278,105l1-1.7L278,105z"/>
<path class="st3" d="M321.5,84.3c-0.1,0.2-0.2,0.5-0.1,0.7c1.4,3.6-0.8,5.3-3.4,6.7c-1.5,0.8-1.4,2-1,3.2c1.2,3.2,3.5,3.6,6.1,1.2
	c0.5-0.5,1-1.3,1.9-0.7c0.7,0.3,0.9,1.1,0.6,1.8c0,0.1-0.1,0.1-0.1,0.2c-0.9,1.2,0.2,1.5,0.8,1.9c0.6,0.4,1.3,0.6,2,0.8l1.4,0.6h1.2
	c0.1-0.2,0.2-0.3,0.4-0.2l1-0.4c-0.8-1.8-1.3-3.8-3.9-4.2c-1.2,0-2.2-1.1-2.1-2.3c0-0.4,0.1-0.7,0.3-1.1c0.6-1.3,0.5-1.9-0.9-2.1
	c-0.7-0.1-1.4-0.1-1.4-1.1c-0.1-0.9,0.5-1.7,1.3-1.9c0.7-0.3,1.4-0.6,2-0.9c1.9-1,2.1-2.5,0.6-3.9C327.3,82,322,83.1,321.5,84.3
	L321.5,84.3z"/>
<path class="st5" d="M302.9,114.7c-0.2-0.3-0.4-0.6-0.5-0.8l-0.4-0.7c-0.2-0.2-0.5-0.3-0.8-0.4c-0.8-0.3-1.7-0.5-2.5-0.4
	c-0.5,0.2-0.9,0.4-1.3,0.7c-1.7,1.2-2.1,3.5-0.9,5.1c0,0.1,0.1,0.1,0.1,0.2c1.3,1.5,3.6,1.7,5.2,0.6c0.4-0.3,0.9-0.6,0.7-1.2
	s-0.8-0.4-1.3-0.2c-1.1,0.5-1.9,0.3-2.5-1.2c2.3,0.7,4.7-2,6.6,0.8c0.4,0.1,1,0.2,0.7,0.7c-0.3,0.7-0.8,0.1-1.2-0.1
	c-0.1,0-0.2-0.1-0.3-0.2l-0.3-0.2c-0.3-0.2-0.6-0.4-0.8,0.1c-0.3,0.7,0,1.5,0.7,1.8c0.1,0,0.2,0.1,0.3,0.1c0.9,0.2,1.8,0.2,2.6,0.2
	c2.9-1.2,3.1-2.1,1-4.3c-0.7-0.3-1.6-0.2-1.8-1.3c0.9-0.6,1.3,0.3,1.9,0.6c0.9,0.2,1-1.4,2-0.8s0.5,1.5,0.5,2.2c0,1.6,0.2,3,2,3.5
	h1.5l1.2-0.7l0.7-0.4c0-0.2,0-0.5-0.1-0.7c-1.5-0.2-2.1-0.7-2.1-2.4c0-1.9,1.6-1.2,2.3-1.9c-0.3-0.3-0.5-0.6-0.8-0.9L315,112
	c-0.2-0.2-0.5-0.4-0.7-0.6c-1-0.8-2.4-0.7-3.4,0.1h-0.1c-0.8,0.8-1.3,2.5-2.7,0.6h-2.5C304.2,112.4,303.7,113.7,302.9,114.7z
	 M315.4,118.8l0.7-0.4L315.4,118.8z"/>
<path class="st5" d="M304.6,117.6c0.1,0.1,0.2,0.1,0.3,0.2C304.8,117.7,304.7,117.7,304.6,117.6z M342.9,117.2
	c-0.4-0.2-0.4-0.5-0.3-0.9c-0.1-0.6-0.2-1.2-0.2-1.8v-0.9c0-0.6,0.1-1.2,0.1-1.8c0-0.9-0.2-1.8-0.6-2.7h-0.2l-0.2-0.1
	c-1.2,0.5-3.1,0-3.3,2.1c0.4,0.1,0.8,0.1,0.8,0.6c0.9,1.2,0.3,2.6,0.5,3.8c0.1,1-0.2,2.2-1.1,2.2s-1.3-1.3-1.2-2.2
	c0.2-2.1-0.7-3.3-2.8-3.7l-1.9,0.2l-1,0.4c-1.1,0.5-2-0.5-3.1-0.5c-0.2,0-0.3,0.1-0.5,0.1c-0.5,0.2-0.7,0.7-0.5,1.2c0,0,0,0,0,0
	c0.2,0.7,0.1,1.5-0.7,1.5s-1-0.8-0.7-1.5c0.6-1.4-0.7-0.9-1.2-1.2l-0.2,0.1l-0.2-0.1c-0.7,0-1.3,0.1-2,0.3c-0.9,0.3-0.6,0.8,0.5,2.6
	c0.3,0.5,0.6,1,0.9,1.5c0.6,1,0.9,2.5,2,2.7c1.4,0.1,1.4-1.7,2.1-2.5v-0.1l0.3-0.8c0.1-0.3,0.2-0.5,0.3-0.8c0.2-0.5,0.6-1,1-1.4
	c0.7-0.7,1-0.2,0.9,0.6c0.6,0.5,1.4,0.4,1.9-0.1c0,0,0,0,0.1-0.1c0.4-0.4,0.8-1,1.4-0.4c0.2,0.2,0.2,0.4,0.2,0.7
	c0,0.9-0.6,0.8-1.2,0.9c-0.3,0-0.7,0.1-1,0.1c-1,0.3-1.7,1.1-2,2.2l0.4,1c0.9,0.8,1.9,0.5,3,0.6c2.2,0.2,4.4-1,6.6,0h1.5l2-0.6
	c0-0.2,0-0.5-0.1-0.7L342.9,117.2z"/>
<path class="st5" d="M342.4,111.8c0,0.6,0,1.2-0.1,1.8C342.4,113,342.4,112.4,342.4,111.8z M342.5,116.4c-0.1-0.6-0.2-1.2-0.2-1.8
	C342.3,115.2,342.4,115.8,342.5,116.4z M292.7,168.1c-0.1-0.1-0.2-0.6-0.2-0.6c0.5-0.6,0.9-1.3,0.1-1.6c-1.1-0.4-2.3-0.4-3.4,0
	c-0.9,0.3-0.6,1.3-0.3,2c0.3,0.8,0.4,1.4-0.6,1.8c-0.5-1.1,0-2.2-0.3-3.2c-0.5-1.7-1.8-0.4-2.7-0.7c-0.3,1.1,0.7,2,0.4,3.1
	c-0.1,0.4-0.1,0.9-0.7,0.9s-0.7-0.4-0.7-0.9c-0.1-1.1-0.1-2.1-0.2-3.2h-6.4c-1.2,0-2.8,0.3-2.6,1.7s-0.2,2.8-0.1,4.2
	c0.2,1.9,1.8,1.7,3.1,1.6s2.8-0.4,3-2.1c0.1-1-0.6-1.3-1.5-1.3c-0.4,0-0.8,0.1-1.2,0s-1,0.3-1.2-0.7c2.2,0.4,3.3-0.7,3.7-2.6
	c1.3,0.3,1.1,1.2,1.1,2.1c0,1.9,0.5,2.6,2.9,2.6c1.8-0.1,3.6-1.1,5.5-0.1c1,0.4,2.1,0.2,2.8-0.6
	C293.8,169.6,293.6,168.8,292.7,168.1L292.7,168.1z M283.9,133.3c-0.2-1.5,0.8-3.4-1-4.5c-0.3-0.2-1-0.3-1.1-0.1
	c-1.2,1.2-2.2,0.2-3.3-0.2c-0.8,0.4-1.6,1.5-2.5,0.1l-2.1,0.7c-0.2,1.3,0.7,2.6,0,3.8c-0.4,0.7-0.7,0.9-1-0.1
	c-0.5-0.2-0.4-0.6-0.3-1v-1.1c-0.1-0.7-0.1-1.3-0.2-2l-0.5-0.2h-0.5c-1,0.3-2.3,0.2-1.3,1.9c0.4,0.7,0.4,2.1-0.5,2.2
	c-1.3,0.2-0.7-1.2-0.8-1.9s0.5-1.9-0.9-2.2l-1,0.1c-1.2,1-0.7,4.9,0.7,5.4c0.2,0.1,0.3,0.1,0.5,0.1l8.8-0.5c0-1.1-0.9-2.3,0-3.3
	c0.6-0.7,1.1,0.4,0.8,2.1l-0.2,1.2l0.5,0.2h1.5l0.9-0.2c-0.1-0.8-0.2-1.6-0.2-2.4c0-0.5-0.1-1.1,0.6-1.1s0.6,0.6,0.6,1.1
	c0,0.8-0.1,1.6-0.2,2.4l0.8,0.2C282.6,133.8,284,134.5,283.9,133.3L283.9,133.3z M279.4,134.2l0.9-0.2L279.4,134.2z M318,126.1
	c-2.1,1.5,0.1,1.5,0.8,2.2c-1.2-0.6-1.3,1.6-2.9,0.7c-2-1.4-4.7-1.1-6.5,0.6c1.3,1.1,0.9,2.6,0.7,3.9c0.1,0.3-0.1,0.6-0.4,0.7
	c0.1,1.7,1.4,1.3,2.4,1.4s1.5-0.2,1-1.3c-0.1-0.3,0.1-0.6,0.6-0.5c1.5,0.5,2.7-2.4,4.5-0.3c0.4,0.3,0.8,0.4,1.3,0.2
	c0.3-0.1,0.5-0.2,0.8-0.4l0.1-0.1c0.1-0.1,0.1-0.2,0.2-0.2c0.1-0.2,0.1-0.3,0.2-0.5c-1.1-0.4-0.6-1.3-0.5-2c0-0.3,0-0.8-0.1-0.9
	c-0.6-0.5-0.3-1.6-0.4-2.4c0-0.2-0.1-0.3-0.1-0.5c-0.1-0.2-0.2-0.3-0.4-0.4c-0.1,0-0.1-0.1-0.2-0.1C318.6,126.1,318.3,126,318,126.1
	L318,126.1z"/>
<path class="st5" d="M318,126.1c0.3,0,0.6,0,0.9,0.1C318.6,126.1,318.3,126,318,126.1z M320.2,133.3c-0.2,0.2-0.5,0.3-0.8,0.4
	C319.7,133.7,320,133.5,320.2,133.3z M319,158.4c-0.4-1-0.6-2.1-0.5-3.1c-0.1-1.2-0.8-2-2-1.6c-0.9,0.2-1.9,0.3-2.9,0.1
	c-1.2,0-2.6,0-3.8,0.1c-2.9,0.3,0.3,3-1.4,3.9c-0.3,0.2-0.4,0.6-0.2,0.9c0,0.1,0.1,0.1,0.2,0.2c0.3,0.1,0.6,0.2,1,0.2h1.8
	c0.9-1.1-0.7-2.6,0.6-3.8c1.6,1.1,0,2.6,0.6,3.7c1.2,0.1,2.5,0.5,2.9-1.2c-0.3-0.3-0.4-0.8-0.2-1.2c0-0.2,0-0.3-0.1-0.5
	c0-0.5,0-0.9,0.9-0.7c0.5,0.3,0.4,0.7,0.3,1.1c-0.2,2.8-0.2,2.9,2.7,1.9C318.8,158.5,318.9,158.4,319,158.4L319,158.4z M322.6,158.3
	c-0.2-1-0.2-2.1-0.1-3.1c0-0.2-0.1-0.4-0.1-0.6c0-0.1-0.1-0.2-0.1-0.3c-0.1-0.2-0.2-0.4-0.3-0.6c-0.1-0.1-0.2-0.2-0.2-0.3l-1.5,0.3
	c-0.2,0.1-0.4,0.3-0.6,0.5c0,0.1-0.1,0.1-0.1,0.2c0,0.1,0,0.2,0,0.3c0,0.2,0.1,0.4,0.2,0.6c0.6,1.1,0.3,2.4-0.7,3.1
	c0.6,0,0.8,0.6,1.4,0.5C321.2,158.9,322.9,159.2,322.6,158.3L322.6,158.3z"/>
<path class="st5" d="M320.3,153.8c-0.2,0.1-0.4,0.3-0.6,0.5C319.9,154.1,320.1,153.9,320.3,153.8z M273.2,158.4
	c-0.7,0.3-1.4,0.4-2-0.6c1.1-0.6,3.5,0.4,3.1-2.1c-0.6-0.4-1.2-0.8-1.9-1c-0.4-0.1-0.8-0.2-1.2-0.2c-0.2,0-0.5,0.1-0.7,0.2
	c-0.9,0.6-1.6,1.5-1.9,2.5c0,0.5,0.3,1.4,0,1.3c-0.8-0.1-0.3-0.8-0.3-1.3c0-0.4-0.1-0.8-0.2-1.2c-0.3-1-1-1.7-2.6-1.4
	c-0.9,0.2-1.3-0.2-1.4-1.2c-0.1-1.5-1.4-0.6-2.1-0.7s-1,0.7-0.6,1.2c1.1,1.6,0.8,3.2,0.3,4.8c-0.3,1.1,0.1,1.2,0.9,1.2
	c1.5,0.2,2.5,0,1.8-2c-0.2-0.6-0.4-1.8,0.6-1.8s0.8,1.1,0.8,1.8c0,1.9,0.9,2.6,2.5,1.6c0.6-0.4,0.8-0.7,1.5-0.1
	c1.4,1.1,2.8,0.7,4.1-0.3C274,158.6,274.1,158.1,273.2,158.4z"/>
<path class="st5" d="M274.4,155.6c-0.6-0.4-1.2-0.8-1.9-1C273.1,154.9,273.8,155.2,274.4,155.6z M326,164.7
	c-0.5,0.2-0.9,0.8-1.8,0.3c-1.7-0.9-3.3-0.5-5,0.9c0.8,0.3,1.7,0.3,1.7,1.7s-0.5,2.1-2.3,2.6c2.1,0.8,4.3,0.9,6.4,0.3
	c-1.8-1.4-1.7-3-1.1-4.6c0.6,1.4,0.4,3.2,2.4,3.5c1.3,0.2,1.6,0.3,0.8,1.5c-0.7,1,0.4,1.1,1,1c1.5-0.3,3.2-4.2,2.6-5.8
	S327.9,163.9,326,164.7L326,164.7z M302,155.6c0.3,1.9-0.3,4.8,3.2,3.3c-0.1-1-0.1-2-0.2-3s-0.8-2.3-1.8-1.9c-1.5,0.6-3-0.3-4.4,0.2
	c-1.1,1.4,0.8,3.1-0.6,4.5c-1.9-0.9-0.3-3.3-1.8-4.4c-0.2,0-0.3,0-0.4-0.2c-0.5,0-0.9,0-1.4,0c-0.3,0-0.6,0.1-0.9,0.1
	c-0.2,0-0.3,0.1-0.5,0.1c-0.3,0.1-0.6,0.2-0.9,0.4c0.6,1.5-0.2,2.7-0.8,3.9c0.2,0.2,0.5,0.4,0.8,0.5c0.2,0.1,0.4,0.2,0.7,0.3
	c0.2,0,0.4,0.1,0.5,0.1c0.3,0,0.6,0,0.9-0.1c1.4-0.3,2.8-0.5,4.2-0.3c1.7,0.1,3.4,0.6,2.6-2.2C301,156.5,300.8,155.7,302,155.6
	L302,155.6z"/>
<path class="st5" d="M293,159.4c-0.2-0.1-0.5-0.2-0.7-0.3C292.5,159.3,292.8,159.4,293,159.4z M313.4,104.4
	c-0.9,0.4-1.9,0.7-2.8,0.9c-0.2,0-0.5,0-0.7,0c-0.9-0.2-1.6-0.8-1.9-1.7c-0.5-1.1-0.8-2.3,0.3-3.2s2.2-0.4,2.9,0.8l0.6,0.8
	c0.6,0.9,1.5-0.4,2.1,0c-0.2-0.5-0.2-1-0.2-1.5c0-0.3,0-0.6,0-0.9c-0.1-0.3-0.3-0.6-0.5-0.8c-0.7-0.1-1.3-0.2-2-0.3
	c-2.1-0.8-4.5-0.2-6,1.5c-1.5,1.7-1.4,3.7-0.5,5.6c0.6,0.6,1.2,1.1,1.9,1.6c2.8,1.6,6.4,0.4,7.1-2.4c-0.1,0-0.1-0.1-0.2-0.2
	C313.4,104.6,313.4,104.5,313.4,104.4L313.4,104.4z"/>
<path class="st5" d="M313.7,99.5c-0.1-0.3-0.3-0.6-0.5-0.8C313.4,98.9,313.6,99.2,313.7,99.5z M340.3,164.3
	c-2.3,0.9-4.4-0.1-6.6-0.1c-2.6-0.1-2.8,0.9-2.1,3.1c1.1-0.5,2.6-1.5,3.4-0.5c0.7,0.9-0.8,2-1.1,3c-0.1,0.2-0.1,0.3-0.2,0.4
	c-0.2,0.6-1,1.2,0,1.6s1.5,0,1.9-0.9c0.5-1.2,0.6-2.5,1.6-3.8c0.1,0.9,0.4,1.8,1.1,2.4c1.1,1.1,2.3,1.7,3.8,0.9
	c1.4-0.7,2.1-2.3,1.6-3.8C343.2,164.9,341.8,163.7,340.3,164.3L340.3,164.3z M340.9,168.8c-1-0.2-0.8-1.1-1-1.8s0.2-1.2,0.7-1.1
	c0.8,0.3,0.8,1.2,0.9,1.9C341.4,168.3,341.5,168.9,340.9,168.8L340.9,168.8z M330.9,100.8c-0.3,1.9,0.6,3.7-0.1,5.7
	c-0.3,1,1.6,0.7,2.5,0.7c0.7,0,1.6,0,1.3-1.3s-0.9-3.4,0.5-3.4c1.8,0.1,0.8,2.2,0.7,3.5c-0.1,1.6,1.1,1.2,1.9,1.2s2.2,0.2,1.9-1.1
	c-0.2-1.2-0.3-2.5-0.4-3.7c-0.2-1.3-1.1-2.5-2.3-2c-1.6,0.6-3-0.1-4.5,0l-1,0.4C331.2,100.8,331,100.9,330.9,100.8L330.9,100.8z
	 M322.4,133.4c0.6,0.3,1.3,0.4,2,0.3c0.6-0.4,1.6-0.5,1.4-1.5s-1-0.1-1.5-0.2c-0.7-0.1-1.2-0.6-1.4-1.3c-0.1-0.4,0.1-0.9,0.5-1.1
	c0.6-0.3,0.8,0.4,1.1,0.7c1.3,1.2,1.5-0.5,2.2-0.9c1.3,1.3,0,2.7,0.1,4h2.9c0.4-1.2-0.7-3.6,0.5-3.5c1.8,0.1,0.2,2.4,0.7,3.6
	c1-0.1,2.1,0.4,3-0.5c-1-1.4-0.2-3-0.9-4.4c-0.2-0.1-0.4-0.2-0.7-0.3c-0.7-0.2-1.3-0.2-2-0.2c-0.5,0-0.9,0.1-1.4,0.2l-1.3,0.2
	c-1,0.1-1.7,0.7-2.6-0.1c-0.7-0.4-1.4-0.5-2.2-0.3l-1,0.5l-1.1,1.9l0.1,2C321.3,132.8,321.8,133.1,322.4,133.4L322.4,133.4z
	 M321.8,128.6l-1.1,1.9L321.8,128.6z"/>
<path class="st5" d="M320.7,132.5c0.5,0.3,1.1,0.7,1.6,0.9C321.8,133.1,321.3,132.8,320.7,132.5z M333,128.5
	c-0.2-0.1-0.4-0.2-0.7-0.3C332.6,128.3,332.8,128.4,333,128.5z M291.5,158.6c-1-1.2-0.1-2.7-0.7-3.9c-0.6-0.5-1.4-0.7-2.2-0.5
	c-0.6,0.7-1.2,1.1-1.9,0h-1.5c-0.6,0.7-1.2,1-1.8,0c-0.4,0.1-0.9,0.2-1.3,0.3c-0.2,0-0.4,0.1-0.6,0.2c-0.2,0.1-0.4,0.3-0.6,0.4v0.5
	c0.1,0.6,0.2,1.3,0.1,1.9c-0.1,0.7-0.2,1.3-0.5,2h6.9c0.6-1.2-0.6-2.6,0.5-3.9c1.6,1.1,0.1,2.7,0.8,3.9c0.1,0,0.3,0.1,0.4,0.1
	c0.1,0,0.3,0,0.4,0.1c0.2,0,0.3,0,0.5,0c0.2,0,0.3-0.1,0.5-0.1c0.1,0,0.2-0.1,0.3-0.1C291.1,159.2,291.3,158.9,291.5,158.6
	L291.5,158.6z"/>
<path class="st5" d="M280.8,155.1c0.2-0.2,0.3-0.3,0.6-0.4C281.2,154.8,281,154.9,280.8,155.1z M290.8,159.4
	c0.3-0.2,0.5-0.5,0.7-0.8C291.3,158.9,291.1,159.2,290.8,159.4z M286.7,154.2h-1.5H286.7z M322.2,102.3c-0.5-0.6-1.1-1-1.8-1.5
	c-0.2-0.1-0.4-0.2-0.6-0.3c-0.3-0.1-0.6-0.2-0.9-0.3c-0.3,0-0.6,0-0.9,0c-0.3,0-0.7,0.1-1,0.3c-1,0.4-2,1-2.9,1.7
	c0,0.7-0.1,1.3-0.1,2v0.5c2.1,3.3,4.6,3.6,7.7,1C322.2,104.7,322.4,103.5,322.2,102.3L322.2,102.3z M318.5,105.8
	c-1.2-0.2-0.8-1.5-1.1-2.2c0-0.6,0-1.5,0.8-1.3c1,0.3,1,1.4,1.1,2.3C319.3,105.1,319.3,105.9,318.5,105.8z"/>
<path class="st5" d="M322.2,102.3c-0.5-0.6-1.1-1-1.8-1.5C321.1,101.2,321.7,101.7,322.2,102.3z M334.3,133c1.3,0.5,2.6,1.1,3.6-0.5
	c-0.1,0-0.2-0.2-0.2-0.3c-0.7-0.9-0.2-1.8,0.2-2.7c0.1,0.8,0.1,1.6,0.2,2.4l0.4,0.6c2.6,1.6,3.6,1.4,4.8-0.7c-0.5-0.5-1.1,0-1.6-0.1
	c-0.6-0.1-1.1-0.5-1.2-1.1c-0.1-0.3,0-0.7,0.1-0.9c0.7-0.6,1,0.1,1.4,0.5c0.3,0.4,0.8,0.4,1.2,0.2c0.1-0.1,0.2-0.2,0.3-0.4
	c0.3-0.5,0.1-1.1-0.3-1.4c0,0-0.1,0-0.1-0.1c-1.1-0.9-2.7-0.8-3.7,0.1c-1.3,1.2-1.7,0.2-2.3-0.7l-1.5,0.1c-0.1,0.2-0.2,0.3-0.4,0.4
	c-0.2,0-0.4,0.1-0.5,0.1C334.9,130,335.3,131.5,334.3,133L334.3,133z"/>
<path class="st5" d="M335.3,128c-0.1,0.2-0.2,0.3-0.4,0.4C335.1,128.3,335.3,128.2,335.3,128z M286.6,106.8c0.1-1.2-0.6-1.1-1.4-0.8
	c-1.1,0.4-1.9,0.2-2.3-1.2l2.1-0.1c0.7,0,1.6,0.2,1.9-0.7c0.2-0.8-0.2-1.7-0.9-2.2c-2-1.7-3.8-1-5.5,0.4l-0.9,2.3
	c0.2,0.9,0.7,1.7,1.3,2.3c0.2,0.2,0.4,0.4,0.6,0.5c0.5,0.3,1.1,0.6,1.7,0.7c0.3,0.1,0.6,0.1,0.9,0.1l1.9-0.8L286.6,106.8z"/>
<path class="st5" d="M279.5,104.6c0.2,0.9,0.7,1.7,1.3,2.3C280.2,106.3,279.8,105.5,279.5,104.6z M326.2,100.8
	c-0.4-0.2-0.8-0.4-1.3-0.5c-0.4-0.1-0.7,0-1.1,0.1c-0.7,0.4-1.3,1-1.6,1.7c1.5,1,1.5,2.1,0.1,4.4c0.2,0.2,0.4,0.4,0.7,0.5
	c0.4,0.2,0.8,0.2,1.3,0.2h1.3c0.7,0,1.6,0.1,2-0.7s-1-0.8-0.9-1.5c-0.3-0.4-0.4-0.9-0.2-1.3c-0.1-0.7-0.1-1.1,0.9-0.7
	c2.4,1,2.7-0.3,2.3-2.3l-1.4-0.6C327.5,100.1,327.3,101.5,326.2,100.8L326.2,100.8z"/>
<path class="st5" d="M322.4,106.6c0.2,0.2,0.4,0.4,0.7,0.5C322.8,107,322.6,106.8,322.4,106.6z M314.8,168.6
	c-0.6,0.4-0.8,1.6-1.8,1.1c-0.8-0.5-0.2-1.5-0.4-2.3c0-0.9,0.1-1.7,0.5-2.5c-2.8-0.1-2.8-0.1-4.9,1c1.9,1.7,2,3,0.3,4.7
	c1.4,0.6,3,0.7,4.4,0.3c2-0.9,2.9-0.5,2.7,1.9c1-0.6,1.5-1.7,1.4-2.9C316.9,168.4,316,167.8,314.8,168.6z M273.9,167.8
	c-0.1-0.9,0.5-2.1-1.3-2s-1.3,1-1.1,2.1c0.1,0.7,0.4,1.8-0.5,1.9c-1.1,0.1-0.5-1.1-0.7-1.7s0.4-1.9-0.6-2.2l-0.3-0.1
	c-0.1,0-0.2,0-0.4-0.1c-0.8-0.1-1.6,0.3-1.9,1c1.1,0.5,0.7,1.5,0.8,2.4s0.2,2.2,1.3,2.1c1.6-0.2,3.2,0.6,4.7-0.2
	c0.2-0.1,0.1-0.6,0.1-0.9C273.9,169.3,273.9,168.6,273.9,167.8L273.9,167.8z M267,166.8L267,166.8L267,166.8z M306.2,168.6
	c0.3-1,1.9-1.7,1-3s-4.4-1.2-5.2,0.2c-0.4,0.7-0.3,1.2,0.5,1.2c0.6,0,1.3-0.9,1.7,0.1c0.3,0.8-0.5,1.3-0.9,1.9s-1.2,0.8-1.3,1.9
	c1.3-0.1,2.7-0.1,4,0.1c1.1,0.2,1.8,0.2,2.1-0.9C308.3,168.6,306.9,169,306.2,168.6L306.2,168.6z M265.9,166.4l-0.1-0.1l-0.4-0.1
	c-0.4-0.2-0.8-0.3-1.2-0.3c-0.1,0-0.3,0-0.4,0c-0.4,0-0.8,0.2-1.2,0.4c-0.5,0.3-1,0.6-0.8,1.1s0.8,0.3,1.2-0.1s1-0.8,1.3,0.1
	c0.2,0.6-0.4,0.8-0.9,0.9c-0.2,0-0.5,0.1-0.7,0.1c-0.8,0.3-1.6,0.7-1.4,1.8s1,1.2,1.9,1.2c3.6-0.1,3.6-0.1,3.5-3.9
	c0-0.4-0.1-0.6,0.3-0.7l-0.5-0.2L265.9,166.4z"/>
<path class="st5" d="M262.5,166.3c0.4-0.2,0.8-0.4,1.2-0.4C263.2,165.9,262.8,166,262.5,166.3z M267,166.8L267,166.8L267,166.8z
	 M316.6,118.4c1,1.4,2.5,0.9,3.8,0.7c0.5-0.1,1.1-0.5,0.7-1c-1-1.5-0.5-3-0.5-4.6c0-1.3-0.6-1.3-1.5-1.3l-0.5,0.1l-2.1,1
	C317.7,115,318.2,116.7,316.6,118.4L316.6,118.4z M337.7,154.5L337.7,154.5L337.7,154.5z M337.7,154.5c-3.7-1.9-5.5-1.1-5.6,2.6
	l0.4,0.8l0.1,0.2c0.7,0.6,1.6,1,2.5,1c0.9-0.3,1.7-0.8,2.2-1.7l-3.1-0.4c0.1-0.1,0.1-0.1,0.2-0.2
	C335.7,155.9,337.7,156.7,337.7,154.5L337.7,154.5z M337.7,154.5L337.7,154.5L337.7,154.5z"/>
<path class="st5" d="M332.6,158c0.7,0.6,1.6,1,2.5,1C334.2,159,333.3,158.6,332.6,158z M298.9,166.1c-0.5-0.6-1.5-0.3-1.9-1.3
	c-0.4-1.3-1.3-0.2-1.9,0s-1.7,1.1-1.2,1.5c1.2,1,0.6,2.1,0.8,3.1c0.1,0.8,0.6,1.4,1.3,1.6c0.8,0.2,1.7,0,2.3-0.6
	c0.3-0.3,0.5-0.5,0-0.9C296.6,167.9,296.7,167.4,298.9,166.1L298.9,166.1z M305.5,128.7c-1.5-0.3-3-0.7-4.4,0.7
	c0.3,0.3,0.6,0.6,0.8,1c0.1,0.2,0.2,0.5,0.2,0.8c0,0.3-0.1,0.5-0.1,0.8c0,0.1-0.1,0.3-0.2,0.4c-0.4,0.8-0.4,1.2,0.4,1.6
	c1-0.2,2.1,0.1,3.1-0.5l0.1-0.5c-0.1,0-0.2-0.2-0.2-0.3c-1-0.3-0.9-1.1-0.8-1.9s0.6-0.4,0.9-0.1l0.8,0.2l0.6-0.4
	c0.1-0.5,0.2-1,0.4-1.6c-0.3,0-0.5-0.1-0.8-0.1L305.5,128.7z M301.1,129.4L301.1,129.4L301.1,129.4z"/>
<path class="st5" d="M305.5,128.7c-1.5-0.3-3-0.7-4.4,0.7C302.5,128,304,128.3,305.5,128.7z M301.1,129.4c0.3,0.3,0.6,0.6,0.8,1
	C301.7,130,301.4,129.7,301.1,129.4z M337.7,154.5L337.7,154.5L337.7,154.5z M337.7,154.5c0.1,0.1,0.2,0.2,0.3,0.3
	c0.4,0.5,0.6,1.1,0.5,1.7c0,0.2-0.1,0.4-0.1,0.6c0,0.1-0.1,0.3-0.1,0.4c-0.1,0.4-0.4,0.9,0.1,1c1.1,0.2,2.3,0.5,3.3-0.2
	c0.5-0.3-0.2-0.6-0.4-1c-0.5-0.5-0.6-1.2-0.3-1.8c0-0.1,0.1-0.1,0.2-0.1s0.1,0.1,0.2,0.1c0.8,0.2,1.7,0.5,2.1-0.6
	c0.2-0.6-0.2-1.5-0.6-1.4c-0.2,0.1-0.4,0.1-0.6,0.1h-0.6C340.2,153.5,338.7,153,337.7,154.5L337.7,154.5z"/>
<path class="st5" d="M338,154.8c0.4,0.5,0.6,1.1,0.5,1.7C338.6,155.9,338.4,155.3,338,154.8z M337.7,154.5L337.7,154.5L337.7,154.5
	L337.7,154.5z M337.7,154.4L337.7,154.4L337.7,154.4z M331.9,158.1c-0.2-0.3-0.3-0.7-0.5-1c-0.3-1.6-0.3-3.2-0.2-4.7
	c0-0.6-0.1-1.1-0.7-1.1c-0.7,0.1-1.5,0.3-2.1,0.6c-0.7,0.3-0.2,0.7,0,1.1c0.9,1.8,0.5,3.6-0.1,5.6c1-0.2,2,0.2,2.8-0.1
	C331.4,158.5,331.6,158.4,331.9,158.1L331.9,158.1z"/>
<path class="st5" d="M331.9,158.1c-0.1,0.1-0.3,0.2-0.4,0.3C331.6,158.4,331.8,158.3,331.9,158.1z M326.2,151.4
	c-0.8-0.1-1.7,0.2-2.4,0.6c-0.7,0.5,0,0.8,0.1,1.2c0.7,1.7,0.6,3.6-0.2,5.3h3.7c-1.1-2-0.6-4-0.7-5.9
	C326.7,152.1,326.9,151.5,326.2,151.4L326.2,151.4z M280,154.8c-0.1-0.1-0.3-0.2-0.4-0.3c-0.1-0.1-0.3-0.1-0.5-0.2
	c-0.2,0-0.4,0-0.6,0c-0.4,0.5-0.8,0.9-1.2,0l-0.8-0.1l-1.1,0.3l-1,1.1c1.9,1.1,0.2,2.7,0.4,4h3.8c-0.9-1.7-2.4-3.4,0.8-3.1
	c0.3,0,0.7-0.6,1-0.9l-0.1-0.5L280,154.8z M280.4,155.1l-0.4-0.3L280.4,155.1z M264.9,133.4c0.4-1.3-0.2-2.9-0.3-4.4
	c0-0.1-0.3-0.1-0.5-0.1c-1.1,0-2.4-0.3-3.2,0.9s0.2,1.8,0.8,2.6c0.4,0,0.9,0,1,0.6c0,0.1-0.1,0.4-0.2,0.4c-0.3,0.1-0.7-0.1-0.8-0.4
	H261c-0.2,0.5,0,1,0.5,1.2c0.1,0,0.2,0.1,0.3,0.1C262.9,134.6,264.5,134.8,264.9,133.4L264.9,133.4z"/>
<path class="st3" d="M305.5,149.3c-0.6,0.2-0.6,1.2-0.1,1.8c0.3,0.3,0.8,0.4,1.1,0.1c0.1-0.1,0.1-0.1,0.2-0.2c1.1-1.8,2.3-1,3.6-0.1
	c-0.2-2.5-2.9-3.8-2.3-6.4c0.1-0.7-0.4-1.2-1-1.3c-0.1,0-0.3,0-0.4,0c-1.4,0.4-0.5,1.5-0.2,2C307.1,146.8,308.5,148.4,305.5,149.3
	L305.5,149.3z M261.1,118.9c-0.9-1.3-2-2.4-3.4-3.1c-0.7,0.7-1.8,0.2-2.2,1.1s0.5,1.5,1.2,1.9c0.5,0.4,1,0.9,1.3,1.4
	c0.6,0.9,1.3,0.3,1.9-0.1S261.6,119.7,261.1,118.9z M322.8,128.1c0.6-0.8,2.8-1.2,1.4-2.7c-1-1.1-1.6-3.7-4.5-2.6
	c2,1.3,2.9,2.8,1.8,4.9c-0.1,0.2,0.1,0.4,0.2,0.7c0,0.1,0.1,0.2,0.1,0.2L322.8,128.1z"/>
<path class="st3" d="M321.7,128.3c0,0.1,0.1,0.2,0.1,0.2C321.7,128.5,321.7,128.4,321.7,128.3z M344.8,147.8c0.2,0.8,0.5,2,1.8,1.5
	c1-0.4,0.7-1.3,0.6-2.2c-0.2-1.9-1.5-2.8-3.2-4.2C344.2,144.6,344.4,146.2,344.8,147.8L344.8,147.8z M314,115.2
	c0,1.7,0.6,2.2,2.1,2.4c0.1,0.2,0.1,0.5,0.1,0.7h0.5c1.5-1.7,1-3.4,0-5h-0.4C315.6,114.1,314,113.4,314,115.2L314,115.2z
	 M326.6,129.4c-0.7,0.4-0.8,2.1-2.2,0.9c-0.3-0.3-0.4-1-1.1-0.7c-0.4,0.2-0.6,0.6-0.5,1.1c0.2,0.7,0.7,1.2,1.4,1.3
	c0.5,0.1,1.3-0.6,1.5,0.2s-0.8,1.1-1.4,1.5c0.9,0.6,1.8,1,2.4-0.3C326.6,132.1,327.9,130.7,326.6,129.4L326.6,129.4z"/>
<path class="st5" d="M319.2,111.7c0.2-0.3,0.6-0.4,0.9-0.6s0.5-0.3,0.4-0.7c0-0.1-0.1-0.3-0.2-0.4c-0.1-0.1-0.1-0.2-0.2-0.2
	c-0.7-0.8-1.7-0.3-2.6,0c-0.5,0.2-0.9,0.6-0.8,1.1c0.3,0.8,1.2,0.7,1.9,0.9C318.8,111.7,319,111.7,319.2,111.7L319.2,111.7z"/>
<path class="st5" d="M319.2,111.7c0.2-0.3,0.6-0.4,0.9-0.6C319.8,111.3,319.3,111.4,319.2,111.7z"/>
<path class="st3" d="M274.9,159.6c-0.2-1.3,1.4-2.9-0.4-4c0.4,2.6-2,1.5-3.1,2.1c0.5,1.1,1.2,0.9,2,0.6s0.8,0.3,0.8,0.8l0.9,0.5
	L274.9,159.6z M274.9,159.6l-0.9-0.5L274.9,159.6z M274.4,155.6L274.4,155.6L274.4,155.6z"/>
<path class="st3" d="M274.4,155.6L274.4,155.6L274.4,155.6L274.4,155.6z M328.4,126.1c0.9,0.2,0.8-0.6,0.9-1.1
	c0-0.8-0.1-1.6-1.2-1.6c-0.6-0.1-1.2,0.4-1.2,1c0,0.1,0,0.1,0,0.2C326.9,125.6,327.7,126,328.4,126.1L328.4,126.1z M259.1,105.8
	c0.9,0.9,2,1.5,3.4,0.1l-4.2-2l-1,0.8C258.2,104.6,258.5,105.2,259.1,105.8z M312,146.2c0.3,0.3,0.8,0.1,1.1-0.2
	c0.9-0.9,0.4-1.7-0.1-2.4c-0.3-0.4-0.2-1-1.1-1.3c0.1,0.6,0.1,1.2,0.1,1.9C311.9,144.8,311.3,145.6,312,146.2z M340.3,137.9
	c1.1,1.1,2.7,1.5,4.2,1c0.3-0.1,0.5-0.4,0.6-0.7c0-0.2-0.1-0.5-0.4-0.5c-0.1,0-0.2,0-0.3,0C343.2,138.3,342,137.3,340.3,137.9
	L340.3,137.9z M296.4,154.3c1.5,1.1-0.1,3.5,1.8,4.4c1.4-1.4-0.5-3.1,0.6-4.5L296.4,154.3L296.4,154.3z M298.8,154.2l-2.4,0.1
	L298.8,154.2z M334.1,133h0.2c1-1.5,0.6-3,0.1-4.5l-1.4,0.1c0.7,1.4-0.1,3.1,0.9,4.4H334.1z M313,84.5c0.7-0.1,1.6-0.3,1.4-1.3
	c-0.1-0.7-0.7-0.8-1.3-0.9c-0.7,0.1-1.2,0.6-1.3,1.3C311.8,84.3,312.4,84.6,313,84.5z M300.3,150.1c0.6,0,1.2-0.1,1.1-1
	c-0.2-0.6-0.5-1.2-1.4-1.1c-0.7,0.1-1.2,0.6-1.2,1.3C298.8,150.3,299.7,150,300.3,150.1L300.3,150.1z M347.8,111.3
	c0.5,0,1-0.2,0.9-1c-0.4-0.6-1.1-0.9-1.8-0.8c-0.5,0-0.9,0.5-0.9,1c0,0,0,0,0,0C346.2,111.6,347.1,111.3,347.8,111.3L347.8,111.3z
	 M311.7,155.4c-1.3,1.2,0.2,2.6-0.6,3.8h1.2C311.7,158,313.3,156.4,311.7,155.4z M291.5,158.6L291.5,158.6c0.7-1.2,1.5-2.4,0.9-3.9
	l-1.6-0.1C291.4,155.9,290.5,157.4,291.5,158.6z M291.5,158.6L291.5,158.6L291.5,158.6z M291.5,158.6L291.5,158.6L291.5,158.6z
	 M291.5,158.7L291.5,158.7L291.5,158.7z M291.5,158.6L291.5,158.6L291.5,158.6z M284.2,168.9c0,0.4,0.2,0.9,0.7,0.9s0.5-0.5,0.7-0.9
	c0.3-1.1-0.7-2-0.4-3.1l-1.1-0.1C284.1,166.7,284.1,167.8,284.2,168.9z M312.6,149.6c-0.3,0.2-0.3,0.6-0.2,0.8c0,0,0,0,0,0.1
	c0.7,0.8,1.5,0.7,2.9,0.1C314.2,150,313.7,148.8,312.6,149.6L312.6,149.6z M287.9,155.7c-1.1,1.2,0.1,2.7-0.5,3.9h1.3
	C288,158.4,289.5,156.8,287.9,155.7z"/>
<path class="st5" d="M336.8,127.3c0.2-0.2,0.3-0.5,0.4-0.7c0.1-0.2,0-0.4-0.5-0.6c-0.8-0.4-1.7-0.1-2.2,0.7c-0.2,0.4,0,0.6,0.3,0.7
	s0.4,0.2,0.5,0.2L336.8,127.3z"/>
<path class="st5" d="M336.8,127.3c0.2-0.2,0.3-0.5,0.4-0.7C337.1,126.8,336.9,127.1,336.8,127.3z M321.7,153
	c0.2-0.2,0.3-0.4,0.4-0.6c0.3-0.5,0-0.9-0.9-1l-0.2,0.1l-0.2-0.1c-0.8,0.4-2,0.7-0.5,1.8L321.7,153L321.7,153z"/>
<path class="st5" d="M321.7,153c0.2-0.2,0.3-0.4,0.4-0.6C322,152.6,321.9,152.8,321.7,153z"/>
<path class="st3" d="M322.2,102.3c0.2,1.2,0.1,2.4-0.4,3.5l0.6,0.8C323.8,104.4,323.7,103.3,322.2,102.3z M321.8,105.8l0.6,0.8
	L321.8,105.8z M322.2,102.3L322.2,102.3L322.2,102.3z M322.2,102.3L322.2,102.3L322.2,102.3z M333.4,110c-1.3,0.1-1.1,1.2-1,2.1
	l1.9-0.2C334.1,111.2,334.7,110,333.4,110z M330.1,129.9c-1.2-0.1-0.1,2.3-0.5,3.5h1.2C330.3,132.2,331.9,130,330.1,129.9z
	 M310.9,111.5c-0.1-0.7-0.3-1.3-0.7-1.8c-0.1-0.1-0.1-0.1-0.2-0.1c-0.1,0-0.2-0.1-0.3-0.1c-0.4,0-0.9,0.1-1.2,0.3
	C309,110.6,309.9,111.2,310.9,111.5L310.9,111.5L310.9,111.5z"/>
<path class="st3" d="M310.9,111.5c-0.1-0.7-0.3-1.3-0.7-1.8C310.5,110.2,310.8,110.9,310.9,111.5z M316.1,141.6
	c0.1-0.5-0.2-0.9-0.7-1c0,0-0.1,0-0.1,0c-0.5,0-0.9,0.1-0.8,0.6s0.3,1.1,1,1.2C315.9,142.4,316.1,142,316.1,141.6z M299.3,86.5
	c0.1,0,0.2,0,0.4,0c0.4-0.1,0.6-0.4,0.6-0.8c0-0.1,0-0.2,0-0.3c-0.1-0.3-0.4-0.5-0.6-0.5c-0.5-0.1-0.9,0.3-1,0.7c0,0,0,0.1,0,0.1
	c-0.1,0.3,0.2,0.7,0.5,0.8C299.2,86.5,299.3,86.5,299.3,86.5L299.3,86.5z"/>
<path class="st3" d="M299.7,86.5c0.4-0.1,0.6-0.4,0.6-0.8c0-0.1,0-0.2,0-0.3c0,0.1,0,0.2,0,0.3C300.3,86.1,300.1,86.4,299.7,86.5z
	 M280.7,130.4c-0.7,0-0.7,0.6-0.6,1.1c0,0.8,0.2,1.6,0.2,2.4h0.8c0.1-0.8,0.2-1.6,0.2-2.4C281.4,131,281.5,130.4,280.7,130.4
	L280.7,130.4z M335.2,143.6l-0.6-2.7C333.6,141.9,333.9,142.6,335.2,143.6z M276.8,130.6c-0.9,1,0,2.2,0,3.3h0.6l0.2-1.2
	C277.9,131,277.4,130,276.8,130.6z M271.6,145.3c-0.2,0-0.3,0-0.5,0.2c0,0-0.1,0.1-0.1,0.2c0,0.1,0,0.2,0,0.2c0.1,0.5,0.4,1,1,1
	c0.3,0.1,0.5-0.1,0.6-0.4c0-0.1,0-0.2,0-0.3C272.4,145.8,272.1,145.4,271.6,145.3z"/>
<path class="st3" d="M271.2,145.5c0.1-0.1,0.3-0.2,0.5-0.2c0.5,0.2,0.8,0.5,1,1c-0.2-0.5-0.5-0.8-1-1
	C271.5,145.3,271.3,145.3,271.2,145.5z M266.3,148.3c0.1,0.1,0.2,0.1,0.3,0.1c0.2,0,0.5-0.2,0.6-0.4c0-0.1,0-0.2,0-0.2
	c0-0.5-0.2-1-0.8-1c-0.4,0-0.5,0.4-0.5,0.7c0,0.1,0,0.2,0,0.3C265.9,148.1,266.1,148.2,266.3,148.3L266.3,148.3z"/>
<path class="st3" d="M266.6,148.4c-0.1,0-0.2-0.1-0.3-0.1C266.4,148.4,266.5,148.4,266.6,148.4c0.2,0,0.5-0.2,0.6-0.4
	C267.1,148.3,266.8,148.4,266.6,148.4z M316.7,109.1c0.1,0,0.1-0.3,0.2-0.4c-0.5-0.5-1.3-0.7-2-0.5
	C315.2,109.3,315.9,109.4,316.7,109.1z M331.4,112.6c-0.9-1.7-2-0.8-3.1-0.5C329.3,112.1,330.3,113.1,331.4,112.6z M327.8,112.2
	c0.2,0,0.3,0,0.5-0.1C328.1,112.1,328,112.1,327.8,112.2z M278.2,141.3c0-0.6-0.2-0.9-0.7-1s-0.5,0.3-0.5,0.6s0.1,0.9,0.6,0.8
	C277.8,141.7,278.1,141.4,278.2,141.3z M318.7,139.1c0.1,0,0.2,0,0.2-0.1c0.2-0.2,0.2-0.4,0.2-0.7c-0.1-0.4-0.3-0.8-0.8-0.7
	c-0.3,0-0.5,0.3-0.5,0.5c0,0.1,0,0.1,0.1,0.2C318.1,138.7,318.2,139.2,318.7,139.1L318.7,139.1z M271.6,138.2
	c-0.4,0.1-0.8,0.2-0.9,0.7c0,0.1,0.3,0.3,0.5,0.3c0.4,0,0.8-0.3,0.9-0.7C272.1,138.2,271.8,138.2,271.6,138.2z M330.8,87.1
	c0.3,0.2,0.6,0.4,0.6,0.3c0.2-0.2,0.4-0.4,0.6-0.7c-0.2-0.1-0.4-0.4-0.5-0.3C331.3,86.6,331,86.8,330.8,87.1z M327.9,116.6v0.1
	c0.2,1.1,1.2,1.8,2.3,1.7c0,0,0.1,0,0.1,0l-0.4-1C329.1,117.4,328.4,117.1,327.9,116.6z M306.3,114c0.2,1,1.1,1,1.8,1.3
	c0-0.2,0-0.5,0.1-0.7C307.6,114.3,307.2,113.3,306.3,114z M339.3,145.4c-0.1,0-0.3,0.2-0.3,0.3c0.1,0.2,0.2,0.4,0.3,0.6l0.4-0.3
	C339.7,145.5,339.6,145.3,339.3,145.4z M280.5,102.3L280.5,102.3c-0.3-0.2-0.6-0.1-0.9,0.1c-0.1,0.1-0.2,0.2-0.3,0.4
	c-0.1,0.2-0.2,0.3-0.2,0.5c0.2,0.4,0.4,0.9,0.5,1.3L280.5,102.3z M279,103.3c0.2,0.4,0.4,0.9,0.5,1.3
	C279.4,104.2,279.2,103.7,279,103.3z M279.2,102.8c-0.1,0.2-0.2,0.3-0.2,0.5C279,103.1,279.1,102.9,279.2,102.8z"/>
<path class="st3" d="M280.5,102.2L280.5,102.2L280.5,102.2L280.5,102.2z M280.5,102.3L280.5,102.3
	C280.4,102.4,280.4,102.3,280.5,102.3z M315.8,144.7c0.1,0.2,0.2,0.4,0.3,0.6l0.4-0.4c0-0.4-0.2-0.6-0.5-0.5
	C316,144.4,315.8,144.6,315.8,144.7z M304.3,130.8c-0.1,0.7-0.2,1.5,0.8,1.9c0-0.6,0.1-1.3,0.1-1.9
	C304.8,130.4,304.4,130.2,304.3,130.8L304.3,130.8z M321.3,145.9c0.2,0.1,0.4-0.1,0.6-0.1c0.1-0.4-0.1-0.6-0.4-0.6
	c-0.2,0-0.3,0.1-0.4,0.2C321.1,145.5,321.2,145.8,321.3,145.9z M277.6,90.3l0.2-0.4c0-0.3-0.2-0.5-0.5-0.4c-0.1,0-0.2,0.3-0.2,0.4
	C277.3,90,277.4,90.1,277.6,90.3z M338,111.2c-0.3,0.2-0.6,0.4-0.4,0.7c0.4,0.5,0.8,0,1.2-0.1C338.8,111.3,338.4,111.3,338,111.2z
	 M341,155.5c-0.3,0.6-0.2,1.3,0.3,1.8c0-0.6,0.1-1.2,0.1-1.8c-0.1,0-0.1-0.1-0.2-0.1S341,155.4,341,155.5z M280.2,152.2
	c-0.1-0.1-0.1-0.2-0.2-0.3l-0.3,0.3c0.1,0.1,0.2,0.1,0.4,0.2S280.2,152.2,280.2,152.2L280.2,152.2z M279.7,152.1l0.3-0.3
	L279.7,152.1z M262.6,133.4c0.1,0,0.2-0.3,0.2-0.4c-0.1-0.5-0.6-0.5-1-0.6v0.6C261.9,133.3,262.3,133.5,262.6,133.4L262.6,133.4z
	 M303.9,81.6c-0.1-0.1-0.2-0.2-0.4-0.2c0,0-0.1,0.1-0.1,0.2c0.1,0.1,0.1,0.2,0.2,0.3L303.9,81.6z M303.9,81.6l-0.3,0.3L303.9,81.6z
	 M268.1,138.4c0,0.1,0.1,0.2,0.2,0.4l0.3-0.2c-0.1-0.1-0.2-0.2-0.3-0.2C268.3,138.2,268.1,138.3,268.1,138.4L268.1,138.4z
	 M268.6,138.5l-0.3,0.2L268.6,138.5z M346.6,139.6c0-0.1-0.1-0.2-0.1-0.4h-0.2c0,0.1,0,0.3,0,0.4L346.6,139.6z M346.6,139.6h-0.4
	H346.6z M342.6,147.2c-0.1-0.1-0.1-0.2-0.2-0.3l-0.3,0.3c0.1,0.1,0.2,0.1,0.4,0.2C342.5,147.3,342.6,147.2,342.6,147.2L342.6,147.2z
	 M342.1,147.1l0.3-0.3L342.1,147.1z M263,116.9l-0.3-0.3c-0.1,0.1-0.2,0.2-0.2,0.3c0,0,0.1,0.2,0.1,0.2
	C262.8,117,262.9,117,263,116.9L263,116.9z M262.8,116.6l0.3,0.3L262.8,116.6z M323.3,155.5c0.1,0.2,0.2,0.4,0.3,0.5l0.1-0.5
	l-0.2-0.4C323.4,155.3,323.3,155.4,323.3,155.5L323.3,155.5z M323.7,155.6l-0.1,0.5L323.7,155.6z M302.9,151.5
	c0.1,0.1,0.2,0.2,0.2,0.3l0.2-0.3c-0.1-0.1-0.2-0.1-0.4-0.1C303,151.4,302.8,151.5,302.9,151.5z M303.4,151.5l-0.2,0.3L303.4,151.5z
	 M348.5,127.2c0,0,0.1-0.1,0.1-0.2c-0.1-0.1-0.1-0.2-0.2-0.3l-0.3,0.3C348.3,127.1,348.4,127.1,348.5,127.2L348.5,127.2z
	 M348.4,126.7l-0.3,0.3L348.4,126.7z M349.7,106.7c-0.1-0.1-0.2-0.1-0.4-0.2c0,0-0.1,0.1-0.1,0.2c0.1,0.1,0.1,0.2,0.2,0.3
	L349.7,106.7z M349.7,106.7l-0.3,0.3L349.7,106.7z M320.7,132.5L320.7,132.5l0-2h-0.5C320.1,131.2,319.6,132,320.7,132.5
	L320.7,132.5z M320.7,132.4L320.7,132.4L320.7,132.4z M320.7,132.4L320.7,132.4L320.7,132.4z M320.7,132.4L320.7,132.4L320.7,132.4z
	 M267.2,108.6c0,0.1,0,0.3,0,0.4h0.4c0-0.1-0.1-0.3-0.1-0.4C267.5,108.6,267.2,108.6,267.2,108.6L267.2,108.6z M267.6,108.9h-0.4
	H267.6z M345.6,124.3c0,0-0.1-0.1-0.2-0.1c-0.1,0.1-0.2,0.2-0.3,0.2l0.3,0.2C345.5,124.6,345.6,124.4,345.6,124.3z M345.5,124.7
	l-0.3-0.2L345.5,124.7z M275.6,154.1c-0.1,0.1-0.1,0.3-0.2,0.5l1.1-0.3C276,153.7,275.7,153.7,275.6,154.1z M322.1,121.6
	c0.1-0.1,0.2-0.1,0.4-0.2l-0.3-0.3c-0.1,0.1-0.2,0.2-0.2,0.3C322,121.5,322.1,121.6,322.1,121.6L322.1,121.6z M322.5,121.4l-0.3-0.3
	L322.5,121.4z M328.8,109.6l-0.2,0.3c0.1,0.1,0.2,0.1,0.4,0.2c0,0,0.1-0.1,0.1-0.2C328.9,109.8,328.9,109.7,328.8,109.6L328.8,109.6
	z M328.5,109.9l0.2-0.3L328.5,109.9z M278.5,154.4c-0.4-0.7-0.8-0.7-1.2,0C277.7,155.3,278.1,154.9,278.5,154.4z M277.9,134.1
	c0.3,0.3,0.7,0.4,1.1,0.2c0.1-0.1,0.3-0.1,0.4-0.2L277.9,134.1z"/>
<path class="st3" d="M279,134.4c0.1-0.1,0.3-0.1,0.4-0.2C279.3,134.3,279.1,134.3,279,134.4z M312.7,119.5c0.3,0.3,0.7,0.4,1.1,0.2
	c0.1-0.1,0.3-0.2,0.4-0.3L312.7,119.5z M341.3,119h-1.5C340.2,119.4,340.9,119.4,341.3,119C341.3,119,341.3,119,341.3,119z
	 M268.7,158.5c0.4,0,0.1-0.9,0-1.3h-0.4C268.4,157.6,267.9,158.4,268.7,158.5L268.7,158.5z M321.7,153.5V153l-1.5,0.2l0.1,0.6
	L321.7,153.5z M321.7,153v0.5V153z M320.2,153.2l0.1,0.6L320.2,153.2z M285.2,154.2h-1.8C283.9,155.2,284.6,154.8,285.2,154.2z
	 M306.6,112.2h1.5C307.7,111.8,307.1,111.8,306.6,112.2C306.7,112.2,306.6,112.2,306.6,112.2z M332.6,158l-0.1-0.2l-0.4-0.8
	l-0.7,0.1c0.2,0.3,0.3,0.7,0.5,1L332.6,158z M336.8,127.9c0-0.2,0-0.4,0-0.6l-1.5,0.3v0.4L336.8,127.9z"/>
<path class="st3" d="M336.8,127.9l0-0.6C336.8,127.5,336.8,127.7,336.8,127.9z M335.3,127.6v0.4
	C335.3,127.9,335.3,127.7,335.3,127.6z M288.6,154.1h-1.9C287.3,155.2,288,154.8,288.6,154.1z M288.6,154.1h-1.9H288.6z
	 M326.7,105.1c-0.1-0.4-0.1-0.9-0.2-1.3C326.3,104.2,326.4,104.7,326.7,105.1z M342.9,117.2l-0.3-0.9
	C342.4,116.7,342.4,117.1,342.9,117.2z M342.9,117.2l-0.3-0.9L342.9,117.2z M315.1,157.9l-0.2-1.2
	C314.7,157.1,314.8,157.5,315.1,157.9z M315.1,157.9l-0.2-1.2L315.1,157.9z M334,135l0.2,0l-0.1-0.2L334,135L334,135z M305.7,133.1
	l-0.4-0.2l-0.1,0.5L305.7,133.1z M305.7,133.1l-0.5,0.3L305.7,133.1z M315.7,155.5l0.3,1.1C316.1,156.2,316.2,155.8,315.7,155.5z
	 M324.7,112.1h-0.5l0.2,0.1L324.7,112.1z M321.2,151.4h-0.5l0.2,0.1L321.2,151.4z M313.4,104.4c0,0.1,0,0.2,0.1,0.2
	c0,0.1,0.1,0.1,0.2,0.2h0.4v-0.5L313.4,104.4z"/>
<path class="st3" d="M313.4,104.4c0,0.1,0,0.2,0.1,0.2C313.5,104.5,313.5,104.5,313.4,104.4z M319.2,111.7c-0.2,0-0.3,0-0.5,0.1v0.4
	l0.5-0.1L319.2,111.7z M341.8,109.1h-0.5l0.2,0.1L341.8,109.1z M296.4,154.2c0-0.2-0.1-0.4-0.4-0.1
	C296.1,154.2,296.3,154.3,296.4,154.2L296.4,154.2z M296.4,154.2L296.4,154.2L296.4,154.2z M310.1,133.5c-0.1,0.2-0.3,0.5-0.4,0.7
	C310,134.1,310.2,133.8,310.1,133.5z M280.8,155.1h-0.4l0.1,0.5h0.3L280.8,155.1z M280.8,155.1L280.8,155.1z M337.7,132.1
	c0,0.2,0.1,0.3,0.2,0.3h0.5l-0.4-0.6L337.7,132.1z"/>
<path class="st4" d="M288.1,110.4l2.4-0.2c0.1-0.1,0.2-0.1,0.3-0.2c0.1,0,0.2-0.1,0.3-0.1c0.2,0,0.5,0,0.7,0.1
	c0.8,0.4,1.8,0.4,2.6,0.1c1.6-0.4,2.5,0.1,2.8,1.8l1.3,0.5c0.9-0.1,1.7,0.1,2.5,0.4c0.3,0.1,0.5,0.3,0.8,0.4
	c0.2-1.8-0.2-3.8,1.7-5.1c0.4-0.3,0.5-0.9,0.3-1.3c-0.1-0.1-0.1-0.2-0.2-0.2c-0.5-0.4-1-0.1-1.3,0.3c-0.5,0.6-0.9,1-1.5,0.1
	c-2.5,1.2-3.5,1.3-4.6-0.3c-0.2-0.2-0.3-0.5-0.5-0.8h-1.6c0,0.2,0,0.3,0,0.5c0,0.1-0.1,0.3-0.1,0.4c-0.4,0.7-1.3,0.9-2.1,1.2
	c0,0.5,0,1.1-0.6,1.2s-0.7-0.6-0.7-1.1c-1.1-0.2-2.1-0.9-2.7-1.8l-0.3-0.4l-1,1l-0.7,0.7C286,108.7,286.9,109.8,288.1,110.4z"/>
<path class="st5" d="M294.5,110.1c-0.9,0.3-1.8,0.2-2.6-0.1c-0.4,0.3-0.9,0.4-1.4,0.2l-2.4,0.2c0.9,3,2.1,6-0.2,9
	c1,0.6,2.2,0.8,3.4,0.5c1.2-0.1,3.7,0.4,1.4-2.1c-0.3-0.6-0.3-1.3,0.1-1.9c0.2-0.4,0.5-0.2,0.9-0.1c0.6,0.2,0.4,1.6,1.4,0.9
	c0.8-0.6,0.2-1.6,0.2-2.4s0.1-2.4-1.4-0.7c-0.3,0.3-0.7,0.5-1.1,0.3s-0.4-0.7-0.3-1.1s0.2-1,0.9-1.1c0.9-0.1,1.9,0.1,2.6,0.7
	c0.9,0.8,1.3,0.5,1.5-0.5C297.1,110.2,296.2,109.6,294.5,110.1L294.5,110.1z M295,130.2c-0.2-1-0.6-2-1.7-1.7
	c-2.3,0.4-4.5,0.4-6.8,0.1c-0.5,0-1,0.4-1.5,0.7c0.8,1.5-0.4,3.3,0.5,4.8l2.3-0.2c0.5-1.2-0.9-2.6,0.5-3.7c1.5,1.1,0,2.6,0.4,3.8
	c0.1-0.1,0.3,0,0.4,0.1c1.4,0,3.1,0.2,2.3-2.2c-0.2-0.6-0.3-1.6,0.5-1.6c1.1,0,0.5,1.1,0.7,1.8s-0.8,1.6,0.4,1.9
	c0.2,0.1,0.5,0.1,0.7,0.1c0.2,0,0.4,0,0.5,0c0.6-0.1,1.1-0.4,1.3-1C294.5,132.2,295.1,131.1,295,130.2L295,130.2z"/>
<path class="st5" d="M295.4,132.9L295.4,132.9C295.5,133,295.5,133,295.4,132.9L295.4,132.9z"/>
<path class="st4" d="M268.8,131c0.1,0.7-0.5,2,0.8,1.9c0.9-0.1,0.9-1.5,0.5-2.2c-1-1.8,0.4-1.7,1.3-1.9h0.5l0.5,0.2
	c0.6,0.5,0.7,1.4,0.2,2c0,0,0,0,0,0v1l0.3,1c0.2,1,0.6,0.8,1,0.1c0.7-1.3-0.2-2.6,0-3.8c-0.9-2.7,3-2.7,2.8-5.3
	c-1.1,0.5-2.6,0.3-2.9,1.4c-0.5,1.6-1.6,1.3-2.7,1.5c-1.4,0.2-3,0-3.2,2C269.2,129,268.6,130.2,268.8,131L268.8,131z"/>
<path class="st5" d="M301,129.4c-2.6-1.4-4.2-1.2-5.2,0.5c-0.6,1,0.1,2.1-0.3,3c3.2,1.5,3.9,1.4,5.2-0.7c-1-0.1-2.3,0.9-2.8-0.8
	c0.4-0.1,0.8-0.1,1.1-0.1C300.2,131.4,301.4,131.5,301,129.4L301,129.4z"/>
<path class="st5" d="M299,131.4c1.2,0,2.4,0,2-2C301.4,131.5,300.2,131.4,299,131.4z M295.5,132.9L295.5,132.9L295.5,132.9
	L295.5,132.9z M301,129.4L301,129.4L301,129.4L301,129.4z M295.5,133L295.5,133L295.5,133z"/>
<path class="st4" d="M288.6,133.9h-0.9l-2.3,0.2c-0.1,0.7,0,1.3,0.4,1.9c0.5,0.6,0.7,1.7,1.8,1.3c0.9-0.3,0.9-1.1,0.6-1.9
	s0.4-1,0.8-1.4C288.9,133.9,288.8,133.9,288.6,133.9L288.6,133.9z M278.4,128.5c0-0.7-0.1-1.5-1.1-1.5s-1.4,0.7-1.4,1.6
	C276.8,130,277.6,128.9,278.4,128.5z"/>
<path class="st5" d="M290.6,108h1.3c0.8-0.3,1.7-0.5,2.1-1.2c0.1-0.1,0.1-0.3,0.1-0.4c0-0.2,0.1-0.3,0-0.5c-0.1-0.1-0.3-0.1-0.5-0.1
	c-0.3,0-0.7,0.1-1,0.2l-0.5,0.1c-0.7,0.1-1.3-0.1-1.9-1.3h3.8c0.3-0.4,0.5-1,0.4-1.5v-0.3c0-0.2,0-0.4,0.1-0.6l-0.6-0.4
	c-0.8-0.6-1.7-1-2.6-1.1c-0.2,0-0.3,0-0.5,0c-2.1,0.2-3.6,2.1-3.4,4.2c0,0,0,0.1,0,0.1c0,0.2,0,0.4,0.1,0.7l0.3,0.4
	C288.5,107.2,289.5,107.8,290.6,108L290.6,108z M294.5,102.2l-0.6-0.4L294.5,102.2z"/>
<path class="st5" d="M294.1,106.3c0-0.2,0.1-0.3,0-0.5C294.2,106,294.2,106.1,294.1,106.3z M287.8,106.2l-0.3-0.4L287.8,106.2z"/>
<path class="st0" d="M295.5,102.4c0.7,1.1,0.3,2.3,0.2,3.4c0.2,0.3,0.3,0.6,0.5,0.8c1.1,1.6,2.1,1.6,4.6,0.3
	c0.1-0.4,0.4-0.9-0.1-1.1c-2.5-1.3-2.5-2.2-0.2-3.7c0.2-0.2,0.3-0.5,0.5-0.8c-1.4-0.2-1.9-2.4-3.1-2l-0.5,0.2
	c-0.4,0.1-0.8,0.3-1.1,0.4c-0.2,0.1-0.4,0.2-0.6,0.4c-0.7,0.5-1.1,1.2-1.2,2C294.9,102.1,295.3,102.2,295.5,102.4z"/>
<path class="st4" d="M271.3,101.8l0.3-0.4c-0.8-0.1-1.4-2.2-2.3-0.2l1.4,0.6L271.3,101.8z M271.9,101.3l0.5-0.1
	C272.2,101,272,101,271.9,101.3z"/>
<path class="st3" d="M262.5,100.4c-0.4-0.2-0.9-0.1-1.1,0.3c0,0.1-0.1,0.2-0.1,0.3c-0.1,0.5,0.3,0.7,0.7,0.8l3.1,1.1l0.8-0.1
	C265.3,101.2,263.7,101.1,262.5,100.4L262.5,100.4z M270.7,102.8c0.1,0.5,0.4,1.2,0.9,1c0.8-0.2,0.4-0.9,0.1-1.4
	c-0.1-0.2-0.2-0.4-0.3-0.7h-0.5C270.7,102.1,270.7,102.4,270.7,102.8L270.7,102.8z"/>
<path class="st4" d="M265.9,102.7l-0.8,0.1c0.2,0.3,0.4,0.8,0.8,0.8c0-0.2,0.2-0.3,0.4-0.3c0.1,0,0.2,0,0.2-0.1
	C266.5,103,266.2,102.8,265.9,102.7z"/>
<path class="st4" d="M265.9,103.6c0.2,0,0.3-0.1,0.4-0.2c0.1-0.1,0.2-0.1,0.2-0.2c-0.1,0-0.2,0-0.2,0.1
	C266.1,103.3,266,103.5,265.9,103.6z M330.9,100.8c0.2,0,0.3,0,0.4-0.2C331,100.5,330.9,100.6,330.9,100.8z M330.9,100.8
	L330.9,100.8L330.9,100.8z M330.8,100.8L330.8,100.8L330.8,100.8L330.8,100.8z"/>
<path class="st3" d="M306,117.8c0.2-0.5-0.4-0.6-0.7-0.7l-0.5,0.6C305.2,118,305.7,118.5,306,117.8z"/>
<path class="st3" d="M304.9,117.7l0.5-0.6C305.2,117.3,305,117.5,304.9,117.7z"/>
<path class="st4" d="M329.8,117.4c0.2-1,1-1.8,2-2.2c-0.4-0.4-1.2-0.3-1.5-1c0.1-0.8-0.1-1.2-0.9-0.6c-0.4,0.4-0.8,0.9-1,1.4
	c-0.1,0.3-0.2,0.5-0.3,0.8l-0.3,0.8C328.4,117.1,329.1,117.4,329.8,117.4L329.8,117.4z"/>
<path class="st3" d="M331.8,115.2c0.3,0,0.7-0.1,1-0.1c0.6,0,1.2,0,1.2-0.9c0-0.2-0.1-0.5-0.2-0.7c-0.7-0.6-1,0-1.4,0.4
	c-0.5,0.6-1.3,0.7-1.9,0.3c0,0,0,0-0.1-0.1C330.5,114.9,331.3,114.8,331.8,115.2L331.8,115.2z M272.4,128.9c0,0.7,0.1,1.3,0.2,2
	C273,130.4,273,129.5,272.4,128.9C272.4,129,272.4,129,272.4,128.9z M272.9,133l-0.3-1C272.4,132.4,272.4,132.8,272.9,133z
	 M271.6,128.8h0.2h-0.5H271.6z"/>
<path class="st4" d="M311.8,102c-0.2,0.3-0.4,0.7-0.7,0.5c-0.6-0.4,0-0.8,0.1-1.2c-0.7-1.2-1.8-1.6-2.9-0.8s-0.8,2.1-0.3,3.2
	c0.3,0.9,1,1.5,1.9,1.7c0.2,0,0.5,0,0.7,0c1-0.1,1.9-0.4,2.8-0.9l0.6-0.1c0-0.7,0.1-1.3,0.1-2h-0.1c-0.1-0.1-0.2-0.2-0.2-0.3
	C313.2,101.6,312.4,102.9,311.8,102L311.8,102z"/>
<path class="st4" d="M314.2,102.3c-0.1-0.1-0.2-0.2-0.3-0.3C313.9,102.1,314,102.2,314.2,102.3L314.2,102.3z"/>
<path class="st4" d="M314,104.3c0-0.7,0.1-1.3,0.1-2C314.1,102.9,314.1,103.6,314,104.3z M314.2,102.3L314.2,102.3L314.2,102.3z"/>
<path class="st3" d="M311.1,102.4c0.3,0.2,0.5-0.2,0.7-0.5l-0.6-0.8C311.1,101.6,310.5,102,311.1,102.4L311.1,102.4z M340.6,166
	c-0.5-0.2-0.8,0.5-0.7,1.1s0,1.6,1,1.8c0.6,0.1,0.5-0.5,0.5-0.9C341.4,167.2,341.4,166.2,340.6,166L340.6,166z M318.1,102.3
	c-0.8-0.2-0.8,0.6-0.8,1.3c0.3,0.7,0,2,1.1,2.2c0.8,0.2,0.8-0.6,0.7-1.2C319.1,103.7,319.1,102.5,318.1,102.3z"/>
<path class="st4" d="M337.8,129.4c-0.4,0.9-0.9,1.8-0.2,2.7l0.4-0.3C338,131,337.9,130.2,337.8,129.4z"/>
<path class="st3" d="M295.5,102.4c-0.1,1,0.5,2.4-1.4,2.2h-3.8c0.5,1.2,1.2,1.4,1.9,1.3l0.5-0.1c0.3-0.1,0.7-0.2,1-0.2
	c0.2,0,0.3,0,0.5,0.1h1.6C295.8,104.6,296.2,103.5,295.5,102.4L295.5,102.4z"/>
<path class="st3" d="M294.2,105.8c-0.1-0.1-0.3-0.1-0.5-0.1C293.9,105.7,294,105.7,294.2,105.8z M291.3,109.1c0.7,0,0.6-0.6,0.6-1.2
	h-1.3C290.6,108.5,290.6,109.1,291.3,109.1L291.3,109.1z M291.9,110c-0.2-0.1-0.5-0.1-0.7-0.1c-0.1,0-0.2,0-0.3,0.1
	c-0.1,0-0.2,0.1-0.3,0.2C291,110.4,291.5,110.3,291.9,110z"/>
<path class="st3" d="M290.9,110c-0.1,0-0.2,0.1-0.3,0.2C290.6,110.1,290.7,110,290.9,110z M288.2,130.1c-1.3,1.2,0,2.6-0.5,3.7h0.9
	C288.2,132.7,289.7,131.3,288.2,130.1L288.2,130.1z"/>
<path class="st4" d="M294.1,104.6c1.9,0.1,1.3-1.3,1.4-2.2c-0.3-0.3-0.7-0.3-1-0.2c0,0,0,0.1,0,0.1c-0.1,0.2-0.1,0.4-0.1,0.6v0.3
	C294.6,103.7,294.5,104.2,294.1,104.6z M294.5,102.3L294.5,102.3L294.5,102.3z M294.5,102.3L294.5,102.3L294.5,102.3z"/>
<path class="st4" d="M294.5,102.3C294.6,102.2,294.6,102.2,294.5,102.3C294.6,102.2,294.6,102.2,294.5,102.3z M294.6,102.2
	L294.6,102.2C294.6,102.2,294.6,102.2,294.6,102.2z"/>
<path class="st3" d="M13,194.5c0,0,6.4,13.2,36.6,6c1.8-4.4-0.3-11.2-0.3-11.2L24.2,184l-10.8,6L13,194.5z M83.1,193.6
	c0,0,35,27,53.2-2.4c2.1-17.5-0.1-19.6-1.9-19.6s-36.1,2-36.1,2L83.1,193.6z M163.3,191.6c0,0,6.1,22.1,38.7,21.6
	s37.2-23.4,37.2-23.4l2.3-8.7l-37.3-8.7l-25.6,0.5l-14.7,12.9L163.3,191.6z M263.2,185.5c0,0,8.4,25.5,45.7,27.7
	s38.4-32.8,38.4-32.8l0.5-10.1l3.1-38l1.6-49.6l-17.2-3l-25.1-0.1l-56.9,18.5L263.2,185.5z M440.2,189.7c0,0-36,54.5-71.9-6.7
	c12.2-20.2,17.9-23.3,17.9-23.3l36.8,10.2l15.9,8.3L440.2,189.7z M465.5,187.1c0,0,11.3,27.6,25.6,16.1s12.8-20.6,12.8-20.6
	l-5.3-3.3l-29.2-0.7L465.5,187.1z"/>
<path class="st0" d="M501.3,63.5v-5.5V63.5L501.3,63.5z M498.2,64.1l1.6-0.3c-1.1,0.2-2.1,0.4-3.2,0.6L498.2,64.1z M501.3,57.9
	L501,58L501.3,57.9z"/>
<path class="st6" d="M493.7,65.1c1-0.2,1.9-0.4,2.9-0.6l-0.6,0.1C495.2,64.7,494.4,64.9,493.7,65.1L493.7,65.1z M499.8,63.8l1.5-0.3
	L499.8,63.8z"/>
<polygon class="st3" points="306.7,80.3 298.3,80.8 281.7,84.8 269.9,89.3 259.2,94.1 264.6,98 296.5,92.3 304.4,84.6 "/>
<polygon class="st3" points="353,83.5 352.2,108.8 351.7,120.5 350.4,141.3 347.2,98.4 "/>
<polygon class="st3" points="265.4,180.4 262,181.9 257.4,163.8 253.3,127.8 252.8,100.7 260.4,98.9 "/>
</svg>
